%TF.GenerationSoftware,KiCad,Pcbnew,8.0.5*%
%TF.CreationDate,2024-09-20T18:28:29+02:00*%
%TF.ProjectId,Arrowhead,4172726f-7768-4656-9164-2e6b69636164,rev?*%
%TF.SameCoordinates,Original*%
%TF.FileFunction,Legend,Bot*%
%TF.FilePolarity,Positive*%
%FSLAX46Y46*%
G04 Gerber Fmt 4.6, Leading zero omitted, Abs format (unit mm)*
G04 Created by KiCad (PCBNEW 8.0.5) date 2024-09-20 18:28:29*
%MOMM*%
%LPD*%
G01*
G04 APERTURE LIST*
%ADD10C,0.200000*%
%ADD11C,0.150000*%
%ADD12C,0.125000*%
%ADD13C,0.124000*%
%ADD14C,0.375000*%
%ADD15C,0.120000*%
%ADD16C,0.000000*%
G04 APERTURE END LIST*
D10*
X158883161Y-103187500D02*
X160354419Y-104658758D01*
X158666950Y-103097942D02*
X157476322Y-103097942D01*
D11*
X173831250Y-92868750D02*
X173831250Y-106362500D01*
D10*
X157043900Y-103403711D02*
X157260111Y-103187500D01*
D12*
X180675000Y-105568750D02*
X181275000Y-105568750D01*
D11*
X188118750Y-92868750D02*
X188118750Y-104775000D01*
D10*
X160635052Y-104775000D02*
G75*
G02*
X160354426Y-104658751I148J397200D01*
G01*
D11*
X173831250Y-106362500D02*
X184150000Y-106362500D01*
D10*
X160635052Y-104775000D02*
X167977447Y-104775000D01*
X167977447Y-104775000D02*
G75*
G02*
X168374300Y-105171876I153J-396700D01*
G01*
X168374323Y-105171876D02*
X168375178Y-106291013D01*
D12*
X180975000Y-105868750D02*
X180675000Y-105568750D01*
D10*
X157260111Y-103187500D02*
G75*
G02*
X157476322Y-103097967I216089J-216000D01*
G01*
D11*
X188118750Y-92868750D02*
X173831250Y-92868750D01*
D13*
X181275000Y-105568750D02*
X180975000Y-105868750D01*
D10*
X158666950Y-103097942D02*
G75*
G02*
X158883155Y-103187506I-50J-305858D01*
G01*
D11*
G36*
X201211025Y-105334839D02*
G01*
X201262316Y-105349799D01*
X201311470Y-105371475D01*
X201353907Y-105396510D01*
X201388760Y-105423130D01*
X201433897Y-105468562D01*
X201462631Y-105506412D01*
X201493736Y-105559542D01*
X201512887Y-105603721D01*
X201530983Y-105663956D01*
X201539749Y-105712392D01*
X201543806Y-105775697D01*
X201542521Y-105814268D01*
X201534335Y-105876514D01*
X201516939Y-105938424D01*
X201509860Y-105956189D01*
X201480575Y-106013257D01*
X201444277Y-106062377D01*
X201438536Y-106068698D01*
X201391980Y-106110326D01*
X201339253Y-106141756D01*
X201277810Y-106162593D01*
X201213162Y-106169539D01*
X201194369Y-106169218D01*
X201132257Y-106162822D01*
X201113443Y-106158529D01*
X201056542Y-106134429D01*
X201022156Y-106112014D01*
X200975026Y-106073063D01*
X200963896Y-106062783D01*
X200918338Y-106017859D01*
X200873970Y-105970786D01*
X200886488Y-105952773D01*
X200905722Y-105935371D01*
X200937406Y-105960710D01*
X200989680Y-105998264D01*
X200998439Y-106003821D01*
X201054405Y-106033374D01*
X201108749Y-106048944D01*
X201160650Y-106052302D01*
X201206312Y-106047818D01*
X201265980Y-106025130D01*
X201304281Y-105997640D01*
X201345969Y-105952163D01*
X201373527Y-105906363D01*
X201396650Y-105846833D01*
X201397721Y-105843068D01*
X201410487Y-105781120D01*
X201414968Y-105720132D01*
X200963119Y-105720132D01*
X200909996Y-105695403D01*
X200868780Y-105664567D01*
X200868929Y-105653513D01*
X200872966Y-105611139D01*
X201009830Y-105611139D01*
X201016242Y-105635563D01*
X201042498Y-105641974D01*
X201409778Y-105641974D01*
X201403160Y-105607338D01*
X201382911Y-105547025D01*
X201371196Y-105523752D01*
X201334673Y-105472836D01*
X201319790Y-105458143D01*
X201268728Y-105424598D01*
X201247049Y-105416334D01*
X201186601Y-105407501D01*
X201153769Y-105409767D01*
X201096231Y-105430704D01*
X201083727Y-105439645D01*
X201042192Y-105486575D01*
X201037513Y-105494770D01*
X201016242Y-105553742D01*
X201009830Y-105611139D01*
X200872966Y-105611139D01*
X200874886Y-105590989D01*
X200877833Y-105574098D01*
X200895036Y-105514968D01*
X200901575Y-105498729D01*
X200931367Y-105443832D01*
X200941615Y-105429415D01*
X200986322Y-105384603D01*
X201005591Y-105371171D01*
X201062953Y-105344303D01*
X201100441Y-105334617D01*
X201162482Y-105329344D01*
X201211025Y-105334839D01*
G37*
G36*
X200752459Y-106150000D02*
G01*
X200752459Y-106113058D01*
X200692346Y-106101246D01*
X200690788Y-106100846D01*
X200651404Y-106087718D01*
X200630338Y-106074590D01*
X200623621Y-106060851D01*
X200623621Y-105039000D01*
X200628811Y-104979160D01*
X200647740Y-104946798D01*
X200684682Y-104932449D01*
X200743911Y-104924206D01*
X200743911Y-104890012D01*
X200681229Y-104876433D01*
X200630643Y-104863450D01*
X200572018Y-104842907D01*
X200525619Y-104821318D01*
X200494783Y-104850322D01*
X200494783Y-106060851D01*
X200465779Y-106087412D01*
X200406143Y-106105437D01*
X200366250Y-106113058D01*
X200366250Y-106150000D01*
X200752459Y-106150000D01*
G37*
G36*
X200282903Y-106150000D02*
G01*
X200282903Y-106113058D01*
X200221961Y-106096433D01*
X200194670Y-106087718D01*
X200162918Y-106060851D01*
X200162918Y-105039000D01*
X200167498Y-104978244D01*
X200185511Y-104946188D01*
X200222452Y-104931838D01*
X200282903Y-104924206D01*
X200282903Y-104890012D01*
X200220661Y-104876002D01*
X200166887Y-104861924D01*
X200106813Y-104841262D01*
X200065832Y-104821318D01*
X200034080Y-104850322D01*
X200034080Y-105690212D01*
X199769382Y-105460624D01*
X199735188Y-105420935D01*
X199737325Y-105398342D01*
X199764802Y-105388267D01*
X199806324Y-105385519D01*
X199806324Y-105348883D01*
X199480870Y-105348883D01*
X199480870Y-105385519D01*
X199542446Y-105397207D01*
X199550479Y-105399563D01*
X199604897Y-105428137D01*
X199618257Y-105438337D01*
X199911043Y-105670978D01*
X199588337Y-106046807D01*
X199563607Y-106069705D01*
X199535214Y-106083749D01*
X199500409Y-106089855D01*
X199456140Y-106089549D01*
X199450950Y-106126186D01*
X199500409Y-106136261D01*
X199545900Y-106143588D01*
X199583757Y-106148473D01*
X199608792Y-106150000D01*
X199667105Y-106139924D01*
X199707711Y-106104815D01*
X200034080Y-105696929D01*
X200034080Y-106059630D01*
X200031027Y-106071842D01*
X200018510Y-106082833D01*
X199990116Y-106095350D01*
X199939436Y-106112752D01*
X199939436Y-106150000D01*
X200282903Y-106150000D01*
G37*
G36*
X199395690Y-106150000D02*
G01*
X199395690Y-106113363D01*
X199336131Y-106098215D01*
X199306542Y-106087107D01*
X199275401Y-106061156D01*
X199275401Y-105577250D01*
X199276705Y-105515531D01*
X199277233Y-105506725D01*
X199290361Y-105464898D01*
X199325776Y-105443222D01*
X199387346Y-105432751D01*
X199395690Y-105431926D01*
X199395690Y-105397732D01*
X199339515Y-105385519D01*
X199280591Y-105369338D01*
X199224720Y-105350104D01*
X199175872Y-105329344D01*
X199146563Y-105329344D01*
X199146563Y-106061156D01*
X199117864Y-106086191D01*
X199059103Y-106106276D01*
X199026578Y-106113363D01*
X199026578Y-106150000D01*
X199395690Y-106150000D01*
G37*
G36*
X199120917Y-105077163D02*
G01*
X199128855Y-105121737D01*
X199149921Y-105158374D01*
X199181062Y-105183408D01*
X199220446Y-105192568D01*
X199276011Y-105171502D01*
X199292803Y-105111662D01*
X199285170Y-105067088D01*
X199263494Y-105030451D01*
X199232353Y-105006027D01*
X199193885Y-104997173D01*
X199136950Y-105019748D01*
X199120917Y-105077163D01*
G37*
G36*
X198406812Y-106150000D02*
G01*
X198406812Y-106113668D01*
X198347521Y-106096817D01*
X198315832Y-106085580D01*
X198286523Y-106061767D01*
X198286523Y-105613581D01*
X198289409Y-105551872D01*
X198292629Y-105529928D01*
X198311557Y-105478942D01*
X198345446Y-105453297D01*
X198396432Y-105446580D01*
X198455661Y-105459403D01*
X198509685Y-105488465D01*
X198525881Y-105500008D01*
X198573870Y-105541654D01*
X198604038Y-105573281D01*
X198644796Y-105623885D01*
X198680710Y-105676554D01*
X198685860Y-105684717D01*
X198685860Y-106061767D01*
X198653803Y-106088328D01*
X198595138Y-106106850D01*
X198565570Y-106113668D01*
X198565570Y-106150000D01*
X198934682Y-106150000D01*
X198934682Y-106113974D01*
X198873741Y-106097230D01*
X198846449Y-106088328D01*
X198814698Y-106062988D01*
X198814698Y-105554658D01*
X198817140Y-105502756D01*
X198831184Y-105472531D01*
X198866905Y-105456655D01*
X198929301Y-105447192D01*
X198934682Y-105446580D01*
X198934682Y-105407501D01*
X198875137Y-105393563D01*
X198826605Y-105376971D01*
X198768047Y-105350460D01*
X198728602Y-105329344D01*
X198698682Y-105359263D01*
X198689218Y-105572060D01*
X198652049Y-105521068D01*
X198608706Y-105472887D01*
X198605870Y-105470088D01*
X198560151Y-105428644D01*
X198513974Y-105394068D01*
X198459943Y-105361999D01*
X198424214Y-105346135D01*
X198364852Y-105330393D01*
X198347583Y-105329344D01*
X198285039Y-105337992D01*
X198276448Y-105340640D01*
X198222385Y-105369224D01*
X198215692Y-105374834D01*
X198177691Y-105424489D01*
X198173560Y-105433147D01*
X198158677Y-105493311D01*
X198157684Y-105516495D01*
X198157684Y-106061156D01*
X198131428Y-106084665D01*
X198072235Y-106104181D01*
X198037395Y-106113363D01*
X198037395Y-106150000D01*
X198406812Y-106150000D01*
G37*
G36*
X197600669Y-105332165D02*
G01*
X197661566Y-105346441D01*
X197701139Y-105362250D01*
X197754989Y-105393152D01*
X197788954Y-105419128D01*
X197834063Y-105463982D01*
X197863123Y-105501299D01*
X197894818Y-105553742D01*
X197914887Y-105597536D01*
X197934508Y-105656934D01*
X197944108Y-105704777D01*
X197948551Y-105767149D01*
X197947339Y-105804469D01*
X197939618Y-105865592D01*
X197923211Y-105927739D01*
X197916542Y-105945890D01*
X197887942Y-106004385D01*
X197851160Y-106055050D01*
X197839114Y-106068049D01*
X197792373Y-106107912D01*
X197738503Y-106139009D01*
X197717602Y-106147804D01*
X197654958Y-106164500D01*
X197591346Y-106169539D01*
X197552477Y-106167221D01*
X197489986Y-106153053D01*
X197451203Y-106137491D01*
X197397784Y-106106952D01*
X197363769Y-106080778D01*
X197318405Y-106035816D01*
X197288661Y-105998408D01*
X197256428Y-105946362D01*
X197236092Y-105902835D01*
X197216128Y-105843780D01*
X197206110Y-105795703D01*
X197203373Y-105758295D01*
X197334586Y-105758295D01*
X197334707Y-105772475D01*
X197338463Y-105835169D01*
X197348325Y-105895987D01*
X197363151Y-105946293D01*
X197390457Y-106001011D01*
X197413898Y-106030736D01*
X197462508Y-106067873D01*
X197504040Y-106083943D01*
X197567227Y-106091381D01*
X197592421Y-106088668D01*
X197650575Y-106063599D01*
X197687432Y-106035223D01*
X197730870Y-105987578D01*
X197733129Y-105984567D01*
X197766025Y-105932255D01*
X197791320Y-105876142D01*
X197794241Y-105868178D01*
X197810140Y-105806774D01*
X197815439Y-105742419D01*
X197815428Y-105737983D01*
X197812462Y-105673802D01*
X197803532Y-105610223D01*
X197790042Y-105559683D01*
X197764453Y-105503977D01*
X197741627Y-105473022D01*
X197692707Y-105433452D01*
X197646357Y-105414825D01*
X197582798Y-105407501D01*
X197552501Y-105410856D01*
X197494260Y-105435894D01*
X197457069Y-105464595D01*
X197414576Y-105512831D01*
X197382442Y-105564885D01*
X197356873Y-105624572D01*
X197354174Y-105632536D01*
X197339483Y-105693940D01*
X197334586Y-105758295D01*
X197203373Y-105758295D01*
X197201474Y-105732344D01*
X197202686Y-105695143D01*
X197210407Y-105634156D01*
X197226814Y-105572060D01*
X197233488Y-105553904D01*
X197262180Y-105495317D01*
X197299171Y-105444443D01*
X197311144Y-105431301D01*
X197357710Y-105391088D01*
X197411523Y-105359874D01*
X197432400Y-105351079D01*
X197494744Y-105334382D01*
X197557763Y-105329344D01*
X197600669Y-105332165D01*
G37*
G36*
X196436383Y-104896423D02*
G01*
X196448900Y-104915657D01*
X196478515Y-104943135D01*
X196514235Y-104970612D01*
X196545376Y-104989541D01*
X196587203Y-104958400D01*
X196627503Y-104936418D01*
X196663529Y-104923290D01*
X196691311Y-104919016D01*
X196739244Y-104934281D01*
X196781018Y-104979928D01*
X196786566Y-104989541D01*
X196809832Y-105046897D01*
X196822897Y-105097923D01*
X196832386Y-105160136D01*
X196836636Y-105222774D01*
X196837552Y-105274084D01*
X196837552Y-105348883D01*
X196615901Y-105348883D01*
X196590867Y-105372697D01*
X196610406Y-105397426D01*
X196633609Y-105422156D01*
X196656507Y-105443832D01*
X196675130Y-105456960D01*
X196731917Y-105436810D01*
X196794077Y-105428195D01*
X196837552Y-105427041D01*
X196837552Y-106061767D01*
X196828698Y-106072147D01*
X196798168Y-106083138D01*
X196742602Y-106095961D01*
X196682324Y-106108154D01*
X196658033Y-106112752D01*
X196658033Y-106150000D01*
X197086374Y-106150000D01*
X197086374Y-106112752D01*
X197026157Y-106098811D01*
X196996615Y-106087412D01*
X196966085Y-106061767D01*
X196966085Y-105427041D01*
X197081184Y-105427041D01*
X197099197Y-105404143D01*
X197032336Y-105348883D01*
X196966085Y-105348883D01*
X196966085Y-105322627D01*
X196964461Y-105257359D01*
X196958987Y-105194798D01*
X196952346Y-105153794D01*
X196937319Y-105094157D01*
X196915099Y-105038084D01*
X196882851Y-104985014D01*
X196860755Y-104959010D01*
X196814413Y-104915294D01*
X196795420Y-104899476D01*
X196744740Y-104866503D01*
X196690396Y-104841774D01*
X196638799Y-104826509D01*
X196597889Y-104821318D01*
X196542934Y-104830783D01*
X196491032Y-104852154D01*
X196451953Y-104876884D01*
X196436383Y-104896423D01*
G37*
G36*
X196542934Y-106150000D02*
G01*
X196542934Y-106113058D01*
X196482820Y-106101246D01*
X196481263Y-106100846D01*
X196441878Y-106087718D01*
X196420812Y-106074590D01*
X196414096Y-106060851D01*
X196414096Y-105039000D01*
X196419286Y-104979160D01*
X196438215Y-104946798D01*
X196475157Y-104932449D01*
X196534385Y-104924206D01*
X196534385Y-104890012D01*
X196471703Y-104876433D01*
X196421118Y-104863450D01*
X196362492Y-104842907D01*
X196316093Y-104821318D01*
X196285258Y-104850322D01*
X196285258Y-106060851D01*
X196256254Y-106087412D01*
X196196617Y-106105437D01*
X196156725Y-106113058D01*
X196156725Y-106150000D01*
X196542934Y-106150000D01*
G37*
G36*
X195704124Y-105332165D02*
G01*
X195765020Y-105346441D01*
X195804594Y-105362250D01*
X195858443Y-105393152D01*
X195892408Y-105419128D01*
X195937517Y-105463982D01*
X195966577Y-105501299D01*
X195998272Y-105553742D01*
X196018341Y-105597536D01*
X196037962Y-105656934D01*
X196047562Y-105704777D01*
X196052006Y-105767149D01*
X196050793Y-105804469D01*
X196043072Y-105865592D01*
X196026666Y-105927739D01*
X196019997Y-105945890D01*
X195991396Y-106004385D01*
X195954614Y-106055050D01*
X195942569Y-106068049D01*
X195895828Y-106107912D01*
X195841957Y-106139009D01*
X195821057Y-106147804D01*
X195758412Y-106164500D01*
X195694801Y-106169539D01*
X195655932Y-106167221D01*
X195593440Y-106153053D01*
X195554657Y-106137491D01*
X195501238Y-106106952D01*
X195467223Y-106080778D01*
X195421859Y-106035816D01*
X195392115Y-105998408D01*
X195359883Y-105946362D01*
X195339547Y-105902835D01*
X195319583Y-105843780D01*
X195309565Y-105795703D01*
X195306827Y-105758295D01*
X195438040Y-105758295D01*
X195438161Y-105772475D01*
X195441918Y-105835169D01*
X195451779Y-105895987D01*
X195466605Y-105946293D01*
X195493911Y-106001011D01*
X195517352Y-106030736D01*
X195565963Y-106067873D01*
X195607495Y-106083943D01*
X195670682Y-106091381D01*
X195695875Y-106088668D01*
X195754030Y-106063599D01*
X195790887Y-106035223D01*
X195834324Y-105987578D01*
X195836583Y-105984567D01*
X195869480Y-105932255D01*
X195894774Y-105876142D01*
X195897695Y-105868178D01*
X195913594Y-105806774D01*
X195918893Y-105742419D01*
X195918882Y-105737983D01*
X195915917Y-105673802D01*
X195906987Y-105610223D01*
X195893496Y-105559683D01*
X195867908Y-105503977D01*
X195845082Y-105473022D01*
X195796161Y-105433452D01*
X195749811Y-105414825D01*
X195686252Y-105407501D01*
X195655955Y-105410856D01*
X195597714Y-105435894D01*
X195560523Y-105464595D01*
X195518030Y-105512831D01*
X195485897Y-105564885D01*
X195460327Y-105624572D01*
X195457629Y-105632536D01*
X195442937Y-105693940D01*
X195438040Y-105758295D01*
X195306827Y-105758295D01*
X195304928Y-105732344D01*
X195306141Y-105695143D01*
X195313861Y-105634156D01*
X195330268Y-105572060D01*
X195336942Y-105553904D01*
X195365634Y-105495317D01*
X195402625Y-105444443D01*
X195414599Y-105431301D01*
X195461165Y-105391088D01*
X195514977Y-105359874D01*
X195535855Y-105351079D01*
X195598199Y-105334382D01*
X195661217Y-105329344D01*
X195704124Y-105332165D01*
G37*
G36*
X195037787Y-105354378D02*
G01*
X195086941Y-105374834D01*
X195138538Y-105392541D01*
X195194103Y-105407501D01*
X195194103Y-105446580D01*
X195191544Y-105446698D01*
X195129378Y-105453907D01*
X195093353Y-105471615D01*
X195077477Y-105503977D01*
X195074118Y-105555573D01*
X195074118Y-106471789D01*
X195105870Y-106498351D01*
X195133161Y-106507682D01*
X195194103Y-106523996D01*
X195194103Y-106560327D01*
X194799956Y-106560327D01*
X194799956Y-106522775D01*
X194853809Y-106513172D01*
X194913224Y-106496214D01*
X194945280Y-106468431D01*
X194945280Y-106054134D01*
X194926139Y-106070960D01*
X194875814Y-106108778D01*
X194820717Y-106139924D01*
X194767606Y-106160169D01*
X194706533Y-106169539D01*
X194682979Y-106168017D01*
X194624101Y-106150305D01*
X194596690Y-106135668D01*
X194547165Y-106098709D01*
X194518355Y-106070302D01*
X194479692Y-106022077D01*
X194456049Y-105985303D01*
X194426570Y-105928654D01*
X194409826Y-105888116D01*
X194391154Y-105827599D01*
X194383341Y-105789059D01*
X194382906Y-105783635D01*
X194494347Y-105783635D01*
X194497503Y-105838357D01*
X194510833Y-105899956D01*
X194522139Y-105929669D01*
X194555408Y-105983914D01*
X194570272Y-105999828D01*
X194622880Y-106035205D01*
X194645441Y-106043470D01*
X194708365Y-106052302D01*
X194757213Y-106048333D01*
X194811863Y-106033984D01*
X194817281Y-106031971D01*
X194873534Y-106005591D01*
X194892540Y-105994514D01*
X194945280Y-105959185D01*
X194945280Y-105631899D01*
X194912506Y-105589165D01*
X194871397Y-105543667D01*
X194851470Y-105524561D01*
X194803620Y-105486270D01*
X194801642Y-105484927D01*
X194747138Y-105455739D01*
X194706533Y-105446580D01*
X194683566Y-105448609D01*
X194626849Y-105472226D01*
X194599100Y-105494064D01*
X194558766Y-105543056D01*
X194532434Y-105592439D01*
X194512055Y-105650218D01*
X194509910Y-105657966D01*
X194498238Y-105718587D01*
X194494347Y-105783635D01*
X194382906Y-105783635D01*
X194378332Y-105726543D01*
X194379296Y-105686963D01*
X194385435Y-105623257D01*
X194398482Y-105560153D01*
X194402402Y-105546498D01*
X194424458Y-105488028D01*
X194454963Y-105434979D01*
X194489115Y-105394715D01*
X194540753Y-105356516D01*
X194585933Y-105337941D01*
X194648831Y-105329344D01*
X194707754Y-105341250D01*
X194727275Y-105348938D01*
X194781332Y-105377581D01*
X194813987Y-105399593D01*
X194864070Y-105439558D01*
X194907346Y-105480545D01*
X194950471Y-105528401D01*
X194958103Y-105359263D01*
X194988328Y-105329344D01*
X195037787Y-105354378D01*
G37*
G36*
X312408656Y-39495500D02*
G01*
X312408656Y-39442377D01*
X312337294Y-39432903D01*
X312279036Y-39422190D01*
X312208807Y-39402965D01*
X312196519Y-39398462D01*
X312152604Y-39375088D01*
X312139500Y-39352422D01*
X312139500Y-38554163D01*
X312142688Y-38492187D01*
X312157562Y-38456063D01*
X312180582Y-38446147D01*
X312228392Y-38443314D01*
X312300170Y-38449311D01*
X312305952Y-38450042D01*
X312379269Y-38462171D01*
X312418572Y-38470229D01*
X312439467Y-38419231D01*
X312371344Y-38397348D01*
X312340304Y-38386295D01*
X312271800Y-38359938D01*
X312224497Y-38340609D01*
X312156807Y-38311295D01*
X312112939Y-38291382D01*
X312047186Y-38259548D01*
X312027234Y-38248884D01*
X311990402Y-38283945D01*
X311990402Y-39352422D01*
X311979423Y-39374025D01*
X311940467Y-39397399D01*
X311870266Y-39419977D01*
X311864324Y-39421482D01*
X311793438Y-39435288D01*
X311741079Y-39442377D01*
X311741079Y-39495500D01*
X312408656Y-39495500D01*
G37*
G36*
X310744495Y-38331756D02*
G01*
X310773187Y-38398996D01*
X310802155Y-38466582D01*
X310831401Y-38534515D01*
X310837283Y-38548143D01*
X310866258Y-38615853D01*
X310894750Y-38683080D01*
X310922757Y-38749823D01*
X310928300Y-38763113D01*
X310955657Y-38828742D01*
X310985030Y-38899655D01*
X311013651Y-38969229D01*
X311040897Y-39036510D01*
X311068903Y-39106756D01*
X311088731Y-39157284D01*
X311115590Y-39226537D01*
X311142163Y-39295757D01*
X311151062Y-39319132D01*
X311176029Y-39387217D01*
X311195685Y-39444856D01*
X311257026Y-39481900D01*
X311268994Y-39487708D01*
X311335891Y-39512350D01*
X311357178Y-39518165D01*
X311397906Y-39485583D01*
X311360809Y-39420394D01*
X311325441Y-39356527D01*
X311291802Y-39293981D01*
X311255474Y-39224119D01*
X311242433Y-39198366D01*
X311208700Y-39130369D01*
X311176206Y-39063434D01*
X311144952Y-38997562D01*
X311114938Y-38932752D01*
X311082345Y-38860803D01*
X311050705Y-38789582D01*
X311020017Y-38719089D01*
X311003380Y-38680241D01*
X310973530Y-38610350D01*
X310943343Y-38540122D01*
X310912820Y-38469557D01*
X310895718Y-38430210D01*
X311347970Y-38430210D01*
X311377011Y-38431272D01*
X311406051Y-38444376D01*
X311438279Y-38486874D01*
X311468816Y-38553686D01*
X311476527Y-38574350D01*
X311522213Y-38556642D01*
X311514422Y-38498915D01*
X311503443Y-38426668D01*
X311491778Y-38355618D01*
X311491402Y-38353359D01*
X311479715Y-38294215D01*
X310777431Y-38294215D01*
X310744495Y-38331756D01*
G37*
G36*
X309841407Y-39087162D02*
G01*
X309846491Y-39160420D01*
X309861743Y-39230832D01*
X309867968Y-39250426D01*
X309897829Y-39319501D01*
X309938273Y-39380639D01*
X309944465Y-39388191D01*
X309996748Y-39438679D01*
X310059302Y-39478583D01*
X310068419Y-39483104D01*
X310136670Y-39507072D01*
X310206845Y-39517309D01*
X310235578Y-39518165D01*
X310310618Y-39513080D01*
X310384956Y-39497825D01*
X310419029Y-39487354D01*
X310486479Y-39457622D01*
X310547345Y-39418730D01*
X310596459Y-39378629D01*
X310561398Y-39312049D01*
X310499173Y-39352417D01*
X310465423Y-39371192D01*
X310399079Y-39401136D01*
X310385031Y-39406253D01*
X310317387Y-39423252D01*
X310257536Y-39427502D01*
X310186738Y-39418513D01*
X310144915Y-39402003D01*
X310086069Y-39359075D01*
X310064523Y-39334360D01*
X310028229Y-39270234D01*
X310016712Y-39237323D01*
X310003017Y-39167765D01*
X310000775Y-39124702D01*
X310006042Y-39050534D01*
X310017421Y-38998270D01*
X310046124Y-38930442D01*
X310067002Y-38900878D01*
X310121313Y-38853902D01*
X310151644Y-38838193D01*
X310223028Y-38818715D01*
X310272764Y-38815527D01*
X310320575Y-38820486D01*
X310376531Y-38835360D01*
X310435320Y-38860151D01*
X310490568Y-38895212D01*
X310537670Y-38862275D01*
X310525778Y-38791545D01*
X310523858Y-38780112D01*
X310511441Y-38707533D01*
X310507213Y-38682012D01*
X310495526Y-38609912D01*
X310490214Y-38576475D01*
X310479364Y-38503477D01*
X310474985Y-38471292D01*
X310465901Y-38400400D01*
X310462944Y-38374254D01*
X310456436Y-38302903D01*
X310455861Y-38294215D01*
X310021670Y-38294215D01*
X309971027Y-38294215D01*
X309933132Y-38294215D01*
X309901259Y-38271550D01*
X309872218Y-38302715D01*
X309897717Y-38338484D01*
X309927112Y-38374608D01*
X309956506Y-38406128D01*
X309982714Y-38430210D01*
X310368385Y-38430210D01*
X310374807Y-38501078D01*
X310375114Y-38503874D01*
X310383942Y-38574894D01*
X310386801Y-38595245D01*
X310397628Y-38667703D01*
X310400259Y-38683429D01*
X310410884Y-38746468D01*
X310340261Y-38733567D01*
X310317387Y-38730885D01*
X310244876Y-38725452D01*
X310212913Y-38724864D01*
X310137718Y-38730626D01*
X310066329Y-38749588D01*
X310053190Y-38754967D01*
X309989443Y-38789763D01*
X309937028Y-38834652D01*
X309893655Y-38892106D01*
X309865844Y-38950105D01*
X309846776Y-39021417D01*
X309841407Y-39087162D01*
G37*
D14*
G36*
X189396248Y-81939936D02*
G01*
X189513484Y-82033725D01*
X190280651Y-84359405D01*
X190383966Y-84448798D01*
X190460197Y-84469989D01*
X190605983Y-84500089D01*
X190605983Y-84588750D01*
X189748690Y-84588750D01*
X189748690Y-84497891D01*
X189845390Y-84484983D01*
X189994154Y-84449531D01*
X190049842Y-84355009D01*
X189820498Y-83650857D01*
X188980058Y-83650857D01*
X188744852Y-84355009D01*
X188784419Y-84456126D01*
X188857208Y-84479627D01*
X189006436Y-84497891D01*
X189006436Y-84588750D01*
X188137420Y-84588750D01*
X188137420Y-84500089D01*
X188250993Y-84479573D01*
X188328662Y-84450997D01*
X188378488Y-84411429D01*
X188407064Y-84359405D01*
X188718428Y-83463278D01*
X189043805Y-83463278D01*
X189758948Y-83463278D01*
X189406506Y-82404486D01*
X189043805Y-83463278D01*
X188718428Y-83463278D01*
X189272417Y-81868861D01*
X189396248Y-81939936D01*
G37*
G36*
X186518823Y-82693181D02*
G01*
X186501970Y-82764255D01*
X186518090Y-82899810D01*
X186553803Y-83044072D01*
X186558390Y-83059545D01*
X186607483Y-83197298D01*
X186696143Y-83197298D01*
X186731314Y-83057347D01*
X186784070Y-82965756D01*
X186850016Y-82915930D01*
X186924754Y-82900543D01*
X187031000Y-82938645D01*
X187140234Y-83038422D01*
X187156297Y-83058080D01*
X187239649Y-83184394D01*
X187283059Y-83266174D01*
X187342226Y-83404843D01*
X187388889Y-83545713D01*
X187395166Y-83567326D01*
X187395166Y-84374793D01*
X187318230Y-84438540D01*
X187175634Y-84478039D01*
X187046387Y-84500089D01*
X187046387Y-84588750D01*
X187992340Y-84588750D01*
X187992340Y-84500822D01*
X187846080Y-84462640D01*
X187780581Y-84440006D01*
X187704377Y-84375525D01*
X187704377Y-83181178D01*
X187708774Y-83067605D01*
X187719032Y-82992867D01*
X187734419Y-82947438D01*
X187751272Y-82921059D01*
X187783512Y-82897612D01*
X187828941Y-82882225D01*
X187896352Y-82872699D01*
X187992340Y-82865372D01*
X187992340Y-82783306D01*
X187843344Y-82743507D01*
X187730023Y-82712232D01*
X187585924Y-82662105D01*
X187497748Y-82619175D01*
X187425941Y-82690983D01*
X187398830Y-83156998D01*
X187325786Y-83021672D01*
X187278662Y-82945972D01*
X187189284Y-82827502D01*
X187139444Y-82774514D01*
X187024314Y-82682739D01*
X186984105Y-82660208D01*
X186841447Y-82620177D01*
X186814112Y-82619175D01*
X186671963Y-82635295D01*
X186533117Y-82685575D01*
X186518823Y-82693181D01*
G37*
G36*
X184856994Y-82693181D02*
G01*
X184840142Y-82764255D01*
X184856262Y-82899810D01*
X184891974Y-83044072D01*
X184896562Y-83059545D01*
X184945655Y-83197298D01*
X185034315Y-83197298D01*
X185069486Y-83057347D01*
X185122242Y-82965756D01*
X185188188Y-82915930D01*
X185262926Y-82900543D01*
X185369172Y-82938645D01*
X185478405Y-83038422D01*
X185494468Y-83058080D01*
X185577821Y-83184394D01*
X185621230Y-83266174D01*
X185680398Y-83404843D01*
X185727061Y-83545713D01*
X185733338Y-83567326D01*
X185733338Y-84374793D01*
X185656401Y-84438540D01*
X185513805Y-84478039D01*
X185384559Y-84500089D01*
X185384559Y-84588750D01*
X186330511Y-84588750D01*
X186330511Y-84500822D01*
X186184252Y-84462640D01*
X186118753Y-84440006D01*
X186042549Y-84375525D01*
X186042549Y-83181178D01*
X186046946Y-83067605D01*
X186057204Y-82992867D01*
X186072591Y-82947438D01*
X186089444Y-82921059D01*
X186121684Y-82897612D01*
X186167113Y-82882225D01*
X186234524Y-82872699D01*
X186330511Y-82865372D01*
X186330511Y-82783306D01*
X186181516Y-82743507D01*
X186068195Y-82712232D01*
X185924095Y-82662105D01*
X185835920Y-82619175D01*
X185764112Y-82690983D01*
X185737001Y-83156998D01*
X185663957Y-83021672D01*
X185616834Y-82945972D01*
X185527455Y-82827502D01*
X185477615Y-82774514D01*
X185362485Y-82682739D01*
X185322277Y-82660208D01*
X185179618Y-82620177D01*
X185152284Y-82619175D01*
X185010135Y-82635295D01*
X184871289Y-82685575D01*
X184856994Y-82693181D01*
G37*
G36*
X183782475Y-82625947D02*
G01*
X183928627Y-82660208D01*
X184023603Y-82698152D01*
X184152842Y-82772315D01*
X184234358Y-82834659D01*
X184342619Y-82942308D01*
X184412363Y-83031867D01*
X184488432Y-83157731D01*
X184536597Y-83262837D01*
X184583687Y-83405393D01*
X184606727Y-83520217D01*
X184617392Y-83669908D01*
X184614482Y-83759477D01*
X184595952Y-83906171D01*
X184556576Y-84055323D01*
X184540570Y-84098886D01*
X184471928Y-84239275D01*
X184383652Y-84360871D01*
X184354743Y-84392069D01*
X184242564Y-84487739D01*
X184113275Y-84562371D01*
X184063114Y-84583480D01*
X183912768Y-84623551D01*
X183760100Y-84635644D01*
X183666814Y-84630080D01*
X183516834Y-84596077D01*
X183423756Y-84558728D01*
X183295550Y-84485435D01*
X183213914Y-84422617D01*
X183105040Y-84314709D01*
X183033654Y-84224930D01*
X182956297Y-84100020D01*
X182907490Y-83995554D01*
X182859576Y-83853823D01*
X182835534Y-83738438D01*
X182828963Y-83648659D01*
X183143875Y-83648659D01*
X183144165Y-83682690D01*
X183153181Y-83833157D01*
X183176848Y-83979119D01*
X183212431Y-84099854D01*
X183277964Y-84231178D01*
X183334224Y-84302516D01*
X183450888Y-84391646D01*
X183550565Y-84430214D01*
X183702214Y-84448066D01*
X183762679Y-84441554D01*
X183902249Y-84381387D01*
X183990706Y-84313287D01*
X184094957Y-84198938D01*
X184100378Y-84191712D01*
X184179329Y-84066163D01*
X184240037Y-83931492D01*
X184247047Y-83912378D01*
X184285203Y-83765009D01*
X184297922Y-83610557D01*
X184297895Y-83599910D01*
X184290778Y-83445876D01*
X184269346Y-83293285D01*
X184236969Y-83171990D01*
X184175557Y-83038296D01*
X184120774Y-82964004D01*
X184003366Y-82869036D01*
X183892125Y-82824331D01*
X183739583Y-82806754D01*
X183666870Y-82814806D01*
X183527092Y-82874897D01*
X183437834Y-82943780D01*
X183335850Y-83059545D01*
X183258730Y-83184475D01*
X183197364Y-83327724D01*
X183190887Y-83346838D01*
X183155628Y-83494206D01*
X183143875Y-83648659D01*
X182828963Y-83648659D01*
X182824405Y-83586377D01*
X182827316Y-83497093D01*
X182845846Y-83350725D01*
X182885222Y-83201694D01*
X182901239Y-83158120D01*
X182970101Y-83017510D01*
X183058879Y-82895414D01*
X183087615Y-82863872D01*
X183199373Y-82767361D01*
X183328523Y-82692448D01*
X183378629Y-82671339D01*
X183528255Y-82631268D01*
X183679500Y-82619175D01*
X183782475Y-82625947D01*
G37*
G36*
X179735222Y-82753997D02*
G01*
X179836338Y-82781841D01*
X179895689Y-82808952D01*
X179926464Y-82839726D01*
X179941119Y-82881492D01*
X180396876Y-84453195D01*
X180445236Y-84530131D01*
X180524370Y-84583620D01*
X180610100Y-84617326D01*
X180678976Y-84635644D01*
X181169904Y-83244925D01*
X181591956Y-84453195D01*
X181643247Y-84532329D01*
X181717985Y-84585819D01*
X181799318Y-84618059D01*
X181865996Y-84635644D01*
X182406017Y-82881492D01*
X182520211Y-82786913D01*
X182630965Y-82753997D01*
X182630965Y-82666070D01*
X181835222Y-82666070D01*
X181835222Y-82753997D01*
X181981185Y-82775599D01*
X181992026Y-82778177D01*
X182072626Y-82808952D01*
X182098271Y-82844856D01*
X182093142Y-82881492D01*
X181705529Y-84184283D01*
X181198481Y-82666070D01*
X181056331Y-82666070D01*
X180520707Y-84184283D01*
X180163868Y-82881492D01*
X180207099Y-82806021D01*
X180354669Y-82762747D01*
X180404936Y-82753997D01*
X180404936Y-82666070D01*
X179735222Y-82666070D01*
X179735222Y-82753997D01*
G37*
G36*
X178328383Y-84588750D02*
G01*
X178328383Y-84501555D01*
X178186085Y-84461112D01*
X178110030Y-84434144D01*
X178039688Y-84376991D01*
X178039688Y-83301345D01*
X178046961Y-83153243D01*
X178055075Y-83100578D01*
X178103435Y-82978212D01*
X178186234Y-82916663D01*
X178303470Y-82900543D01*
X178449143Y-82932743D01*
X178459541Y-82937179D01*
X178588273Y-83011506D01*
X178633198Y-83044890D01*
X178747630Y-83147759D01*
X178817113Y-83222943D01*
X178908521Y-83338715D01*
X178992552Y-83463221D01*
X178998097Y-83472071D01*
X178998097Y-84376991D01*
X178921160Y-84440738D01*
X178780364Y-84485191D01*
X178709402Y-84501555D01*
X178709402Y-84588750D01*
X179595271Y-84588750D01*
X179595271Y-84500089D01*
X179449011Y-84459618D01*
X179383512Y-84437807D01*
X179307308Y-84374793D01*
X179307308Y-81918687D01*
X179314636Y-81783865D01*
X179351272Y-81709126D01*
X179439200Y-81671024D01*
X179589129Y-81647622D01*
X179595271Y-81646844D01*
X179595271Y-81564779D01*
X179451196Y-81534835D01*
X179437734Y-81531806D01*
X179306576Y-81495902D01*
X179190072Y-81453404D01*
X179074301Y-81399915D01*
X178998097Y-81469524D01*
X178998097Y-83181911D01*
X178904674Y-83058080D01*
X178801726Y-82947438D01*
X178686297Y-82845573D01*
X178584105Y-82770117D01*
X178455655Y-82695247D01*
X178370149Y-82658010D01*
X178227679Y-82621602D01*
X178186234Y-82619175D01*
X178036127Y-82639932D01*
X178015508Y-82646286D01*
X177885758Y-82714888D01*
X177869695Y-82728352D01*
X177778493Y-82847523D01*
X177768578Y-82868303D01*
X177732858Y-83012696D01*
X177730477Y-83068338D01*
X177730477Y-84375525D01*
X177667462Y-84431946D01*
X177525398Y-84478784D01*
X177441782Y-84500822D01*
X177441782Y-84588750D01*
X178328383Y-84588750D01*
G37*
G36*
X176429883Y-82632364D02*
G01*
X176552982Y-82668268D01*
X176670951Y-82720292D01*
X176772800Y-82780375D01*
X176856446Y-82844263D01*
X176964775Y-82953299D01*
X177033738Y-83044141D01*
X177108390Y-83171653D01*
X177154352Y-83277681D01*
X177197783Y-83422246D01*
X177218820Y-83538492D01*
X177228558Y-83690424D01*
X177225472Y-83782994D01*
X177205826Y-83932384D01*
X177164077Y-84080969D01*
X177147087Y-84123604D01*
X177076803Y-84260567D01*
X176989688Y-84378456D01*
X176975909Y-84393626D01*
X176864175Y-84493532D01*
X176737629Y-84568966D01*
X176590168Y-84618975D01*
X176435013Y-84635644D01*
X176389907Y-84634873D01*
X176240839Y-84619524D01*
X176195685Y-84609220D01*
X176059123Y-84551380D01*
X175976596Y-84497585D01*
X175863484Y-84404102D01*
X175836774Y-84379430D01*
X175727434Y-84271613D01*
X175620951Y-84158638D01*
X175650993Y-84115407D01*
X175697155Y-84073641D01*
X175773198Y-84134454D01*
X175898655Y-84224583D01*
X175919675Y-84237921D01*
X176053994Y-84308847D01*
X176184419Y-84346216D01*
X176308983Y-84354276D01*
X176418573Y-84343514D01*
X176561775Y-84289064D01*
X176653698Y-84223086D01*
X176753749Y-84113941D01*
X176819888Y-84004021D01*
X176875382Y-83861150D01*
X176877954Y-83852113D01*
X176908591Y-83703438D01*
X176919346Y-83557068D01*
X175834908Y-83557068D01*
X175707413Y-83497717D01*
X175608495Y-83423711D01*
X175608852Y-83397182D01*
X175618541Y-83295484D01*
X175947015Y-83295484D01*
X175962403Y-83354102D01*
X176025417Y-83369489D01*
X176906890Y-83369489D01*
X176891006Y-83286362D01*
X176842410Y-83141611D01*
X176814293Y-83085757D01*
X176726638Y-82963558D01*
X176690918Y-82928295D01*
X176568369Y-82847786D01*
X176516340Y-82827951D01*
X176371265Y-82806754D01*
X176292468Y-82812192D01*
X176154377Y-82862441D01*
X176124367Y-82883899D01*
X176024685Y-82996530D01*
X176013453Y-83016200D01*
X175962403Y-83157731D01*
X175947015Y-83295484D01*
X175618541Y-83295484D01*
X175623149Y-83247124D01*
X175630222Y-83206587D01*
X175671509Y-83064674D01*
X175687202Y-83025700D01*
X175758704Y-82893948D01*
X175783298Y-82859347D01*
X175890595Y-82751799D01*
X175936841Y-82719560D01*
X176074510Y-82655079D01*
X176164481Y-82631833D01*
X176313380Y-82619175D01*
X176429883Y-82632364D01*
G37*
G36*
X174455762Y-82627869D02*
G01*
X174600993Y-82658743D01*
X174728290Y-82701794D01*
X174864775Y-82764988D01*
X174968579Y-82828801D01*
X175086792Y-82926921D01*
X175152325Y-82998946D01*
X175230407Y-83124025D01*
X175201830Y-83204625D01*
X175118299Y-83200229D01*
X174998865Y-83171653D01*
X174894084Y-83129887D01*
X174851586Y-83087389D01*
X174831070Y-82975281D01*
X174757064Y-82887354D01*
X174645689Y-82829468D01*
X174515264Y-82806754D01*
X174496607Y-82806573D01*
X174347469Y-82828736D01*
X174241956Y-82896147D01*
X174186269Y-83000927D01*
X174169416Y-83131352D01*
X174169416Y-83421513D01*
X174255360Y-83434530D01*
X174410401Y-83461183D01*
X174562891Y-83493320D01*
X174681587Y-83523813D01*
X174823742Y-83570990D01*
X174861318Y-83586506D01*
X174990805Y-83656719D01*
X175102912Y-83749775D01*
X175152791Y-83805542D01*
X175234070Y-83930759D01*
X175272989Y-84040261D01*
X175288292Y-84191611D01*
X175285728Y-84249130D01*
X175247260Y-84395309D01*
X175236658Y-84415894D01*
X175143212Y-84533062D01*
X175135275Y-84539634D01*
X175001795Y-84610731D01*
X174996900Y-84612264D01*
X174849388Y-84635644D01*
X174704308Y-84615128D01*
X174674074Y-84606661D01*
X174536513Y-84552113D01*
X174480742Y-84523119D01*
X174355529Y-84442204D01*
X174279920Y-84383442D01*
X174169416Y-84283202D01*
X174160451Y-84396855D01*
X174120323Y-84541855D01*
X174006750Y-84635644D01*
X173974281Y-84632072D01*
X173834559Y-84578491D01*
X173797354Y-84558703D01*
X173667920Y-84478943D01*
X173545131Y-84393111D01*
X173575906Y-84298589D01*
X173703401Y-84344018D01*
X173777406Y-84354276D01*
X173837490Y-84318373D01*
X173860204Y-84196740D01*
X173860204Y-84092692D01*
X174169416Y-84092692D01*
X174208342Y-84125448D01*
X174331057Y-84216246D01*
X174465438Y-84291262D01*
X174575539Y-84332061D01*
X174727755Y-84354276D01*
X174792968Y-84344018D01*
X174866241Y-84303718D01*
X174925592Y-84222385D01*
X174950504Y-84088296D01*
X174949989Y-84064517D01*
X174917532Y-83920501D01*
X174915451Y-83916074D01*
X174831070Y-83793739D01*
X174754866Y-83727793D01*
X174639828Y-83669175D01*
X174601085Y-83655299D01*
X174455180Y-83614221D01*
X174318330Y-83585002D01*
X174169416Y-83558533D01*
X174169416Y-84092692D01*
X173860204Y-84092692D01*
X173860204Y-83058812D01*
X173862128Y-83008403D01*
X173894946Y-82864339D01*
X173983303Y-82735679D01*
X174032848Y-82696086D01*
X174176903Y-82635559D01*
X174332082Y-82619175D01*
X174455762Y-82627869D01*
G37*
G36*
X171846311Y-81430750D02*
G01*
X171988816Y-81472455D01*
X171997185Y-81474776D01*
X172140433Y-81507817D01*
X172290700Y-81531806D01*
X172290700Y-81610941D01*
X172270667Y-81612628D01*
X172122172Y-81632923D01*
X172033512Y-81682015D01*
X171999074Y-81783132D01*
X171996833Y-81809459D01*
X171992479Y-81960452D01*
X171992479Y-82726886D01*
X172060586Y-82689019D01*
X172199842Y-82638959D01*
X172241621Y-82631250D01*
X172392549Y-82619175D01*
X172515267Y-82627730D01*
X172664391Y-82663872D01*
X172772163Y-82709432D01*
X172899597Y-82786970D01*
X172989276Y-82860480D01*
X173093038Y-82969419D01*
X173163643Y-83062845D01*
X173239583Y-83189971D01*
X173283332Y-83285486D01*
X173331174Y-83430306D01*
X173350374Y-83522046D01*
X173362682Y-83669908D01*
X173358652Y-83780184D01*
X173337494Y-83934606D01*
X173298202Y-84075840D01*
X173285652Y-84108885D01*
X173218573Y-84250497D01*
X173131140Y-84379189D01*
X173030783Y-84482723D01*
X172906925Y-84569699D01*
X172816627Y-84609884D01*
X172670253Y-84635644D01*
X172618733Y-84633858D01*
X172474615Y-84607068D01*
X172435320Y-84593444D01*
X172302424Y-84526468D01*
X172257022Y-84494995D01*
X172144154Y-84398240D01*
X172085799Y-84338958D01*
X171988083Y-84228247D01*
X171987139Y-84242087D01*
X171969791Y-84398689D01*
X171930197Y-84544053D01*
X171819555Y-84635644D01*
X171751412Y-84622455D01*
X171657622Y-84581422D01*
X171529395Y-84509615D01*
X171486498Y-84483320D01*
X171361600Y-84401904D01*
X171388711Y-84313976D01*
X171418387Y-84325116D01*
X171564566Y-84370396D01*
X171635641Y-84357207D01*
X171656157Y-84320571D01*
X171670812Y-84263418D01*
X171680337Y-84176956D01*
X171683268Y-84053858D01*
X171683268Y-83054416D01*
X171992479Y-83054416D01*
X171992479Y-84022350D01*
X172012436Y-84041549D01*
X172121440Y-84143983D01*
X172133542Y-84155002D01*
X172251865Y-84250229D01*
X172255989Y-84253098D01*
X172385955Y-84325700D01*
X172523708Y-84354276D01*
X172561314Y-84351682D01*
X172702493Y-84300054D01*
X172770671Y-84252347D01*
X172874685Y-84143983D01*
X172941542Y-84039849D01*
X173002912Y-83899252D01*
X173011947Y-83872047D01*
X173043793Y-83727716D01*
X173053470Y-83580515D01*
X173053084Y-83544545D01*
X173041063Y-83388268D01*
X173009507Y-83241994D01*
X172967507Y-83132572D01*
X172885675Y-83000927D01*
X172822100Y-82934741D01*
X172697364Y-82855114D01*
X172604909Y-82823803D01*
X172456297Y-82806754D01*
X172322484Y-82821083D01*
X172184454Y-82871967D01*
X172086761Y-82938625D01*
X171992479Y-83054416D01*
X171683268Y-83054416D01*
X171683268Y-81461464D01*
X171747015Y-81399915D01*
X171846311Y-81430750D01*
G37*
D11*
G36*
X181626822Y-76508395D02*
G01*
X181633517Y-76569596D01*
X181643172Y-76631095D01*
X181644530Y-76638149D01*
X181657346Y-76700121D01*
X181661932Y-76718750D01*
X182402904Y-76718750D01*
X182402904Y-76682113D01*
X182342590Y-76667220D01*
X182311618Y-76656162D01*
X182278645Y-76629906D01*
X182278645Y-75733535D01*
X182310091Y-75708195D01*
X182370629Y-75687705D01*
X182402904Y-75680717D01*
X182402904Y-75644081D01*
X181710781Y-75644081D01*
X181682693Y-75665758D01*
X181687883Y-75715217D01*
X181696431Y-75768645D01*
X181707117Y-75819325D01*
X181717803Y-75859625D01*
X181756576Y-75859625D01*
X181762853Y-75798773D01*
X181763903Y-75793680D01*
X181777947Y-75751243D01*
X181799013Y-75728955D01*
X181826796Y-75722239D01*
X182141259Y-75722239D01*
X182141259Y-76093488D01*
X181793212Y-76093488D01*
X181770925Y-76119439D01*
X181788022Y-76147527D01*
X181808478Y-76176225D01*
X181829849Y-76200955D01*
X181849999Y-76218968D01*
X181878087Y-76197596D01*
X181912281Y-76182942D01*
X181957771Y-76174393D01*
X182020053Y-76171646D01*
X182141259Y-76171646D01*
X182141259Y-76587164D01*
X182135152Y-76609451D01*
X182110118Y-76625937D01*
X182056995Y-76636928D01*
X181992881Y-76640363D01*
X181966014Y-76640592D01*
X181855189Y-76640592D01*
X181793334Y-76637081D01*
X181788022Y-76636318D01*
X181738563Y-76617083D01*
X181699484Y-76572814D01*
X181672751Y-76516829D01*
X181663764Y-76492825D01*
X181626822Y-76508395D01*
G37*
G36*
X181534620Y-76718750D02*
G01*
X181534620Y-76682113D01*
X181473709Y-76670822D01*
X181440892Y-76658299D01*
X181410362Y-76629906D01*
X181410362Y-75738725D01*
X181462087Y-75702528D01*
X181469896Y-75699036D01*
X181530468Y-75681397D01*
X181534620Y-75680717D01*
X181534620Y-75644081D01*
X181352965Y-75644081D01*
X181331899Y-75646218D01*
X181315107Y-75655072D01*
X181296789Y-75674917D01*
X181270227Y-75710332D01*
X180706027Y-76478781D01*
X180706027Y-75733230D01*
X180734114Y-75706363D01*
X180795186Y-75686291D01*
X180830590Y-75680412D01*
X180830590Y-75644081D01*
X180478575Y-75644081D01*
X180478575Y-75680412D01*
X180541155Y-75693254D01*
X180571693Y-75705142D01*
X180603139Y-75733230D01*
X180603139Y-76738289D01*
X180663914Y-76724064D01*
X180670306Y-76721192D01*
X180705111Y-76694936D01*
X181307169Y-75870616D01*
X181307169Y-76629906D01*
X181278471Y-76656468D01*
X181217344Y-76676258D01*
X181182605Y-76682113D01*
X181182605Y-76718750D01*
X181534620Y-76718750D01*
G37*
G36*
X179567855Y-76536789D02*
G01*
X179611750Y-76580993D01*
X179660519Y-76624110D01*
X179673185Y-76634180D01*
X179725436Y-76671135D01*
X179769966Y-76696157D01*
X179827759Y-76719389D01*
X179861862Y-76728519D01*
X179923703Y-76737335D01*
X179951621Y-76738289D01*
X180016109Y-76732343D01*
X180079589Y-76714506D01*
X180108547Y-76702263D01*
X180163831Y-76670779D01*
X180214736Y-76630364D01*
X180246239Y-76598460D01*
X180285267Y-76548082D01*
X180318811Y-76490560D01*
X180344547Y-76432069D01*
X180364189Y-76368093D01*
X180375647Y-76306180D01*
X180381212Y-76240162D01*
X180381794Y-76209503D01*
X180379199Y-76142432D01*
X180371414Y-76078604D01*
X180358438Y-76018021D01*
X180340273Y-75960681D01*
X180314427Y-75900410D01*
X180283944Y-75845308D01*
X180244637Y-75790145D01*
X180227311Y-75769866D01*
X180180424Y-75723993D01*
X180129065Y-75685216D01*
X180073234Y-75653535D01*
X180061531Y-75648050D01*
X180001466Y-75625349D01*
X179939195Y-75611056D01*
X179874717Y-75605170D01*
X179861557Y-75605002D01*
X179800454Y-75607455D01*
X179735218Y-75616680D01*
X179698830Y-75625763D01*
X179638786Y-75647019D01*
X179584036Y-75676138D01*
X179586784Y-75692319D01*
X179607850Y-75721017D01*
X179636243Y-75753685D01*
X179661278Y-75780246D01*
X179691503Y-75775056D01*
X179742543Y-75736373D01*
X179795306Y-75709111D01*
X179855650Y-75690484D01*
X179919112Y-75683388D01*
X179933609Y-75683160D01*
X179995552Y-75693475D01*
X179997722Y-75694151D01*
X180054388Y-75720476D01*
X180067637Y-75728955D01*
X180114758Y-75768350D01*
X180135414Y-75790932D01*
X180171624Y-75841955D01*
X180193422Y-75883439D01*
X180216167Y-75942134D01*
X180232777Y-76005062D01*
X180233722Y-76009529D01*
X180243408Y-76070901D01*
X180247966Y-76133455D01*
X180248682Y-76172561D01*
X180246074Y-76235893D01*
X180237058Y-76300937D01*
X180221602Y-76360376D01*
X180215709Y-76377115D01*
X180190804Y-76434066D01*
X180158532Y-76488212D01*
X180130835Y-76523355D01*
X180086502Y-76565998D01*
X180034476Y-76601327D01*
X180014819Y-76611283D01*
X179955451Y-76632320D01*
X179893751Y-76640563D01*
X179889950Y-76640592D01*
X179828759Y-76630545D01*
X179768745Y-76608840D01*
X179709897Y-76578372D01*
X179656660Y-76542815D01*
X179605484Y-76502911D01*
X179599606Y-76498015D01*
X179590753Y-76505342D01*
X179581594Y-76516944D01*
X179573961Y-76528545D01*
X179567855Y-76536789D01*
G37*
G36*
X49677406Y-39495500D02*
G01*
X49677406Y-39442377D01*
X49606044Y-39432903D01*
X49547786Y-39422190D01*
X49477557Y-39402965D01*
X49465269Y-39398462D01*
X49421354Y-39375088D01*
X49408250Y-39352422D01*
X49408250Y-38554163D01*
X49411438Y-38492187D01*
X49426312Y-38456063D01*
X49449332Y-38446147D01*
X49497142Y-38443314D01*
X49568920Y-38449311D01*
X49574702Y-38450042D01*
X49648019Y-38462171D01*
X49687322Y-38470229D01*
X49708217Y-38419231D01*
X49640094Y-38397348D01*
X49609054Y-38386295D01*
X49540550Y-38359938D01*
X49493247Y-38340609D01*
X49425557Y-38311295D01*
X49381689Y-38291382D01*
X49315936Y-38259548D01*
X49295984Y-38248884D01*
X49259152Y-38283945D01*
X49259152Y-39352422D01*
X49248173Y-39374025D01*
X49209217Y-39397399D01*
X49139016Y-39419977D01*
X49133074Y-39421482D01*
X49062188Y-39435288D01*
X49009829Y-39442377D01*
X49009829Y-39495500D01*
X49677406Y-39495500D01*
G37*
G36*
X48062118Y-39087162D02*
G01*
X48067202Y-39160420D01*
X48082454Y-39230832D01*
X48088679Y-39250426D01*
X48118540Y-39319501D01*
X48158984Y-39380639D01*
X48165176Y-39388191D01*
X48217459Y-39438679D01*
X48280013Y-39478583D01*
X48289129Y-39483104D01*
X48357381Y-39507072D01*
X48427556Y-39517309D01*
X48456289Y-39518165D01*
X48531329Y-39513080D01*
X48605667Y-39497825D01*
X48639740Y-39487354D01*
X48707189Y-39457622D01*
X48768056Y-39418730D01*
X48817170Y-39378629D01*
X48782109Y-39312049D01*
X48719884Y-39352417D01*
X48686134Y-39371192D01*
X48619790Y-39401136D01*
X48605741Y-39406253D01*
X48538098Y-39423252D01*
X48478247Y-39427502D01*
X48407449Y-39418513D01*
X48365626Y-39402003D01*
X48306780Y-39359075D01*
X48285234Y-39334360D01*
X48248940Y-39270234D01*
X48237423Y-39237323D01*
X48223728Y-39167765D01*
X48221486Y-39124702D01*
X48226753Y-39050534D01*
X48238132Y-38998270D01*
X48266834Y-38930442D01*
X48287713Y-38900878D01*
X48342024Y-38853902D01*
X48372355Y-38838193D01*
X48443739Y-38818715D01*
X48493475Y-38815527D01*
X48541286Y-38820486D01*
X48597242Y-38835360D01*
X48656031Y-38860151D01*
X48711279Y-38895212D01*
X48758381Y-38862275D01*
X48746489Y-38791545D01*
X48744569Y-38780112D01*
X48732152Y-38707533D01*
X48727924Y-38682012D01*
X48716237Y-38609912D01*
X48710925Y-38576475D01*
X48700075Y-38503477D01*
X48695696Y-38471292D01*
X48686612Y-38400400D01*
X48683655Y-38374254D01*
X48677147Y-38302903D01*
X48676572Y-38294215D01*
X48242381Y-38294215D01*
X48191738Y-38294215D01*
X48153843Y-38294215D01*
X48121970Y-38271550D01*
X48092929Y-38302715D01*
X48118428Y-38338484D01*
X48147823Y-38374608D01*
X48177217Y-38406128D01*
X48203425Y-38430210D01*
X48589096Y-38430210D01*
X48595518Y-38501078D01*
X48595825Y-38503874D01*
X48604653Y-38574894D01*
X48607512Y-38595245D01*
X48618339Y-38667703D01*
X48620970Y-38683429D01*
X48631595Y-38746468D01*
X48560972Y-38733567D01*
X48538098Y-38730885D01*
X48465587Y-38725452D01*
X48433624Y-38724864D01*
X48358428Y-38730626D01*
X48287039Y-38749588D01*
X48273901Y-38754967D01*
X48210154Y-38789763D01*
X48157739Y-38834652D01*
X48114366Y-38892106D01*
X48086554Y-38950105D01*
X48067487Y-39021417D01*
X48062118Y-39087162D01*
G37*
G36*
X47479705Y-38295934D02*
G01*
X47551251Y-38311445D01*
X47617303Y-38343088D01*
X47650167Y-38366148D01*
X47705537Y-38417875D01*
X47750110Y-38475896D01*
X47782253Y-38530831D01*
X47812099Y-38597491D01*
X47836169Y-38670679D01*
X47839900Y-38684632D01*
X47854944Y-38755975D01*
X47863971Y-38829945D01*
X47866980Y-38906545D01*
X47866885Y-38922118D01*
X47863544Y-38998364D01*
X47855430Y-39071913D01*
X47842544Y-39142764D01*
X47826921Y-39203103D01*
X47802729Y-39270840D01*
X47769942Y-39337193D01*
X47754218Y-39362363D01*
X47708075Y-39419953D01*
X47649885Y-39469292D01*
X47626865Y-39483372D01*
X47556521Y-39510099D01*
X47483433Y-39518165D01*
X47448559Y-39516447D01*
X47377013Y-39500936D01*
X47310961Y-39469292D01*
X47277821Y-39446266D01*
X47222119Y-39394782D01*
X47177446Y-39337193D01*
X47145337Y-39282445D01*
X47115610Y-39215911D01*
X47091741Y-39142764D01*
X47088053Y-39128810D01*
X47073181Y-39057419D01*
X47064258Y-38983331D01*
X47062738Y-38944085D01*
X47224548Y-38944085D01*
X47225725Y-39013114D01*
X47230358Y-39089647D01*
X47239423Y-39163305D01*
X47241336Y-39174557D01*
X47257750Y-39246353D01*
X47282983Y-39313465D01*
X47301901Y-39347165D01*
X47352043Y-39399878D01*
X47373115Y-39411964D01*
X47444831Y-39427502D01*
X47482095Y-39423234D01*
X47547889Y-39391379D01*
X47591804Y-39346313D01*
X47629344Y-39284071D01*
X47643695Y-39251284D01*
X47666751Y-39181671D01*
X47683883Y-39107349D01*
X47687428Y-39087211D01*
X47696724Y-39015993D01*
X47702147Y-38938481D01*
X47703716Y-38863338D01*
X47702511Y-38795392D01*
X47697767Y-38719879D01*
X47688487Y-38646951D01*
X47686490Y-38635745D01*
X47669717Y-38564434D01*
X47644573Y-38498207D01*
X47625468Y-38464881D01*
X47575159Y-38412502D01*
X47554153Y-38400417D01*
X47483433Y-38384878D01*
X47452161Y-38388372D01*
X47386042Y-38420648D01*
X47341772Y-38465005D01*
X47303170Y-38526539D01*
X47288216Y-38558740D01*
X47264130Y-38627445D01*
X47246151Y-38701136D01*
X47242291Y-38721084D01*
X47232164Y-38791804D01*
X47226257Y-38869026D01*
X47224548Y-38944085D01*
X47062738Y-38944085D01*
X47061284Y-38906545D01*
X47061379Y-38890884D01*
X47064720Y-38814244D01*
X47072834Y-38740370D01*
X47085721Y-38669263D01*
X47101371Y-38608581D01*
X47125673Y-38540578D01*
X47158676Y-38474125D01*
X47174307Y-38448973D01*
X47220369Y-38391589D01*
X47278733Y-38342734D01*
X47301651Y-38328757D01*
X47371801Y-38302223D01*
X47444831Y-38294215D01*
X47479705Y-38295934D01*
G37*
G36*
X265577406Y-101408000D02*
G01*
X265577406Y-101354877D01*
X265506044Y-101345403D01*
X265447786Y-101334690D01*
X265377557Y-101315465D01*
X265365269Y-101310962D01*
X265321354Y-101287588D01*
X265308250Y-101264922D01*
X265308250Y-100466663D01*
X265311438Y-100404687D01*
X265326312Y-100368563D01*
X265349332Y-100358647D01*
X265397142Y-100355814D01*
X265468920Y-100361811D01*
X265474702Y-100362542D01*
X265548019Y-100374671D01*
X265587322Y-100382729D01*
X265608217Y-100331731D01*
X265540094Y-100309848D01*
X265509054Y-100298795D01*
X265440550Y-100272438D01*
X265393247Y-100253109D01*
X265325557Y-100223795D01*
X265281689Y-100203882D01*
X265215936Y-100172048D01*
X265195984Y-100161384D01*
X265159152Y-100196445D01*
X265159152Y-101264922D01*
X265148173Y-101286525D01*
X265109217Y-101309899D01*
X265039016Y-101332477D01*
X265033074Y-101333982D01*
X264962188Y-101347788D01*
X264909829Y-101354877D01*
X264909829Y-101408000D01*
X265577406Y-101408000D01*
G37*
G36*
X263976992Y-101408000D02*
G01*
X264668297Y-101408000D01*
X264696984Y-101334690D01*
X264646674Y-101276546D01*
X264599245Y-101221418D01*
X264548568Y-101162109D01*
X264501653Y-101106739D01*
X264490513Y-101093512D01*
X264442926Y-101036280D01*
X264394784Y-100977222D01*
X264347579Y-100917771D01*
X264339644Y-100907583D01*
X264295502Y-100849861D01*
X264251935Y-100789696D01*
X264235878Y-100766276D01*
X264197402Y-100705253D01*
X264171422Y-100657551D01*
X264143864Y-100590484D01*
X264138486Y-100570430D01*
X264129314Y-100498278D01*
X264129278Y-100493579D01*
X264136525Y-100423080D01*
X264140256Y-100407874D01*
X264170917Y-100343774D01*
X264175318Y-100338106D01*
X264232881Y-100293844D01*
X264237648Y-100291712D01*
X264306922Y-100275526D01*
X264329728Y-100274713D01*
X264400489Y-100292144D01*
X264404808Y-100294545D01*
X264460504Y-100341069D01*
X264463597Y-100344835D01*
X264500078Y-100408167D01*
X264501846Y-100412832D01*
X264515644Y-100482553D01*
X264515658Y-100484725D01*
X264546115Y-100501724D01*
X264573739Y-100516244D01*
X264604196Y-100527223D01*
X264643152Y-100533598D01*
X264670068Y-100503849D01*
X264655121Y-100433690D01*
X264635361Y-100395479D01*
X264591988Y-100338348D01*
X264542927Y-100292420D01*
X264481128Y-100249656D01*
X264416436Y-100216802D01*
X264411891Y-100214861D01*
X264342385Y-100192745D01*
X264271323Y-100184170D01*
X264261731Y-100184050D01*
X264190125Y-100190690D01*
X264149819Y-100201049D01*
X264084277Y-100232625D01*
X264058801Y-100252401D01*
X264013103Y-100308675D01*
X263997533Y-100340231D01*
X263978608Y-100410306D01*
X263974867Y-100466309D01*
X263983518Y-100539055D01*
X263987971Y-100555909D01*
X264013983Y-100624406D01*
X264028344Y-100653301D01*
X264064177Y-100715007D01*
X264099175Y-100767338D01*
X264143805Y-100828611D01*
X264189157Y-100887379D01*
X264204358Y-100906520D01*
X264248983Y-100961775D01*
X264298128Y-101021382D01*
X264346727Y-101079346D01*
X264393713Y-101135038D01*
X264444228Y-101194540D01*
X264492094Y-101250629D01*
X264529824Y-101294671D01*
X264113341Y-101294671D01*
X264082884Y-101287234D01*
X264059156Y-101267047D01*
X264041094Y-101238715D01*
X264028699Y-101205779D01*
X264013808Y-101135568D01*
X264011699Y-101117241D01*
X263962118Y-101129282D01*
X263976992Y-101408000D01*
G37*
G36*
X263010157Y-100999662D02*
G01*
X263015241Y-101072920D01*
X263030493Y-101143332D01*
X263036718Y-101162926D01*
X263066579Y-101232001D01*
X263107023Y-101293139D01*
X263113215Y-101300691D01*
X263165498Y-101351179D01*
X263228052Y-101391083D01*
X263237169Y-101395604D01*
X263305420Y-101419572D01*
X263375595Y-101429809D01*
X263404328Y-101430665D01*
X263479368Y-101425580D01*
X263553706Y-101410325D01*
X263587779Y-101399854D01*
X263655229Y-101370122D01*
X263716095Y-101331230D01*
X263765209Y-101291129D01*
X263730148Y-101224549D01*
X263667923Y-101264917D01*
X263634173Y-101283692D01*
X263567829Y-101313636D01*
X263553781Y-101318753D01*
X263486137Y-101335752D01*
X263426286Y-101340002D01*
X263355488Y-101331013D01*
X263313665Y-101314503D01*
X263254819Y-101271575D01*
X263233273Y-101246860D01*
X263196979Y-101182734D01*
X263185462Y-101149823D01*
X263171767Y-101080265D01*
X263169525Y-101037202D01*
X263174792Y-100963034D01*
X263186171Y-100910770D01*
X263214874Y-100842942D01*
X263235752Y-100813378D01*
X263290063Y-100766402D01*
X263320394Y-100750693D01*
X263391778Y-100731215D01*
X263441514Y-100728027D01*
X263489325Y-100732986D01*
X263545281Y-100747860D01*
X263604070Y-100772651D01*
X263659318Y-100807712D01*
X263706420Y-100774775D01*
X263694528Y-100704045D01*
X263692608Y-100692612D01*
X263680191Y-100620033D01*
X263675963Y-100594512D01*
X263664276Y-100522412D01*
X263658964Y-100488975D01*
X263648114Y-100415977D01*
X263643735Y-100383792D01*
X263634651Y-100312900D01*
X263631694Y-100286754D01*
X263625186Y-100215403D01*
X263624611Y-100206715D01*
X263190420Y-100206715D01*
X263139777Y-100206715D01*
X263101882Y-100206715D01*
X263070009Y-100184050D01*
X263040968Y-100215215D01*
X263066467Y-100250984D01*
X263095862Y-100287108D01*
X263125256Y-100318628D01*
X263151464Y-100342710D01*
X263537135Y-100342710D01*
X263543557Y-100413578D01*
X263543864Y-100416374D01*
X263552692Y-100487394D01*
X263555551Y-100507745D01*
X263566378Y-100580203D01*
X263569009Y-100595929D01*
X263579634Y-100658968D01*
X263509011Y-100646067D01*
X263486137Y-100643385D01*
X263413626Y-100637952D01*
X263381663Y-100637364D01*
X263306468Y-100643126D01*
X263235079Y-100662088D01*
X263221940Y-100667467D01*
X263158193Y-100702263D01*
X263105778Y-100747152D01*
X263062405Y-100804606D01*
X263034594Y-100862605D01*
X263015526Y-100933917D01*
X263010157Y-100999662D01*
G37*
G36*
X164967270Y-96562500D02*
G01*
X164967270Y-96525558D01*
X164907156Y-96513746D01*
X164905599Y-96513346D01*
X164866215Y-96500218D01*
X164845149Y-96487090D01*
X164838432Y-96473351D01*
X164838432Y-95451500D01*
X164843622Y-95391660D01*
X164862551Y-95359298D01*
X164899493Y-95344949D01*
X164958722Y-95336706D01*
X164958722Y-95302512D01*
X164896039Y-95288933D01*
X164845454Y-95275950D01*
X164786829Y-95255407D01*
X164740430Y-95233818D01*
X164709594Y-95262822D01*
X164709594Y-96473351D01*
X164680590Y-96499912D01*
X164620953Y-96517937D01*
X164581061Y-96525558D01*
X164581061Y-96562500D01*
X164967270Y-96562500D01*
G37*
G36*
X164143561Y-95747339D02*
G01*
X164194852Y-95762299D01*
X164244006Y-95783975D01*
X164286443Y-95809010D01*
X164321296Y-95835630D01*
X164366433Y-95881062D01*
X164395167Y-95918912D01*
X164426272Y-95972042D01*
X164445423Y-96016221D01*
X164463519Y-96076456D01*
X164472285Y-96124892D01*
X164476342Y-96188197D01*
X164475056Y-96226768D01*
X164466871Y-96289014D01*
X164449475Y-96350924D01*
X164442396Y-96368689D01*
X164413111Y-96425757D01*
X164376813Y-96474877D01*
X164371072Y-96481198D01*
X164324516Y-96522826D01*
X164271789Y-96554256D01*
X164210346Y-96575093D01*
X164145698Y-96582039D01*
X164126905Y-96581718D01*
X164064793Y-96575322D01*
X164045979Y-96571029D01*
X163989078Y-96546929D01*
X163954692Y-96524514D01*
X163907562Y-96485563D01*
X163896432Y-96475283D01*
X163850874Y-96430359D01*
X163806506Y-96383286D01*
X163819024Y-96365273D01*
X163838258Y-96347871D01*
X163869942Y-96373210D01*
X163922216Y-96410764D01*
X163930975Y-96416321D01*
X163986940Y-96445874D01*
X164041285Y-96461444D01*
X164093186Y-96464802D01*
X164138848Y-96460318D01*
X164198516Y-96437630D01*
X164236817Y-96410140D01*
X164278505Y-96364663D01*
X164306063Y-96318863D01*
X164329186Y-96259333D01*
X164330257Y-96255568D01*
X164343023Y-96193620D01*
X164347504Y-96132632D01*
X163895655Y-96132632D01*
X163842532Y-96107903D01*
X163801316Y-96077067D01*
X163801465Y-96066013D01*
X163805502Y-96023639D01*
X163942366Y-96023639D01*
X163948778Y-96048063D01*
X163975034Y-96054474D01*
X164342314Y-96054474D01*
X164335696Y-96019838D01*
X164315447Y-95959525D01*
X164303732Y-95936252D01*
X164267209Y-95885336D01*
X164252326Y-95870643D01*
X164201264Y-95837098D01*
X164179585Y-95828834D01*
X164119137Y-95820001D01*
X164086305Y-95822267D01*
X164028767Y-95843204D01*
X164016263Y-95852145D01*
X163974728Y-95899075D01*
X163970049Y-95907270D01*
X163948778Y-95966242D01*
X163942366Y-96023639D01*
X163805502Y-96023639D01*
X163807422Y-96003489D01*
X163810369Y-95986598D01*
X163827572Y-95927468D01*
X163834111Y-95911229D01*
X163863903Y-95856332D01*
X163874150Y-95841915D01*
X163918858Y-95797103D01*
X163938127Y-95783671D01*
X163995489Y-95756803D01*
X164032977Y-95747117D01*
X164095018Y-95741844D01*
X164143561Y-95747339D01*
G37*
G36*
X163036077Y-95246666D02*
G01*
X163095454Y-95264043D01*
X163098941Y-95265010D01*
X163158628Y-95278778D01*
X163221239Y-95288773D01*
X163221239Y-95321746D01*
X163212892Y-95322449D01*
X163151019Y-95330905D01*
X163114078Y-95351360D01*
X163099728Y-95393492D01*
X163098795Y-95404462D01*
X163096981Y-95467376D01*
X163096981Y-95786723D01*
X163125358Y-95770945D01*
X163183382Y-95750087D01*
X163200789Y-95746875D01*
X163263676Y-95741844D01*
X163314809Y-95745408D01*
X163376944Y-95760467D01*
X163421849Y-95779451D01*
X163474946Y-95811758D01*
X163512313Y-95842387D01*
X163555547Y-95887779D01*
X163584965Y-95926706D01*
X163616607Y-95979675D01*
X163634836Y-96019473D01*
X163654770Y-96079815D01*
X163662770Y-96118040D01*
X163667898Y-96179649D01*
X163666219Y-96225597D01*
X163657403Y-96289940D01*
X163641032Y-96348787D01*
X163635803Y-96362556D01*
X163607853Y-96421561D01*
X163571422Y-96475183D01*
X163529607Y-96518322D01*
X163477999Y-96554562D01*
X163440376Y-96571306D01*
X163379386Y-96582039D01*
X163357920Y-96581295D01*
X163297870Y-96570132D01*
X163281498Y-96564455D01*
X163226124Y-96536549D01*
X163207207Y-96523435D01*
X163160178Y-96483121D01*
X163135864Y-96458420D01*
X163095149Y-96412290D01*
X163094756Y-96418057D01*
X163087527Y-96483308D01*
X163071030Y-96543876D01*
X163024929Y-96582039D01*
X162996536Y-96576543D01*
X162957457Y-96559446D01*
X162904029Y-96529527D01*
X162886155Y-96518571D01*
X162834114Y-96484647D01*
X162845410Y-96448011D01*
X162857775Y-96452652D01*
X162918683Y-96471519D01*
X162948298Y-96466024D01*
X162956846Y-96450758D01*
X162962952Y-96426945D01*
X162966921Y-96390919D01*
X162968142Y-96339628D01*
X162968142Y-95923194D01*
X163096981Y-95923194D01*
X163096981Y-96326500D01*
X163105296Y-96334499D01*
X163150714Y-96377180D01*
X163155757Y-96381771D01*
X163205058Y-96421449D01*
X163206776Y-96422645D01*
X163260929Y-96452896D01*
X163318326Y-96464802D01*
X163333995Y-96463721D01*
X163392820Y-96442210D01*
X163421227Y-96422332D01*
X163464566Y-96377180D01*
X163492424Y-96333791D01*
X163517994Y-96275209D01*
X163521759Y-96263874D01*
X163535028Y-96203736D01*
X163539060Y-96142402D01*
X163538899Y-96127414D01*
X163533890Y-96062299D01*
X163520742Y-96001352D01*
X163503242Y-95955759D01*
X163469146Y-95900907D01*
X163442656Y-95873329D01*
X163390683Y-95840151D01*
X163352160Y-95827105D01*
X163290238Y-95820001D01*
X163234483Y-95825972D01*
X163176970Y-95847173D01*
X163136265Y-95874948D01*
X163096981Y-95923194D01*
X162968142Y-95923194D01*
X162968142Y-95259464D01*
X162994704Y-95233818D01*
X163036077Y-95246666D01*
G37*
G36*
X162680852Y-96562500D02*
G01*
X162680852Y-96516704D01*
X162619333Y-96508537D01*
X162569111Y-96499302D01*
X162508569Y-96482728D01*
X162497975Y-96478846D01*
X162460117Y-96458696D01*
X162448821Y-96439157D01*
X162448821Y-95751003D01*
X162451569Y-95697575D01*
X162464392Y-95666434D01*
X162484236Y-95657885D01*
X162525452Y-95655443D01*
X162587330Y-95660613D01*
X162592314Y-95661243D01*
X162655519Y-95671699D01*
X162689400Y-95678646D01*
X162707413Y-95634682D01*
X162648686Y-95615817D01*
X162621928Y-95606289D01*
X162562873Y-95583567D01*
X162522094Y-95566905D01*
X162463741Y-95541634D01*
X162425923Y-95524467D01*
X162369240Y-95497024D01*
X162352040Y-95487831D01*
X162320288Y-95518056D01*
X162320288Y-96439157D01*
X162310824Y-96457780D01*
X162277241Y-96477930D01*
X162216722Y-96497394D01*
X162211600Y-96498691D01*
X162150492Y-96510593D01*
X162105355Y-96516704D01*
X162105355Y-96562500D01*
X162680852Y-96562500D01*
G37*
G36*
X201560903Y-103768750D02*
G01*
X201560903Y-103731808D01*
X201500789Y-103719996D01*
X201499232Y-103719596D01*
X201459848Y-103706468D01*
X201438782Y-103693340D01*
X201432065Y-103679601D01*
X201432065Y-102657750D01*
X201437255Y-102597910D01*
X201456184Y-102565548D01*
X201493126Y-102551199D01*
X201552355Y-102542956D01*
X201552355Y-102508762D01*
X201489672Y-102495183D01*
X201439087Y-102482200D01*
X201380462Y-102461657D01*
X201334063Y-102440068D01*
X201303227Y-102469072D01*
X201303227Y-103679601D01*
X201274223Y-103706162D01*
X201214586Y-103724187D01*
X201174694Y-103731808D01*
X201174694Y-103768750D01*
X201560903Y-103768750D01*
G37*
G36*
X200723087Y-102951716D02*
G01*
X200783600Y-102964580D01*
X200836641Y-102982518D01*
X200893510Y-103008849D01*
X200936761Y-103035438D01*
X200986017Y-103076321D01*
X201013322Y-103106331D01*
X201045856Y-103158448D01*
X201033949Y-103192031D01*
X200999145Y-103190199D01*
X200949380Y-103178292D01*
X200905722Y-103160890D01*
X200888014Y-103143183D01*
X200879466Y-103096471D01*
X200848630Y-103059835D01*
X200802224Y-103035716D01*
X200747880Y-103026251D01*
X200740106Y-103026176D01*
X200677965Y-103035410D01*
X200634002Y-103063498D01*
X200610799Y-103107157D01*
X200603777Y-103161501D01*
X200603777Y-103282401D01*
X200639587Y-103287825D01*
X200704187Y-103298930D01*
X200767725Y-103312321D01*
X200817181Y-103325026D01*
X200876413Y-103344683D01*
X200892069Y-103351148D01*
X200946022Y-103380403D01*
X200992733Y-103419177D01*
X201013516Y-103442413D01*
X201047383Y-103494587D01*
X201063599Y-103540212D01*
X201069975Y-103603275D01*
X201068907Y-103627241D01*
X201052878Y-103688149D01*
X201048461Y-103696726D01*
X201009525Y-103745546D01*
X201006218Y-103748285D01*
X200950601Y-103777909D01*
X200948561Y-103778547D01*
X200887098Y-103788289D01*
X200826648Y-103779740D01*
X200814051Y-103776213D01*
X200756734Y-103753484D01*
X200733496Y-103741403D01*
X200681324Y-103707689D01*
X200649820Y-103683205D01*
X200603777Y-103641438D01*
X200600041Y-103688793D01*
X200583321Y-103749210D01*
X200535999Y-103788289D01*
X200522470Y-103786801D01*
X200464253Y-103764475D01*
X200448751Y-103756230D01*
X200394820Y-103722997D01*
X200343658Y-103687233D01*
X200356481Y-103647849D01*
X200409603Y-103666778D01*
X200440439Y-103671052D01*
X200465474Y-103656092D01*
X200474938Y-103605412D01*
X200474938Y-103562059D01*
X200603777Y-103562059D01*
X200619996Y-103575707D01*
X200671127Y-103613540D01*
X200727119Y-103644796D01*
X200772995Y-103661796D01*
X200836418Y-103671052D01*
X200863590Y-103666778D01*
X200894120Y-103649986D01*
X200918850Y-103616098D01*
X200929230Y-103560227D01*
X200929015Y-103550319D01*
X200915491Y-103490313D01*
X200914624Y-103488468D01*
X200879466Y-103437495D01*
X200847714Y-103410018D01*
X200799781Y-103385594D01*
X200783639Y-103379812D01*
X200722845Y-103362696D01*
X200665824Y-103350521D01*
X200603777Y-103339493D01*
X200603777Y-103562059D01*
X200474938Y-103562059D01*
X200474938Y-103131276D01*
X200475740Y-103110272D01*
X200489414Y-103050245D01*
X200526229Y-102996637D01*
X200546873Y-102980140D01*
X200606896Y-102954920D01*
X200671554Y-102948094D01*
X200723087Y-102951716D01*
G37*
G36*
X199486976Y-103004575D02*
G01*
X199529413Y-103015871D01*
X199555975Y-103027472D01*
X199571851Y-103042127D01*
X199581620Y-103063193D01*
X199868300Y-103838664D01*
X199891621Y-103895706D01*
X199919134Y-103952253D01*
X199948595Y-104002307D01*
X199985118Y-104053543D01*
X200025690Y-104099591D01*
X200040491Y-104113743D01*
X200091268Y-104153581D01*
X200136357Y-104177856D01*
X200197165Y-104196164D01*
X200227337Y-104198617D01*
X200287482Y-104194343D01*
X200334804Y-104183657D01*
X200365334Y-104169002D01*
X200376631Y-104153127D01*
X200366250Y-104132366D01*
X200340605Y-104098172D01*
X200307632Y-104062452D01*
X200276186Y-104036806D01*
X200217253Y-104059806D01*
X200194364Y-104062452D01*
X200131848Y-104055762D01*
X200121702Y-104052377D01*
X200085676Y-104028258D01*
X200043850Y-103981546D01*
X200008953Y-103929962D01*
X200002634Y-103919264D01*
X199974131Y-103863578D01*
X199967219Y-103847518D01*
X199942184Y-103787984D01*
X200223979Y-103063193D01*
X200253899Y-103026557D01*
X200313934Y-103005770D01*
X200319234Y-103004575D01*
X200319234Y-102967633D01*
X199987674Y-102967633D01*
X199987674Y-103004575D01*
X200042323Y-103013428D01*
X200074991Y-103024114D01*
X200088424Y-103039990D01*
X200084760Y-103063193D01*
X199873490Y-103611518D01*
X199675043Y-103063193D01*
X199673822Y-103041211D01*
X199688476Y-103025641D01*
X199721144Y-103014650D01*
X199773961Y-103004575D01*
X199773961Y-102967633D01*
X199486976Y-102967633D01*
X199486976Y-103004575D01*
G37*
G36*
X199057578Y-102950915D02*
G01*
X199118475Y-102965191D01*
X199158048Y-102981000D01*
X199211898Y-103011902D01*
X199245862Y-103037878D01*
X199290971Y-103082732D01*
X199320031Y-103120049D01*
X199351727Y-103172492D01*
X199371796Y-103216286D01*
X199391416Y-103275684D01*
X199401016Y-103323527D01*
X199405460Y-103385899D01*
X199404248Y-103423219D01*
X199396527Y-103484342D01*
X199380120Y-103546489D01*
X199373451Y-103564640D01*
X199344850Y-103623135D01*
X199308068Y-103673800D01*
X199296023Y-103686799D01*
X199249282Y-103726662D01*
X199195411Y-103757759D01*
X199174511Y-103766554D01*
X199111867Y-103783250D01*
X199048255Y-103788289D01*
X199009386Y-103785971D01*
X198946894Y-103771803D01*
X198908112Y-103756241D01*
X198854692Y-103725702D01*
X198820677Y-103699528D01*
X198775314Y-103654566D01*
X198745569Y-103617158D01*
X198713337Y-103565112D01*
X198693001Y-103521585D01*
X198673037Y-103462530D01*
X198663019Y-103414453D01*
X198660281Y-103377045D01*
X198791495Y-103377045D01*
X198791615Y-103391225D01*
X198795372Y-103453919D01*
X198805233Y-103514737D01*
X198820060Y-103565043D01*
X198847365Y-103619761D01*
X198870807Y-103649486D01*
X198919417Y-103686623D01*
X198960949Y-103702693D01*
X199024136Y-103710131D01*
X199049329Y-103707418D01*
X199107484Y-103682349D01*
X199144341Y-103653973D01*
X199187779Y-103606328D01*
X199190037Y-103603317D01*
X199222934Y-103551005D01*
X199248229Y-103494892D01*
X199251149Y-103486928D01*
X199267048Y-103425524D01*
X199272348Y-103361169D01*
X199272336Y-103356733D01*
X199269371Y-103292552D01*
X199260441Y-103228973D01*
X199246950Y-103178433D01*
X199221362Y-103122727D01*
X199198536Y-103091772D01*
X199149616Y-103052202D01*
X199103266Y-103033575D01*
X199039706Y-103026251D01*
X199009409Y-103029606D01*
X198951168Y-103054644D01*
X198913977Y-103083345D01*
X198871484Y-103131581D01*
X198839351Y-103183635D01*
X198813782Y-103243322D01*
X198811083Y-103251286D01*
X198796392Y-103312690D01*
X198791495Y-103377045D01*
X198660281Y-103377045D01*
X198658382Y-103351094D01*
X198659595Y-103313893D01*
X198667316Y-103252906D01*
X198683722Y-103190810D01*
X198690396Y-103172654D01*
X198719089Y-103114067D01*
X198756079Y-103063193D01*
X198768053Y-103050051D01*
X198814619Y-103009838D01*
X198868431Y-102978624D01*
X198889309Y-102969829D01*
X198951653Y-102953132D01*
X199014672Y-102948094D01*
X199057578Y-102950915D01*
G37*
G36*
X197676831Y-103693340D02*
G01*
X197730527Y-103726498D01*
X197737892Y-103730892D01*
X197792236Y-103761117D01*
X197835894Y-103780962D01*
X197864898Y-103788289D01*
X197914052Y-103748905D01*
X197930753Y-103689185D01*
X197937528Y-103627309D01*
X197937866Y-103621898D01*
X197982654Y-103664107D01*
X198029689Y-103703186D01*
X198035258Y-103707383D01*
X198087970Y-103742374D01*
X198117079Y-103757759D01*
X198175804Y-103779598D01*
X198185772Y-103781878D01*
X198244391Y-103788289D01*
X198305600Y-103781581D01*
X198321938Y-103777298D01*
X198376325Y-103747345D01*
X198387273Y-103736998D01*
X198421813Y-103683668D01*
X198432152Y-103656703D01*
X198445254Y-103594431D01*
X198448928Y-103530985D01*
X198448944Y-103526033D01*
X198448944Y-103159364D01*
X198451523Y-103097595D01*
X198451692Y-103096166D01*
X198464820Y-103062277D01*
X198497793Y-103046707D01*
X198559769Y-103038158D01*
X198559769Y-103003964D01*
X198501762Y-102995721D01*
X198449249Y-102983814D01*
X198398264Y-102968244D01*
X198344225Y-102948094D01*
X198320106Y-102981372D01*
X198320106Y-103482375D01*
X198317305Y-103543415D01*
X198311252Y-103582209D01*
X198289380Y-103640045D01*
X198285301Y-103646323D01*
X198244085Y-103680517D01*
X198188825Y-103690592D01*
X198132650Y-103682654D01*
X198075022Y-103658087D01*
X198073115Y-103657008D01*
X198021690Y-103621784D01*
X198009307Y-103611823D01*
X197963388Y-103569968D01*
X197937866Y-103543741D01*
X197937866Y-103160585D01*
X197941835Y-103099219D01*
X197958627Y-103063193D01*
X197995263Y-103045485D01*
X198058155Y-103038463D01*
X198058155Y-103004575D01*
X197997705Y-102994576D01*
X197939698Y-102980456D01*
X197878614Y-102962252D01*
X197834979Y-102948094D01*
X197809333Y-102981066D01*
X197809333Y-103547404D01*
X197807457Y-103610518D01*
X197805364Y-103633195D01*
X197789488Y-103674716D01*
X197754378Y-103677769D01*
X197693707Y-103658540D01*
X197685685Y-103655177D01*
X197676831Y-103693340D01*
G37*
G36*
X197087595Y-103656398D02*
G01*
X197139903Y-103693464D01*
X197170943Y-103713184D01*
X197225739Y-103743436D01*
X197249406Y-103754706D01*
X197308348Y-103776875D01*
X197318405Y-103779740D01*
X197372444Y-103788289D01*
X197429841Y-103776993D01*
X197477468Y-103740662D01*
X197506118Y-103686598D01*
X197510136Y-103674105D01*
X197520635Y-103611857D01*
X197522042Y-103572745D01*
X197522042Y-103045791D01*
X197632868Y-103045791D01*
X197650881Y-103022893D01*
X197583714Y-102967633D01*
X197522042Y-102967633D01*
X197522042Y-102761553D01*
X197419766Y-102674542D01*
X197393204Y-102695607D01*
X197393204Y-102967633D01*
X197112325Y-102967633D01*
X197087595Y-102991447D01*
X197106830Y-103016176D01*
X197130643Y-103040906D01*
X197154152Y-103062582D01*
X197174302Y-103075710D01*
X197234277Y-103056172D01*
X197236889Y-103055560D01*
X197300287Y-103047165D01*
X197348630Y-103045791D01*
X197393204Y-103045791D01*
X197393204Y-103494892D01*
X197391040Y-103557061D01*
X197388625Y-103580072D01*
X197372749Y-103634111D01*
X197344050Y-103662504D01*
X197300392Y-103671052D01*
X197238818Y-103662576D01*
X197224982Y-103659146D01*
X197166947Y-103638355D01*
X197112325Y-103612434D01*
X197087595Y-103656398D01*
G37*
G36*
X196504003Y-102459584D02*
G01*
X196564305Y-102480674D01*
X196610445Y-102492904D01*
X196672688Y-102508456D01*
X196672688Y-102542345D01*
X196615596Y-102550283D01*
X196581707Y-102564327D01*
X196565221Y-102596384D01*
X196560947Y-102656834D01*
X196560947Y-103680822D01*
X196526529Y-103699283D01*
X196470882Y-103726618D01*
X196446684Y-103737297D01*
X196389672Y-103760201D01*
X196382763Y-103762666D01*
X196323726Y-103780962D01*
X196278541Y-103788289D01*
X196220885Y-103784063D01*
X196160083Y-103769055D01*
X196113751Y-103749862D01*
X196059333Y-103717459D01*
X196020923Y-103686712D01*
X195977206Y-103640827D01*
X195947637Y-103601157D01*
X195916146Y-103547404D01*
X195897820Y-103506866D01*
X195878288Y-103446349D01*
X195871665Y-103413681D01*
X195981481Y-103413681D01*
X195983104Y-103446766D01*
X195995219Y-103508326D01*
X196005118Y-103536024D01*
X196036130Y-103590452D01*
X196054174Y-103611788D01*
X196102686Y-103649071D01*
X196131278Y-103661586D01*
X196194277Y-103671052D01*
X196236104Y-103667083D01*
X196294417Y-103653345D01*
X196304524Y-103650120D01*
X196362194Y-103626783D01*
X196379959Y-103617872D01*
X196432109Y-103584957D01*
X196432109Y-103244849D01*
X196402838Y-103205748D01*
X196360057Y-103158753D01*
X196342311Y-103142248D01*
X196292280Y-103103493D01*
X196290301Y-103102207D01*
X196235188Y-103074184D01*
X196194277Y-103065330D01*
X196173841Y-103066799D01*
X196114593Y-103088838D01*
X196086801Y-103109203D01*
X196046205Y-103156311D01*
X196019644Y-103205693D01*
X195999188Y-103265304D01*
X195994087Y-103285992D01*
X195984403Y-103348837D01*
X195981481Y-103413681D01*
X195871665Y-103413681D01*
X195870474Y-103407809D01*
X195865465Y-103345293D01*
X195866430Y-103305713D01*
X195872569Y-103242007D01*
X195885615Y-103178903D01*
X195888195Y-103169756D01*
X195909658Y-103110668D01*
X195941486Y-103053729D01*
X195975371Y-103013465D01*
X196026666Y-102975266D01*
X196071428Y-102956691D01*
X196134132Y-102948094D01*
X196192751Y-102959695D01*
X196209752Y-102966259D01*
X196265108Y-102995110D01*
X196297413Y-103016575D01*
X196346624Y-103055560D01*
X196389214Y-103095555D01*
X196432109Y-103142267D01*
X196432109Y-102469072D01*
X196444931Y-102458081D01*
X196455312Y-102448617D01*
X196463860Y-102440068D01*
X196504003Y-102459584D01*
G37*
G36*
X194944059Y-103004575D02*
G01*
X194986496Y-103015871D01*
X195013058Y-103027472D01*
X195028934Y-103042127D01*
X195038703Y-103063193D01*
X195325383Y-103838664D01*
X195348704Y-103895706D01*
X195376217Y-103952253D01*
X195405678Y-104002307D01*
X195442201Y-104053543D01*
X195482773Y-104099591D01*
X195497575Y-104113743D01*
X195548351Y-104153581D01*
X195593440Y-104177856D01*
X195654248Y-104196164D01*
X195684420Y-104198617D01*
X195744565Y-104194343D01*
X195791887Y-104183657D01*
X195822418Y-104169002D01*
X195833714Y-104153127D01*
X195823333Y-104132366D01*
X195797688Y-104098172D01*
X195764715Y-104062452D01*
X195733269Y-104036806D01*
X195674336Y-104059806D01*
X195651448Y-104062452D01*
X195588931Y-104055762D01*
X195578785Y-104052377D01*
X195542759Y-104028258D01*
X195500933Y-103981546D01*
X195466036Y-103929962D01*
X195459717Y-103919264D01*
X195431214Y-103863578D01*
X195424302Y-103847518D01*
X195399267Y-103787984D01*
X195681062Y-103063193D01*
X195710982Y-103026557D01*
X195771017Y-103005770D01*
X195776317Y-103004575D01*
X195776317Y-102967633D01*
X195444757Y-102967633D01*
X195444757Y-103004575D01*
X195499406Y-103013428D01*
X195532074Y-103024114D01*
X195545507Y-103039990D01*
X195541844Y-103063193D01*
X195330573Y-103611518D01*
X195132126Y-103063193D01*
X195130905Y-103041211D01*
X195145560Y-103025641D01*
X195178227Y-103014650D01*
X195231045Y-103004575D01*
X195231045Y-102967633D01*
X194944059Y-102967633D01*
X194944059Y-103004575D01*
G37*
D10*
G36*
X167007053Y-106164359D02*
G01*
X167051452Y-106206684D01*
X167098702Y-106245954D01*
X167115436Y-106258393D01*
X167168406Y-106293045D01*
X167221071Y-106320675D01*
X167279321Y-106343311D01*
X167323958Y-106355174D01*
X167386593Y-106364619D01*
X167423487Y-106366165D01*
X167487873Y-106361099D01*
X167550971Y-106345900D01*
X167592320Y-106330139D01*
X167646480Y-106301619D01*
X167696455Y-106265596D01*
X167738255Y-106226336D01*
X167779165Y-106175958D01*
X167811222Y-106123961D01*
X167838389Y-106066060D01*
X167840837Y-106059945D01*
X167861123Y-105995969D01*
X167872957Y-105934056D01*
X167878704Y-105868038D01*
X167879305Y-105837379D01*
X167876691Y-105770308D01*
X167868849Y-105706480D01*
X167855778Y-105645897D01*
X167837479Y-105588557D01*
X167811268Y-105528262D01*
X167780034Y-105473088D01*
X167743777Y-105423033D01*
X167721464Y-105397437D01*
X167672782Y-105351242D01*
X167619091Y-105312262D01*
X167560392Y-105280497D01*
X167548051Y-105275010D01*
X167484194Y-105252398D01*
X167424224Y-105239390D01*
X167361887Y-105233336D01*
X167333423Y-105232878D01*
X167270047Y-105236341D01*
X167241526Y-105240205D01*
X167180997Y-105252169D01*
X167154820Y-105259134D01*
X167097118Y-105279399D01*
X167079715Y-105287222D01*
X167026067Y-105319404D01*
X167023234Y-105321721D01*
X167023845Y-105337903D01*
X167035446Y-105369044D01*
X167053765Y-105408122D01*
X167075746Y-105448422D01*
X167096812Y-105483227D01*
X167113604Y-105505514D01*
X167169169Y-105493607D01*
X167203859Y-105442703D01*
X167248672Y-105398182D01*
X167269309Y-105384003D01*
X167328233Y-105358587D01*
X167392652Y-105350115D01*
X167453102Y-105359579D01*
X167508844Y-105386763D01*
X167514468Y-105390720D01*
X167559540Y-105432312D01*
X167571559Y-105446896D01*
X167604199Y-105499414D01*
X167618882Y-105532381D01*
X167637878Y-105591313D01*
X167650633Y-105651755D01*
X167658564Y-105715835D01*
X167661827Y-105777086D01*
X167662235Y-105809902D01*
X167659432Y-105875745D01*
X167649875Y-105941147D01*
X167633536Y-105999190D01*
X167607199Y-106058852D01*
X167572638Y-106112848D01*
X167558737Y-106129555D01*
X167513102Y-106171518D01*
X167459102Y-106203412D01*
X167455544Y-106204965D01*
X167395056Y-106224022D01*
X167341971Y-106229389D01*
X167287322Y-106224504D01*
X167227850Y-106208643D01*
X167218629Y-106205270D01*
X167162562Y-106179911D01*
X167139250Y-106167412D01*
X167085273Y-106132159D01*
X167051628Y-106105741D01*
X167040637Y-106117953D01*
X167027203Y-106135966D01*
X167015296Y-106153674D01*
X167007053Y-106164359D01*
G37*
G36*
X166456042Y-105526280D02*
G01*
X166518011Y-105532249D01*
X166579628Y-105545814D01*
X166592643Y-105549667D01*
X166650897Y-105571121D01*
X166708772Y-105600464D01*
X166712459Y-105602630D01*
X166764261Y-105637482D01*
X166812270Y-105679537D01*
X166846447Y-105719675D01*
X166876994Y-105775403D01*
X166858981Y-105821809D01*
X166832420Y-105820587D01*
X166787845Y-105812039D01*
X166735944Y-105798300D01*
X166686484Y-105781814D01*
X166649543Y-105765938D01*
X166635804Y-105753115D01*
X166629393Y-105707015D01*
X166604968Y-105672821D01*
X166568943Y-105650839D01*
X166527421Y-105643206D01*
X166473688Y-105652060D01*
X166439189Y-105676789D01*
X166421176Y-105714952D01*
X166415985Y-105763496D01*
X166415985Y-105862719D01*
X166465674Y-105870295D01*
X166526767Y-105881022D01*
X166588177Y-105894166D01*
X166643366Y-105908825D01*
X166701444Y-105928360D01*
X166717755Y-105934939D01*
X166773801Y-105964691D01*
X166821123Y-106003770D01*
X166839925Y-106024097D01*
X166873941Y-106074905D01*
X166887580Y-106110223D01*
X166895007Y-106171992D01*
X166893938Y-106195653D01*
X166877910Y-106257477D01*
X166872306Y-106268532D01*
X166833030Y-106317927D01*
X166824089Y-106325085D01*
X166770138Y-106353953D01*
X166761417Y-106356815D01*
X166699307Y-106366165D01*
X166638246Y-106359448D01*
X166627685Y-106357229D01*
X166568332Y-106337772D01*
X166547555Y-106328412D01*
X166492922Y-106297472D01*
X166463656Y-106277021D01*
X166415070Y-106235495D01*
X166410699Y-106271386D01*
X166389119Y-106331666D01*
X166387735Y-106333788D01*
X166335385Y-106366165D01*
X166291116Y-106357006D01*
X166285682Y-106355284D01*
X166227613Y-106332276D01*
X166209944Y-106323861D01*
X166153730Y-106294724D01*
X166131965Y-106282362D01*
X166078320Y-106249234D01*
X166097249Y-106186646D01*
X166126558Y-106198248D01*
X166147624Y-106205575D01*
X166163194Y-106208934D01*
X166175406Y-106209850D01*
X166200441Y-106194584D01*
X166209906Y-106143293D01*
X166209906Y-106131997D01*
X166415985Y-106131997D01*
X166426038Y-106140345D01*
X166474909Y-106177182D01*
X166522842Y-106204659D01*
X166562837Y-106218398D01*
X166597031Y-106222062D01*
X166622065Y-106217787D01*
X166648321Y-106202522D01*
X166669082Y-106172297D01*
X166677020Y-106124365D01*
X166677007Y-106122104D01*
X166663281Y-106062388D01*
X166627256Y-106014455D01*
X166600999Y-105993695D01*
X166561921Y-105975682D01*
X166502692Y-105958890D01*
X166476606Y-105953187D01*
X166415985Y-105942098D01*
X166415985Y-106131997D01*
X166209906Y-106131997D01*
X166209906Y-105731134D01*
X166210764Y-105709686D01*
X166223644Y-105649923D01*
X166229301Y-105636184D01*
X166265471Y-105584588D01*
X166280316Y-105571479D01*
X166336301Y-105541540D01*
X166376857Y-105530896D01*
X166438273Y-105525970D01*
X166456042Y-105526280D01*
G37*
G36*
X166032219Y-106346626D02*
G01*
X166032219Y-106284038D01*
X165971769Y-106271521D01*
X165934522Y-106258698D01*
X165915593Y-106245570D01*
X165910403Y-106231831D01*
X165910403Y-105261271D01*
X165914677Y-105201432D01*
X165931163Y-105169375D01*
X165965357Y-105154720D01*
X166023670Y-105146477D01*
X166023670Y-105086638D01*
X165962705Y-105077307D01*
X165943986Y-105074120D01*
X165884038Y-105062432D01*
X165873461Y-105060076D01*
X165813594Y-105043934D01*
X165807515Y-105042063D01*
X165749646Y-105021327D01*
X165741265Y-105017944D01*
X165704323Y-105053054D01*
X165704323Y-106231831D01*
X165698217Y-106244959D01*
X165678067Y-106258393D01*
X165640209Y-106271521D01*
X165581286Y-106284038D01*
X165581286Y-106346626D01*
X166032219Y-106346626D01*
G37*
G36*
X164670870Y-105607791D02*
G01*
X164711476Y-105619087D01*
X164735595Y-105630689D01*
X164749333Y-105645649D01*
X164759103Y-105666104D01*
X165002125Y-106270300D01*
X165025938Y-106304799D01*
X165062575Y-106332582D01*
X165106233Y-106352732D01*
X165149892Y-106366165D01*
X165453058Y-105666104D01*
X165481146Y-105630078D01*
X165538700Y-105608386D01*
X165541291Y-105607791D01*
X165541291Y-105545509D01*
X165152334Y-105545509D01*
X165152334Y-105607791D01*
X165205457Y-105616950D01*
X165233850Y-105627941D01*
X165242704Y-105643511D01*
X165236598Y-105666104D01*
X165051889Y-106095971D01*
X164878477Y-105666104D01*
X164872981Y-105644427D01*
X164879393Y-105628857D01*
X164902596Y-105617866D01*
X164948086Y-105607791D01*
X164948086Y-105545509D01*
X164670870Y-105545509D01*
X164670870Y-105607791D01*
G37*
G36*
X164610726Y-106346626D02*
G01*
X164610726Y-106284344D01*
X164549880Y-106268363D01*
X164524935Y-106258087D01*
X164497458Y-106232137D01*
X164497458Y-105792805D01*
X164498110Y-105731086D01*
X164498374Y-105722280D01*
X164509059Y-105680148D01*
X164542032Y-105658471D01*
X164602392Y-105648303D01*
X164610726Y-105647480D01*
X164610726Y-105587641D01*
X164547597Y-105577682D01*
X164487507Y-105565969D01*
X164470897Y-105562301D01*
X164410530Y-105546867D01*
X164349985Y-105527299D01*
X164346333Y-105525970D01*
X164291378Y-105525970D01*
X164291378Y-106232137D01*
X164265733Y-106257172D01*
X164206027Y-106278066D01*
X164176889Y-106284344D01*
X164176889Y-106346626D01*
X164610726Y-106346626D01*
G37*
G36*
X164258711Y-105272568D02*
G01*
X164270007Y-105328133D01*
X164300232Y-105371181D01*
X164345722Y-105398963D01*
X164402814Y-105408733D01*
X164448304Y-105402932D01*
X164485551Y-105384614D01*
X164510891Y-105353778D01*
X164520356Y-105309509D01*
X164509365Y-105253944D01*
X164478834Y-105211507D01*
X164433344Y-105184030D01*
X164377168Y-105174260D01*
X164332594Y-105180061D01*
X164294736Y-105198074D01*
X164268786Y-105228299D01*
X164258711Y-105272568D01*
G37*
G36*
X163570251Y-106346626D02*
G01*
X163570251Y-106284344D01*
X163509717Y-106266635D01*
X163482934Y-106256256D01*
X163456983Y-106232137D01*
X163456983Y-105844401D01*
X163459731Y-105783092D01*
X163461868Y-105766549D01*
X163476828Y-105716479D01*
X163504305Y-105689918D01*
X163547048Y-105682285D01*
X163591012Y-105687780D01*
X163642303Y-105706709D01*
X163695597Y-105737397D01*
X163703974Y-105743040D01*
X163754034Y-105780297D01*
X163779079Y-105801048D01*
X163779079Y-106232137D01*
X163749770Y-106258698D01*
X163691037Y-106278276D01*
X163664895Y-106284344D01*
X163664895Y-106346626D01*
X164098426Y-106346626D01*
X164098426Y-106284344D01*
X164038653Y-106267218D01*
X164013552Y-106258087D01*
X163985159Y-106232137D01*
X163985159Y-105757695D01*
X163986380Y-105704877D01*
X163997981Y-105674042D01*
X164031565Y-105657555D01*
X164093049Y-105648092D01*
X164098426Y-105647480D01*
X164098426Y-105587641D01*
X164037567Y-105579844D01*
X164021795Y-105577261D01*
X163961622Y-105565874D01*
X163953407Y-105564132D01*
X163893765Y-105548515D01*
X163889904Y-105547341D01*
X163831783Y-105527448D01*
X163827927Y-105525970D01*
X163791901Y-105561995D01*
X163782437Y-105685033D01*
X163733054Y-105645343D01*
X163679506Y-105607991D01*
X163622500Y-105575553D01*
X163594981Y-105562911D01*
X163537367Y-105541879D01*
X163475512Y-105528278D01*
X163440802Y-105525970D01*
X163378258Y-105534852D01*
X163369667Y-105537571D01*
X163315604Y-105568860D01*
X163308911Y-105575123D01*
X163274222Y-105625548D01*
X163266779Y-105643206D01*
X163252779Y-105705861D01*
X163250903Y-105744872D01*
X163250903Y-106232137D01*
X163245713Y-106243738D01*
X163227700Y-106255340D01*
X163192591Y-106268468D01*
X163136720Y-106284344D01*
X163136720Y-106346626D01*
X163570251Y-106346626D01*
G37*
G36*
X162713665Y-105294187D02*
G01*
X162777363Y-105308312D01*
X162835996Y-105334544D01*
X162871869Y-105357843D01*
X162920527Y-105400018D01*
X162963002Y-105450865D01*
X162996044Y-105504126D01*
X163023387Y-105563159D01*
X163043297Y-105621835D01*
X163046661Y-105634094D01*
X163060227Y-105696782D01*
X163068367Y-105761796D01*
X163071080Y-105829136D01*
X163070977Y-105842790D01*
X163067387Y-105909665D01*
X163058670Y-105974214D01*
X163044824Y-106036437D01*
X163026118Y-106095113D01*
X163000238Y-106154146D01*
X162968803Y-106207407D01*
X162942642Y-106242021D01*
X162898607Y-106286929D01*
X162848819Y-106323422D01*
X162812392Y-106342122D01*
X162753387Y-106360154D01*
X162689145Y-106366165D01*
X162645410Y-106363494D01*
X162583529Y-106349469D01*
X162526113Y-106323422D01*
X162490469Y-106300029D01*
X162441868Y-106257925D01*
X162399107Y-106207407D01*
X162365189Y-106154146D01*
X162336899Y-106095113D01*
X162316064Y-106036437D01*
X162312478Y-106024178D01*
X162298018Y-105961490D01*
X162289342Y-105896476D01*
X162287787Y-105860277D01*
X162510542Y-105860277D01*
X162511172Y-105911263D01*
X162514094Y-105974887D01*
X162520617Y-106040406D01*
X162530977Y-106099795D01*
X162549621Y-106160696D01*
X162558562Y-106179786D01*
X162599080Y-106228168D01*
X162608669Y-106234149D01*
X162668690Y-106248928D01*
X162727451Y-106233086D01*
X162771510Y-106190730D01*
X162800581Y-106136271D01*
X162803398Y-106129097D01*
X162822718Y-106063481D01*
X162834927Y-105994076D01*
X162841904Y-105925680D01*
X162845258Y-105862402D01*
X162846376Y-105793415D01*
X162845766Y-105743040D01*
X162842932Y-105680255D01*
X162836607Y-105615729D01*
X162825979Y-105556874D01*
X162806992Y-105496660D01*
X162797872Y-105477704D01*
X162758144Y-105429799D01*
X162748731Y-105423730D01*
X162689145Y-105408733D01*
X162674923Y-105409710D01*
X162618009Y-105436516D01*
X162591061Y-105466051D01*
X162561223Y-105520169D01*
X162555365Y-105534590D01*
X162536456Y-105596740D01*
X162523976Y-105660914D01*
X162522349Y-105671639D01*
X162515278Y-105734762D01*
X162511605Y-105798220D01*
X162510542Y-105860277D01*
X162287787Y-105860277D01*
X162286450Y-105829136D01*
X162286549Y-105815407D01*
X162290013Y-105748192D01*
X162298427Y-105683363D01*
X162311790Y-105620919D01*
X162329923Y-105561951D01*
X162355173Y-105502803D01*
X162385979Y-105449644D01*
X162411815Y-105414934D01*
X162455864Y-105370098D01*
X162506268Y-105333934D01*
X162543076Y-105315367D01*
X162602940Y-105297464D01*
X162668384Y-105291496D01*
X162713665Y-105294187D01*
G37*
G36*
X161449002Y-105990947D02*
G01*
X161453385Y-106054635D01*
X161466533Y-106115868D01*
X161471900Y-106132913D01*
X161496518Y-106189238D01*
X161533660Y-106242972D01*
X161542425Y-106252897D01*
X161588891Y-106294279D01*
X161644940Y-106327597D01*
X161662714Y-106335635D01*
X161725989Y-106355402D01*
X161786534Y-106364257D01*
X161834600Y-106366165D01*
X161896253Y-106361013D01*
X161917948Y-106357006D01*
X161978123Y-106340503D01*
X162005570Y-106330139D01*
X162062477Y-106302684D01*
X162091971Y-106285259D01*
X162142871Y-106248194D01*
X162171350Y-106222978D01*
X162128302Y-106145736D01*
X162076435Y-106179243D01*
X162043428Y-106197332D01*
X161987157Y-106222462D01*
X161969850Y-106228778D01*
X161909061Y-106244380D01*
X161907263Y-106244654D01*
X161853529Y-106248928D01*
X161792907Y-106239140D01*
X161774455Y-106231526D01*
X161724501Y-106196218D01*
X161712784Y-106183593D01*
X161680384Y-106131444D01*
X161672484Y-106111236D01*
X161659261Y-106050275D01*
X161657830Y-106020561D01*
X161662563Y-105959210D01*
X161672789Y-105917369D01*
X161700761Y-105860425D01*
X161715227Y-105842264D01*
X161764682Y-105803505D01*
X161780867Y-105795858D01*
X161840458Y-105781238D01*
X161866352Y-105779982D01*
X161930313Y-105785172D01*
X161984810Y-105800743D01*
X162039442Y-105828199D01*
X162080064Y-105855697D01*
X162120670Y-105827304D01*
X162110418Y-105764693D01*
X162108763Y-105754337D01*
X162098963Y-105693821D01*
X162094414Y-105664883D01*
X162084797Y-105601589D01*
X162079759Y-105567491D01*
X162071196Y-105506096D01*
X162066631Y-105470404D01*
X162059101Y-105408223D01*
X162056251Y-105381866D01*
X162050777Y-105320574D01*
X162050145Y-105311036D01*
X161598601Y-105311036D01*
X161554637Y-105311036D01*
X161521969Y-105311036D01*
X161494492Y-105291496D01*
X161462741Y-105323248D01*
X161487775Y-105358968D01*
X161520443Y-105402016D01*
X161553416Y-105441400D01*
X161579672Y-105467351D01*
X161950616Y-105467351D01*
X161955806Y-105523832D01*
X161964032Y-105585351D01*
X161964354Y-105587336D01*
X161974735Y-105648091D01*
X161983283Y-105695413D01*
X161923288Y-105676535D01*
X161897493Y-105671294D01*
X161835359Y-105663948D01*
X161795216Y-105662746D01*
X161733607Y-105666652D01*
X161673549Y-105679703D01*
X161644091Y-105690528D01*
X161587804Y-105720599D01*
X161538707Y-105761548D01*
X161536013Y-105764412D01*
X161498232Y-105813565D01*
X161470984Y-105869436D01*
X161454497Y-105929428D01*
X161449002Y-105990947D01*
G37*
G36*
X160654283Y-105276479D02*
G01*
X160720722Y-105289703D01*
X160783479Y-105306666D01*
X160842555Y-105327370D01*
X160905562Y-105355610D01*
X160956556Y-105383639D01*
X161010185Y-105418892D01*
X161058852Y-105457580D01*
X161107673Y-105505209D01*
X161132074Y-105533421D01*
X161171077Y-105586946D01*
X161203752Y-105643996D01*
X161230099Y-105704572D01*
X161241973Y-105739363D01*
X161258274Y-105803264D01*
X161268055Y-105868807D01*
X161271315Y-105935992D01*
X161268900Y-105988908D01*
X161259389Y-106049909D01*
X161240785Y-106111847D01*
X161228542Y-106140705D01*
X161196565Y-106197782D01*
X161157132Y-106247402D01*
X161136577Y-106267598D01*
X161087698Y-106305393D01*
X161032873Y-106335024D01*
X161005718Y-106345607D01*
X160944377Y-106361025D01*
X160879611Y-106366165D01*
X160833049Y-106363394D01*
X160770617Y-106349373D01*
X160734625Y-106335191D01*
X160680553Y-106304494D01*
X160654073Y-106284137D01*
X160610333Y-106239464D01*
X160592426Y-106215988D01*
X160559958Y-106161612D01*
X160549396Y-106138307D01*
X160529428Y-106077653D01*
X160524886Y-106056358D01*
X160523654Y-106043459D01*
X160731233Y-106043459D01*
X160731382Y-106055267D01*
X160737339Y-106118258D01*
X160738505Y-106125115D01*
X160757795Y-106184204D01*
X160797484Y-106230915D01*
X160799042Y-106232024D01*
X160859155Y-106248928D01*
X160874075Y-106248241D01*
X160934260Y-106229389D01*
X160955119Y-106214720D01*
X160994710Y-106166496D01*
X161017608Y-106116885D01*
X161035010Y-106054755D01*
X161042094Y-106013869D01*
X161047933Y-105952367D01*
X161049665Y-105888975D01*
X161015824Y-105857472D01*
X160965096Y-105823030D01*
X160946436Y-105813870D01*
X160884801Y-105799522D01*
X160829846Y-105808986D01*
X160780692Y-105844706D01*
X160768980Y-105861166D01*
X160744972Y-105918590D01*
X160733863Y-105981541D01*
X160731233Y-106043459D01*
X160523654Y-106043459D01*
X160519047Y-105995221D01*
X160519068Y-105990939D01*
X160524314Y-105929352D01*
X160540113Y-105869131D01*
X160564022Y-105818590D01*
X160601174Y-105769907D01*
X160642408Y-105735073D01*
X160698871Y-105705488D01*
X160706180Y-105702678D01*
X160768863Y-105686726D01*
X160829846Y-105682285D01*
X160871044Y-105686434D01*
X160929681Y-105703962D01*
X160933114Y-105705338D01*
X160987811Y-105733197D01*
X161038674Y-105769296D01*
X161035110Y-105751455D01*
X161018205Y-105690514D01*
X160994405Y-105631910D01*
X160986209Y-105615662D01*
X160952266Y-105561349D01*
X160910141Y-105511010D01*
X160885923Y-105487491D01*
X160835056Y-105447301D01*
X160781303Y-105414228D01*
X160725756Y-105387883D01*
X160663643Y-105365939D01*
X160601479Y-105349809D01*
X160624682Y-105271957D01*
X160654283Y-105276479D01*
G37*
G36*
X159681905Y-106016898D02*
G01*
X159687281Y-106077948D01*
X159704973Y-106140116D01*
X159709993Y-106152147D01*
X159741272Y-106208193D01*
X159783015Y-106257262D01*
X159789372Y-106263278D01*
X159838225Y-106301153D01*
X159895026Y-106331432D01*
X159912714Y-106338688D01*
X159973977Y-106356478D01*
X160035358Y-106364850D01*
X160073304Y-106366165D01*
X160135410Y-106360296D01*
X160148103Y-106357922D01*
X160208771Y-106341937D01*
X160233283Y-106333192D01*
X160290453Y-106306808D01*
X160320295Y-106289839D01*
X160372578Y-106252702D01*
X160402116Y-106226641D01*
X160367006Y-106143293D01*
X160315424Y-106179264D01*
X160293123Y-106192753D01*
X160237681Y-106220458D01*
X160225345Y-106225420D01*
X160165435Y-106242719D01*
X160161537Y-106243433D01*
X160099464Y-106248923D01*
X160097423Y-106248928D01*
X160034959Y-106240463D01*
X160021402Y-106236106D01*
X159968079Y-106204606D01*
X159959731Y-106196721D01*
X159924119Y-106144489D01*
X159917905Y-106129860D01*
X159903855Y-106067232D01*
X159902334Y-106033995D01*
X159908227Y-105973008D01*
X159920958Y-105933855D01*
X159954102Y-105881591D01*
X159967669Y-105868215D01*
X160020630Y-105835690D01*
X160028730Y-105832800D01*
X160089485Y-105821809D01*
X160109330Y-105821809D01*
X160123984Y-105822725D01*
X160139555Y-105824556D01*
X160160926Y-105827915D01*
X160176497Y-105750062D01*
X160117517Y-105731087D01*
X160061140Y-105704432D01*
X160058344Y-105702740D01*
X160008919Y-105665894D01*
X159989956Y-105645649D01*
X159960282Y-105591168D01*
X159958815Y-105585504D01*
X159951488Y-105528107D01*
X159957594Y-105470404D01*
X159977744Y-105419113D01*
X160014075Y-105383087D01*
X160069030Y-105369654D01*
X160112078Y-105380950D01*
X160144745Y-105410870D01*
X160161842Y-105455750D01*
X160158178Y-105511315D01*
X160199394Y-105530854D01*
X160247327Y-105548562D01*
X160298313Y-105562911D01*
X160348077Y-105570544D01*
X160377386Y-105518032D01*
X160361361Y-105457642D01*
X160351130Y-105439263D01*
X160310201Y-105389747D01*
X160277857Y-105364159D01*
X160222408Y-105333459D01*
X160164895Y-105311952D01*
X160104738Y-105297969D01*
X160039673Y-105291816D01*
X160020181Y-105291496D01*
X159956176Y-105295412D01*
X159893761Y-105309475D01*
X159886764Y-105311952D01*
X159831015Y-105339118D01*
X159797004Y-105365990D01*
X159758370Y-105415933D01*
X159746629Y-105441400D01*
X159732009Y-105502596D01*
X159730753Y-105526885D01*
X159742560Y-105588370D01*
X159744187Y-105592526D01*
X159774165Y-105646211D01*
X159781434Y-105655724D01*
X159824896Y-105699119D01*
X159839136Y-105710068D01*
X159893518Y-105740235D01*
X159913630Y-105747620D01*
X159851949Y-105761263D01*
X159818376Y-105776318D01*
X159767529Y-105812558D01*
X159745408Y-105836158D01*
X159711792Y-105888181D01*
X159698697Y-105918895D01*
X159684266Y-105978930D01*
X159681905Y-106016898D01*
G37*
D11*
G36*
X44914906Y-96645500D02*
G01*
X44914906Y-96592377D01*
X44843544Y-96582903D01*
X44785286Y-96572190D01*
X44715057Y-96552965D01*
X44702769Y-96548462D01*
X44658854Y-96525088D01*
X44645750Y-96502422D01*
X44645750Y-95704163D01*
X44648938Y-95642187D01*
X44663812Y-95606063D01*
X44686832Y-95596147D01*
X44734642Y-95593314D01*
X44806420Y-95599311D01*
X44812202Y-95600042D01*
X44885519Y-95612171D01*
X44924822Y-95620229D01*
X44945717Y-95569231D01*
X44877594Y-95547348D01*
X44846554Y-95536295D01*
X44778050Y-95509938D01*
X44730747Y-95490609D01*
X44663057Y-95461295D01*
X44619189Y-95441382D01*
X44553436Y-95409548D01*
X44533484Y-95398884D01*
X44496652Y-95433945D01*
X44496652Y-96502422D01*
X44485673Y-96524025D01*
X44446717Y-96547399D01*
X44376516Y-96569977D01*
X44370574Y-96571482D01*
X44299688Y-96585288D01*
X44247329Y-96592377D01*
X44247329Y-96645500D01*
X44914906Y-96645500D01*
G37*
G36*
X43299618Y-96237162D02*
G01*
X43304702Y-96310420D01*
X43319954Y-96380832D01*
X43326179Y-96400426D01*
X43356040Y-96469501D01*
X43396484Y-96530639D01*
X43402676Y-96538191D01*
X43454959Y-96588679D01*
X43517513Y-96628583D01*
X43526629Y-96633104D01*
X43594881Y-96657072D01*
X43665056Y-96667309D01*
X43693789Y-96668165D01*
X43768829Y-96663080D01*
X43843167Y-96647825D01*
X43877240Y-96637354D01*
X43944689Y-96607622D01*
X44005556Y-96568730D01*
X44054670Y-96528629D01*
X44019609Y-96462049D01*
X43957384Y-96502417D01*
X43923634Y-96521192D01*
X43857290Y-96551136D01*
X43843241Y-96556253D01*
X43775598Y-96573252D01*
X43715747Y-96577502D01*
X43644949Y-96568513D01*
X43603126Y-96552003D01*
X43544280Y-96509075D01*
X43522734Y-96484360D01*
X43486440Y-96420234D01*
X43474923Y-96387323D01*
X43461228Y-96317765D01*
X43458986Y-96274702D01*
X43464253Y-96200534D01*
X43475632Y-96148270D01*
X43504334Y-96080442D01*
X43525213Y-96050878D01*
X43579524Y-96003902D01*
X43609855Y-95988193D01*
X43681239Y-95968715D01*
X43730975Y-95965527D01*
X43778786Y-95970486D01*
X43834742Y-95985360D01*
X43893531Y-96010151D01*
X43948779Y-96045212D01*
X43995881Y-96012275D01*
X43983989Y-95941545D01*
X43982069Y-95930112D01*
X43969652Y-95857533D01*
X43965424Y-95832012D01*
X43953737Y-95759912D01*
X43948425Y-95726475D01*
X43937575Y-95653477D01*
X43933196Y-95621292D01*
X43924112Y-95550400D01*
X43921155Y-95524254D01*
X43914647Y-95452903D01*
X43914072Y-95444215D01*
X43479881Y-95444215D01*
X43429238Y-95444215D01*
X43391343Y-95444215D01*
X43359470Y-95421550D01*
X43330429Y-95452715D01*
X43355928Y-95488484D01*
X43385323Y-95524608D01*
X43414717Y-95556128D01*
X43440925Y-95580210D01*
X43826596Y-95580210D01*
X43833018Y-95651078D01*
X43833325Y-95653874D01*
X43842153Y-95724894D01*
X43845012Y-95745245D01*
X43855839Y-95817703D01*
X43858470Y-95833429D01*
X43869095Y-95896468D01*
X43798472Y-95883567D01*
X43775598Y-95880885D01*
X43703087Y-95875452D01*
X43671124Y-95874864D01*
X43595928Y-95880626D01*
X43524539Y-95899588D01*
X43511401Y-95904967D01*
X43447654Y-95939763D01*
X43395239Y-95984652D01*
X43351866Y-96042106D01*
X43324054Y-96100105D01*
X43304987Y-96171417D01*
X43299618Y-96237162D01*
G37*
G36*
X42717205Y-95445934D02*
G01*
X42788751Y-95461445D01*
X42854803Y-95493088D01*
X42887667Y-95516148D01*
X42943037Y-95567875D01*
X42987610Y-95625896D01*
X43019753Y-95680831D01*
X43049599Y-95747491D01*
X43073669Y-95820679D01*
X43077400Y-95834632D01*
X43092444Y-95905975D01*
X43101471Y-95979945D01*
X43104480Y-96056545D01*
X43104385Y-96072118D01*
X43101044Y-96148364D01*
X43092930Y-96221913D01*
X43080044Y-96292764D01*
X43064421Y-96353103D01*
X43040229Y-96420840D01*
X43007442Y-96487193D01*
X42991718Y-96512363D01*
X42945575Y-96569953D01*
X42887385Y-96619292D01*
X42864365Y-96633372D01*
X42794021Y-96660099D01*
X42720933Y-96668165D01*
X42686059Y-96666447D01*
X42614513Y-96650936D01*
X42548461Y-96619292D01*
X42515321Y-96596266D01*
X42459619Y-96544782D01*
X42414946Y-96487193D01*
X42382837Y-96432445D01*
X42353110Y-96365911D01*
X42329241Y-96292764D01*
X42325553Y-96278810D01*
X42310681Y-96207419D01*
X42301758Y-96133331D01*
X42300238Y-96094085D01*
X42462048Y-96094085D01*
X42463225Y-96163114D01*
X42467858Y-96239647D01*
X42476923Y-96313305D01*
X42478836Y-96324557D01*
X42495250Y-96396353D01*
X42520483Y-96463465D01*
X42539401Y-96497165D01*
X42589543Y-96549878D01*
X42610615Y-96561964D01*
X42682331Y-96577502D01*
X42719595Y-96573234D01*
X42785389Y-96541379D01*
X42829304Y-96496313D01*
X42866844Y-96434071D01*
X42881195Y-96401284D01*
X42904251Y-96331671D01*
X42921383Y-96257349D01*
X42924928Y-96237211D01*
X42934224Y-96165993D01*
X42939647Y-96088481D01*
X42941216Y-96013338D01*
X42940011Y-95945392D01*
X42935267Y-95869879D01*
X42925987Y-95796951D01*
X42923990Y-95785745D01*
X42907217Y-95714434D01*
X42882073Y-95648207D01*
X42862968Y-95614881D01*
X42812659Y-95562502D01*
X42791653Y-95550417D01*
X42720933Y-95534878D01*
X42689661Y-95538372D01*
X42623542Y-95570648D01*
X42579272Y-95615005D01*
X42540670Y-95676539D01*
X42525716Y-95708740D01*
X42501630Y-95777445D01*
X42483651Y-95851136D01*
X42479791Y-95871084D01*
X42469664Y-95941804D01*
X42463757Y-96019026D01*
X42462048Y-96094085D01*
X42300238Y-96094085D01*
X42298784Y-96056545D01*
X42298879Y-96040884D01*
X42302220Y-95964244D01*
X42310334Y-95890370D01*
X42323221Y-95819263D01*
X42338871Y-95758581D01*
X42363173Y-95690578D01*
X42396176Y-95624125D01*
X42411807Y-95598973D01*
X42457869Y-95541589D01*
X42516233Y-95492734D01*
X42539151Y-95478757D01*
X42609301Y-95452223D01*
X42682331Y-95444215D01*
X42717205Y-95445934D01*
G37*
G36*
X231591453Y-103789250D02*
G01*
X232282758Y-103789250D01*
X232311445Y-103715940D01*
X232261135Y-103657796D01*
X232213705Y-103602668D01*
X232163028Y-103543359D01*
X232116114Y-103487989D01*
X232104974Y-103474762D01*
X232057387Y-103417530D01*
X232009245Y-103358472D01*
X231962040Y-103299021D01*
X231954105Y-103288833D01*
X231909963Y-103231111D01*
X231866396Y-103170946D01*
X231850338Y-103147526D01*
X231811863Y-103086503D01*
X231785883Y-103038801D01*
X231758325Y-102971734D01*
X231752947Y-102951680D01*
X231743775Y-102879528D01*
X231743739Y-102874829D01*
X231750986Y-102804330D01*
X231754717Y-102789124D01*
X231785378Y-102725024D01*
X231789778Y-102719356D01*
X231847342Y-102675094D01*
X231852109Y-102672962D01*
X231921383Y-102656776D01*
X231944189Y-102655963D01*
X232014950Y-102673394D01*
X232019269Y-102675795D01*
X232074965Y-102722319D01*
X232078058Y-102726085D01*
X232114539Y-102789417D01*
X232116307Y-102794082D01*
X232130105Y-102863803D01*
X232130119Y-102865975D01*
X232160576Y-102882974D01*
X232188200Y-102897494D01*
X232218657Y-102908473D01*
X232257613Y-102914848D01*
X232284529Y-102885099D01*
X232269582Y-102814940D01*
X232249822Y-102776729D01*
X232206449Y-102719598D01*
X232157388Y-102673670D01*
X232095589Y-102630906D01*
X232030897Y-102598052D01*
X232026352Y-102596111D01*
X231956846Y-102573995D01*
X231885784Y-102565420D01*
X231876192Y-102565300D01*
X231804586Y-102571940D01*
X231764279Y-102582299D01*
X231698738Y-102613875D01*
X231673262Y-102633651D01*
X231627564Y-102689925D01*
X231611994Y-102721481D01*
X231593069Y-102791556D01*
X231589328Y-102847559D01*
X231597979Y-102920305D01*
X231602432Y-102937159D01*
X231628443Y-103005656D01*
X231642805Y-103034551D01*
X231678638Y-103096257D01*
X231713636Y-103148588D01*
X231758266Y-103209861D01*
X231803618Y-103268629D01*
X231818819Y-103287770D01*
X231863444Y-103343025D01*
X231912589Y-103402632D01*
X231961188Y-103460596D01*
X232008174Y-103516288D01*
X232058689Y-103575790D01*
X232106555Y-103631879D01*
X232144285Y-103675921D01*
X231727802Y-103675921D01*
X231697345Y-103668484D01*
X231673617Y-103648297D01*
X231655555Y-103619965D01*
X231643159Y-103587029D01*
X231628268Y-103516818D01*
X231626160Y-103498491D01*
X231576579Y-103510532D01*
X231591453Y-103789250D01*
G37*
G36*
X230639492Y-103789250D02*
G01*
X231330797Y-103789250D01*
X231359484Y-103715940D01*
X231309174Y-103657796D01*
X231261745Y-103602668D01*
X231211068Y-103543359D01*
X231164153Y-103487989D01*
X231153013Y-103474762D01*
X231105426Y-103417530D01*
X231057284Y-103358472D01*
X231010079Y-103299021D01*
X231002144Y-103288833D01*
X230958002Y-103231111D01*
X230914435Y-103170946D01*
X230898378Y-103147526D01*
X230859902Y-103086503D01*
X230833922Y-103038801D01*
X230806364Y-102971734D01*
X230800986Y-102951680D01*
X230791814Y-102879528D01*
X230791778Y-102874829D01*
X230799025Y-102804330D01*
X230802756Y-102789124D01*
X230833417Y-102725024D01*
X230837818Y-102719356D01*
X230895381Y-102675094D01*
X230900148Y-102672962D01*
X230969422Y-102656776D01*
X230992228Y-102655963D01*
X231062989Y-102673394D01*
X231067308Y-102675795D01*
X231123004Y-102722319D01*
X231126097Y-102726085D01*
X231162578Y-102789417D01*
X231164346Y-102794082D01*
X231178144Y-102863803D01*
X231178158Y-102865975D01*
X231208615Y-102882974D01*
X231236239Y-102897494D01*
X231266696Y-102908473D01*
X231305652Y-102914848D01*
X231332568Y-102885099D01*
X231317621Y-102814940D01*
X231297861Y-102776729D01*
X231254488Y-102719598D01*
X231205427Y-102673670D01*
X231143628Y-102630906D01*
X231078936Y-102598052D01*
X231074391Y-102596111D01*
X231004885Y-102573995D01*
X230933823Y-102565420D01*
X230924231Y-102565300D01*
X230852625Y-102571940D01*
X230812319Y-102582299D01*
X230746777Y-102613875D01*
X230721301Y-102633651D01*
X230675603Y-102689925D01*
X230660033Y-102721481D01*
X230641108Y-102791556D01*
X230637367Y-102847559D01*
X230646018Y-102920305D01*
X230650471Y-102937159D01*
X230676483Y-103005656D01*
X230690844Y-103034551D01*
X230726677Y-103096257D01*
X230761675Y-103148588D01*
X230806305Y-103209861D01*
X230851657Y-103268629D01*
X230866858Y-103287770D01*
X230911483Y-103343025D01*
X230960628Y-103402632D01*
X231009227Y-103460596D01*
X231056213Y-103516288D01*
X231106728Y-103575790D01*
X231154594Y-103631879D01*
X231192324Y-103675921D01*
X230775841Y-103675921D01*
X230745384Y-103668484D01*
X230721656Y-103648297D01*
X230703594Y-103619965D01*
X230691199Y-103587029D01*
X230676308Y-103516818D01*
X230674199Y-103498491D01*
X230624618Y-103510532D01*
X230639492Y-103789250D01*
G37*
G36*
X229672657Y-103380912D02*
G01*
X229677741Y-103454170D01*
X229692993Y-103524582D01*
X229699218Y-103544176D01*
X229729079Y-103613251D01*
X229769523Y-103674389D01*
X229775715Y-103681941D01*
X229827998Y-103732429D01*
X229890552Y-103772333D01*
X229899669Y-103776854D01*
X229967920Y-103800822D01*
X230038095Y-103811059D01*
X230066828Y-103811915D01*
X230141868Y-103806830D01*
X230216206Y-103791575D01*
X230250279Y-103781104D01*
X230317729Y-103751372D01*
X230378595Y-103712480D01*
X230427709Y-103672379D01*
X230392648Y-103605799D01*
X230330423Y-103646167D01*
X230296673Y-103664942D01*
X230230329Y-103694886D01*
X230216281Y-103700003D01*
X230148637Y-103717002D01*
X230088786Y-103721252D01*
X230017988Y-103712263D01*
X229976165Y-103695753D01*
X229917319Y-103652825D01*
X229895773Y-103628110D01*
X229859479Y-103563984D01*
X229847962Y-103531073D01*
X229834267Y-103461515D01*
X229832025Y-103418452D01*
X229837292Y-103344284D01*
X229848671Y-103292020D01*
X229877374Y-103224192D01*
X229898252Y-103194628D01*
X229952563Y-103147652D01*
X229982894Y-103131943D01*
X230054278Y-103112465D01*
X230104014Y-103109277D01*
X230151825Y-103114236D01*
X230207781Y-103129110D01*
X230266570Y-103153901D01*
X230321818Y-103188962D01*
X230368920Y-103156025D01*
X230357028Y-103085295D01*
X230355108Y-103073862D01*
X230342691Y-103001283D01*
X230338463Y-102975762D01*
X230326776Y-102903662D01*
X230321464Y-102870225D01*
X230310614Y-102797227D01*
X230306235Y-102765042D01*
X230297151Y-102694150D01*
X230294194Y-102668004D01*
X230287686Y-102596653D01*
X230287111Y-102587965D01*
X229852920Y-102587965D01*
X229802277Y-102587965D01*
X229764382Y-102587965D01*
X229732509Y-102565300D01*
X229703468Y-102596465D01*
X229728967Y-102632234D01*
X229758362Y-102668358D01*
X229787756Y-102699878D01*
X229813964Y-102723960D01*
X230199635Y-102723960D01*
X230206057Y-102794828D01*
X230206364Y-102797624D01*
X230215192Y-102868644D01*
X230218051Y-102888995D01*
X230228878Y-102961453D01*
X230231509Y-102977179D01*
X230242134Y-103040218D01*
X230171511Y-103027317D01*
X230148637Y-103024635D01*
X230076126Y-103019202D01*
X230044163Y-103018614D01*
X229968968Y-103024376D01*
X229897579Y-103043338D01*
X229884440Y-103048717D01*
X229820693Y-103083513D01*
X229768278Y-103128402D01*
X229724905Y-103185856D01*
X229697094Y-103243855D01*
X229678026Y-103315167D01*
X229672657Y-103380912D01*
G37*
G36*
X199892270Y-96562500D02*
G01*
X199892270Y-96525558D01*
X199832156Y-96513746D01*
X199830599Y-96513346D01*
X199791215Y-96500218D01*
X199770149Y-96487090D01*
X199763432Y-96473351D01*
X199763432Y-95451500D01*
X199768622Y-95391660D01*
X199787551Y-95359298D01*
X199824493Y-95344949D01*
X199883722Y-95336706D01*
X199883722Y-95302512D01*
X199821039Y-95288933D01*
X199770454Y-95275950D01*
X199711829Y-95255407D01*
X199665430Y-95233818D01*
X199634594Y-95262822D01*
X199634594Y-96473351D01*
X199605590Y-96499912D01*
X199545953Y-96517937D01*
X199506061Y-96525558D01*
X199506061Y-96562500D01*
X199892270Y-96562500D01*
G37*
G36*
X199068561Y-95747339D02*
G01*
X199119852Y-95762299D01*
X199169006Y-95783975D01*
X199211443Y-95809010D01*
X199246296Y-95835630D01*
X199291433Y-95881062D01*
X199320167Y-95918912D01*
X199351272Y-95972042D01*
X199370423Y-96016221D01*
X199388519Y-96076456D01*
X199397285Y-96124892D01*
X199401342Y-96188197D01*
X199400056Y-96226768D01*
X199391871Y-96289014D01*
X199374475Y-96350924D01*
X199367396Y-96368689D01*
X199338111Y-96425757D01*
X199301813Y-96474877D01*
X199296072Y-96481198D01*
X199249516Y-96522826D01*
X199196789Y-96554256D01*
X199135346Y-96575093D01*
X199070698Y-96582039D01*
X199051905Y-96581718D01*
X198989793Y-96575322D01*
X198970979Y-96571029D01*
X198914078Y-96546929D01*
X198879692Y-96524514D01*
X198832562Y-96485563D01*
X198821432Y-96475283D01*
X198775874Y-96430359D01*
X198731506Y-96383286D01*
X198744024Y-96365273D01*
X198763258Y-96347871D01*
X198794942Y-96373210D01*
X198847216Y-96410764D01*
X198855975Y-96416321D01*
X198911940Y-96445874D01*
X198966285Y-96461444D01*
X199018186Y-96464802D01*
X199063848Y-96460318D01*
X199123516Y-96437630D01*
X199161817Y-96410140D01*
X199203505Y-96364663D01*
X199231063Y-96318863D01*
X199254186Y-96259333D01*
X199255257Y-96255568D01*
X199268023Y-96193620D01*
X199272504Y-96132632D01*
X198820655Y-96132632D01*
X198767532Y-96107903D01*
X198726316Y-96077067D01*
X198726465Y-96066013D01*
X198730502Y-96023639D01*
X198867366Y-96023639D01*
X198873778Y-96048063D01*
X198900034Y-96054474D01*
X199267314Y-96054474D01*
X199260696Y-96019838D01*
X199240447Y-95959525D01*
X199228732Y-95936252D01*
X199192209Y-95885336D01*
X199177326Y-95870643D01*
X199126264Y-95837098D01*
X199104585Y-95828834D01*
X199044137Y-95820001D01*
X199011305Y-95822267D01*
X198953767Y-95843204D01*
X198941263Y-95852145D01*
X198899728Y-95899075D01*
X198895049Y-95907270D01*
X198873778Y-95966242D01*
X198867366Y-96023639D01*
X198730502Y-96023639D01*
X198732422Y-96003489D01*
X198735369Y-95986598D01*
X198752572Y-95927468D01*
X198759111Y-95911229D01*
X198788903Y-95856332D01*
X198799150Y-95841915D01*
X198843858Y-95797103D01*
X198863127Y-95783671D01*
X198920489Y-95756803D01*
X198957977Y-95747117D01*
X199020018Y-95741844D01*
X199068561Y-95747339D01*
G37*
G36*
X197961077Y-95246666D02*
G01*
X198020454Y-95264043D01*
X198023941Y-95265010D01*
X198083628Y-95278778D01*
X198146239Y-95288773D01*
X198146239Y-95321746D01*
X198137892Y-95322449D01*
X198076019Y-95330905D01*
X198039078Y-95351360D01*
X198024728Y-95393492D01*
X198023795Y-95404462D01*
X198021981Y-95467376D01*
X198021981Y-95786723D01*
X198050358Y-95770945D01*
X198108382Y-95750087D01*
X198125789Y-95746875D01*
X198188676Y-95741844D01*
X198239809Y-95745408D01*
X198301944Y-95760467D01*
X198346849Y-95779451D01*
X198399946Y-95811758D01*
X198437313Y-95842387D01*
X198480547Y-95887779D01*
X198509965Y-95926706D01*
X198541607Y-95979675D01*
X198559836Y-96019473D01*
X198579770Y-96079815D01*
X198587770Y-96118040D01*
X198592898Y-96179649D01*
X198591219Y-96225597D01*
X198582403Y-96289940D01*
X198566032Y-96348787D01*
X198560803Y-96362556D01*
X198532853Y-96421561D01*
X198496422Y-96475183D01*
X198454607Y-96518322D01*
X198402999Y-96554562D01*
X198365376Y-96571306D01*
X198304386Y-96582039D01*
X198282920Y-96581295D01*
X198222870Y-96570132D01*
X198206498Y-96564455D01*
X198151124Y-96536549D01*
X198132207Y-96523435D01*
X198085178Y-96483121D01*
X198060864Y-96458420D01*
X198020149Y-96412290D01*
X198019756Y-96418057D01*
X198012527Y-96483308D01*
X197996030Y-96543876D01*
X197949929Y-96582039D01*
X197921536Y-96576543D01*
X197882457Y-96559446D01*
X197829029Y-96529527D01*
X197811155Y-96518571D01*
X197759114Y-96484647D01*
X197770410Y-96448011D01*
X197782775Y-96452652D01*
X197843683Y-96471519D01*
X197873298Y-96466024D01*
X197881846Y-96450758D01*
X197887952Y-96426945D01*
X197891921Y-96390919D01*
X197893142Y-96339628D01*
X197893142Y-95923194D01*
X198021981Y-95923194D01*
X198021981Y-96326500D01*
X198030296Y-96334499D01*
X198075714Y-96377180D01*
X198080757Y-96381771D01*
X198130058Y-96421449D01*
X198131776Y-96422645D01*
X198185929Y-96452896D01*
X198243326Y-96464802D01*
X198258995Y-96463721D01*
X198317820Y-96442210D01*
X198346227Y-96422332D01*
X198389566Y-96377180D01*
X198417424Y-96333791D01*
X198442994Y-96275209D01*
X198446759Y-96263874D01*
X198460028Y-96203736D01*
X198464060Y-96142402D01*
X198463899Y-96127414D01*
X198458890Y-96062299D01*
X198445742Y-96001352D01*
X198428242Y-95955759D01*
X198394146Y-95900907D01*
X198367656Y-95873329D01*
X198315683Y-95840151D01*
X198277160Y-95827105D01*
X198215238Y-95820001D01*
X198159483Y-95825972D01*
X198101970Y-95847173D01*
X198061265Y-95874948D01*
X198021981Y-95923194D01*
X197893142Y-95923194D01*
X197893142Y-95259464D01*
X197919704Y-95233818D01*
X197961077Y-95246666D01*
G37*
G36*
X197046841Y-96562500D02*
G01*
X197642794Y-96562500D01*
X197667523Y-96499302D01*
X197624152Y-96449177D01*
X197583265Y-96401653D01*
X197539578Y-96350525D01*
X197499135Y-96302792D01*
X197489531Y-96291390D01*
X197448508Y-96242052D01*
X197407006Y-96191140D01*
X197366313Y-96139889D01*
X197359472Y-96131106D01*
X197321419Y-96081346D01*
X197283860Y-96029479D01*
X197270018Y-96009289D01*
X197236850Y-95956683D01*
X197214453Y-95915561D01*
X197190696Y-95857744D01*
X197186059Y-95840457D01*
X197178153Y-95778257D01*
X197178122Y-95774206D01*
X197184370Y-95713431D01*
X197187586Y-95700322D01*
X197214018Y-95645064D01*
X197217811Y-95640177D01*
X197267435Y-95602020D01*
X197271544Y-95600183D01*
X197331263Y-95586229D01*
X197350923Y-95585528D01*
X197411924Y-95600555D01*
X197415648Y-95602625D01*
X197463661Y-95642732D01*
X197466328Y-95645978D01*
X197497777Y-95700575D01*
X197499301Y-95704596D01*
X197511196Y-95764701D01*
X197511208Y-95766573D01*
X197537464Y-95781228D01*
X197561278Y-95793745D01*
X197587534Y-95803210D01*
X197621117Y-95808705D01*
X197644320Y-95783060D01*
X197631435Y-95722577D01*
X197614400Y-95689637D01*
X197577010Y-95640386D01*
X197534716Y-95600793D01*
X197481441Y-95563928D01*
X197425672Y-95535605D01*
X197421754Y-95533932D01*
X197361835Y-95514867D01*
X197300575Y-95507474D01*
X197292305Y-95507370D01*
X197230577Y-95513095D01*
X197195829Y-95522025D01*
X197139328Y-95549246D01*
X197117366Y-95566294D01*
X197077971Y-95614806D01*
X197064549Y-95642009D01*
X197048234Y-95702419D01*
X197045009Y-95750697D01*
X197052466Y-95813410D01*
X197056305Y-95827939D01*
X197078729Y-95886988D01*
X197091110Y-95911898D01*
X197122001Y-95965092D01*
X197152171Y-96010205D01*
X197190645Y-96063027D01*
X197229742Y-96113689D01*
X197242846Y-96130190D01*
X197281316Y-96177823D01*
X197323682Y-96229208D01*
X197365578Y-96279178D01*
X197406083Y-96327188D01*
X197449631Y-96378483D01*
X197490894Y-96426835D01*
X197523420Y-96464802D01*
X197164383Y-96464802D01*
X197138127Y-96458391D01*
X197117671Y-96440989D01*
X197102101Y-96416564D01*
X197091415Y-96388171D01*
X197078578Y-96327645D01*
X197076761Y-96311845D01*
X197034018Y-96322226D01*
X197046841Y-96562500D01*
G37*
G36*
X165659926Y-51773207D02*
G01*
X165661405Y-51837330D01*
X165666392Y-51899383D01*
X165672443Y-51940513D01*
X165686039Y-52000638D01*
X165706637Y-52057750D01*
X165737215Y-52112466D01*
X165758539Y-52139571D01*
X165801843Y-52182718D01*
X165822958Y-52200327D01*
X165872112Y-52234215D01*
X165923403Y-52261693D01*
X165971640Y-52279706D01*
X166011025Y-52286117D01*
X166062926Y-52279400D01*
X166108416Y-52263524D01*
X166141084Y-52243374D01*
X166153601Y-52226277D01*
X166141084Y-52204906D01*
X166111470Y-52176513D01*
X166075749Y-52149036D01*
X166044608Y-52130107D01*
X165991478Y-52160572D01*
X165987822Y-52161553D01*
X165925845Y-52168880D01*
X165876691Y-52153005D01*
X165836183Y-52104923D01*
X165832422Y-52097745D01*
X165810717Y-52037686D01*
X165800670Y-51990888D01*
X165792764Y-51930122D01*
X165789043Y-51863475D01*
X165788458Y-51819918D01*
X165788458Y-51283500D01*
X165789980Y-51222296D01*
X165790595Y-51213586D01*
X165804029Y-51172064D01*
X165839749Y-51150388D01*
X165900567Y-51139165D01*
X165908748Y-51138176D01*
X165908748Y-51103982D01*
X165848445Y-51091495D01*
X165844940Y-51090548D01*
X165791511Y-51074672D01*
X165742663Y-51056659D01*
X165691677Y-51035594D01*
X165659926Y-51035594D01*
X165659926Y-51773207D01*
G37*
G36*
X165633975Y-50783413D02*
G01*
X165641913Y-50827987D01*
X165662979Y-50864624D01*
X165694120Y-50889658D01*
X165732893Y-50898818D01*
X165788764Y-50877752D01*
X165805861Y-50817912D01*
X165798228Y-50773338D01*
X165777162Y-50736701D01*
X165745716Y-50712277D01*
X165706942Y-50703423D01*
X165650008Y-50725998D01*
X165633975Y-50783413D01*
G37*
G36*
X164911627Y-51610785D02*
G01*
X164917133Y-51672942D01*
X164929029Y-51713673D01*
X164958968Y-51768333D01*
X164973603Y-51786030D01*
X165022285Y-51826494D01*
X165034664Y-51833657D01*
X165092433Y-51858100D01*
X165100609Y-51860524D01*
X165161975Y-51872736D01*
X165207160Y-51875789D01*
X165268488Y-51869741D01*
X165306384Y-51861745D01*
X165367845Y-51842601D01*
X165421789Y-51818697D01*
X165430032Y-51792136D01*
X165430948Y-51734739D01*
X165426207Y-51672342D01*
X165425758Y-51668183D01*
X165415683Y-51614754D01*
X165378741Y-51624219D01*
X165363848Y-51683992D01*
X165359812Y-51691996D01*
X165321010Y-51741016D01*
X165314017Y-51746951D01*
X165261134Y-51778408D01*
X165247155Y-51783893D01*
X165186018Y-51796773D01*
X165164113Y-51797631D01*
X165107631Y-51787862D01*
X165062752Y-51760384D01*
X165033748Y-51718252D01*
X165023368Y-51663298D01*
X165040845Y-51604210D01*
X165041991Y-51602542D01*
X165084972Y-51558412D01*
X165090534Y-51554304D01*
X165142315Y-51521635D01*
X165158617Y-51513088D01*
X165214107Y-51484527D01*
X165236164Y-51473094D01*
X165290964Y-51443458D01*
X165305773Y-51434625D01*
X165355509Y-51397959D01*
X165365613Y-51388524D01*
X165403313Y-51338903D01*
X165407440Y-51331127D01*
X165422928Y-51270809D01*
X165423315Y-51258160D01*
X165414967Y-51196288D01*
X165401944Y-51163516D01*
X165365645Y-51112773D01*
X165344852Y-51093907D01*
X165290975Y-51061215D01*
X165263336Y-51050553D01*
X165201646Y-51037361D01*
X165168387Y-51035594D01*
X165109769Y-51040478D01*
X165048213Y-51053363D01*
X165046265Y-51053912D01*
X164987342Y-51074672D01*
X164942462Y-51102455D01*
X164941546Y-51125963D01*
X164953453Y-51165348D01*
X164970855Y-51205648D01*
X164985510Y-51231293D01*
X165019093Y-51224576D01*
X165058404Y-51174725D01*
X165104578Y-51138176D01*
X165164294Y-51116136D01*
X165190674Y-51113751D01*
X165241660Y-51123216D01*
X165279823Y-51147335D01*
X165303942Y-51180002D01*
X165311879Y-51215417D01*
X165295698Y-51264266D01*
X165252651Y-51304871D01*
X165200558Y-51336828D01*
X165192200Y-51341202D01*
X165137654Y-51369035D01*
X165121981Y-51377228D01*
X165066225Y-51406537D01*
X165047487Y-51416918D01*
X164995165Y-51452123D01*
X164979709Y-51465461D01*
X164939377Y-51513239D01*
X164930555Y-51528353D01*
X164912810Y-51587888D01*
X164911627Y-51610785D01*
G37*
G36*
X164257056Y-51743898D02*
G01*
X164309363Y-51780964D01*
X164340404Y-51800684D01*
X164395200Y-51830936D01*
X164418867Y-51842206D01*
X164477809Y-51864375D01*
X164487865Y-51867240D01*
X164541904Y-51875789D01*
X164599301Y-51864493D01*
X164646928Y-51828162D01*
X164675578Y-51774098D01*
X164679596Y-51761605D01*
X164690096Y-51699357D01*
X164691503Y-51660245D01*
X164691503Y-51133291D01*
X164802328Y-51133291D01*
X164820341Y-51110393D01*
X164753174Y-51055133D01*
X164691503Y-51055133D01*
X164691503Y-50849053D01*
X164589226Y-50762042D01*
X164562665Y-50783107D01*
X164562665Y-51055133D01*
X164281785Y-51055133D01*
X164257056Y-51078947D01*
X164276290Y-51103676D01*
X164300103Y-51128406D01*
X164323612Y-51150082D01*
X164343762Y-51163210D01*
X164403737Y-51143672D01*
X164406349Y-51143060D01*
X164469747Y-51134665D01*
X164518090Y-51133291D01*
X164562665Y-51133291D01*
X164562665Y-51582392D01*
X164560500Y-51644561D01*
X164558085Y-51667572D01*
X164542209Y-51721611D01*
X164513511Y-51750004D01*
X164469852Y-51758552D01*
X164408278Y-51750076D01*
X164394442Y-51746646D01*
X164336407Y-51725855D01*
X164281785Y-51699934D01*
X164257056Y-51743898D01*
G37*
G36*
X166418605Y-53160628D02*
G01*
X166467759Y-53181084D01*
X166519355Y-53198791D01*
X166574920Y-53213751D01*
X166574920Y-53252830D01*
X166572362Y-53252948D01*
X166510196Y-53260157D01*
X166474170Y-53277865D01*
X166458294Y-53310227D01*
X166454936Y-53361823D01*
X166454936Y-54278039D01*
X166486688Y-54304601D01*
X166513979Y-54313932D01*
X166574920Y-54330246D01*
X166574920Y-54366577D01*
X166180774Y-54366577D01*
X166180774Y-54329025D01*
X166234626Y-54319422D01*
X166294041Y-54302464D01*
X166326098Y-54274681D01*
X166326098Y-53860384D01*
X166306957Y-53877210D01*
X166256632Y-53915028D01*
X166201534Y-53946174D01*
X166148423Y-53966419D01*
X166087351Y-53975789D01*
X166063796Y-53974267D01*
X166004919Y-53956555D01*
X165977508Y-53941918D01*
X165927982Y-53904959D01*
X165899172Y-53876552D01*
X165860510Y-53828327D01*
X165836867Y-53791553D01*
X165807387Y-53734904D01*
X165790643Y-53694366D01*
X165771972Y-53633849D01*
X165764158Y-53595309D01*
X165763723Y-53589885D01*
X165875165Y-53589885D01*
X165878320Y-53644607D01*
X165891651Y-53706206D01*
X165902957Y-53735919D01*
X165936225Y-53790164D01*
X165951090Y-53806078D01*
X166003697Y-53841455D01*
X166026259Y-53849720D01*
X166089182Y-53858552D01*
X166138031Y-53854583D01*
X166192680Y-53840234D01*
X166198099Y-53838221D01*
X166254352Y-53811841D01*
X166273358Y-53800764D01*
X166326098Y-53765435D01*
X166326098Y-53438149D01*
X166293323Y-53395415D01*
X166252215Y-53349917D01*
X166232288Y-53330811D01*
X166184437Y-53292520D01*
X166182460Y-53291177D01*
X166127956Y-53261989D01*
X166087351Y-53252830D01*
X166064384Y-53254859D01*
X166007666Y-53278476D01*
X165979917Y-53300314D01*
X165939584Y-53349306D01*
X165913251Y-53398689D01*
X165892872Y-53456468D01*
X165890728Y-53464216D01*
X165879056Y-53524837D01*
X165875165Y-53589885D01*
X165763723Y-53589885D01*
X165759149Y-53532793D01*
X165760114Y-53493213D01*
X165766253Y-53429507D01*
X165779299Y-53366403D01*
X165783220Y-53352748D01*
X165805276Y-53294278D01*
X165835781Y-53241229D01*
X165869933Y-53200965D01*
X165921571Y-53162766D01*
X165966751Y-53144191D01*
X166029648Y-53135594D01*
X166088572Y-53147500D01*
X166108093Y-53155188D01*
X166162150Y-53183831D01*
X166194805Y-53205843D01*
X166244887Y-53245808D01*
X166288164Y-53286795D01*
X166331288Y-53334651D01*
X166338921Y-53165513D01*
X166369146Y-53135594D01*
X166418605Y-53160628D01*
G37*
G36*
X165635196Y-53956250D02*
G01*
X165635196Y-53919613D01*
X165575636Y-53904465D01*
X165546047Y-53893357D01*
X165514906Y-53867406D01*
X165514906Y-53383500D01*
X165516211Y-53321781D01*
X165516738Y-53312975D01*
X165529866Y-53271148D01*
X165565282Y-53249472D01*
X165626852Y-53239001D01*
X165635196Y-53238176D01*
X165635196Y-53203982D01*
X165579020Y-53191769D01*
X165520097Y-53175588D01*
X165464226Y-53156354D01*
X165415378Y-53135594D01*
X165386068Y-53135594D01*
X165386068Y-53867406D01*
X165357370Y-53892441D01*
X165298609Y-53912526D01*
X165266084Y-53919613D01*
X165266084Y-53956250D01*
X165635196Y-53956250D01*
G37*
G36*
X165360423Y-52883413D02*
G01*
X165368361Y-52927987D01*
X165389427Y-52964624D01*
X165420568Y-52989658D01*
X165459952Y-52998818D01*
X165515517Y-52977752D01*
X165532309Y-52917912D01*
X165524676Y-52873338D01*
X165503000Y-52836701D01*
X165471859Y-52812277D01*
X165433390Y-52803423D01*
X165376456Y-52825998D01*
X165360423Y-52883413D01*
G37*
G36*
X164500077Y-53781311D02*
G01*
X164543306Y-53830457D01*
X164587800Y-53876145D01*
X164598691Y-53886335D01*
X164646824Y-53926176D01*
X164677154Y-53945869D01*
X164734688Y-53968536D01*
X164747679Y-53970904D01*
X164809728Y-53975670D01*
X164822173Y-53975789D01*
X164884073Y-53968920D01*
X164944599Y-53948312D01*
X164997528Y-53917033D01*
X165044688Y-53875289D01*
X165050540Y-53868933D01*
X165087639Y-53819194D01*
X165117726Y-53760808D01*
X165125034Y-53742537D01*
X165141964Y-53683690D01*
X165151080Y-53619347D01*
X165152816Y-53573399D01*
X165148812Y-53511837D01*
X165135310Y-53447888D01*
X165118928Y-53402124D01*
X165089991Y-53345280D01*
X165054013Y-53294275D01*
X165026115Y-53263516D01*
X164979003Y-53222615D01*
X164926052Y-53188755D01*
X164887508Y-53170093D01*
X164825755Y-53149070D01*
X164760482Y-53137750D01*
X164715011Y-53135594D01*
X164657003Y-53139562D01*
X164600522Y-53150859D01*
X164550453Y-53168566D01*
X164513206Y-53191769D01*
X164515648Y-53218025D01*
X164527860Y-53256494D01*
X164544957Y-53296794D01*
X164562054Y-53327935D01*
X164593806Y-53319386D01*
X164616398Y-53286108D01*
X164656088Y-53251914D01*
X164712292Y-53225416D01*
X164714401Y-53224742D01*
X164776121Y-53214138D01*
X164792253Y-53213751D01*
X164853070Y-53223275D01*
X164879570Y-53233901D01*
X164930122Y-53269158D01*
X164953453Y-53294657D01*
X164987000Y-53349509D01*
X165004744Y-53395102D01*
X165018550Y-53456049D01*
X165023809Y-53521164D01*
X165023978Y-53536152D01*
X165019829Y-53597486D01*
X165006176Y-53657624D01*
X165002302Y-53668959D01*
X164974896Y-53727541D01*
X164943989Y-53770930D01*
X164896608Y-53814181D01*
X164859725Y-53835960D01*
X164801621Y-53854824D01*
X164760501Y-53858552D01*
X164715927Y-53856415D01*
X164670742Y-53843287D01*
X164616257Y-53811086D01*
X164614261Y-53809704D01*
X164564949Y-53772031D01*
X164533661Y-53745895D01*
X164500077Y-53781311D01*
G37*
G36*
X164040454Y-53138415D02*
G01*
X164101351Y-53152691D01*
X164140924Y-53168500D01*
X164194774Y-53199402D01*
X164228739Y-53225378D01*
X164273848Y-53270232D01*
X164302907Y-53307549D01*
X164334603Y-53359992D01*
X164354672Y-53403786D01*
X164374292Y-53463184D01*
X164383893Y-53511027D01*
X164388336Y-53573399D01*
X164387124Y-53610719D01*
X164379403Y-53671842D01*
X164362996Y-53733989D01*
X164356327Y-53752140D01*
X164327726Y-53810635D01*
X164290945Y-53861300D01*
X164278899Y-53874299D01*
X164232158Y-53914162D01*
X164178288Y-53945259D01*
X164157387Y-53954054D01*
X164094743Y-53970750D01*
X164031131Y-53975789D01*
X163992262Y-53973471D01*
X163929770Y-53959303D01*
X163890988Y-53943741D01*
X163837569Y-53913202D01*
X163803554Y-53887028D01*
X163758190Y-53842066D01*
X163728445Y-53804658D01*
X163696213Y-53752612D01*
X163675877Y-53709085D01*
X163655913Y-53650030D01*
X163645895Y-53601953D01*
X163643158Y-53564545D01*
X163774371Y-53564545D01*
X163774492Y-53578725D01*
X163778248Y-53641419D01*
X163788110Y-53702237D01*
X163802936Y-53752543D01*
X163830241Y-53807261D01*
X163853683Y-53836986D01*
X163902293Y-53874123D01*
X163943825Y-53890193D01*
X164007012Y-53897631D01*
X164032206Y-53894918D01*
X164090360Y-53869849D01*
X164127217Y-53841473D01*
X164170655Y-53793828D01*
X164172914Y-53790817D01*
X164205810Y-53738505D01*
X164231105Y-53682392D01*
X164234026Y-53674428D01*
X164249924Y-53613024D01*
X164255224Y-53548669D01*
X164255212Y-53544233D01*
X164252247Y-53480052D01*
X164243317Y-53416473D01*
X164229827Y-53365933D01*
X164204238Y-53310227D01*
X164181412Y-53279272D01*
X164132492Y-53239702D01*
X164086142Y-53221075D01*
X164022583Y-53213751D01*
X163992285Y-53217106D01*
X163934045Y-53242144D01*
X163896854Y-53270845D01*
X163854360Y-53319081D01*
X163822227Y-53371135D01*
X163796658Y-53430822D01*
X163793959Y-53438786D01*
X163779268Y-53500190D01*
X163774371Y-53564545D01*
X163643158Y-53564545D01*
X163641259Y-53538594D01*
X163642471Y-53501393D01*
X163650192Y-53440406D01*
X163666599Y-53378310D01*
X163673272Y-53360154D01*
X163701965Y-53301567D01*
X163738956Y-53250693D01*
X163750929Y-53237551D01*
X163797495Y-53197338D01*
X163851307Y-53166124D01*
X163872185Y-53157329D01*
X163934529Y-53140632D01*
X163997548Y-53135594D01*
X164040454Y-53138415D01*
G37*
G36*
X181626822Y-105083395D02*
G01*
X181633517Y-105144596D01*
X181643172Y-105206095D01*
X181644530Y-105213149D01*
X181657346Y-105275121D01*
X181661932Y-105293750D01*
X182402904Y-105293750D01*
X182402904Y-105257113D01*
X182342590Y-105242220D01*
X182311618Y-105231162D01*
X182278645Y-105204906D01*
X182278645Y-104308535D01*
X182310091Y-104283195D01*
X182370629Y-104262705D01*
X182402904Y-104255717D01*
X182402904Y-104219081D01*
X181710781Y-104219081D01*
X181682693Y-104240758D01*
X181687883Y-104290217D01*
X181696431Y-104343645D01*
X181707117Y-104394325D01*
X181717803Y-104434625D01*
X181756576Y-104434625D01*
X181762853Y-104373773D01*
X181763903Y-104368680D01*
X181777947Y-104326243D01*
X181799013Y-104303955D01*
X181826796Y-104297239D01*
X182141259Y-104297239D01*
X182141259Y-104668488D01*
X181793212Y-104668488D01*
X181770925Y-104694439D01*
X181788022Y-104722527D01*
X181808478Y-104751225D01*
X181829849Y-104775955D01*
X181849999Y-104793968D01*
X181878087Y-104772596D01*
X181912281Y-104757942D01*
X181957771Y-104749393D01*
X182020053Y-104746646D01*
X182141259Y-104746646D01*
X182141259Y-105162164D01*
X182135152Y-105184451D01*
X182110118Y-105200937D01*
X182056995Y-105211928D01*
X181992881Y-105215363D01*
X181966014Y-105215592D01*
X181855189Y-105215592D01*
X181793334Y-105212081D01*
X181788022Y-105211318D01*
X181738563Y-105192083D01*
X181699484Y-105147814D01*
X181672751Y-105091829D01*
X181663764Y-105067825D01*
X181626822Y-105083395D01*
G37*
G36*
X181534620Y-105293750D02*
G01*
X181534620Y-105257113D01*
X181473709Y-105245822D01*
X181440892Y-105233299D01*
X181410362Y-105204906D01*
X181410362Y-104313725D01*
X181462087Y-104277528D01*
X181469896Y-104274036D01*
X181530468Y-104256397D01*
X181534620Y-104255717D01*
X181534620Y-104219081D01*
X181352965Y-104219081D01*
X181331899Y-104221218D01*
X181315107Y-104230072D01*
X181296789Y-104249917D01*
X181270227Y-104285332D01*
X180706027Y-105053781D01*
X180706027Y-104308230D01*
X180734114Y-104281363D01*
X180795186Y-104261291D01*
X180830590Y-104255412D01*
X180830590Y-104219081D01*
X180478575Y-104219081D01*
X180478575Y-104255412D01*
X180541155Y-104268254D01*
X180571693Y-104280142D01*
X180603139Y-104308230D01*
X180603139Y-105313289D01*
X180663914Y-105299064D01*
X180670306Y-105296192D01*
X180705111Y-105269936D01*
X181307169Y-104445616D01*
X181307169Y-105204906D01*
X181278471Y-105231468D01*
X181217344Y-105251258D01*
X181182605Y-105257113D01*
X181182605Y-105293750D01*
X181534620Y-105293750D01*
G37*
G36*
X179567855Y-105111789D02*
G01*
X179611750Y-105155993D01*
X179660519Y-105199110D01*
X179673185Y-105209180D01*
X179725436Y-105246135D01*
X179769966Y-105271157D01*
X179827759Y-105294389D01*
X179861862Y-105303519D01*
X179923703Y-105312335D01*
X179951621Y-105313289D01*
X180016109Y-105307343D01*
X180079589Y-105289506D01*
X180108547Y-105277263D01*
X180163831Y-105245779D01*
X180214736Y-105205364D01*
X180246239Y-105173460D01*
X180285267Y-105123082D01*
X180318811Y-105065560D01*
X180344547Y-105007069D01*
X180364189Y-104943093D01*
X180375647Y-104881180D01*
X180381212Y-104815162D01*
X180381794Y-104784503D01*
X180379199Y-104717432D01*
X180371414Y-104653604D01*
X180358438Y-104593021D01*
X180340273Y-104535681D01*
X180314427Y-104475410D01*
X180283944Y-104420308D01*
X180244637Y-104365145D01*
X180227311Y-104344866D01*
X180180424Y-104298993D01*
X180129065Y-104260216D01*
X180073234Y-104228535D01*
X180061531Y-104223050D01*
X180001466Y-104200349D01*
X179939195Y-104186056D01*
X179874717Y-104180170D01*
X179861557Y-104180002D01*
X179800454Y-104182455D01*
X179735218Y-104191680D01*
X179698830Y-104200763D01*
X179638786Y-104222019D01*
X179584036Y-104251138D01*
X179586784Y-104267319D01*
X179607850Y-104296017D01*
X179636243Y-104328685D01*
X179661278Y-104355246D01*
X179691503Y-104350056D01*
X179742543Y-104311373D01*
X179795306Y-104284111D01*
X179855650Y-104265484D01*
X179919112Y-104258388D01*
X179933609Y-104258160D01*
X179995552Y-104268475D01*
X179997722Y-104269151D01*
X180054388Y-104295476D01*
X180067637Y-104303955D01*
X180114758Y-104343350D01*
X180135414Y-104365932D01*
X180171624Y-104416955D01*
X180193422Y-104458439D01*
X180216167Y-104517134D01*
X180232777Y-104580062D01*
X180233722Y-104584529D01*
X180243408Y-104645901D01*
X180247966Y-104708455D01*
X180248682Y-104747561D01*
X180246074Y-104810893D01*
X180237058Y-104875937D01*
X180221602Y-104935376D01*
X180215709Y-104952115D01*
X180190804Y-105009066D01*
X180158532Y-105063212D01*
X180130835Y-105098355D01*
X180086502Y-105140998D01*
X180034476Y-105176327D01*
X180014819Y-105186283D01*
X179955451Y-105207320D01*
X179893751Y-105215563D01*
X179889950Y-105215592D01*
X179828759Y-105205545D01*
X179768745Y-105183840D01*
X179709897Y-105153372D01*
X179656660Y-105117815D01*
X179605484Y-105077911D01*
X179599606Y-105073015D01*
X179590753Y-105080342D01*
X179581594Y-105091944D01*
X179573961Y-105103545D01*
X179567855Y-105111789D01*
G37*
X185594048Y-35967319D02*
X185594048Y-36681604D01*
X185594048Y-36681604D02*
X185641667Y-36824461D01*
X185641667Y-36824461D02*
X185736905Y-36919700D01*
X185736905Y-36919700D02*
X185879762Y-36967319D01*
X185879762Y-36967319D02*
X185975000Y-36967319D01*
X184641667Y-36967319D02*
X185117857Y-36967319D01*
X185117857Y-36967319D02*
X185117857Y-35967319D01*
X183736905Y-36872080D02*
X183784524Y-36919700D01*
X183784524Y-36919700D02*
X183927381Y-36967319D01*
X183927381Y-36967319D02*
X184022619Y-36967319D01*
X184022619Y-36967319D02*
X184165476Y-36919700D01*
X184165476Y-36919700D02*
X184260714Y-36824461D01*
X184260714Y-36824461D02*
X184308333Y-36729223D01*
X184308333Y-36729223D02*
X184355952Y-36538747D01*
X184355952Y-36538747D02*
X184355952Y-36395890D01*
X184355952Y-36395890D02*
X184308333Y-36205414D01*
X184308333Y-36205414D02*
X184260714Y-36110176D01*
X184260714Y-36110176D02*
X184165476Y-36014938D01*
X184165476Y-36014938D02*
X184022619Y-35967319D01*
X184022619Y-35967319D02*
X183927381Y-35967319D01*
X183927381Y-35967319D02*
X183784524Y-36014938D01*
X183784524Y-36014938D02*
X183736905Y-36062557D01*
X183022619Y-35967319D02*
X183022619Y-36681604D01*
X183022619Y-36681604D02*
X183070238Y-36824461D01*
X183070238Y-36824461D02*
X183165476Y-36919700D01*
X183165476Y-36919700D02*
X183308333Y-36967319D01*
X183308333Y-36967319D02*
X183403571Y-36967319D01*
X182070238Y-36967319D02*
X182546428Y-36967319D01*
X182546428Y-36967319D02*
X182546428Y-35967319D01*
X181165476Y-36872080D02*
X181213095Y-36919700D01*
X181213095Y-36919700D02*
X181355952Y-36967319D01*
X181355952Y-36967319D02*
X181451190Y-36967319D01*
X181451190Y-36967319D02*
X181594047Y-36919700D01*
X181594047Y-36919700D02*
X181689285Y-36824461D01*
X181689285Y-36824461D02*
X181736904Y-36729223D01*
X181736904Y-36729223D02*
X181784523Y-36538747D01*
X181784523Y-36538747D02*
X181784523Y-36395890D01*
X181784523Y-36395890D02*
X181736904Y-36205414D01*
X181736904Y-36205414D02*
X181689285Y-36110176D01*
X181689285Y-36110176D02*
X181594047Y-36014938D01*
X181594047Y-36014938D02*
X181451190Y-35967319D01*
X181451190Y-35967319D02*
X181355952Y-35967319D01*
X181355952Y-35967319D02*
X181213095Y-36014938D01*
X181213095Y-36014938D02*
X181165476Y-36062557D01*
X180451190Y-35967319D02*
X180451190Y-36681604D01*
X180451190Y-36681604D02*
X180498809Y-36824461D01*
X180498809Y-36824461D02*
X180594047Y-36919700D01*
X180594047Y-36919700D02*
X180736904Y-36967319D01*
X180736904Y-36967319D02*
X180832142Y-36967319D01*
X179498809Y-36967319D02*
X179974999Y-36967319D01*
X179974999Y-36967319D02*
X179974999Y-35967319D01*
X178594047Y-36872080D02*
X178641666Y-36919700D01*
X178641666Y-36919700D02*
X178784523Y-36967319D01*
X178784523Y-36967319D02*
X178879761Y-36967319D01*
X178879761Y-36967319D02*
X179022618Y-36919700D01*
X179022618Y-36919700D02*
X179117856Y-36824461D01*
X179117856Y-36824461D02*
X179165475Y-36729223D01*
X179165475Y-36729223D02*
X179213094Y-36538747D01*
X179213094Y-36538747D02*
X179213094Y-36395890D01*
X179213094Y-36395890D02*
X179165475Y-36205414D01*
X179165475Y-36205414D02*
X179117856Y-36110176D01*
X179117856Y-36110176D02*
X179022618Y-36014938D01*
X179022618Y-36014938D02*
X178879761Y-35967319D01*
X178879761Y-35967319D02*
X178784523Y-35967319D01*
X178784523Y-35967319D02*
X178641666Y-36014938D01*
X178641666Y-36014938D02*
X178594047Y-36062557D01*
X177879761Y-35967319D02*
X177879761Y-36681604D01*
X177879761Y-36681604D02*
X177927380Y-36824461D01*
X177927380Y-36824461D02*
X178022618Y-36919700D01*
X178022618Y-36919700D02*
X178165475Y-36967319D01*
X178165475Y-36967319D02*
X178260713Y-36967319D01*
X176927380Y-36967319D02*
X177403570Y-36967319D01*
X177403570Y-36967319D02*
X177403570Y-35967319D01*
X176022618Y-36872080D02*
X176070237Y-36919700D01*
X176070237Y-36919700D02*
X176213094Y-36967319D01*
X176213094Y-36967319D02*
X176308332Y-36967319D01*
X176308332Y-36967319D02*
X176451189Y-36919700D01*
X176451189Y-36919700D02*
X176546427Y-36824461D01*
X176546427Y-36824461D02*
X176594046Y-36729223D01*
X176594046Y-36729223D02*
X176641665Y-36538747D01*
X176641665Y-36538747D02*
X176641665Y-36395890D01*
X176641665Y-36395890D02*
X176594046Y-36205414D01*
X176594046Y-36205414D02*
X176546427Y-36110176D01*
X176546427Y-36110176D02*
X176451189Y-36014938D01*
X176451189Y-36014938D02*
X176308332Y-35967319D01*
X176308332Y-35967319D02*
X176213094Y-35967319D01*
X176213094Y-35967319D02*
X176070237Y-36014938D01*
X176070237Y-36014938D02*
X176022618Y-36062557D01*
G36*
X50471156Y-58545500D02*
G01*
X50471156Y-58492377D01*
X50399794Y-58482903D01*
X50341536Y-58472190D01*
X50271307Y-58452965D01*
X50259019Y-58448462D01*
X50215104Y-58425088D01*
X50202000Y-58402422D01*
X50202000Y-57604163D01*
X50205188Y-57542187D01*
X50220062Y-57506063D01*
X50243082Y-57496147D01*
X50290892Y-57493314D01*
X50362670Y-57499311D01*
X50368452Y-57500042D01*
X50441769Y-57512171D01*
X50481072Y-57520229D01*
X50501967Y-57469231D01*
X50433844Y-57447348D01*
X50402804Y-57436295D01*
X50334300Y-57409938D01*
X50286997Y-57390609D01*
X50219307Y-57361295D01*
X50175439Y-57341382D01*
X50109686Y-57309548D01*
X50089734Y-57298884D01*
X50052902Y-57333945D01*
X50052902Y-58402422D01*
X50041923Y-58424025D01*
X50002967Y-58447399D01*
X49932766Y-58469977D01*
X49926824Y-58471482D01*
X49855938Y-58485288D01*
X49803579Y-58492377D01*
X49803579Y-58545500D01*
X50471156Y-58545500D01*
G37*
G36*
X48806995Y-57381756D02*
G01*
X48835687Y-57448996D01*
X48864655Y-57516582D01*
X48893901Y-57584515D01*
X48899783Y-57598143D01*
X48928758Y-57665853D01*
X48957250Y-57733080D01*
X48985257Y-57799823D01*
X48990800Y-57813113D01*
X49018157Y-57878742D01*
X49047530Y-57949655D01*
X49076151Y-58019229D01*
X49103397Y-58086510D01*
X49131403Y-58156756D01*
X49151231Y-58207284D01*
X49178090Y-58276537D01*
X49204663Y-58345757D01*
X49213562Y-58369132D01*
X49238529Y-58437217D01*
X49258185Y-58494856D01*
X49319526Y-58531900D01*
X49331494Y-58537708D01*
X49398391Y-58562350D01*
X49419678Y-58568165D01*
X49460406Y-58535583D01*
X49423309Y-58470394D01*
X49387941Y-58406527D01*
X49354302Y-58343981D01*
X49317974Y-58274119D01*
X49304933Y-58248366D01*
X49271200Y-58180369D01*
X49238706Y-58113434D01*
X49207452Y-58047562D01*
X49177438Y-57982752D01*
X49144845Y-57910803D01*
X49113205Y-57839582D01*
X49082517Y-57769089D01*
X49065880Y-57730241D01*
X49036030Y-57660350D01*
X49005843Y-57590122D01*
X48975320Y-57519557D01*
X48958218Y-57480210D01*
X49410470Y-57480210D01*
X49439511Y-57481272D01*
X49468551Y-57494376D01*
X49500779Y-57536874D01*
X49531316Y-57603686D01*
X49539027Y-57624350D01*
X49584713Y-57606642D01*
X49576922Y-57548915D01*
X49565943Y-57476668D01*
X49554278Y-57405618D01*
X49553902Y-57403359D01*
X49542215Y-57344215D01*
X48839931Y-57344215D01*
X48806995Y-57381756D01*
G37*
G36*
X47903907Y-58137162D02*
G01*
X47908991Y-58210420D01*
X47924243Y-58280832D01*
X47930468Y-58300426D01*
X47960329Y-58369501D01*
X48000773Y-58430639D01*
X48006965Y-58438191D01*
X48059248Y-58488679D01*
X48121802Y-58528583D01*
X48130919Y-58533104D01*
X48199170Y-58557072D01*
X48269345Y-58567309D01*
X48298078Y-58568165D01*
X48373118Y-58563080D01*
X48447456Y-58547825D01*
X48481529Y-58537354D01*
X48548979Y-58507622D01*
X48609845Y-58468730D01*
X48658959Y-58428629D01*
X48623898Y-58362049D01*
X48561673Y-58402417D01*
X48527923Y-58421192D01*
X48461579Y-58451136D01*
X48447531Y-58456253D01*
X48379887Y-58473252D01*
X48320036Y-58477502D01*
X48249238Y-58468513D01*
X48207415Y-58452003D01*
X48148569Y-58409075D01*
X48127023Y-58384360D01*
X48090729Y-58320234D01*
X48079212Y-58287323D01*
X48065517Y-58217765D01*
X48063275Y-58174702D01*
X48068542Y-58100534D01*
X48079921Y-58048270D01*
X48108624Y-57980442D01*
X48129502Y-57950878D01*
X48183813Y-57903902D01*
X48214144Y-57888193D01*
X48285528Y-57868715D01*
X48335264Y-57865527D01*
X48383075Y-57870486D01*
X48439031Y-57885360D01*
X48497820Y-57910151D01*
X48553068Y-57945212D01*
X48600170Y-57912275D01*
X48588278Y-57841545D01*
X48586358Y-57830112D01*
X48573941Y-57757533D01*
X48569713Y-57732012D01*
X48558026Y-57659912D01*
X48552714Y-57626475D01*
X48541864Y-57553477D01*
X48537485Y-57521292D01*
X48528401Y-57450400D01*
X48525444Y-57424254D01*
X48518936Y-57352903D01*
X48518361Y-57344215D01*
X48084170Y-57344215D01*
X48033527Y-57344215D01*
X47995632Y-57344215D01*
X47963759Y-57321550D01*
X47934718Y-57352715D01*
X47960217Y-57388484D01*
X47989612Y-57424608D01*
X48019006Y-57456128D01*
X48045214Y-57480210D01*
X48430885Y-57480210D01*
X48437307Y-57551078D01*
X48437614Y-57553874D01*
X48446442Y-57624894D01*
X48449301Y-57645245D01*
X48460128Y-57717703D01*
X48462759Y-57733429D01*
X48473384Y-57796468D01*
X48402761Y-57783567D01*
X48379887Y-57780885D01*
X48307376Y-57775452D01*
X48275413Y-57774864D01*
X48200218Y-57780626D01*
X48128829Y-57799588D01*
X48115690Y-57804967D01*
X48051943Y-57839763D01*
X47999528Y-57884652D01*
X47956155Y-57942106D01*
X47928344Y-58000105D01*
X47909276Y-58071417D01*
X47903907Y-58137162D01*
G37*
G36*
X52997703Y-78389250D02*
G01*
X53689008Y-78389250D01*
X53717695Y-78315940D01*
X53667385Y-78257796D01*
X53619955Y-78202668D01*
X53569278Y-78143359D01*
X53522364Y-78087989D01*
X53511224Y-78074762D01*
X53463637Y-78017530D01*
X53415495Y-77958472D01*
X53368290Y-77899021D01*
X53360355Y-77888833D01*
X53316213Y-77831111D01*
X53272646Y-77770946D01*
X53256588Y-77747526D01*
X53218113Y-77686503D01*
X53192133Y-77638801D01*
X53164575Y-77571734D01*
X53159197Y-77551680D01*
X53150025Y-77479528D01*
X53149989Y-77474829D01*
X53157236Y-77404330D01*
X53160967Y-77389124D01*
X53191628Y-77325024D01*
X53196028Y-77319356D01*
X53253592Y-77275094D01*
X53258359Y-77272962D01*
X53327633Y-77256776D01*
X53350439Y-77255963D01*
X53421200Y-77273394D01*
X53425519Y-77275795D01*
X53481215Y-77322319D01*
X53484308Y-77326085D01*
X53520789Y-77389417D01*
X53522557Y-77394082D01*
X53536355Y-77463803D01*
X53536369Y-77465975D01*
X53566826Y-77482974D01*
X53594450Y-77497494D01*
X53624907Y-77508473D01*
X53663863Y-77514848D01*
X53690779Y-77485099D01*
X53675832Y-77414940D01*
X53656072Y-77376729D01*
X53612699Y-77319598D01*
X53563638Y-77273670D01*
X53501839Y-77230906D01*
X53437147Y-77198052D01*
X53432602Y-77196111D01*
X53363096Y-77173995D01*
X53292034Y-77165420D01*
X53282442Y-77165300D01*
X53210836Y-77171940D01*
X53170529Y-77182299D01*
X53104988Y-77213875D01*
X53079512Y-77233651D01*
X53033814Y-77289925D01*
X53018244Y-77321481D01*
X52999319Y-77391556D01*
X52995578Y-77447559D01*
X53004229Y-77520305D01*
X53008682Y-77537159D01*
X53034693Y-77605656D01*
X53049055Y-77634551D01*
X53084888Y-77696257D01*
X53119886Y-77748588D01*
X53164516Y-77809861D01*
X53209868Y-77868629D01*
X53225069Y-77887770D01*
X53269694Y-77943025D01*
X53318839Y-78002632D01*
X53367438Y-78060596D01*
X53414424Y-78116288D01*
X53464939Y-78175790D01*
X53512805Y-78231879D01*
X53550535Y-78275921D01*
X53134052Y-78275921D01*
X53103595Y-78268484D01*
X53079867Y-78248297D01*
X53061805Y-78219965D01*
X53049409Y-78187029D01*
X53034518Y-78116818D01*
X53032410Y-78098491D01*
X52982829Y-78110532D01*
X52997703Y-78389250D01*
G37*
G36*
X52045742Y-78389250D02*
G01*
X52737047Y-78389250D01*
X52765734Y-78315940D01*
X52715424Y-78257796D01*
X52667995Y-78202668D01*
X52617318Y-78143359D01*
X52570403Y-78087989D01*
X52559263Y-78074762D01*
X52511676Y-78017530D01*
X52463534Y-77958472D01*
X52416329Y-77899021D01*
X52408394Y-77888833D01*
X52364252Y-77831111D01*
X52320685Y-77770946D01*
X52304628Y-77747526D01*
X52266152Y-77686503D01*
X52240172Y-77638801D01*
X52212614Y-77571734D01*
X52207236Y-77551680D01*
X52198064Y-77479528D01*
X52198028Y-77474829D01*
X52205275Y-77404330D01*
X52209006Y-77389124D01*
X52239667Y-77325024D01*
X52244068Y-77319356D01*
X52301631Y-77275094D01*
X52306398Y-77272962D01*
X52375672Y-77256776D01*
X52398478Y-77255963D01*
X52469239Y-77273394D01*
X52473558Y-77275795D01*
X52529254Y-77322319D01*
X52532347Y-77326085D01*
X52568828Y-77389417D01*
X52570596Y-77394082D01*
X52584394Y-77463803D01*
X52584408Y-77465975D01*
X52614865Y-77482974D01*
X52642489Y-77497494D01*
X52672946Y-77508473D01*
X52711902Y-77514848D01*
X52738818Y-77485099D01*
X52723871Y-77414940D01*
X52704111Y-77376729D01*
X52660738Y-77319598D01*
X52611677Y-77273670D01*
X52549878Y-77230906D01*
X52485186Y-77198052D01*
X52480641Y-77196111D01*
X52411135Y-77173995D01*
X52340073Y-77165420D01*
X52330481Y-77165300D01*
X52258875Y-77171940D01*
X52218569Y-77182299D01*
X52153027Y-77213875D01*
X52127551Y-77233651D01*
X52081853Y-77289925D01*
X52066283Y-77321481D01*
X52047358Y-77391556D01*
X52043617Y-77447559D01*
X52052268Y-77520305D01*
X52056721Y-77537159D01*
X52082733Y-77605656D01*
X52097094Y-77634551D01*
X52132927Y-77696257D01*
X52167925Y-77748588D01*
X52212555Y-77809861D01*
X52257907Y-77868629D01*
X52273108Y-77887770D01*
X52317733Y-77943025D01*
X52366878Y-78002632D01*
X52415477Y-78060596D01*
X52462463Y-78116288D01*
X52512978Y-78175790D01*
X52560844Y-78231879D01*
X52598574Y-78275921D01*
X52182091Y-78275921D01*
X52151634Y-78268484D01*
X52127906Y-78248297D01*
X52109844Y-78219965D01*
X52097449Y-78187029D01*
X52082558Y-78116818D01*
X52080449Y-78098491D01*
X52030868Y-78110532D01*
X52045742Y-78389250D01*
G37*
G36*
X51078907Y-77980912D02*
G01*
X51083991Y-78054170D01*
X51099243Y-78124582D01*
X51105468Y-78144176D01*
X51135329Y-78213251D01*
X51175773Y-78274389D01*
X51181965Y-78281941D01*
X51234248Y-78332429D01*
X51296802Y-78372333D01*
X51305919Y-78376854D01*
X51374170Y-78400822D01*
X51444345Y-78411059D01*
X51473078Y-78411915D01*
X51548118Y-78406830D01*
X51622456Y-78391575D01*
X51656529Y-78381104D01*
X51723979Y-78351372D01*
X51784845Y-78312480D01*
X51833959Y-78272379D01*
X51798898Y-78205799D01*
X51736673Y-78246167D01*
X51702923Y-78264942D01*
X51636579Y-78294886D01*
X51622531Y-78300003D01*
X51554887Y-78317002D01*
X51495036Y-78321252D01*
X51424238Y-78312263D01*
X51382415Y-78295753D01*
X51323569Y-78252825D01*
X51302023Y-78228110D01*
X51265729Y-78163984D01*
X51254212Y-78131073D01*
X51240517Y-78061515D01*
X51238275Y-78018452D01*
X51243542Y-77944284D01*
X51254921Y-77892020D01*
X51283624Y-77824192D01*
X51304502Y-77794628D01*
X51358813Y-77747652D01*
X51389144Y-77731943D01*
X51460528Y-77712465D01*
X51510264Y-77709277D01*
X51558075Y-77714236D01*
X51614031Y-77729110D01*
X51672820Y-77753901D01*
X51728068Y-77788962D01*
X51775170Y-77756025D01*
X51763278Y-77685295D01*
X51761358Y-77673862D01*
X51748941Y-77601283D01*
X51744713Y-77575762D01*
X51733026Y-77503662D01*
X51727714Y-77470225D01*
X51716864Y-77397227D01*
X51712485Y-77365042D01*
X51703401Y-77294150D01*
X51700444Y-77268004D01*
X51693936Y-77196653D01*
X51693361Y-77187965D01*
X51259170Y-77187965D01*
X51208527Y-77187965D01*
X51170632Y-77187965D01*
X51138759Y-77165300D01*
X51109718Y-77196465D01*
X51135217Y-77232234D01*
X51164612Y-77268358D01*
X51194006Y-77299878D01*
X51220214Y-77323960D01*
X51605885Y-77323960D01*
X51612307Y-77394828D01*
X51612614Y-77397624D01*
X51621442Y-77468644D01*
X51624301Y-77488995D01*
X51635128Y-77561453D01*
X51637759Y-77577179D01*
X51648384Y-77640218D01*
X51577761Y-77627317D01*
X51554887Y-77624635D01*
X51482376Y-77619202D01*
X51450413Y-77618614D01*
X51375218Y-77624376D01*
X51303829Y-77643338D01*
X51290690Y-77648717D01*
X51226943Y-77683513D01*
X51174528Y-77728402D01*
X51131155Y-77785856D01*
X51103344Y-77843855D01*
X51084276Y-77915167D01*
X51078907Y-77980912D01*
G37*
G36*
X131578953Y-103789250D02*
G01*
X132270258Y-103789250D01*
X132298945Y-103715940D01*
X132248635Y-103657796D01*
X132201205Y-103602668D01*
X132150528Y-103543359D01*
X132103614Y-103487989D01*
X132092474Y-103474762D01*
X132044887Y-103417530D01*
X131996745Y-103358472D01*
X131949540Y-103299021D01*
X131941605Y-103288833D01*
X131897463Y-103231111D01*
X131853896Y-103170946D01*
X131837838Y-103147526D01*
X131799363Y-103086503D01*
X131773383Y-103038801D01*
X131745825Y-102971734D01*
X131740447Y-102951680D01*
X131731275Y-102879528D01*
X131731239Y-102874829D01*
X131738486Y-102804330D01*
X131742217Y-102789124D01*
X131772878Y-102725024D01*
X131777278Y-102719356D01*
X131834842Y-102675094D01*
X131839609Y-102672962D01*
X131908883Y-102656776D01*
X131931689Y-102655963D01*
X132002450Y-102673394D01*
X132006769Y-102675795D01*
X132062465Y-102722319D01*
X132065558Y-102726085D01*
X132102039Y-102789417D01*
X132103807Y-102794082D01*
X132117605Y-102863803D01*
X132117619Y-102865975D01*
X132148076Y-102882974D01*
X132175700Y-102897494D01*
X132206157Y-102908473D01*
X132245113Y-102914848D01*
X132272029Y-102885099D01*
X132257082Y-102814940D01*
X132237322Y-102776729D01*
X132193949Y-102719598D01*
X132144888Y-102673670D01*
X132083089Y-102630906D01*
X132018397Y-102598052D01*
X132013852Y-102596111D01*
X131944346Y-102573995D01*
X131873284Y-102565420D01*
X131863692Y-102565300D01*
X131792086Y-102571940D01*
X131751779Y-102582299D01*
X131686238Y-102613875D01*
X131660762Y-102633651D01*
X131615064Y-102689925D01*
X131599494Y-102721481D01*
X131580569Y-102791556D01*
X131576828Y-102847559D01*
X131585479Y-102920305D01*
X131589932Y-102937159D01*
X131615943Y-103005656D01*
X131630305Y-103034551D01*
X131666138Y-103096257D01*
X131701136Y-103148588D01*
X131745766Y-103209861D01*
X131791118Y-103268629D01*
X131806319Y-103287770D01*
X131850944Y-103343025D01*
X131900089Y-103402632D01*
X131948688Y-103460596D01*
X131995674Y-103516288D01*
X132046189Y-103575790D01*
X132094055Y-103631879D01*
X132131785Y-103675921D01*
X131715302Y-103675921D01*
X131684845Y-103668484D01*
X131661117Y-103648297D01*
X131643055Y-103619965D01*
X131630659Y-103587029D01*
X131615768Y-103516818D01*
X131613660Y-103498491D01*
X131564079Y-103510532D01*
X131578953Y-103789250D01*
G37*
G36*
X130563245Y-102625506D02*
G01*
X130591937Y-102692746D01*
X130620905Y-102760332D01*
X130650151Y-102828265D01*
X130656033Y-102841893D01*
X130685008Y-102909603D01*
X130713500Y-102976830D01*
X130741507Y-103043573D01*
X130747050Y-103056863D01*
X130774407Y-103122492D01*
X130803780Y-103193405D01*
X130832401Y-103262979D01*
X130859647Y-103330260D01*
X130887653Y-103400506D01*
X130907481Y-103451034D01*
X130934340Y-103520287D01*
X130960913Y-103589507D01*
X130969812Y-103612882D01*
X130994779Y-103680967D01*
X131014435Y-103738606D01*
X131075776Y-103775650D01*
X131087744Y-103781458D01*
X131154641Y-103806100D01*
X131175928Y-103811915D01*
X131216656Y-103779333D01*
X131179559Y-103714144D01*
X131144191Y-103650277D01*
X131110552Y-103587731D01*
X131074224Y-103517869D01*
X131061183Y-103492116D01*
X131027450Y-103424119D01*
X130994956Y-103357184D01*
X130963702Y-103291312D01*
X130933688Y-103226502D01*
X130901095Y-103154553D01*
X130869455Y-103083332D01*
X130838767Y-103012839D01*
X130822130Y-102973991D01*
X130792280Y-102904100D01*
X130762093Y-102833872D01*
X130731570Y-102763307D01*
X130714468Y-102723960D01*
X131166720Y-102723960D01*
X131195761Y-102725022D01*
X131224801Y-102738126D01*
X131257029Y-102780624D01*
X131287566Y-102847436D01*
X131295277Y-102868100D01*
X131340963Y-102850392D01*
X131333172Y-102792665D01*
X131322193Y-102720418D01*
X131310528Y-102649368D01*
X131310152Y-102647109D01*
X131298465Y-102587965D01*
X130596181Y-102587965D01*
X130563245Y-102625506D01*
G37*
G36*
X129660157Y-103380912D02*
G01*
X129665241Y-103454170D01*
X129680493Y-103524582D01*
X129686718Y-103544176D01*
X129716579Y-103613251D01*
X129757023Y-103674389D01*
X129763215Y-103681941D01*
X129815498Y-103732429D01*
X129878052Y-103772333D01*
X129887169Y-103776854D01*
X129955420Y-103800822D01*
X130025595Y-103811059D01*
X130054328Y-103811915D01*
X130129368Y-103806830D01*
X130203706Y-103791575D01*
X130237779Y-103781104D01*
X130305229Y-103751372D01*
X130366095Y-103712480D01*
X130415209Y-103672379D01*
X130380148Y-103605799D01*
X130317923Y-103646167D01*
X130284173Y-103664942D01*
X130217829Y-103694886D01*
X130203781Y-103700003D01*
X130136137Y-103717002D01*
X130076286Y-103721252D01*
X130005488Y-103712263D01*
X129963665Y-103695753D01*
X129904819Y-103652825D01*
X129883273Y-103628110D01*
X129846979Y-103563984D01*
X129835462Y-103531073D01*
X129821767Y-103461515D01*
X129819525Y-103418452D01*
X129824792Y-103344284D01*
X129836171Y-103292020D01*
X129864874Y-103224192D01*
X129885752Y-103194628D01*
X129940063Y-103147652D01*
X129970394Y-103131943D01*
X130041778Y-103112465D01*
X130091514Y-103109277D01*
X130139325Y-103114236D01*
X130195281Y-103129110D01*
X130254070Y-103153901D01*
X130309318Y-103188962D01*
X130356420Y-103156025D01*
X130344528Y-103085295D01*
X130342608Y-103073862D01*
X130330191Y-103001283D01*
X130325963Y-102975762D01*
X130314276Y-102903662D01*
X130308964Y-102870225D01*
X130298114Y-102797227D01*
X130293735Y-102765042D01*
X130284651Y-102694150D01*
X130281694Y-102668004D01*
X130275186Y-102596653D01*
X130274611Y-102587965D01*
X129840420Y-102587965D01*
X129789777Y-102587965D01*
X129751882Y-102587965D01*
X129720009Y-102565300D01*
X129690968Y-102596465D01*
X129716467Y-102632234D01*
X129745862Y-102668358D01*
X129775256Y-102699878D01*
X129801464Y-102723960D01*
X130187135Y-102723960D01*
X130193557Y-102794828D01*
X130193864Y-102797624D01*
X130202692Y-102868644D01*
X130205551Y-102888995D01*
X130216378Y-102961453D01*
X130219009Y-102977179D01*
X130229634Y-103040218D01*
X130159011Y-103027317D01*
X130136137Y-103024635D01*
X130063626Y-103019202D01*
X130031663Y-103018614D01*
X129956468Y-103024376D01*
X129885079Y-103043338D01*
X129871940Y-103048717D01*
X129808193Y-103083513D01*
X129755778Y-103128402D01*
X129712405Y-103185856D01*
X129684594Y-103243855D01*
X129665526Y-103315167D01*
X129660157Y-103380912D01*
G37*
G36*
X165690112Y-102973128D02*
G01*
X165739266Y-102993584D01*
X165790862Y-103011291D01*
X165846427Y-103026251D01*
X165846427Y-103065330D01*
X165843869Y-103065448D01*
X165781703Y-103072657D01*
X165745677Y-103090365D01*
X165729801Y-103122727D01*
X165726443Y-103174323D01*
X165726443Y-104090539D01*
X165758195Y-104117101D01*
X165785486Y-104126432D01*
X165846427Y-104142746D01*
X165846427Y-104179077D01*
X165452281Y-104179077D01*
X165452281Y-104141525D01*
X165506133Y-104131922D01*
X165565548Y-104114964D01*
X165597605Y-104087181D01*
X165597605Y-103672884D01*
X165578464Y-103689710D01*
X165528139Y-103727528D01*
X165473041Y-103758674D01*
X165419930Y-103778919D01*
X165358858Y-103788289D01*
X165335303Y-103786767D01*
X165276426Y-103769055D01*
X165249015Y-103754418D01*
X165199489Y-103717459D01*
X165170679Y-103689052D01*
X165132017Y-103640827D01*
X165108374Y-103604053D01*
X165078894Y-103547404D01*
X165062150Y-103506866D01*
X165043479Y-103446349D01*
X165035665Y-103407809D01*
X165035230Y-103402385D01*
X165146672Y-103402385D01*
X165149827Y-103457107D01*
X165163158Y-103518706D01*
X165174464Y-103548419D01*
X165207732Y-103602664D01*
X165222597Y-103618578D01*
X165275204Y-103653955D01*
X165297766Y-103662220D01*
X165360689Y-103671052D01*
X165409538Y-103667083D01*
X165464187Y-103652734D01*
X165469606Y-103650721D01*
X165525859Y-103624341D01*
X165544865Y-103613264D01*
X165597605Y-103577935D01*
X165597605Y-103250649D01*
X165564830Y-103207915D01*
X165523722Y-103162417D01*
X165503795Y-103143311D01*
X165455944Y-103105020D01*
X165453967Y-103103677D01*
X165399463Y-103074489D01*
X165358858Y-103065330D01*
X165335891Y-103067359D01*
X165279173Y-103090976D01*
X165251424Y-103112814D01*
X165211091Y-103161806D01*
X165184758Y-103211189D01*
X165164379Y-103268968D01*
X165162235Y-103276716D01*
X165150563Y-103337337D01*
X165146672Y-103402385D01*
X165035230Y-103402385D01*
X165030656Y-103345293D01*
X165031621Y-103305713D01*
X165037760Y-103242007D01*
X165050806Y-103178903D01*
X165054727Y-103165248D01*
X165076783Y-103106778D01*
X165107288Y-103053729D01*
X165141440Y-103013465D01*
X165193078Y-102975266D01*
X165238258Y-102956691D01*
X165301155Y-102948094D01*
X165360079Y-102960000D01*
X165379600Y-102967688D01*
X165433657Y-102996331D01*
X165466312Y-103018343D01*
X165516394Y-103058308D01*
X165559671Y-103099295D01*
X165602795Y-103147151D01*
X165610428Y-102978013D01*
X165640653Y-102948094D01*
X165690112Y-102973128D01*
G37*
G36*
X164245416Y-103593811D02*
G01*
X164288644Y-103642957D01*
X164333138Y-103688645D01*
X164344029Y-103698835D01*
X164392163Y-103738676D01*
X164422492Y-103758369D01*
X164480026Y-103781036D01*
X164493017Y-103783404D01*
X164555066Y-103788170D01*
X164567511Y-103788289D01*
X164629411Y-103781420D01*
X164689938Y-103760812D01*
X164742866Y-103729533D01*
X164790026Y-103687789D01*
X164795878Y-103681433D01*
X164832977Y-103631694D01*
X164863064Y-103573308D01*
X164870372Y-103555037D01*
X164887302Y-103496190D01*
X164896418Y-103431847D01*
X164898155Y-103385899D01*
X164894150Y-103324337D01*
X164880648Y-103260388D01*
X164864266Y-103214624D01*
X164835329Y-103157780D01*
X164799351Y-103106775D01*
X164771454Y-103076016D01*
X164724341Y-103035115D01*
X164671390Y-103001255D01*
X164632846Y-102982593D01*
X164571093Y-102961570D01*
X164505820Y-102950250D01*
X164460349Y-102948094D01*
X164402342Y-102952062D01*
X164345860Y-102963359D01*
X164295791Y-102981066D01*
X164258544Y-103004269D01*
X164260986Y-103030525D01*
X164273198Y-103068994D01*
X164290295Y-103109294D01*
X164307392Y-103140435D01*
X164339144Y-103131886D01*
X164361736Y-103098608D01*
X164401426Y-103064414D01*
X164457630Y-103037916D01*
X164459739Y-103037242D01*
X164521459Y-103026638D01*
X164537591Y-103026251D01*
X164598409Y-103035775D01*
X164624908Y-103046401D01*
X164675460Y-103081658D01*
X164698791Y-103107157D01*
X164732338Y-103162009D01*
X164750082Y-103207602D01*
X164763888Y-103268549D01*
X164769147Y-103333664D01*
X164769316Y-103348652D01*
X164765167Y-103409986D01*
X164751514Y-103470124D01*
X164747640Y-103481459D01*
X164720234Y-103540041D01*
X164689327Y-103583430D01*
X164641946Y-103626681D01*
X164605063Y-103648460D01*
X164546959Y-103667324D01*
X164505840Y-103671052D01*
X164461265Y-103668915D01*
X164416080Y-103655787D01*
X164361595Y-103623586D01*
X164359599Y-103622204D01*
X164310287Y-103584531D01*
X164278999Y-103558395D01*
X164245416Y-103593811D01*
G37*
G36*
X164025135Y-102459584D02*
G01*
X164085437Y-102480674D01*
X164131577Y-102492904D01*
X164193819Y-102508456D01*
X164193819Y-102542345D01*
X164136728Y-102550283D01*
X164102839Y-102564327D01*
X164086352Y-102596384D01*
X164082078Y-102656834D01*
X164082078Y-103680822D01*
X164047660Y-103699283D01*
X163992014Y-103726618D01*
X163967815Y-103737297D01*
X163910803Y-103760201D01*
X163903894Y-103762666D01*
X163844857Y-103780962D01*
X163799672Y-103788289D01*
X163742017Y-103784063D01*
X163681215Y-103769055D01*
X163634882Y-103749862D01*
X163580464Y-103717459D01*
X163542055Y-103686712D01*
X163498338Y-103640827D01*
X163468769Y-103601157D01*
X163437277Y-103547404D01*
X163418952Y-103506866D01*
X163399419Y-103446349D01*
X163392796Y-103413681D01*
X163502612Y-103413681D01*
X163504235Y-103446766D01*
X163516351Y-103508326D01*
X163526249Y-103536024D01*
X163557261Y-103590452D01*
X163575305Y-103611788D01*
X163623818Y-103649071D01*
X163652409Y-103661586D01*
X163715409Y-103671052D01*
X163757235Y-103667083D01*
X163815548Y-103653345D01*
X163825655Y-103650120D01*
X163883326Y-103626783D01*
X163901090Y-103617872D01*
X163953240Y-103584957D01*
X163953240Y-103244849D01*
X163923969Y-103205748D01*
X163881188Y-103158753D01*
X163863443Y-103142248D01*
X163813411Y-103103493D01*
X163811433Y-103102207D01*
X163756319Y-103074184D01*
X163715409Y-103065330D01*
X163694972Y-103066799D01*
X163635724Y-103088838D01*
X163607932Y-103109203D01*
X163567336Y-103156311D01*
X163540775Y-103205693D01*
X163520320Y-103265304D01*
X163515218Y-103285992D01*
X163505534Y-103348837D01*
X163502612Y-103413681D01*
X163392796Y-103413681D01*
X163391606Y-103407809D01*
X163386597Y-103345293D01*
X163387561Y-103305713D01*
X163393700Y-103242007D01*
X163406747Y-103178903D01*
X163409326Y-103169756D01*
X163430789Y-103110668D01*
X163462617Y-103053729D01*
X163496502Y-103013465D01*
X163547797Y-102975266D01*
X163592560Y-102956691D01*
X163655264Y-102948094D01*
X163713882Y-102959695D01*
X163730884Y-102966259D01*
X163786239Y-102995110D01*
X163818545Y-103016575D01*
X163867755Y-103055560D01*
X163910345Y-103095555D01*
X163953240Y-103142267D01*
X163953240Y-102469072D01*
X163966063Y-102458081D01*
X163976443Y-102448617D01*
X163984992Y-102440068D01*
X164025135Y-102459584D01*
G37*
G36*
X162752629Y-102459584D02*
G01*
X162812931Y-102480674D01*
X162859071Y-102492904D01*
X162921314Y-102508456D01*
X162921314Y-102542345D01*
X162864222Y-102550283D01*
X162830334Y-102564327D01*
X162813847Y-102596384D01*
X162809573Y-102656834D01*
X162809573Y-103680822D01*
X162775155Y-103699283D01*
X162719508Y-103726618D01*
X162695310Y-103737297D01*
X162638298Y-103760201D01*
X162631389Y-103762666D01*
X162572352Y-103780962D01*
X162527167Y-103788289D01*
X162469511Y-103784063D01*
X162408709Y-103769055D01*
X162362377Y-103749862D01*
X162307959Y-103717459D01*
X162269549Y-103686712D01*
X162225833Y-103640827D01*
X162196263Y-103601157D01*
X162164772Y-103547404D01*
X162146446Y-103506866D01*
X162126914Y-103446349D01*
X162120291Y-103413681D01*
X162230107Y-103413681D01*
X162231730Y-103446766D01*
X162243845Y-103508326D01*
X162253744Y-103536024D01*
X162284756Y-103590452D01*
X162302800Y-103611788D01*
X162351312Y-103649071D01*
X162379904Y-103661586D01*
X162442903Y-103671052D01*
X162484730Y-103667083D01*
X162543043Y-103653345D01*
X162553150Y-103650120D01*
X162610820Y-103626783D01*
X162628585Y-103617872D01*
X162680735Y-103584957D01*
X162680735Y-103244849D01*
X162651464Y-103205748D01*
X162608683Y-103158753D01*
X162590937Y-103142248D01*
X162540906Y-103103493D01*
X162538928Y-103102207D01*
X162483814Y-103074184D01*
X162442903Y-103065330D01*
X162422467Y-103066799D01*
X162363219Y-103088838D01*
X162335427Y-103109203D01*
X162294831Y-103156311D01*
X162268270Y-103205693D01*
X162247814Y-103265304D01*
X162242713Y-103285992D01*
X162233029Y-103348837D01*
X162230107Y-103413681D01*
X162120291Y-103413681D01*
X162119100Y-103407809D01*
X162114091Y-103345293D01*
X162115056Y-103305713D01*
X162121195Y-103242007D01*
X162134241Y-103178903D01*
X162136821Y-103169756D01*
X162158284Y-103110668D01*
X162190112Y-103053729D01*
X162223997Y-103013465D01*
X162275292Y-102975266D01*
X162320054Y-102956691D01*
X162382759Y-102948094D01*
X162441377Y-102959695D01*
X162458378Y-102966259D01*
X162513734Y-102995110D01*
X162546040Y-103016575D01*
X162595250Y-103055560D01*
X162637840Y-103095555D01*
X162680735Y-103142267D01*
X162680735Y-102469072D01*
X162693558Y-102458081D01*
X162703938Y-102448617D01*
X162712486Y-102440068D01*
X162752629Y-102459584D01*
G37*
G36*
X161192685Y-103004575D02*
G01*
X161235122Y-103015871D01*
X161261684Y-103027472D01*
X161277560Y-103042127D01*
X161287329Y-103063193D01*
X161574009Y-103838664D01*
X161597331Y-103895706D01*
X161624843Y-103952253D01*
X161654304Y-104002307D01*
X161690827Y-104053543D01*
X161731399Y-104099591D01*
X161746201Y-104113743D01*
X161796977Y-104153581D01*
X161842066Y-104177856D01*
X161902874Y-104196164D01*
X161933046Y-104198617D01*
X161993191Y-104194343D01*
X162040513Y-104183657D01*
X162071044Y-104169002D01*
X162082340Y-104153127D01*
X162071960Y-104132366D01*
X162046314Y-104098172D01*
X162013341Y-104062452D01*
X161981895Y-104036806D01*
X161922962Y-104059806D01*
X161900074Y-104062452D01*
X161837557Y-104055762D01*
X161827411Y-104052377D01*
X161791386Y-104028258D01*
X161749559Y-103981546D01*
X161714662Y-103929962D01*
X161708343Y-103919264D01*
X161679840Y-103863578D01*
X161672928Y-103847518D01*
X161647893Y-103787984D01*
X161929688Y-103063193D01*
X161959608Y-103026557D01*
X162019643Y-103005770D01*
X162024943Y-103004575D01*
X162024943Y-102967633D01*
X161693383Y-102967633D01*
X161693383Y-103004575D01*
X161748032Y-103013428D01*
X161780700Y-103024114D01*
X161794133Y-103039990D01*
X161790470Y-103063193D01*
X161579200Y-103611518D01*
X161380752Y-103063193D01*
X161379531Y-103041211D01*
X161394186Y-103025641D01*
X161426853Y-103014650D01*
X161479671Y-103004575D01*
X161479671Y-102967633D01*
X161192685Y-102967633D01*
X161192685Y-103004575D01*
G37*
G36*
X316360030Y-58487873D02*
G01*
X316360030Y-58434750D01*
X316288668Y-58425276D01*
X316230410Y-58414563D01*
X316160181Y-58395338D01*
X316147893Y-58390835D01*
X316103978Y-58367461D01*
X316090874Y-58344795D01*
X316090874Y-57546536D01*
X316094062Y-57484560D01*
X316108936Y-57448436D01*
X316131956Y-57438520D01*
X316179766Y-57435687D01*
X316251544Y-57441684D01*
X316257326Y-57442415D01*
X316330643Y-57454544D01*
X316369946Y-57462602D01*
X316390841Y-57411604D01*
X316322718Y-57389721D01*
X316291678Y-57378668D01*
X316223174Y-57352311D01*
X316175871Y-57332982D01*
X316108181Y-57303668D01*
X316064313Y-57283755D01*
X315998560Y-57251921D01*
X315978608Y-57241257D01*
X315941776Y-57276318D01*
X315941776Y-58344795D01*
X315930797Y-58366398D01*
X315891841Y-58389772D01*
X315821640Y-58412350D01*
X315815698Y-58413855D01*
X315744812Y-58427661D01*
X315692453Y-58434750D01*
X315692453Y-58487873D01*
X316360030Y-58487873D01*
G37*
G36*
X314744742Y-58079535D02*
G01*
X314749826Y-58152793D01*
X314765078Y-58223205D01*
X314771303Y-58242799D01*
X314801164Y-58311874D01*
X314841608Y-58373012D01*
X314847800Y-58380564D01*
X314900083Y-58431052D01*
X314962637Y-58470956D01*
X314971753Y-58475477D01*
X315040005Y-58499445D01*
X315110180Y-58509682D01*
X315138913Y-58510538D01*
X315213953Y-58505453D01*
X315288291Y-58490198D01*
X315322364Y-58479727D01*
X315389813Y-58449995D01*
X315450680Y-58411103D01*
X315499794Y-58371002D01*
X315464733Y-58304422D01*
X315402508Y-58344790D01*
X315368758Y-58363565D01*
X315302414Y-58393509D01*
X315288365Y-58398626D01*
X315220722Y-58415625D01*
X315160871Y-58419875D01*
X315090073Y-58410886D01*
X315048250Y-58394376D01*
X314989404Y-58351448D01*
X314967858Y-58326733D01*
X314931564Y-58262607D01*
X314920047Y-58229696D01*
X314906352Y-58160138D01*
X314904110Y-58117075D01*
X314909377Y-58042907D01*
X314920756Y-57990643D01*
X314949458Y-57922815D01*
X314970337Y-57893251D01*
X315024648Y-57846275D01*
X315054979Y-57830566D01*
X315126363Y-57811088D01*
X315176099Y-57807900D01*
X315223910Y-57812859D01*
X315279866Y-57827733D01*
X315338655Y-57852524D01*
X315393903Y-57887585D01*
X315441005Y-57854648D01*
X315429113Y-57783918D01*
X315427193Y-57772485D01*
X315414776Y-57699906D01*
X315410548Y-57674385D01*
X315398861Y-57602285D01*
X315393549Y-57568848D01*
X315382699Y-57495850D01*
X315378320Y-57463665D01*
X315369236Y-57392773D01*
X315366279Y-57366627D01*
X315359771Y-57295276D01*
X315359196Y-57286588D01*
X314925005Y-57286588D01*
X314874362Y-57286588D01*
X314836467Y-57286588D01*
X314804594Y-57263923D01*
X314775553Y-57295088D01*
X314801052Y-57330857D01*
X314830447Y-57366981D01*
X314859841Y-57398501D01*
X314886049Y-57422583D01*
X315271720Y-57422583D01*
X315278142Y-57493451D01*
X315278449Y-57496247D01*
X315287277Y-57567267D01*
X315290136Y-57587618D01*
X315300963Y-57660076D01*
X315303594Y-57675802D01*
X315314219Y-57738841D01*
X315243596Y-57725940D01*
X315220722Y-57723258D01*
X315148211Y-57717825D01*
X315116248Y-57717237D01*
X315041052Y-57722999D01*
X314969663Y-57741961D01*
X314956525Y-57747340D01*
X314892778Y-57782136D01*
X314840363Y-57827025D01*
X314796990Y-57884479D01*
X314769178Y-57942478D01*
X314750111Y-58013790D01*
X314744742Y-58079535D01*
G37*
G36*
X314162329Y-57288307D02*
G01*
X314233875Y-57303818D01*
X314299927Y-57335461D01*
X314332791Y-57358521D01*
X314388161Y-57410248D01*
X314432734Y-57468269D01*
X314464877Y-57523204D01*
X314494723Y-57589864D01*
X314518793Y-57663052D01*
X314522524Y-57677005D01*
X314537568Y-57748348D01*
X314546595Y-57822318D01*
X314549604Y-57898918D01*
X314549509Y-57914491D01*
X314546168Y-57990737D01*
X314538054Y-58064286D01*
X314525168Y-58135137D01*
X314509545Y-58195476D01*
X314485353Y-58263213D01*
X314452566Y-58329566D01*
X314436842Y-58354736D01*
X314390699Y-58412326D01*
X314332509Y-58461665D01*
X314309489Y-58475745D01*
X314239145Y-58502472D01*
X314166057Y-58510538D01*
X314131183Y-58508820D01*
X314059637Y-58493309D01*
X313993585Y-58461665D01*
X313960445Y-58438639D01*
X313904743Y-58387155D01*
X313860070Y-58329566D01*
X313827961Y-58274818D01*
X313798234Y-58208284D01*
X313774365Y-58135137D01*
X313770677Y-58121183D01*
X313755805Y-58049792D01*
X313746882Y-57975704D01*
X313745362Y-57936458D01*
X313907172Y-57936458D01*
X313908349Y-58005487D01*
X313912982Y-58082020D01*
X313922047Y-58155678D01*
X313923960Y-58166930D01*
X313940374Y-58238726D01*
X313965607Y-58305838D01*
X313984525Y-58339538D01*
X314034667Y-58392251D01*
X314055739Y-58404337D01*
X314127455Y-58419875D01*
X314164719Y-58415607D01*
X314230513Y-58383752D01*
X314274428Y-58338686D01*
X314311968Y-58276444D01*
X314326319Y-58243657D01*
X314349375Y-58174044D01*
X314366507Y-58099722D01*
X314370052Y-58079584D01*
X314379348Y-58008366D01*
X314384771Y-57930854D01*
X314386340Y-57855711D01*
X314385135Y-57787765D01*
X314380391Y-57712252D01*
X314371111Y-57639324D01*
X314369114Y-57628118D01*
X314352341Y-57556807D01*
X314327197Y-57490580D01*
X314308092Y-57457254D01*
X314257783Y-57404875D01*
X314236777Y-57392790D01*
X314166057Y-57377251D01*
X314134785Y-57380745D01*
X314068666Y-57413021D01*
X314024396Y-57457378D01*
X313985794Y-57518912D01*
X313970840Y-57551113D01*
X313946754Y-57619818D01*
X313928775Y-57693509D01*
X313924915Y-57713457D01*
X313914788Y-57784177D01*
X313908881Y-57861399D01*
X313907172Y-57936458D01*
X313745362Y-57936458D01*
X313743908Y-57898918D01*
X313744003Y-57883257D01*
X313747344Y-57806617D01*
X313755458Y-57732743D01*
X313768345Y-57661636D01*
X313783995Y-57600954D01*
X313808297Y-57532951D01*
X313841300Y-57466498D01*
X313856931Y-57441346D01*
X313902993Y-57383962D01*
X313961357Y-57335107D01*
X313984275Y-57321130D01*
X314054425Y-57294596D01*
X314127455Y-57286588D01*
X314162329Y-57288307D01*
G37*
G36*
X194328230Y-41278334D02*
G01*
X194388532Y-41299424D01*
X194434672Y-41311654D01*
X194496915Y-41327206D01*
X194496915Y-41361095D01*
X194439823Y-41369033D01*
X194405935Y-41383077D01*
X194389448Y-41415134D01*
X194385174Y-41475584D01*
X194385174Y-42499572D01*
X194350756Y-42518033D01*
X194295109Y-42545368D01*
X194270911Y-42556047D01*
X194213899Y-42578951D01*
X194206990Y-42581416D01*
X194147953Y-42599712D01*
X194102768Y-42607039D01*
X194045112Y-42602813D01*
X193984310Y-42587805D01*
X193937978Y-42568612D01*
X193883560Y-42536209D01*
X193845150Y-42505462D01*
X193801433Y-42459577D01*
X193771864Y-42419907D01*
X193740373Y-42366154D01*
X193722047Y-42325616D01*
X193702515Y-42265099D01*
X193695892Y-42232431D01*
X193805708Y-42232431D01*
X193807331Y-42265516D01*
X193819446Y-42327076D01*
X193829345Y-42354774D01*
X193860357Y-42409202D01*
X193878401Y-42430538D01*
X193926913Y-42467821D01*
X193955505Y-42480336D01*
X194018504Y-42489802D01*
X194060331Y-42485833D01*
X194118644Y-42472095D01*
X194128751Y-42468870D01*
X194186421Y-42445533D01*
X194204186Y-42436622D01*
X194256336Y-42403707D01*
X194256336Y-42063599D01*
X194227065Y-42024498D01*
X194184284Y-41977503D01*
X194166538Y-41960998D01*
X194116507Y-41922243D01*
X194114529Y-41920957D01*
X194059415Y-41892934D01*
X194018504Y-41884080D01*
X193998068Y-41885549D01*
X193938820Y-41907588D01*
X193911028Y-41927953D01*
X193870432Y-41975061D01*
X193843871Y-42024443D01*
X193823415Y-42084054D01*
X193818314Y-42104742D01*
X193808630Y-42167587D01*
X193805708Y-42232431D01*
X193695892Y-42232431D01*
X193694701Y-42226559D01*
X193689692Y-42164043D01*
X193690657Y-42124463D01*
X193696796Y-42060757D01*
X193709842Y-41997653D01*
X193712422Y-41988506D01*
X193733885Y-41929418D01*
X193765713Y-41872479D01*
X193799598Y-41832215D01*
X193850893Y-41794016D01*
X193895655Y-41775441D01*
X193958360Y-41766844D01*
X194016978Y-41778445D01*
X194033979Y-41785009D01*
X194089335Y-41813860D01*
X194121641Y-41835325D01*
X194170851Y-41874310D01*
X194213441Y-41914305D01*
X194256336Y-41961017D01*
X194256336Y-41287822D01*
X194269159Y-41276831D01*
X194279539Y-41267367D01*
X194288087Y-41258818D01*
X194328230Y-41278334D01*
G37*
G36*
X193201065Y-41769665D02*
G01*
X193261962Y-41783941D01*
X193301535Y-41799750D01*
X193355385Y-41830652D01*
X193389350Y-41856628D01*
X193434459Y-41901482D01*
X193463519Y-41938799D01*
X193495214Y-41991242D01*
X193515283Y-42035036D01*
X193534903Y-42094434D01*
X193544504Y-42142277D01*
X193548947Y-42204649D01*
X193547735Y-42241969D01*
X193540014Y-42303092D01*
X193523607Y-42365239D01*
X193516938Y-42383390D01*
X193488338Y-42441885D01*
X193451556Y-42492550D01*
X193439510Y-42505549D01*
X193392769Y-42545412D01*
X193338899Y-42576509D01*
X193317998Y-42585304D01*
X193255354Y-42602000D01*
X193191742Y-42607039D01*
X193152873Y-42604721D01*
X193090382Y-42590553D01*
X193051599Y-42574991D01*
X192998180Y-42544452D01*
X192964165Y-42518278D01*
X192918801Y-42473316D01*
X192889056Y-42435908D01*
X192856824Y-42383862D01*
X192836488Y-42340335D01*
X192816524Y-42281280D01*
X192806506Y-42233203D01*
X192803769Y-42195795D01*
X192934982Y-42195795D01*
X192935103Y-42209975D01*
X192938859Y-42272669D01*
X192948721Y-42333487D01*
X192963547Y-42383793D01*
X192990853Y-42438511D01*
X193014294Y-42468236D01*
X193062904Y-42505373D01*
X193104436Y-42521443D01*
X193167623Y-42528881D01*
X193192817Y-42526168D01*
X193250971Y-42501099D01*
X193287828Y-42472723D01*
X193331266Y-42425078D01*
X193333525Y-42422067D01*
X193366421Y-42369755D01*
X193391716Y-42313642D01*
X193394637Y-42305678D01*
X193410536Y-42244274D01*
X193415835Y-42179919D01*
X193415823Y-42175483D01*
X193412858Y-42111302D01*
X193403928Y-42047723D01*
X193390438Y-41997183D01*
X193364849Y-41941477D01*
X193342023Y-41910522D01*
X193293103Y-41870952D01*
X193246753Y-41852325D01*
X193183194Y-41845001D01*
X193152897Y-41848356D01*
X193094656Y-41873394D01*
X193057465Y-41902095D01*
X193014972Y-41950331D01*
X192982838Y-42002385D01*
X192957269Y-42062072D01*
X192954570Y-42070036D01*
X192939879Y-42131440D01*
X192934982Y-42195795D01*
X192803769Y-42195795D01*
X192801870Y-42169844D01*
X192803082Y-42132643D01*
X192810803Y-42071656D01*
X192827210Y-42009560D01*
X192833884Y-41991404D01*
X192862576Y-41932817D01*
X192899567Y-41881943D01*
X192911540Y-41868801D01*
X192958106Y-41828588D01*
X193011918Y-41797374D01*
X193032796Y-41788579D01*
X193095140Y-41771882D01*
X193158159Y-41766844D01*
X193201065Y-41769665D01*
G37*
G36*
X192321791Y-41769665D02*
G01*
X192382688Y-41783941D01*
X192422261Y-41799750D01*
X192476111Y-41830652D01*
X192510075Y-41856628D01*
X192555184Y-41901482D01*
X192584244Y-41938799D01*
X192615940Y-41991242D01*
X192636009Y-42035036D01*
X192655629Y-42094434D01*
X192665230Y-42142277D01*
X192669673Y-42204649D01*
X192668461Y-42241969D01*
X192660740Y-42303092D01*
X192644333Y-42365239D01*
X192637664Y-42383390D01*
X192609063Y-42441885D01*
X192572281Y-42492550D01*
X192560236Y-42505549D01*
X192513495Y-42545412D01*
X192459624Y-42576509D01*
X192438724Y-42585304D01*
X192376080Y-42602000D01*
X192312468Y-42607039D01*
X192273599Y-42604721D01*
X192211107Y-42590553D01*
X192172325Y-42574991D01*
X192118906Y-42544452D01*
X192084890Y-42518278D01*
X192039527Y-42473316D01*
X192009782Y-42435908D01*
X191977550Y-42383862D01*
X191957214Y-42340335D01*
X191937250Y-42281280D01*
X191927232Y-42233203D01*
X191924494Y-42195795D01*
X192055708Y-42195795D01*
X192055828Y-42209975D01*
X192059585Y-42272669D01*
X192069446Y-42333487D01*
X192084273Y-42383793D01*
X192111578Y-42438511D01*
X192135020Y-42468236D01*
X192183630Y-42505373D01*
X192225162Y-42521443D01*
X192288349Y-42528881D01*
X192313543Y-42526168D01*
X192371697Y-42501099D01*
X192408554Y-42472723D01*
X192451992Y-42425078D01*
X192454251Y-42422067D01*
X192487147Y-42369755D01*
X192512442Y-42313642D01*
X192515363Y-42305678D01*
X192531261Y-42244274D01*
X192536561Y-42179919D01*
X192536549Y-42175483D01*
X192533584Y-42111302D01*
X192524654Y-42047723D01*
X192511163Y-41997183D01*
X192485575Y-41941477D01*
X192462749Y-41910522D01*
X192413829Y-41870952D01*
X192367479Y-41852325D01*
X192303920Y-41845001D01*
X192273622Y-41848356D01*
X192215382Y-41873394D01*
X192178191Y-41902095D01*
X192135697Y-41950331D01*
X192103564Y-42002385D01*
X192077995Y-42062072D01*
X192075296Y-42070036D01*
X192060605Y-42131440D01*
X192055708Y-42195795D01*
X191924494Y-42195795D01*
X191922595Y-42169844D01*
X191923808Y-42132643D01*
X191931529Y-42071656D01*
X191947936Y-42009560D01*
X191954609Y-41991404D01*
X191983302Y-41932817D01*
X192020293Y-41881943D01*
X192032266Y-41868801D01*
X192078832Y-41828588D01*
X192132644Y-41797374D01*
X192153522Y-41788579D01*
X192215866Y-41771882D01*
X192278885Y-41766844D01*
X192321791Y-41769665D01*
G37*
G36*
X191278710Y-42475148D02*
G01*
X191331017Y-42512214D01*
X191362058Y-42531934D01*
X191416854Y-42562186D01*
X191440521Y-42573456D01*
X191499463Y-42595625D01*
X191509520Y-42598490D01*
X191563558Y-42607039D01*
X191620955Y-42595743D01*
X191668583Y-42559412D01*
X191697233Y-42505348D01*
X191701250Y-42492855D01*
X191711750Y-42430607D01*
X191713157Y-42391495D01*
X191713157Y-41864541D01*
X191823982Y-41864541D01*
X191841995Y-41841643D01*
X191774828Y-41786383D01*
X191713157Y-41786383D01*
X191713157Y-41580303D01*
X191610880Y-41493292D01*
X191584319Y-41514357D01*
X191584319Y-41786383D01*
X191303440Y-41786383D01*
X191278710Y-41810197D01*
X191297944Y-41834926D01*
X191321758Y-41859656D01*
X191345266Y-41881332D01*
X191365416Y-41894460D01*
X191425392Y-41874922D01*
X191428004Y-41874310D01*
X191491402Y-41865915D01*
X191539745Y-41864541D01*
X191584319Y-41864541D01*
X191584319Y-42313642D01*
X191582154Y-42375811D01*
X191579739Y-42398822D01*
X191563864Y-42452861D01*
X191535165Y-42481254D01*
X191491507Y-42489802D01*
X191429932Y-42481326D01*
X191416097Y-42477896D01*
X191358062Y-42457105D01*
X191303440Y-42431184D01*
X191278710Y-42475148D01*
G37*
G36*
X92539906Y-99820500D02*
G01*
X92539906Y-99767377D01*
X92468544Y-99757903D01*
X92410286Y-99747190D01*
X92340057Y-99727965D01*
X92327769Y-99723462D01*
X92283854Y-99700088D01*
X92270750Y-99677422D01*
X92270750Y-98879163D01*
X92273938Y-98817187D01*
X92288812Y-98781063D01*
X92311832Y-98771147D01*
X92359642Y-98768314D01*
X92431420Y-98774311D01*
X92437202Y-98775042D01*
X92510519Y-98787171D01*
X92549822Y-98795229D01*
X92570717Y-98744231D01*
X92502594Y-98722348D01*
X92471554Y-98711295D01*
X92403050Y-98684938D01*
X92355747Y-98665609D01*
X92288057Y-98636295D01*
X92244189Y-98616382D01*
X92178436Y-98584548D01*
X92158484Y-98573884D01*
X92121652Y-98608945D01*
X92121652Y-99677422D01*
X92110673Y-99699025D01*
X92071717Y-99722399D01*
X92001516Y-99744977D01*
X91995574Y-99746482D01*
X91924688Y-99760288D01*
X91872329Y-99767377D01*
X91872329Y-99820500D01*
X92539906Y-99820500D01*
G37*
G36*
X90924618Y-99412162D02*
G01*
X90929702Y-99485420D01*
X90944954Y-99555832D01*
X90951179Y-99575426D01*
X90981040Y-99644501D01*
X91021484Y-99705639D01*
X91027676Y-99713191D01*
X91079959Y-99763679D01*
X91142513Y-99803583D01*
X91151629Y-99808104D01*
X91219881Y-99832072D01*
X91290056Y-99842309D01*
X91318789Y-99843165D01*
X91393829Y-99838080D01*
X91468167Y-99822825D01*
X91502240Y-99812354D01*
X91569689Y-99782622D01*
X91630556Y-99743730D01*
X91679670Y-99703629D01*
X91644609Y-99637049D01*
X91582384Y-99677417D01*
X91548634Y-99696192D01*
X91482290Y-99726136D01*
X91468241Y-99731253D01*
X91400598Y-99748252D01*
X91340747Y-99752502D01*
X91269949Y-99743513D01*
X91228126Y-99727003D01*
X91169280Y-99684075D01*
X91147734Y-99659360D01*
X91111440Y-99595234D01*
X91099923Y-99562323D01*
X91086228Y-99492765D01*
X91083986Y-99449702D01*
X91089253Y-99375534D01*
X91100632Y-99323270D01*
X91129334Y-99255442D01*
X91150213Y-99225878D01*
X91204524Y-99178902D01*
X91234855Y-99163193D01*
X91306239Y-99143715D01*
X91355975Y-99140527D01*
X91403786Y-99145486D01*
X91459742Y-99160360D01*
X91518531Y-99185151D01*
X91573779Y-99220212D01*
X91620881Y-99187275D01*
X91608989Y-99116545D01*
X91607069Y-99105112D01*
X91594652Y-99032533D01*
X91590424Y-99007012D01*
X91578737Y-98934912D01*
X91573425Y-98901475D01*
X91562575Y-98828477D01*
X91558196Y-98796292D01*
X91549112Y-98725400D01*
X91546155Y-98699254D01*
X91539647Y-98627903D01*
X91539072Y-98619215D01*
X91104881Y-98619215D01*
X91054238Y-98619215D01*
X91016343Y-98619215D01*
X90984470Y-98596550D01*
X90955429Y-98627715D01*
X90980928Y-98663484D01*
X91010323Y-98699608D01*
X91039717Y-98731128D01*
X91065925Y-98755210D01*
X91451596Y-98755210D01*
X91458018Y-98826078D01*
X91458325Y-98828874D01*
X91467153Y-98899894D01*
X91470012Y-98920245D01*
X91480839Y-98992703D01*
X91483470Y-99008429D01*
X91494095Y-99071468D01*
X91423472Y-99058567D01*
X91400598Y-99055885D01*
X91328087Y-99050452D01*
X91296124Y-99049864D01*
X91220928Y-99055626D01*
X91149539Y-99074588D01*
X91136401Y-99079967D01*
X91072654Y-99114763D01*
X91020239Y-99159652D01*
X90976866Y-99217106D01*
X90949054Y-99275105D01*
X90929987Y-99346417D01*
X90924618Y-99412162D01*
G37*
G36*
X90342205Y-98620934D02*
G01*
X90413751Y-98636445D01*
X90479803Y-98668088D01*
X90512667Y-98691148D01*
X90568037Y-98742875D01*
X90612610Y-98800896D01*
X90644753Y-98855831D01*
X90674599Y-98922491D01*
X90698669Y-98995679D01*
X90702400Y-99009632D01*
X90717444Y-99080975D01*
X90726471Y-99154945D01*
X90729480Y-99231545D01*
X90729385Y-99247118D01*
X90726044Y-99323364D01*
X90717930Y-99396913D01*
X90705044Y-99467764D01*
X90689421Y-99528103D01*
X90665229Y-99595840D01*
X90632442Y-99662193D01*
X90616718Y-99687363D01*
X90570575Y-99744953D01*
X90512385Y-99794292D01*
X90489365Y-99808372D01*
X90419021Y-99835099D01*
X90345933Y-99843165D01*
X90311059Y-99841447D01*
X90239513Y-99825936D01*
X90173461Y-99794292D01*
X90140321Y-99771266D01*
X90084619Y-99719782D01*
X90039946Y-99662193D01*
X90007837Y-99607445D01*
X89978110Y-99540911D01*
X89954241Y-99467764D01*
X89950553Y-99453810D01*
X89935681Y-99382419D01*
X89926758Y-99308331D01*
X89925238Y-99269085D01*
X90087048Y-99269085D01*
X90088225Y-99338114D01*
X90092858Y-99414647D01*
X90101923Y-99488305D01*
X90103836Y-99499557D01*
X90120250Y-99571353D01*
X90145483Y-99638465D01*
X90164401Y-99672165D01*
X90214543Y-99724878D01*
X90235615Y-99736964D01*
X90307331Y-99752502D01*
X90344595Y-99748234D01*
X90410389Y-99716379D01*
X90454304Y-99671313D01*
X90491844Y-99609071D01*
X90506195Y-99576284D01*
X90529251Y-99506671D01*
X90546383Y-99432349D01*
X90549928Y-99412211D01*
X90559224Y-99340993D01*
X90564647Y-99263481D01*
X90566216Y-99188338D01*
X90565011Y-99120392D01*
X90560267Y-99044879D01*
X90550987Y-98971951D01*
X90548990Y-98960745D01*
X90532217Y-98889434D01*
X90507073Y-98823207D01*
X90487968Y-98789881D01*
X90437659Y-98737502D01*
X90416653Y-98725417D01*
X90345933Y-98709878D01*
X90314661Y-98713372D01*
X90248542Y-98745648D01*
X90204272Y-98790005D01*
X90165670Y-98851539D01*
X90150716Y-98883740D01*
X90126630Y-98952445D01*
X90108651Y-99026136D01*
X90104791Y-99046084D01*
X90094664Y-99116804D01*
X90088757Y-99194026D01*
X90087048Y-99269085D01*
X89925238Y-99269085D01*
X89923784Y-99231545D01*
X89923879Y-99215884D01*
X89927220Y-99139244D01*
X89935334Y-99065370D01*
X89948221Y-98994263D01*
X89963871Y-98933581D01*
X89988173Y-98865578D01*
X90021176Y-98799125D01*
X90036807Y-98773973D01*
X90082869Y-98716589D01*
X90141233Y-98667734D01*
X90164151Y-98653757D01*
X90234301Y-98627223D01*
X90307331Y-98619215D01*
X90342205Y-98620934D01*
G37*
D15*
%TO.C,SW1*%
X175075000Y-69437500D02*
X175075000Y-65337500D01*
X175075000Y-73437500D02*
X175075000Y-77537500D01*
X177465000Y-65337500D02*
X175065000Y-65337500D01*
X180675000Y-76937500D02*
X180975000Y-77237500D01*
X180975000Y-77237500D02*
X181275000Y-76937500D01*
X181275000Y-76937500D02*
X180675000Y-76937500D01*
X182354000Y-65330500D02*
X179754000Y-65330500D01*
X186875000Y-65337500D02*
X184475000Y-65337500D01*
X186875000Y-65337500D02*
X186875000Y-69437500D01*
X186875000Y-73437500D02*
X186875000Y-77537500D01*
X186875000Y-77537500D02*
X175075000Y-77537500D01*
X182975000Y-71437500D02*
G75*
G02*
X178975000Y-71437500I-2000000J0D01*
G01*
X178975000Y-71437500D02*
G75*
G02*
X182975000Y-71437500I2000000J0D01*
G01*
%TO.C,U3*%
X178593750Y-53153750D02*
X179243750Y-53153750D01*
X178593750Y-53153750D02*
X177943750Y-53153750D01*
X178593750Y-50033750D02*
X180268750Y-50033750D01*
X178593750Y-50033750D02*
X177943750Y-50033750D01*
%TO.C,D15*%
X100554641Y-63109450D02*
X100891062Y-59264138D01*
X102547031Y-63283761D02*
X100554641Y-63109450D01*
X102547031Y-63283761D02*
X102883452Y-59438449D01*
%TO.C,D38*%
X73512121Y-98989072D02*
X73848542Y-95143760D01*
X75504511Y-99163383D02*
X73512121Y-98989072D01*
X75504511Y-99163383D02*
X75840932Y-95318071D01*
%TO.C,C2*%
X183777836Y-60685000D02*
X183562164Y-60685000D01*
X183777836Y-59965000D02*
X183562164Y-59965000D01*
%TO.C,F1*%
X185135436Y-43540000D02*
X186339564Y-43540000D01*
X185135436Y-45360000D02*
X186339564Y-45360000D01*
%TO.C,D27*%
X108383079Y-82917118D02*
X108719500Y-79071806D01*
X110375469Y-83091429D02*
X108383079Y-82917118D01*
X110375469Y-83091429D02*
X110711890Y-79246117D01*
%TO.C,C8*%
X198015914Y-55996250D02*
X198231586Y-55996250D01*
X198015914Y-56716250D02*
X198231586Y-56716250D01*
%TO.C,D34*%
X271718626Y-81322135D02*
X271382205Y-77476823D01*
X273711016Y-81147824D02*
X271718626Y-81322135D01*
X273711016Y-81147824D02*
X273374595Y-77302512D01*
%TO.C,D30*%
X165315606Y-87898068D02*
X165652027Y-84052756D01*
X167307996Y-88072379D02*
X165315606Y-87898068D01*
X167307996Y-88072379D02*
X167644417Y-84227067D01*
%TO.C,SW2*%
X194951250Y-46020000D02*
X194951250Y-45720000D01*
X194951250Y-43180000D02*
X194951250Y-42880000D01*
X194951250Y-42880000D02*
X190811250Y-42880000D01*
X190811250Y-46020000D02*
X194951250Y-46020000D01*
X190811250Y-45720000D02*
X190811250Y-46020000D01*
X190811250Y-42880000D02*
X190811250Y-43180000D01*
%TO.C,C5*%
X183790000Y-51701586D02*
X183790000Y-51485914D01*
X184510000Y-51701586D02*
X184510000Y-51485914D01*
%TO.C,D40*%
X137561214Y-104592641D02*
X137897635Y-100747329D01*
X139553604Y-104766952D02*
X137561214Y-104592641D01*
X139553604Y-104766952D02*
X139890025Y-100921640D01*
%TO.C,C9*%
X175778750Y-51485914D02*
X175778750Y-51701586D01*
X175058750Y-51485914D02*
X175058750Y-51701586D01*
%TO.C,U4*%
X163512500Y-94428750D02*
X164312500Y-94428750D01*
X163512500Y-94428750D02*
X162712500Y-94428750D01*
X163512500Y-91308750D02*
X165312500Y-91308750D01*
X163512500Y-91308750D02*
X162712500Y-91308750D01*
%TO.C,D36*%
X309673644Y-78001501D02*
X309337223Y-74156189D01*
X311666034Y-77827190D02*
X309673644Y-78001501D01*
X311666034Y-77827190D02*
X311329613Y-73981878D01*
%TO.C,D29*%
X146338097Y-86237751D02*
X146674518Y-82392439D01*
X148330487Y-86412062D02*
X146338097Y-86237751D01*
X148330487Y-86412062D02*
X148666908Y-82566750D01*
%TO.C,D7*%
X216209842Y-47932988D02*
X215873421Y-44087676D01*
X218202232Y-47758677D02*
X216209842Y-47932988D01*
X218202232Y-47758677D02*
X217865811Y-43913365D01*
%TO.C,D20*%
X241592046Y-64835101D02*
X241255625Y-60989789D01*
X243584436Y-64660790D02*
X241592046Y-64835101D01*
X243584436Y-64660790D02*
X243248015Y-60815478D01*
%TO.C,D43*%
X270658919Y-100713746D02*
X270322498Y-96868434D01*
X272651309Y-100539435D02*
X270658919Y-100713746D01*
X272651309Y-100539435D02*
X272314888Y-96694123D01*
%TO.C,D21*%
X260569555Y-63174784D02*
X260233134Y-59329472D01*
X262561945Y-63000473D02*
X260569555Y-63174784D01*
X262561945Y-63000473D02*
X262225524Y-59155161D01*
%TO.C,D48*%
X190148500Y-103582500D02*
X190148500Y-99722500D01*
X192148500Y-103582500D02*
X190148500Y-103582500D01*
X192148500Y-103582500D02*
X192148500Y-99722500D01*
%TO.C,D17*%
X138509659Y-66430084D02*
X138846080Y-62584772D01*
X140502049Y-66604395D02*
X138509659Y-66430084D01*
X140502049Y-66604395D02*
X140838470Y-62759083D01*
%TO.C,C3*%
X198015914Y-56990000D02*
X198231586Y-56990000D01*
X198015914Y-57710000D02*
X198231586Y-57710000D01*
%TO.C,D13*%
X55483058Y-59166197D02*
X55819479Y-55320885D01*
X57475448Y-59340508D02*
X55483058Y-59166197D01*
X57475448Y-59340508D02*
X57811869Y-55495196D01*
%TO.C,D22*%
X279547064Y-61514467D02*
X279210643Y-57669155D01*
X281539454Y-61340156D02*
X279547064Y-61514467D01*
X281539454Y-61340156D02*
X281203033Y-57494844D01*
%TO.C,D2*%
X78493072Y-42056545D02*
X78829493Y-38211233D01*
X80485462Y-42230856D02*
X78493072Y-42056545D01*
X80485462Y-42230856D02*
X80821883Y-38385544D01*
%TO.C,D4*%
X116448090Y-45377179D02*
X116784511Y-41531867D01*
X118440480Y-45551490D02*
X116448090Y-45377179D01*
X118440480Y-45551490D02*
X118776901Y-41706178D01*
%TO.C,D42*%
X237321419Y-103827817D02*
X236984998Y-99982505D01*
X239313809Y-103653506D02*
X237321419Y-103827817D01*
X239313809Y-103653506D02*
X238977388Y-99808194D01*
%TO.C,D16*%
X119532150Y-64769767D02*
X119868571Y-60924455D01*
X121524540Y-64944078D02*
X119532150Y-64769767D01*
X121524540Y-64944078D02*
X121860961Y-61098766D01*
%TO.C,D47*%
X312727669Y-77694996D02*
X312391248Y-73849684D01*
X314720059Y-77520685D02*
X312727669Y-77694996D01*
X314720059Y-77520685D02*
X314383638Y-73675373D01*
%TO.C,D32*%
X233763608Y-84642769D02*
X233427187Y-80797457D01*
X235755998Y-84468458D02*
X233763608Y-84642769D01*
X235755998Y-84468458D02*
X235419577Y-80623146D01*
%TO.C,D6*%
X154403108Y-48697813D02*
X154739529Y-44852501D01*
X156395498Y-48872124D02*
X154403108Y-48697813D01*
X156395498Y-48872124D02*
X156731919Y-45026812D01*
%TO.C,D37*%
X49790235Y-96913676D02*
X50126656Y-93068364D01*
X51782625Y-97087987D02*
X49790235Y-96913676D01*
X51782625Y-97087987D02*
X52119046Y-93242675D01*
%TO.C,D26*%
X89405570Y-81256801D02*
X89741991Y-77411489D01*
X91397960Y-81431112D02*
X89405570Y-81256801D01*
X91397960Y-81431112D02*
X91734381Y-77585800D01*
%TO.C,C4*%
X195696250Y-51701586D02*
X195696250Y-51485914D01*
X196416250Y-51701586D02*
X196416250Y-51485914D01*
%TO.C,D23*%
X298524573Y-59854150D02*
X298188152Y-56008838D01*
X300516963Y-59679839D02*
X298524573Y-59854150D01*
X300516963Y-59679839D02*
X300180542Y-55834527D01*
%TO.C,C10*%
X181408750Y-51701586D02*
X181408750Y-51485914D01*
X182128750Y-51701586D02*
X182128750Y-51485914D01*
%TO.C,D46*%
X314315169Y-96744996D02*
X313978748Y-92899684D01*
X316307559Y-96570685D02*
X314315169Y-96744996D01*
X316307559Y-96570685D02*
X315971138Y-92725373D01*
%TO.C,D28*%
X127360588Y-84577434D02*
X127697009Y-80732122D01*
X129352978Y-84751745D02*
X127360588Y-84577434D01*
X129352978Y-84751745D02*
X129689399Y-80906433D01*
%TO.C,R2*%
X189042609Y-39307500D02*
X189349891Y-39307500D01*
X189042609Y-40067500D02*
X189349891Y-40067500D01*
%TO.C,D25*%
X58567118Y-78558786D02*
X58903539Y-74713474D01*
X60559508Y-78733097D02*
X58567118Y-78558786D01*
X60559508Y-78733097D02*
X60895929Y-74887785D01*
%TO.C,LED1*%
X159612500Y-97368750D02*
X167412500Y-97368750D01*
X159612500Y-98968750D02*
X159612500Y-97368750D01*
X167412500Y-101068750D02*
X159612500Y-101068750D01*
%TO.C,D33*%
X252741117Y-82982452D02*
X252404696Y-79137140D01*
X254733507Y-82808141D02*
X252741117Y-82982452D01*
X254733507Y-82808141D02*
X254397086Y-78962829D01*
%TO.C,D35*%
X290696135Y-79661818D02*
X290359714Y-75816506D01*
X292688525Y-79487507D02*
X290696135Y-79661818D01*
X292688525Y-79487507D02*
X292352104Y-75642195D01*
%TO.C,D14*%
X81577132Y-61449133D02*
X81913553Y-57603821D01*
X83569522Y-61623444D02*
X81577132Y-61449133D01*
X83569522Y-61623444D02*
X83905943Y-57778132D01*
%TO.C,J3*%
X167546250Y-52883750D02*
X167546250Y-55383750D01*
X167546250Y-55383750D02*
X168596250Y-55383750D01*
X168596250Y-55383750D02*
X168596250Y-56373750D01*
X168716250Y-50913750D02*
X172596250Y-50913750D01*
X173766250Y-52883750D02*
X173766250Y-55383750D01*
X173766250Y-55383750D02*
X172716250Y-55383750D01*
%TO.C,D3*%
X97470581Y-43716862D02*
X97807002Y-39871550D01*
X99462971Y-43891173D02*
X97470581Y-43716862D01*
X99462971Y-43891173D02*
X99799392Y-40045861D01*
%TO.C,D18*%
X157487168Y-68090401D02*
X157823589Y-64245089D01*
X159479558Y-68264712D02*
X157487168Y-68090401D01*
X159479558Y-68264712D02*
X159815979Y-64419400D01*
%TO.C,D45*%
X311333961Y-96979010D02*
X310997540Y-93133698D01*
X313326351Y-96804699D02*
X311333961Y-96979010D01*
X313326351Y-96804699D02*
X312989930Y-92959387D01*
%TO.C,R1*%
X172600109Y-39307500D02*
X172907391Y-39307500D01*
X172600109Y-40067500D02*
X172907391Y-40067500D01*
%TO.C,D41*%
X188706250Y-75235000D02*
X188706250Y-71375000D01*
X190706250Y-75235000D02*
X188706250Y-75235000D01*
X190706250Y-75235000D02*
X190706250Y-71375000D01*
%TO.C,J4*%
X167246250Y-51147500D02*
X167246250Y-54477500D01*
X167246250Y-54477500D02*
X168296250Y-54477500D01*
X168296250Y-54477500D02*
X168296250Y-54687500D01*
X168316250Y-49757500D02*
X168816250Y-49757500D01*
X168606250Y-55541053D02*
X168856250Y-55187500D01*
X168816250Y-49757500D02*
X169116250Y-50257500D01*
X168856250Y-55187500D02*
X169106250Y-55541053D01*
X169106250Y-55541053D02*
X168606250Y-55541053D01*
X169116250Y-50257500D02*
X172196250Y-50257500D01*
X172196250Y-50257500D02*
X172496250Y-49757500D01*
X172496250Y-49757500D02*
X172996250Y-49757500D01*
X174066250Y-51147500D02*
X174066250Y-54477500D01*
X174066250Y-54477500D02*
X173016250Y-54477500D01*
%TO.C,D10*%
X273142369Y-42952037D02*
X272805948Y-39106725D01*
X275134759Y-42777726D02*
X273142369Y-42952037D01*
X275134759Y-42777726D02*
X274798338Y-38932414D01*
%TO.C,J1*%
X176275000Y-33406250D02*
X185675000Y-33406250D01*
X176275000Y-35306250D02*
X176275000Y-33406250D01*
X176275000Y-39206250D02*
X176275000Y-37206250D01*
X185675000Y-35306250D02*
X185675000Y-33406250D01*
X185675000Y-39206250D02*
X185675000Y-37206250D01*
%TO.C,C11*%
X160377500Y-92976586D02*
X160377500Y-92760914D01*
X161097500Y-92976586D02*
X161097500Y-92760914D01*
%TO.C,D5*%
X135425599Y-47037496D02*
X135762020Y-43192184D01*
X137417989Y-47211807D02*
X135425599Y-47037496D01*
X137417989Y-47211807D02*
X137754410Y-43366495D01*
%TO.C,D1*%
X54771186Y-39981149D02*
X55107607Y-36135837D01*
X56763576Y-40155460D02*
X54771186Y-39981149D01*
X56763576Y-40155460D02*
X57099997Y-36310148D01*
%TO.C,U2*%
X180325000Y-43683750D02*
X181625000Y-43683750D01*
X181625000Y-46803750D02*
X179625000Y-46803750D01*
%TO.C,D31*%
X214786099Y-86303085D02*
X214449678Y-82457773D01*
X216778489Y-86128774D02*
X214786099Y-86303085D01*
X216778489Y-86128774D02*
X216442068Y-82283462D01*
%TO.C,D9*%
X254164860Y-44612354D02*
X253828439Y-40767042D01*
X256157250Y-44438043D02*
X254164860Y-44612354D01*
X256157250Y-44438043D02*
X255820829Y-40592731D01*
%TO.C,R3*%
X188532500Y-44603641D02*
X188532500Y-44296359D01*
X189292500Y-44603641D02*
X189292500Y-44296359D01*
%TO.C,C1*%
X185845336Y-46397500D02*
X185629664Y-46397500D01*
X185845336Y-45677500D02*
X185629664Y-45677500D01*
%TO.C,D39*%
X97234008Y-101064468D02*
X97570429Y-97219156D01*
X99226398Y-101238779D02*
X97234008Y-101064468D01*
X99226398Y-101238779D02*
X99562819Y-97393467D01*
%TO.C,U1*%
X193316250Y-59966250D02*
X193316250Y-59516250D01*
X193316250Y-53196250D02*
X194606250Y-53196250D01*
X193316250Y-52746250D02*
X193316250Y-53196250D01*
X192866250Y-59966250D02*
X193316250Y-59966250D01*
X192866250Y-52746250D02*
X193316250Y-52746250D01*
X186546250Y-59966250D02*
X186096250Y-59966250D01*
X186546250Y-52746250D02*
X186096250Y-52746250D01*
X186096250Y-59966250D02*
X186096250Y-59516250D01*
X186096250Y-52746250D02*
X186096250Y-53196250D01*
%TO.C,C7*%
X182569419Y-51701586D02*
X182569419Y-51485914D01*
X183289419Y-51701586D02*
X183289419Y-51485914D01*
%TO.C,D8*%
X235187351Y-46272671D02*
X234850930Y-42427359D01*
X237179741Y-46098360D02*
X235187351Y-46272671D01*
X237179741Y-46098360D02*
X236843320Y-42253048D01*
%TO.C,D12*%
X318213953Y-39008785D02*
X317877532Y-35163473D01*
X320206343Y-38834474D02*
X318213953Y-39008785D01*
X320206343Y-38834474D02*
X319869922Y-34989162D01*
%TO.C,D19*%
X222614537Y-66495418D02*
X222278116Y-62650106D01*
X224606927Y-66321107D02*
X222614537Y-66495418D01*
X224606927Y-66321107D02*
X224270506Y-62475795D01*
%TO.C,D24*%
X322246459Y-57778754D02*
X321910038Y-53933442D01*
X324238849Y-57604443D02*
X322246459Y-57778754D01*
X324238849Y-57604443D02*
X323902428Y-53759131D01*
D16*
%TO.C,G\u002A\u002A\u002A*%
G36*
X158015249Y-104861000D02*
G01*
X157787256Y-105089000D01*
X157633256Y-105089000D01*
X157479256Y-105089000D01*
X157707249Y-104861000D01*
X157935243Y-104633000D01*
X158089243Y-104633000D01*
X158243243Y-104633000D01*
X158015249Y-104861000D01*
G37*
G36*
X157623249Y-104747000D02*
G01*
X157509263Y-104861000D01*
X157354263Y-104861000D01*
X157199263Y-104861000D01*
X157313249Y-104747000D01*
X157427236Y-104633000D01*
X157582236Y-104633000D01*
X157737236Y-104633000D01*
X157623249Y-104747000D01*
G37*
G36*
X158938748Y-104076498D02*
G01*
X159330250Y-104467996D01*
X159330250Y-104860996D01*
X159330249Y-105253996D01*
X158938751Y-105645498D01*
X158547253Y-106037000D01*
X158057249Y-106037000D01*
X157567246Y-106037000D01*
X157175249Y-105645000D01*
X156783253Y-105253000D01*
X157566255Y-105253000D01*
X158349257Y-105253000D01*
X158545249Y-105057000D01*
X158741242Y-104861000D01*
X158545253Y-104665003D01*
X158349264Y-104469006D01*
X157765353Y-104468503D01*
X157181443Y-104468000D01*
X157200299Y-104446000D01*
X157207255Y-104438080D01*
X157219905Y-104424314D01*
X157234372Y-104409157D01*
X157249921Y-104393343D01*
X157265819Y-104377605D01*
X157281330Y-104362679D01*
X157295718Y-104349297D01*
X157308249Y-104338194D01*
X157332685Y-104317958D01*
X157382718Y-104280426D01*
X157435103Y-104246129D01*
X157489838Y-104215069D01*
X157546921Y-104187245D01*
X157606352Y-104162659D01*
X157668129Y-104141310D01*
X157732249Y-104123201D01*
X157739440Y-104121334D01*
X157748480Y-104118810D01*
X157755342Y-104116674D01*
X157759455Y-104115107D01*
X157760249Y-104114290D01*
X157757894Y-104113597D01*
X157752181Y-104112046D01*
X157743881Y-104109851D01*
X157733676Y-104107192D01*
X157722249Y-104104251D01*
X157707171Y-104100274D01*
X157650369Y-104083155D01*
X157594706Y-104063018D01*
X157540583Y-104040055D01*
X157488400Y-104014459D01*
X157438557Y-103986423D01*
X157391453Y-103956139D01*
X157347489Y-103923800D01*
X157335729Y-103914533D01*
X157450483Y-103799766D01*
X157565236Y-103685000D01*
X158056241Y-103685000D01*
X158547246Y-103685000D01*
X158938748Y-104076498D01*
G37*
G36*
X156869237Y-103482000D02*
G01*
X156869515Y-103483191D01*
X156870848Y-103488526D01*
X156872907Y-103496514D01*
X156875468Y-103506294D01*
X156878308Y-103517000D01*
X156889560Y-103555313D01*
X156908562Y-103608196D01*
X156931046Y-103659419D01*
X156956863Y-103708832D01*
X156985861Y-103756286D01*
X157017890Y-103801631D01*
X157052797Y-103844716D01*
X157090433Y-103885392D01*
X157130647Y-103923509D01*
X157173287Y-103958916D01*
X157218202Y-103991465D01*
X157265242Y-104021006D01*
X157314255Y-104047387D01*
X157365091Y-104070461D01*
X157417598Y-104090075D01*
X157471626Y-104106082D01*
X157475110Y-104106984D01*
X157484942Y-104109554D01*
X157493269Y-104111763D01*
X157499302Y-104113399D01*
X157502249Y-104114253D01*
X157502422Y-104114415D01*
X157500670Y-104115491D01*
X157495820Y-104117243D01*
X157488478Y-104119467D01*
X157479249Y-104121960D01*
X157426471Y-104137348D01*
X157372654Y-104156984D01*
X157320635Y-104180057D01*
X157270557Y-104206440D01*
X157222560Y-104236011D01*
X157176787Y-104268644D01*
X157133379Y-104304214D01*
X157092478Y-104342598D01*
X157054224Y-104383670D01*
X157018760Y-104427306D01*
X156986228Y-104473382D01*
X156956768Y-104521772D01*
X156930522Y-104572353D01*
X156907633Y-104625000D01*
X156903725Y-104635053D01*
X156893812Y-104662267D01*
X156885077Y-104689206D01*
X156877074Y-104717294D01*
X156869362Y-104747954D01*
X156868911Y-104749340D01*
X156868102Y-104749695D01*
X156866977Y-104747727D01*
X156865388Y-104743043D01*
X156863185Y-104735249D01*
X156860217Y-104723954D01*
X156860143Y-104723669D01*
X156844236Y-104669639D01*
X156824804Y-104616853D01*
X156802049Y-104565808D01*
X156776173Y-104517000D01*
X156751670Y-104477063D01*
X156718873Y-104430335D01*
X156683161Y-104386119D01*
X156644706Y-104344546D01*
X156603677Y-104305747D01*
X156560245Y-104269850D01*
X156514581Y-104236986D01*
X156466855Y-104207286D01*
X156417239Y-104180878D01*
X156365902Y-104157893D01*
X156313015Y-104138462D01*
X156258749Y-104122713D01*
X156255819Y-104121967D01*
X156246567Y-104119522D01*
X156239091Y-104117411D01*
X156234094Y-104115839D01*
X156232279Y-104115010D01*
X156232279Y-104115008D01*
X156234131Y-104114170D01*
X156239117Y-104112641D01*
X156246480Y-104110639D01*
X156255461Y-104108380D01*
X156270576Y-104104459D01*
X156292719Y-104098031D01*
X156315981Y-104090616D01*
X156338959Y-104082664D01*
X156360249Y-104074628D01*
X156394070Y-104060266D01*
X156443596Y-104035789D01*
X156491803Y-104007849D01*
X156538261Y-103976740D01*
X156582541Y-103942758D01*
X156624212Y-103906196D01*
X156662846Y-103867349D01*
X156674033Y-103855038D01*
X156711033Y-103810535D01*
X156744761Y-103763793D01*
X156775133Y-103714969D01*
X156802062Y-103664220D01*
X156825464Y-103611704D01*
X156845252Y-103557578D01*
X156861340Y-103502000D01*
X156862201Y-103498610D01*
X156864653Y-103489308D01*
X156866425Y-103483394D01*
X156867675Y-103480470D01*
X156868560Y-103480138D01*
X156869237Y-103482000D01*
G37*
D15*
%TO.C,C6*%
X194702500Y-51701586D02*
X194702500Y-51485914D01*
X195422500Y-51701586D02*
X195422500Y-51485914D01*
%TO.C,LED2*%
X194537500Y-97368750D02*
X202337500Y-97368750D01*
X194537500Y-98968750D02*
X194537500Y-97368750D01*
X202337500Y-101068750D02*
X194537500Y-101068750D01*
%TO.C,D11*%
X292119878Y-41291721D02*
X291783457Y-37446409D01*
X294112268Y-41117410D02*
X292119878Y-41291721D01*
X294112268Y-41117410D02*
X293775847Y-37272098D01*
%TO.C,D44*%
X292356452Y-98639327D02*
X292020031Y-94794015D01*
X294348842Y-98465016D02*
X292356452Y-98639327D01*
X294348842Y-98465016D02*
X294012421Y-94619704D01*
%TD*%
M02*
