M48
; DRILL file {KiCad 8.0.5} date 2024-09-20T18:28:31+0200
; FORMAT={-:-/ absolute / inch / decimal}
; #@! TF.CreationDate,2024-09-20T18:28:31+02:00
; #@! TF.GenerationSoftware,Kicad,Pcbnew,8.0.5
; #@! TF.FileFunction,NonPlated,1,2,NPTH
FMAT,2
INCH
; #@! TA.AperFunction,NonPlated,NPTH,ComponentDrill
T1C0.0256
; #@! TA.AperFunction,NonPlated,NPTH,ComponentDrill
T2C0.0689
; #@! TA.AperFunction,NonPlated,NPTH,ComponentDrill
T3C0.1570
%
G90
G05
T1
X7.0112Y-1.5711
X7.2388Y-1.5711
T2
X1.5109Y-3.599
X1.707Y-1.3576
X1.735Y-2.1129
X1.8565Y-2.8764
X1.9094Y-3.6339
X2.1055Y-1.3924
X2.1335Y-2.1477
X2.2549Y-2.9112
X2.4448Y-3.6807
X2.6409Y-1.4393
X2.7624Y-2.2028
X2.8433Y-3.7156
X3.0394Y-1.4741
X3.0706Y-2.9826
X3.1608Y-2.2376
X3.3788Y-3.7624
X3.3881Y-1.5046
X3.469Y-3.0175
X3.5095Y-2.2681
X3.7773Y-3.7973
X3.7866Y-1.5395
X3.8177Y-3.048
X3.908Y-2.303
X4.1352Y-1.57
X4.2162Y-3.0828
X4.2567Y-2.3335
X4.5337Y-1.6049
X4.5649Y-3.1133
X4.6551Y-2.3684
X4.8824Y-1.6354
X4.9633Y-3.1482
X4.9665Y-3.9013
X5.0038Y-2.3989
X5.2809Y-1.6702
X5.312Y-3.1787
X5.3649Y-3.9362
X5.4023Y-2.4337
X5.6295Y-1.7007
X5.7105Y-3.2136
X5.7509Y-2.4642
X6.028Y-1.7356
X6.0592Y-3.2441
X6.1494Y-2.4991
X6.4576Y-3.2789
X6.925Y-2.8125
X6.925Y-3.9178
X7.325Y-2.8125
X7.976Y-3.2626
X8.0321Y-1.7519
X8.2842Y-2.4828
X8.3745Y-3.2277
X8.4306Y-1.7171
X8.6827Y-2.4479
X8.7232Y-3.1972
X8.7792Y-1.6866
X8.8819Y-3.9362
X9.0314Y-2.4174
X9.1217Y-3.1624
X9.1777Y-1.6517
X9.2804Y-3.9014
X9.4299Y-2.3825
X9.4703Y-3.1318
X9.5264Y-1.6212
X9.7785Y-2.352
X9.8688Y-3.097
X9.9249Y-1.5864
X10.177Y-2.3172
X10.1895Y-3.8219
X10.2175Y-3.0665
X10.2735Y-1.5558
X10.5257Y-2.2867
X10.588Y-3.7871
X10.616Y-3.0316
X10.672Y-1.521
X10.9242Y-2.2518
X10.9646Y-3.0011
X11.0207Y-1.4905
X11.03Y-3.7483
X11.2728Y-2.2213
X11.3631Y-2.9663
X11.4192Y-1.4556
X11.4285Y-3.7134
X11.6713Y-2.1864
X11.7118Y-2.9357
X11.7771Y-3.6829
X12.048Y-1.4006
X12.1103Y-2.9009
X12.1756Y-3.648
X12.2068Y-2.1396
X12.4465Y-1.3657
X12.4589Y-2.8704
X12.5243Y-3.6175
X12.6052Y-2.1047
X12.8574Y-2.8355
X12.9228Y-3.5827
T3
X1.5604Y-3.1767
X1.7101Y-3.6164
X1.9062Y-1.375
X1.9343Y-2.1303
X2.0557Y-2.8938
X2.4943Y-3.2584
X2.6441Y-3.6981
X2.8402Y-1.4567
X2.9616Y-2.2202
X3.2698Y-3.0
X3.578Y-3.7799
X3.5873Y-1.5221
X3.7087Y-2.2856
X4.017Y-3.0654
X4.3345Y-1.5874
X4.4559Y-2.3509
X4.7271Y-3.5541
X4.7641Y-3.1308
X5.0816Y-1.6528
X5.1657Y-3.9188
X5.203Y-2.4163
X5.5112Y-3.1961
X5.661Y-3.6359
X5.8288Y-1.7182
X5.9502Y-2.4817
X6.2584Y-3.2615
X7.125Y-2.8125
X7.125Y-3.9178
X8.1753Y-3.2452
X8.2313Y-1.7345
X8.4835Y-2.4653
X8.5858Y-3.6359
X8.9224Y-3.1798
X8.9785Y-1.6692
X9.0811Y-3.9188
X9.2306Y-2.4
X9.5198Y-3.5542
X9.6696Y-3.1144
X9.7256Y-1.6038
X9.9778Y-2.3346
X10.3887Y-3.8045
X10.4167Y-3.0491
X10.4728Y-1.5384
X10.7249Y-2.2692
X11.1639Y-2.9837
X11.2199Y-1.4731
X11.2292Y-3.7308
X11.4721Y-2.2039
X11.911Y-2.9183
X11.9764Y-3.6655
X12.2472Y-1.3832
X12.406Y-2.1221
X12.6582Y-2.853
X12.7235Y-3.6001
M30
