%TF.GenerationSoftware,KiCad,Pcbnew,(7.0.0)*%
%TF.CreationDate,2024-04-20T20:10:29+02:00*%
%TF.ProjectId,Arrowhead,4172726f-7768-4656-9164-2e6b69636164,rev?*%
%TF.SameCoordinates,Original*%
%TF.FileFunction,Legend,Top*%
%TF.FilePolarity,Positive*%
%FSLAX46Y46*%
G04 Gerber Fmt 4.6, Leading zero omitted, Abs format (unit mm)*
G04 Created by KiCad (PCBNEW (7.0.0)) date 2024-04-20 20:10:29*
%MOMM*%
%LPD*%
G01*
G04 APERTURE LIST*
%ADD10C,0.600000*%
G04 APERTURE END LIST*
D10*
G36*
X170447157Y-46515892D02*
G01*
X170462788Y-46552040D01*
X170482328Y-46584280D01*
X170510614Y-46614253D01*
X170542900Y-46637036D01*
X170580834Y-46654908D01*
X170619302Y-46668738D01*
X170640597Y-46675138D01*
X170680611Y-46684946D01*
X170721354Y-46692794D01*
X170761334Y-46698992D01*
X170788120Y-46702493D01*
X170788120Y-46903750D01*
X169422314Y-46903750D01*
X169422314Y-46702493D01*
X169473635Y-46698418D01*
X169520621Y-46693517D01*
X169563272Y-46687793D01*
X169610489Y-46679478D01*
X169650933Y-46669876D01*
X169690523Y-46656652D01*
X169711497Y-46646806D01*
X169742943Y-46623114D01*
X169762409Y-46588871D01*
X169765028Y-46546590D01*
X169757415Y-46513938D01*
X169477024Y-45715752D01*
X168386724Y-45715752D01*
X168122942Y-46513938D01*
X168116469Y-46553994D01*
X168127580Y-46592050D01*
X168158166Y-46622687D01*
X168189376Y-46638990D01*
X168229516Y-46652832D01*
X168269997Y-46663685D01*
X168316870Y-46673917D01*
X168358972Y-46681656D01*
X168405164Y-46688999D01*
X168455448Y-46695945D01*
X168495845Y-46700893D01*
X168509822Y-46702493D01*
X168509822Y-46903750D01*
X167309125Y-46903750D01*
X167309125Y-46702493D01*
X167354432Y-46694159D01*
X167397052Y-46685763D01*
X167436986Y-46677306D01*
X167483125Y-46666649D01*
X167525066Y-46655896D01*
X167562809Y-46645049D01*
X167596354Y-46634105D01*
X167636873Y-46616093D01*
X167670379Y-46593687D01*
X167700085Y-46562699D01*
X167720632Y-46525971D01*
X167724337Y-46515892D01*
X168087608Y-45403121D01*
X168496145Y-45403121D01*
X169361741Y-45403121D01*
X168908427Y-44125243D01*
X168496145Y-45403121D01*
X168087608Y-45403121D01*
X168682746Y-43580093D01*
X168716513Y-43553226D01*
X168751379Y-43527336D01*
X168787343Y-43502424D01*
X168824407Y-43478488D01*
X168862387Y-43455651D01*
X168901099Y-43434036D01*
X168940545Y-43413641D01*
X168980723Y-43394468D01*
X169021206Y-43376455D01*
X169061567Y-43359542D01*
X169101806Y-43343727D01*
X169141923Y-43329011D01*
X169181429Y-43314784D01*
X169219836Y-43301412D01*
X169257144Y-43288894D01*
X169293353Y-43277232D01*
X170447157Y-46515892D01*
G37*
G36*
X173230548Y-44396841D02*
G01*
X173245535Y-44434244D01*
X173247157Y-44466206D01*
X173245656Y-44508951D01*
X173242195Y-44548562D01*
X173236726Y-44592345D01*
X173234456Y-44607867D01*
X173227922Y-44650731D01*
X173221104Y-44690442D01*
X173213256Y-44732209D01*
X173204381Y-44776034D01*
X173200262Y-44795445D01*
X173192065Y-44834142D01*
X173183592Y-44872565D01*
X173174845Y-44910713D01*
X173164293Y-44954871D01*
X173153367Y-44998655D01*
X173142541Y-45041171D01*
X173131435Y-45082377D01*
X173120048Y-45122275D01*
X173108381Y-45160863D01*
X173101588Y-45182326D01*
X173088216Y-45222626D01*
X173073902Y-45262709D01*
X173058904Y-45300719D01*
X173051762Y-45317148D01*
X172851483Y-45317148D01*
X172847636Y-45276161D01*
X172842690Y-45235998D01*
X172836645Y-45196660D01*
X172829501Y-45158146D01*
X172819777Y-45114255D01*
X172818266Y-45108076D01*
X172806973Y-45066122D01*
X172794464Y-45026598D01*
X172780740Y-44989506D01*
X172763566Y-44950091D01*
X172756717Y-44936129D01*
X172737116Y-44901447D01*
X172712584Y-44867100D01*
X172685425Y-44837699D01*
X172665859Y-44820846D01*
X172631130Y-44798178D01*
X172594112Y-44783905D01*
X172554804Y-44778028D01*
X172546668Y-44777860D01*
X172507344Y-44780284D01*
X172465942Y-44787557D01*
X172426501Y-44798376D01*
X172389690Y-44813008D01*
X172351797Y-44833822D01*
X172317206Y-44857513D01*
X172290702Y-44878488D01*
X172259172Y-44906564D01*
X172231626Y-44934500D01*
X172203599Y-44966007D01*
X172175092Y-45001086D01*
X172150968Y-45033048D01*
X172141225Y-45046527D01*
X172116681Y-45082486D01*
X172091899Y-45121975D01*
X172071902Y-45156108D01*
X172051752Y-45192500D01*
X172031449Y-45231152D01*
X172010994Y-45272062D01*
X171990386Y-45315232D01*
X171980025Y-45337664D01*
X171980025Y-46536408D01*
X172001904Y-46572873D01*
X172039075Y-46596907D01*
X172080489Y-46615921D01*
X172094330Y-46621405D01*
X172133557Y-46635000D01*
X172179796Y-46648310D01*
X172221837Y-46658751D01*
X172268365Y-46669009D01*
X172319381Y-46679084D01*
X172360588Y-46686520D01*
X172404320Y-46693853D01*
X172450577Y-46701083D01*
X172466556Y-46703470D01*
X172466556Y-46903750D01*
X170958113Y-46903750D01*
X170958113Y-46704447D01*
X171002004Y-46694178D01*
X171043063Y-46683885D01*
X171081291Y-46673570D01*
X171133323Y-46658054D01*
X171178984Y-46642486D01*
X171218274Y-46626867D01*
X171260750Y-46605961D01*
X171297915Y-46579700D01*
X171320215Y-46542695D01*
X171320569Y-46537385D01*
X171320569Y-45087560D01*
X171320203Y-45043962D01*
X171319104Y-45004029D01*
X171316991Y-44963482D01*
X171314707Y-44935152D01*
X171310887Y-44895608D01*
X171305182Y-44856017D01*
X171301030Y-44835501D01*
X171290026Y-44796110D01*
X171280513Y-44775906D01*
X171260066Y-44742400D01*
X171258043Y-44739758D01*
X171226916Y-44714332D01*
X171217987Y-44708495D01*
X171180618Y-44692192D01*
X171165231Y-44687978D01*
X171126775Y-44680777D01*
X171087238Y-44676503D01*
X171084142Y-44676255D01*
X171043521Y-44672591D01*
X171003584Y-44669538D01*
X170962909Y-44666790D01*
X170958113Y-44666485D01*
X170958113Y-44474999D01*
X171004457Y-44468072D01*
X171048845Y-44461336D01*
X171091277Y-44454791D01*
X171131754Y-44448437D01*
X171177744Y-44441064D01*
X171220918Y-44433966D01*
X171262134Y-44426570D01*
X171302251Y-44419036D01*
X171341269Y-44411366D01*
X171385400Y-44402243D01*
X171428036Y-44392933D01*
X171469737Y-44382869D01*
X171511063Y-44372336D01*
X171552016Y-44361337D01*
X171592594Y-44349870D01*
X171615614Y-44343107D01*
X171657295Y-44330625D01*
X171694733Y-44319108D01*
X171733751Y-44306835D01*
X171774348Y-44293806D01*
X171816526Y-44280021D01*
X171823709Y-44277650D01*
X171938992Y-44392933D01*
X171975140Y-44789583D01*
X171998796Y-44756639D01*
X172023359Y-44724363D01*
X172048828Y-44692754D01*
X172075203Y-44661814D01*
X172102485Y-44631541D01*
X172130673Y-44601936D01*
X172142202Y-44590281D01*
X172171797Y-44561568D01*
X172201965Y-44534048D01*
X172232705Y-44507720D01*
X172264018Y-44482585D01*
X172295903Y-44458643D01*
X172328361Y-44435893D01*
X172341504Y-44427127D01*
X172374715Y-44405908D01*
X172415199Y-44382461D01*
X172456369Y-44361212D01*
X172498226Y-44342161D01*
X172540770Y-44325308D01*
X172562300Y-44317706D01*
X172605966Y-44304094D01*
X172649769Y-44293297D01*
X172693710Y-44285317D01*
X172737788Y-44280154D01*
X172782004Y-44277807D01*
X172796773Y-44277650D01*
X172835985Y-44278750D01*
X172875953Y-44282047D01*
X172916677Y-44287542D01*
X172958156Y-44295236D01*
X173000391Y-44305128D01*
X173014637Y-44308913D01*
X173057056Y-44321530D01*
X173098581Y-44335933D01*
X173139213Y-44352122D01*
X173178952Y-44370096D01*
X173217798Y-44389857D01*
X173230548Y-44396841D01*
G37*
G36*
X175715963Y-44396841D02*
G01*
X175730950Y-44434244D01*
X175732572Y-44466206D01*
X175731071Y-44508951D01*
X175727611Y-44548562D01*
X175722141Y-44592345D01*
X175719871Y-44607867D01*
X175713338Y-44650731D01*
X175706519Y-44690442D01*
X175698672Y-44732209D01*
X175689796Y-44776034D01*
X175685677Y-44795445D01*
X175677480Y-44834142D01*
X175669008Y-44872565D01*
X175660261Y-44910713D01*
X175649709Y-44954871D01*
X175638783Y-44998655D01*
X175627957Y-45041171D01*
X175616850Y-45082377D01*
X175605463Y-45122275D01*
X175593796Y-45160863D01*
X175587003Y-45182326D01*
X175573631Y-45222626D01*
X175559317Y-45262709D01*
X175544319Y-45300719D01*
X175537178Y-45317148D01*
X175336898Y-45317148D01*
X175333052Y-45276161D01*
X175328106Y-45235998D01*
X175322061Y-45196660D01*
X175314917Y-45158146D01*
X175305193Y-45114255D01*
X175303681Y-45108076D01*
X175292388Y-45066122D01*
X175279879Y-45026598D01*
X175266155Y-44989506D01*
X175248981Y-44950091D01*
X175242132Y-44936129D01*
X175222532Y-44901447D01*
X175198000Y-44867100D01*
X175170840Y-44837699D01*
X175151274Y-44820846D01*
X175116546Y-44798178D01*
X175079528Y-44783905D01*
X175040220Y-44778028D01*
X175032083Y-44777860D01*
X174992759Y-44780284D01*
X174951357Y-44787557D01*
X174911916Y-44798376D01*
X174875105Y-44813008D01*
X174837212Y-44833822D01*
X174802621Y-44857513D01*
X174776117Y-44878488D01*
X174744588Y-44906564D01*
X174717042Y-44934500D01*
X174689015Y-44966007D01*
X174660507Y-45001086D01*
X174636383Y-45033048D01*
X174626640Y-45046527D01*
X174602097Y-45082486D01*
X174577315Y-45121975D01*
X174557317Y-45156108D01*
X174537167Y-45192500D01*
X174516864Y-45231152D01*
X174496409Y-45272062D01*
X174475801Y-45315232D01*
X174465440Y-45337664D01*
X174465440Y-46536408D01*
X174487319Y-46572873D01*
X174524490Y-46596907D01*
X174565904Y-46615921D01*
X174579746Y-46621405D01*
X174618972Y-46635000D01*
X174665211Y-46648310D01*
X174707252Y-46658751D01*
X174753780Y-46669009D01*
X174804796Y-46679084D01*
X174846004Y-46686520D01*
X174889736Y-46693853D01*
X174935992Y-46701083D01*
X174951972Y-46703470D01*
X174951972Y-46903750D01*
X173443528Y-46903750D01*
X173443528Y-46704447D01*
X173487419Y-46694178D01*
X173528479Y-46683885D01*
X173566706Y-46673570D01*
X173618739Y-46658054D01*
X173664400Y-46642486D01*
X173703689Y-46626867D01*
X173746165Y-46605961D01*
X173783331Y-46579700D01*
X173805630Y-46542695D01*
X173805984Y-46537385D01*
X173805984Y-45087560D01*
X173805618Y-45043962D01*
X173804519Y-45004029D01*
X173802406Y-44963482D01*
X173800122Y-44935152D01*
X173796302Y-44895608D01*
X173790597Y-44856017D01*
X173786445Y-44835501D01*
X173775441Y-44796110D01*
X173765928Y-44775906D01*
X173745482Y-44742400D01*
X173743458Y-44739758D01*
X173712331Y-44714332D01*
X173703402Y-44708495D01*
X173666033Y-44692192D01*
X173650646Y-44687978D01*
X173612190Y-44680777D01*
X173572653Y-44676503D01*
X173569557Y-44676255D01*
X173528937Y-44672591D01*
X173488999Y-44669538D01*
X173448324Y-44666790D01*
X173443528Y-44666485D01*
X173443528Y-44474999D01*
X173489872Y-44468072D01*
X173534260Y-44461336D01*
X173576693Y-44454791D01*
X173617169Y-44448437D01*
X173663159Y-44441064D01*
X173706333Y-44433966D01*
X173747549Y-44426570D01*
X173787666Y-44419036D01*
X173826684Y-44411366D01*
X173870815Y-44402243D01*
X173913451Y-44392933D01*
X173955152Y-44382869D01*
X173996478Y-44372336D01*
X174037431Y-44361337D01*
X174078010Y-44349870D01*
X174101030Y-44343107D01*
X174142710Y-44330625D01*
X174180148Y-44319108D01*
X174219166Y-44306835D01*
X174259764Y-44293806D01*
X174301941Y-44280021D01*
X174309125Y-44277650D01*
X174424407Y-44392933D01*
X174460555Y-44789583D01*
X174484211Y-44756639D01*
X174508774Y-44724363D01*
X174534243Y-44692754D01*
X174560618Y-44661814D01*
X174587900Y-44631541D01*
X174616088Y-44601936D01*
X174627617Y-44590281D01*
X174657213Y-44561568D01*
X174687380Y-44534048D01*
X174718121Y-44507720D01*
X174749433Y-44482585D01*
X174781318Y-44458643D01*
X174813776Y-44435893D01*
X174826919Y-44427127D01*
X174860131Y-44405908D01*
X174900614Y-44382461D01*
X174941784Y-44361212D01*
X174983641Y-44342161D01*
X175026185Y-44325308D01*
X175047715Y-44317706D01*
X175091381Y-44304094D01*
X175135184Y-44293297D01*
X175179125Y-44285317D01*
X175223203Y-44280154D01*
X175267419Y-44277807D01*
X175282188Y-44277650D01*
X175321400Y-44278750D01*
X175361368Y-44282047D01*
X175402092Y-44287542D01*
X175443571Y-44295236D01*
X175485806Y-44305128D01*
X175500053Y-44308913D01*
X175542471Y-44321530D01*
X175583996Y-44335933D01*
X175624628Y-44352122D01*
X175664367Y-44370096D01*
X175703213Y-44389857D01*
X175715963Y-44396841D01*
G37*
G36*
X177383015Y-44278509D02*
G01*
X177434223Y-44281085D01*
X177484521Y-44285378D01*
X177533909Y-44291389D01*
X177582386Y-44299117D01*
X177629953Y-44308562D01*
X177676610Y-44319725D01*
X177722357Y-44332605D01*
X177767194Y-44347202D01*
X177811120Y-44363517D01*
X177839899Y-44375348D01*
X177882363Y-44394327D01*
X177923659Y-44414629D01*
X177963787Y-44436253D01*
X178002748Y-44459199D01*
X178040541Y-44483468D01*
X178077166Y-44509059D01*
X178112623Y-44535973D01*
X178146912Y-44564208D01*
X178180034Y-44593766D01*
X178211988Y-44624647D01*
X178232642Y-44645969D01*
X178262746Y-44678775D01*
X178291512Y-44712716D01*
X178318938Y-44747789D01*
X178345024Y-44783996D01*
X178369771Y-44821337D01*
X178393178Y-44859811D01*
X178415246Y-44899418D01*
X178435974Y-44940159D01*
X178455362Y-44982033D01*
X178473412Y-45025041D01*
X178484700Y-45054343D01*
X178500414Y-45099025D01*
X178514582Y-45144411D01*
X178527204Y-45190501D01*
X178538281Y-45237296D01*
X178547812Y-45284794D01*
X178555798Y-45332997D01*
X178562238Y-45381904D01*
X178567132Y-45431515D01*
X178570481Y-45481830D01*
X178572284Y-45532849D01*
X178572628Y-45567253D01*
X178571849Y-45612789D01*
X178569514Y-45658050D01*
X178565621Y-45703036D01*
X178560171Y-45747748D01*
X178553165Y-45792185D01*
X178544601Y-45836347D01*
X178534480Y-45880235D01*
X178522802Y-45923847D01*
X178509949Y-45966803D01*
X178495813Y-46009210D01*
X178480395Y-46051067D01*
X178463695Y-46092375D01*
X178445713Y-46133133D01*
X178426448Y-46173341D01*
X178405901Y-46213000D01*
X178384072Y-46252110D01*
X178361297Y-46290349D01*
X178337422Y-46327886D01*
X178312448Y-46364721D01*
X178286375Y-46400853D01*
X178259203Y-46436284D01*
X178230932Y-46471012D01*
X178201562Y-46505038D01*
X178171092Y-46538362D01*
X178139890Y-46570770D01*
X178107834Y-46602049D01*
X178074922Y-46632197D01*
X178041155Y-46661216D01*
X178006534Y-46689106D01*
X177971058Y-46715866D01*
X177934726Y-46741496D01*
X177897540Y-46765997D01*
X177859820Y-46789032D01*
X177821398Y-46810754D01*
X177782273Y-46831164D01*
X177742446Y-46850260D01*
X177701917Y-46868044D01*
X177660686Y-46884515D01*
X177618752Y-46899674D01*
X177576117Y-46913519D01*
X177533206Y-46925884D01*
X177489960Y-46936600D01*
X177446378Y-46945668D01*
X177402460Y-46953087D01*
X177358206Y-46958857D01*
X177313617Y-46962978D01*
X177268691Y-46965451D01*
X177223430Y-46966276D01*
X177170771Y-46965417D01*
X177119039Y-46962841D01*
X177068235Y-46958548D01*
X177018358Y-46952537D01*
X176969408Y-46944809D01*
X176921386Y-46935364D01*
X176874291Y-46924201D01*
X176828123Y-46911321D01*
X176782883Y-46896724D01*
X176738570Y-46880409D01*
X176709543Y-46868579D01*
X176666913Y-46849616D01*
X176625485Y-46829366D01*
X176585260Y-46807828D01*
X176546236Y-46785002D01*
X176508415Y-46760887D01*
X176471796Y-46735485D01*
X176436379Y-46708795D01*
X176402164Y-46680817D01*
X176369151Y-46651551D01*
X176337340Y-46620996D01*
X176316801Y-46599911D01*
X176287028Y-46567279D01*
X176258526Y-46533496D01*
X176231295Y-46498563D01*
X176205334Y-46462479D01*
X176180645Y-46425244D01*
X176157226Y-46386859D01*
X176135078Y-46347323D01*
X176114201Y-46306637D01*
X176094595Y-46264800D01*
X176076260Y-46221812D01*
X176064742Y-46192514D01*
X176048854Y-46147824D01*
X176034528Y-46102412D01*
X176021766Y-46056278D01*
X176010566Y-46009424D01*
X176000929Y-45961848D01*
X175992855Y-45913551D01*
X175986343Y-45864532D01*
X175981394Y-45814793D01*
X175978008Y-45764332D01*
X175976185Y-45713150D01*
X175975838Y-45678627D01*
X175976656Y-45631733D01*
X176670464Y-45631733D01*
X176670911Y-45671435D01*
X176672250Y-45710673D01*
X176675426Y-45762269D01*
X176680188Y-45813041D01*
X176686539Y-45862989D01*
X176694476Y-45912112D01*
X176704002Y-45960411D01*
X176715115Y-46007886D01*
X176721267Y-46031314D01*
X176734517Y-46077216D01*
X176748866Y-46121623D01*
X176764315Y-46164533D01*
X176780862Y-46205948D01*
X176798509Y-46245866D01*
X176817254Y-46284289D01*
X176837099Y-46321215D01*
X176858043Y-46356646D01*
X176880208Y-46390183D01*
X176903228Y-46421919D01*
X176933205Y-46459057D01*
X176964517Y-46493380D01*
X176997166Y-46524888D01*
X177031150Y-46553582D01*
X177059299Y-46574510D01*
X177095306Y-46597308D01*
X177131885Y-46616241D01*
X177169037Y-46631311D01*
X177206761Y-46642517D01*
X177252785Y-46650863D01*
X177299634Y-46653645D01*
X177340041Y-46652683D01*
X177388102Y-46648776D01*
X177433445Y-46641864D01*
X177476068Y-46631946D01*
X177515972Y-46619023D01*
X177553157Y-46603095D01*
X177574163Y-46592096D01*
X177607637Y-46571173D01*
X177639059Y-46547483D01*
X177668430Y-46521027D01*
X177695750Y-46491803D01*
X177721019Y-46459813D01*
X177744236Y-46425056D01*
X177752949Y-46410379D01*
X177773623Y-46371820D01*
X177792295Y-46330637D01*
X177808962Y-46286831D01*
X177823626Y-46240401D01*
X177833915Y-46201368D01*
X177842922Y-46160656D01*
X177850646Y-46118265D01*
X177857515Y-46074224D01*
X177863469Y-46028566D01*
X177868506Y-45981290D01*
X177872628Y-45932396D01*
X177875833Y-45881883D01*
X177878123Y-45829753D01*
X177879239Y-45789593D01*
X177879840Y-45748523D01*
X177879955Y-45720637D01*
X177879551Y-45680875D01*
X177878341Y-45641457D01*
X177876323Y-45602382D01*
X177872377Y-45550816D01*
X177866996Y-45499861D01*
X177860180Y-45449516D01*
X177851929Y-45399782D01*
X177842243Y-45350659D01*
X177834037Y-45314217D01*
X177822207Y-45266574D01*
X177809186Y-45220367D01*
X177794974Y-45175594D01*
X177779571Y-45132256D01*
X177762978Y-45090353D01*
X177745194Y-45049885D01*
X177726219Y-45010852D01*
X177706054Y-44973254D01*
X177684988Y-44937335D01*
X177662823Y-44903340D01*
X177639559Y-44871267D01*
X177608933Y-44833882D01*
X177576590Y-44799502D01*
X177542530Y-44768127D01*
X177506752Y-44739758D01*
X177469848Y-44714709D01*
X177431800Y-44693905D01*
X177392606Y-44677347D01*
X177352268Y-44665035D01*
X177310785Y-44656968D01*
X177268157Y-44653147D01*
X177250785Y-44652807D01*
X177208959Y-44653968D01*
X177168964Y-44657448D01*
X177121547Y-44665062D01*
X177076991Y-44676301D01*
X177035298Y-44691165D01*
X176996467Y-44709655D01*
X176967464Y-44727057D01*
X176933475Y-44751668D01*
X176901728Y-44779092D01*
X176872223Y-44809332D01*
X176844961Y-44842386D01*
X176819940Y-44878254D01*
X176797162Y-44916937D01*
X176788678Y-44933198D01*
X176768895Y-44975301D01*
X176751068Y-45019790D01*
X176738215Y-45057098D01*
X176726613Y-45095933D01*
X176716264Y-45136294D01*
X176707166Y-45178181D01*
X176699319Y-45221596D01*
X176695866Y-45243875D01*
X176689912Y-45289258D01*
X176684753Y-45335527D01*
X176680387Y-45382681D01*
X176676815Y-45430721D01*
X176674036Y-45479646D01*
X176672052Y-45529456D01*
X176670861Y-45580152D01*
X176670464Y-45631733D01*
X175976656Y-45631733D01*
X175976714Y-45628398D01*
X175979341Y-45578461D01*
X175983720Y-45528816D01*
X175989851Y-45479463D01*
X175997734Y-45430401D01*
X176007368Y-45381632D01*
X176018754Y-45333154D01*
X176031891Y-45284969D01*
X176046781Y-45237075D01*
X176063422Y-45189474D01*
X176075489Y-45157902D01*
X176095052Y-45110964D01*
X176116006Y-45065040D01*
X176138352Y-45020129D01*
X176162088Y-44976231D01*
X176187216Y-44933346D01*
X176213734Y-44891475D01*
X176241644Y-44850616D01*
X176270944Y-44810771D01*
X176301636Y-44771940D01*
X176333718Y-44734121D01*
X176355880Y-44709472D01*
X176390361Y-44673514D01*
X176426027Y-44638912D01*
X176462878Y-44605668D01*
X176500914Y-44573780D01*
X176540135Y-44543248D01*
X176580541Y-44514074D01*
X176622132Y-44486256D01*
X176664908Y-44459795D01*
X176708869Y-44434690D01*
X176754014Y-44410942D01*
X176784770Y-44395864D01*
X176831902Y-44374738D01*
X176879876Y-44355690D01*
X176928691Y-44338720D01*
X176978348Y-44323828D01*
X177028846Y-44311013D01*
X177080186Y-44300277D01*
X177132367Y-44291619D01*
X177185389Y-44285039D01*
X177239253Y-44280536D01*
X177293959Y-44278112D01*
X177330897Y-44277650D01*
X177383015Y-44278509D01*
G37*
G36*
X182733549Y-44539479D02*
G01*
X182692453Y-44550315D01*
X182652229Y-44561993D01*
X182614595Y-44574398D01*
X182608496Y-44576604D01*
X182569975Y-44592178D01*
X182534193Y-44610435D01*
X182530339Y-44612752D01*
X182498206Y-44637023D01*
X182484421Y-44653784D01*
X182466118Y-44689761D01*
X182459020Y-44709472D01*
X181851344Y-46723010D01*
X181836326Y-46762019D01*
X181812765Y-46797103D01*
X181783933Y-46825592D01*
X181751132Y-46850608D01*
X181716232Y-46873143D01*
X181679233Y-46893197D01*
X181671581Y-46896911D01*
X181633303Y-46913473D01*
X181595408Y-46927746D01*
X181557893Y-46939730D01*
X181550436Y-46941851D01*
X181509633Y-46953071D01*
X181470016Y-46963036D01*
X181455670Y-46966276D01*
X180755182Y-45368927D01*
X180197331Y-46723010D01*
X180181131Y-46760181D01*
X180159397Y-46793535D01*
X180132130Y-46823073D01*
X180126012Y-46828523D01*
X180094528Y-46853539D01*
X180061135Y-46876074D01*
X180025834Y-46896128D01*
X180018545Y-46899842D01*
X179982519Y-46916214D01*
X179942891Y-46931137D01*
X179903263Y-46942828D01*
X179863192Y-46953453D01*
X179824429Y-46963070D01*
X179810450Y-46966276D01*
X179070883Y-44709472D01*
X179050458Y-44673385D01*
X179021264Y-44644152D01*
X178985526Y-44618495D01*
X178981002Y-44615683D01*
X178946287Y-44596342D01*
X178905401Y-44578497D01*
X178865444Y-44564392D01*
X178820954Y-44551386D01*
X178780415Y-44541387D01*
X178771930Y-44539479D01*
X178771930Y-44340177D01*
X180016591Y-44340177D01*
X180016591Y-44539479D01*
X179974082Y-44544780D01*
X179935213Y-44550424D01*
X179894467Y-44557443D01*
X179853969Y-44566037D01*
X179831944Y-44571719D01*
X179794563Y-44583282D01*
X179756523Y-44600026D01*
X179737178Y-44612752D01*
X179711352Y-44643506D01*
X179706891Y-44660623D01*
X179711108Y-44700313D01*
X179713730Y-44709472D01*
X180126012Y-46001028D01*
X180782537Y-44340177D01*
X180994540Y-44340177D01*
X181684282Y-46001028D01*
X182079955Y-44709472D01*
X182088729Y-44670599D01*
X182088748Y-44654761D01*
X182072326Y-44617652D01*
X182064323Y-44609821D01*
X182030863Y-44589125D01*
X181993741Y-44574787D01*
X181987143Y-44572696D01*
X181946024Y-44561277D01*
X181905169Y-44551935D01*
X181863403Y-44543631D01*
X181840597Y-44539479D01*
X181840597Y-44340177D01*
X182733549Y-44340177D01*
X182733549Y-44539479D01*
G37*
G36*
X184571232Y-46903750D02*
G01*
X184571232Y-46704447D01*
X184618768Y-46691716D01*
X184662701Y-46679412D01*
X184703032Y-46667536D01*
X184748379Y-46653292D01*
X184788097Y-46639715D01*
X184828328Y-46624305D01*
X184850646Y-46614566D01*
X184886977Y-46595088D01*
X184917793Y-46570911D01*
X184933688Y-46537385D01*
X184933688Y-45337664D01*
X184933398Y-45297059D01*
X184932220Y-45248878D01*
X184930135Y-45203560D01*
X184927144Y-45161103D01*
X184923247Y-45121509D01*
X184917374Y-45077775D01*
X184915126Y-45064112D01*
X184907844Y-45025060D01*
X184897613Y-44983580D01*
X184883630Y-44941555D01*
X184867205Y-44905270D01*
X184860415Y-44893142D01*
X184837755Y-44860436D01*
X184808408Y-44831165D01*
X184774672Y-44809336D01*
X184763695Y-44804238D01*
X184724769Y-44790328D01*
X184685820Y-44782213D01*
X184643161Y-44778272D01*
X184623011Y-44777860D01*
X184583047Y-44779402D01*
X184542778Y-44784027D01*
X184502203Y-44791736D01*
X184461323Y-44802528D01*
X184420137Y-44816404D01*
X184378646Y-44833364D01*
X184336850Y-44853407D01*
X184294749Y-44876534D01*
X184251655Y-44902301D01*
X184218233Y-44923390D01*
X184183867Y-44945990D01*
X184148555Y-44970102D01*
X184112300Y-44995724D01*
X184075099Y-45022858D01*
X184036955Y-45051503D01*
X183997865Y-45081660D01*
X183957831Y-45113327D01*
X183916853Y-45146506D01*
X183902984Y-45157902D01*
X183902984Y-46537385D01*
X183920935Y-46573850D01*
X183955740Y-46600583D01*
X183991003Y-46619637D01*
X183996773Y-46622382D01*
X184034898Y-46638662D01*
X184078930Y-46654530D01*
X184120136Y-46667439D01*
X184165445Y-46680061D01*
X184204646Y-46689953D01*
X184246473Y-46699662D01*
X184268371Y-46704447D01*
X184268371Y-46903750D01*
X182881071Y-46903750D01*
X182881071Y-46703470D01*
X182925066Y-46691899D01*
X182966190Y-46680634D01*
X183004445Y-46669673D01*
X183048227Y-46656402D01*
X183087525Y-46643608D01*
X183128764Y-46628885D01*
X183152670Y-46619451D01*
X183188072Y-46602788D01*
X183220813Y-46580128D01*
X183242729Y-46544941D01*
X183243528Y-46536408D01*
X183243528Y-43425731D01*
X183243287Y-43384286D01*
X183242399Y-43340449D01*
X183240583Y-43296302D01*
X183237517Y-43254227D01*
X183236689Y-43245969D01*
X183228755Y-43205102D01*
X183212727Y-43168420D01*
X183195656Y-43146318D01*
X183164378Y-43122229D01*
X183125809Y-43105458D01*
X183087212Y-43095515D01*
X183046485Y-43087638D01*
X183004938Y-43080646D01*
X182964935Y-43074578D01*
X182920880Y-43068441D01*
X182881071Y-43063275D01*
X182881071Y-42871789D01*
X182928241Y-42864790D01*
X182973884Y-42857840D01*
X183018000Y-42850937D01*
X183060590Y-42844082D01*
X183101653Y-42837275D01*
X183141190Y-42830515D01*
X183156577Y-42827825D01*
X183202052Y-42819295D01*
X183246153Y-42810560D01*
X183288881Y-42801618D01*
X183330234Y-42792471D01*
X183370214Y-42783117D01*
X183383235Y-42779953D01*
X183422127Y-42769924D01*
X183460400Y-42759620D01*
X183498056Y-42749041D01*
X183541205Y-42736352D01*
X183583514Y-42723289D01*
X183626063Y-42709525D01*
X183669079Y-42694732D01*
X183706322Y-42681233D01*
X183743909Y-42666980D01*
X183781839Y-42651970D01*
X183902984Y-42765299D01*
X183902984Y-44767113D01*
X183942276Y-44735312D01*
X183981263Y-44704633D01*
X184019945Y-44675075D01*
X184058322Y-44646640D01*
X184096393Y-44619327D01*
X184134159Y-44593136D01*
X184171620Y-44568067D01*
X184208776Y-44544119D01*
X184245626Y-44521294D01*
X184282171Y-44499591D01*
X184318410Y-44479010D01*
X184354344Y-44459550D01*
X184389973Y-44441213D01*
X184425297Y-44423998D01*
X184477710Y-44400278D01*
X184495028Y-44392933D01*
X184546319Y-44372331D01*
X184596511Y-44353755D01*
X184645604Y-44337206D01*
X184693598Y-44322683D01*
X184740492Y-44310186D01*
X184786288Y-44299716D01*
X184830984Y-44291273D01*
X184874582Y-44284856D01*
X184917080Y-44280465D01*
X184958479Y-44278101D01*
X184985468Y-44277650D01*
X185029489Y-44278956D01*
X185072892Y-44282871D01*
X185115676Y-44289397D01*
X185157842Y-44298533D01*
X185199390Y-44310280D01*
X185213102Y-44314775D01*
X185253574Y-44330311D01*
X185292191Y-44349076D01*
X185328953Y-44371069D01*
X185363861Y-44396291D01*
X185396914Y-44424742D01*
X185407519Y-44434943D01*
X185437859Y-44467904D01*
X185465863Y-44504506D01*
X185487416Y-44537789D01*
X185507346Y-44573600D01*
X185525655Y-44611940D01*
X185542342Y-44652807D01*
X185556977Y-44696041D01*
X185569132Y-44742090D01*
X185577070Y-44780955D01*
X185583420Y-44821621D01*
X185588183Y-44864089D01*
X185591358Y-44908358D01*
X185592946Y-44954428D01*
X185593144Y-44978139D01*
X185593144Y-46537385D01*
X185608731Y-46573350D01*
X185609753Y-46574510D01*
X185642070Y-46598433D01*
X185667394Y-46611635D01*
X185705731Y-46627523D01*
X185745979Y-46642226D01*
X185779746Y-46653645D01*
X185817664Y-46665613D01*
X185860101Y-46678069D01*
X185900941Y-46689369D01*
X185945239Y-46701043D01*
X185958531Y-46704447D01*
X185958531Y-46903750D01*
X184571232Y-46903750D01*
G37*
G36*
X187553037Y-44278449D02*
G01*
X187601664Y-44280845D01*
X187649002Y-44284837D01*
X187695052Y-44290427D01*
X187739814Y-44297614D01*
X187783289Y-44306399D01*
X187825475Y-44316780D01*
X187866373Y-44328758D01*
X187905984Y-44342334D01*
X187944306Y-44357506D01*
X187969138Y-44368509D01*
X188005348Y-44386068D01*
X188040339Y-44404676D01*
X188085097Y-44431115D01*
X188127686Y-44459417D01*
X188168109Y-44489581D01*
X188206363Y-44521607D01*
X188242450Y-44555496D01*
X188276369Y-44591247D01*
X188292516Y-44609821D01*
X188323474Y-44648182D01*
X188352355Y-44688039D01*
X188379161Y-44729393D01*
X188403891Y-44772242D01*
X188426544Y-44816588D01*
X188447122Y-44862429D01*
X188465623Y-44909766D01*
X188482048Y-44958599D01*
X188496703Y-45008227D01*
X188509404Y-45058434D01*
X188520150Y-45109221D01*
X188528943Y-45160588D01*
X188534255Y-45199494D01*
X188538469Y-45238727D01*
X188541583Y-45278286D01*
X188543598Y-45318171D01*
X188544514Y-45358382D01*
X188544575Y-45371858D01*
X188514533Y-45399702D01*
X188481851Y-45424483D01*
X188473256Y-45430477D01*
X188440092Y-45452295D01*
X188405081Y-45473421D01*
X188371651Y-45492026D01*
X188333806Y-45511945D01*
X188295500Y-45531402D01*
X188260276Y-45548690D01*
X188222820Y-45565555D01*
X188185382Y-45581057D01*
X188159648Y-45590700D01*
X186860276Y-45590700D01*
X186862398Y-45641243D01*
X186865832Y-45690778D01*
X186870580Y-45739306D01*
X186876640Y-45786827D01*
X186884013Y-45833340D01*
X186892699Y-45878845D01*
X186902698Y-45923343D01*
X186914009Y-45966834D01*
X186926603Y-46009088D01*
X186940449Y-46049877D01*
X186955546Y-46089200D01*
X186971895Y-46127057D01*
X186989496Y-46163449D01*
X187008348Y-46198376D01*
X187033674Y-46239974D01*
X187049808Y-46263833D01*
X187078192Y-46301576D01*
X187108389Y-46336648D01*
X187140398Y-46369048D01*
X187174220Y-46398777D01*
X187209854Y-46425835D01*
X187247302Y-46450221D01*
X187262788Y-46459228D01*
X187302773Y-46479211D01*
X187344571Y-46495807D01*
X187388182Y-46509016D01*
X187433605Y-46518838D01*
X187480842Y-46525273D01*
X187519936Y-46527983D01*
X187550018Y-46528592D01*
X187592699Y-46527982D01*
X187634770Y-46526150D01*
X187676230Y-46523097D01*
X187717080Y-46518823D01*
X187758479Y-46512350D01*
X187801588Y-46502703D01*
X187840711Y-46491656D01*
X187881142Y-46478179D01*
X187892935Y-46473882D01*
X187929296Y-46459331D01*
X187967307Y-46442787D01*
X188006966Y-46424251D01*
X188048273Y-46403723D01*
X188083955Y-46385095D01*
X188105914Y-46373254D01*
X188143930Y-46351935D01*
X188184091Y-46328279D01*
X188217766Y-46307671D01*
X188252815Y-46285567D01*
X188289238Y-46261967D01*
X188327034Y-46236871D01*
X188366205Y-46210279D01*
X188386305Y-46196422D01*
X188417164Y-46220732D01*
X188425384Y-46229639D01*
X188452195Y-46260365D01*
X188469348Y-46283373D01*
X188492805Y-46315639D01*
X188506473Y-46336129D01*
X188527750Y-46369967D01*
X188528943Y-46372277D01*
X188493741Y-46407328D01*
X188459208Y-46441039D01*
X188425345Y-46473411D01*
X188392152Y-46504443D01*
X188359628Y-46534136D01*
X188327775Y-46562489D01*
X188296591Y-46589502D01*
X188266077Y-46615177D01*
X188226433Y-46647325D01*
X188187980Y-46677092D01*
X188150321Y-46704890D01*
X188113059Y-46731131D01*
X188076193Y-46755815D01*
X188039725Y-46778941D01*
X188003653Y-46800511D01*
X187967978Y-46820524D01*
X187932700Y-46838979D01*
X187897820Y-46855878D01*
X187854490Y-46874745D01*
X187811209Y-46891656D01*
X187767975Y-46906611D01*
X187724789Y-46919610D01*
X187681650Y-46930653D01*
X187638560Y-46939741D01*
X187621337Y-46942828D01*
X187577902Y-46949583D01*
X187533085Y-46955193D01*
X187486884Y-46959658D01*
X187439299Y-46962978D01*
X187400236Y-46964810D01*
X187360287Y-46965909D01*
X187319452Y-46966276D01*
X187275904Y-46965469D01*
X187232819Y-46963047D01*
X187190197Y-46959011D01*
X187148040Y-46953361D01*
X187106346Y-46946097D01*
X187065116Y-46937218D01*
X187024349Y-46926726D01*
X186984046Y-46914618D01*
X186944207Y-46900897D01*
X186904831Y-46885561D01*
X186878838Y-46874440D01*
X186840459Y-46856377D01*
X186802990Y-46836991D01*
X186766430Y-46816283D01*
X186730781Y-46794252D01*
X186696043Y-46770900D01*
X186662214Y-46746224D01*
X186629296Y-46720227D01*
X186597287Y-46692907D01*
X186566189Y-46664265D01*
X186536002Y-46634300D01*
X186516382Y-46613589D01*
X186487823Y-46581315D01*
X186460397Y-46547872D01*
X186434105Y-46513262D01*
X186408946Y-46477485D01*
X186384920Y-46440539D01*
X186362028Y-46402426D01*
X186340270Y-46363145D01*
X186319644Y-46322696D01*
X186300153Y-46281079D01*
X186281794Y-46238295D01*
X186270185Y-46209123D01*
X186253948Y-46164338D01*
X186239308Y-46118642D01*
X186226264Y-46072037D01*
X186214818Y-46024521D01*
X186204970Y-45976095D01*
X186196718Y-45926759D01*
X186190063Y-45876513D01*
X186185006Y-45825356D01*
X186181545Y-45773290D01*
X186179682Y-45720313D01*
X186179327Y-45684489D01*
X186179880Y-45638640D01*
X186181540Y-45593417D01*
X186184307Y-45548820D01*
X186188181Y-45504849D01*
X186193161Y-45461503D01*
X186199248Y-45418784D01*
X186206442Y-45376690D01*
X186213667Y-45340595D01*
X186869069Y-45340595D01*
X187783514Y-45340595D01*
X187825096Y-45337573D01*
X187863309Y-45322943D01*
X187867533Y-45319102D01*
X187884123Y-45282557D01*
X187888030Y-45240784D01*
X187888050Y-45237036D01*
X187886975Y-45197873D01*
X187883749Y-45156467D01*
X187878373Y-45112816D01*
X187872053Y-45073615D01*
X187865579Y-45039688D01*
X187856283Y-44998335D01*
X187844514Y-44957806D01*
X187830271Y-44918101D01*
X187813556Y-44879221D01*
X187794367Y-44841164D01*
X187787422Y-44828662D01*
X187765199Y-44792358D01*
X187740298Y-44758183D01*
X187712718Y-44726138D01*
X187682458Y-44696222D01*
X187649520Y-44668435D01*
X187637945Y-44659646D01*
X187601458Y-44636073D01*
X187561604Y-44617377D01*
X187518384Y-44603558D01*
X187479797Y-44595768D01*
X187438872Y-44591365D01*
X187404449Y-44590281D01*
X187365008Y-44591545D01*
X187319945Y-44596400D01*
X187277355Y-44604895D01*
X187237238Y-44617031D01*
X187199594Y-44632807D01*
X187181700Y-44642061D01*
X187147891Y-44663127D01*
X187116075Y-44687490D01*
X187086250Y-44715150D01*
X187058418Y-44746108D01*
X187032578Y-44780363D01*
X187024407Y-44792514D01*
X187001189Y-44830593D01*
X186979894Y-44871557D01*
X186963617Y-44907898D01*
X186948677Y-44946242D01*
X186935071Y-44986590D01*
X186922802Y-45028941D01*
X186911701Y-45073129D01*
X186901603Y-45118987D01*
X186892505Y-45166514D01*
X186885949Y-45205738D01*
X186880034Y-45246030D01*
X186874760Y-45287391D01*
X186870127Y-45329821D01*
X186869069Y-45340595D01*
X186213667Y-45340595D01*
X186214742Y-45335222D01*
X186224149Y-45294380D01*
X186234663Y-45254164D01*
X186246284Y-45214574D01*
X186259011Y-45175609D01*
X186272845Y-45137271D01*
X186287786Y-45099558D01*
X186303833Y-45062471D01*
X186320988Y-45026010D01*
X186339245Y-44990195D01*
X186358601Y-44955043D01*
X186379056Y-44920555D01*
X186400611Y-44886731D01*
X186423264Y-44853571D01*
X186447017Y-44821075D01*
X186471869Y-44789244D01*
X186497820Y-44758076D01*
X186524869Y-44727572D01*
X186553018Y-44697733D01*
X186582267Y-44668557D01*
X186612614Y-44640046D01*
X186644060Y-44612198D01*
X186676605Y-44585015D01*
X186710250Y-44558495D01*
X186744993Y-44532640D01*
X186777037Y-44510220D01*
X186810763Y-44488268D01*
X186846173Y-44466783D01*
X186883265Y-44445766D01*
X186905217Y-44433966D01*
X186944914Y-44413723D01*
X186985359Y-44394883D01*
X187026552Y-44377446D01*
X187068493Y-44361410D01*
X187092795Y-44352877D01*
X187135818Y-44338572D01*
X187179402Y-44325575D01*
X187217206Y-44315478D01*
X187255423Y-44306341D01*
X187294051Y-44298167D01*
X187333252Y-44291194D01*
X187372453Y-44285665D01*
X187411654Y-44281577D01*
X187450855Y-44278933D01*
X187490056Y-44277731D01*
X187503123Y-44277650D01*
X187553037Y-44278449D01*
G37*
G36*
X190395600Y-44278429D02*
G01*
X190440510Y-44280765D01*
X190483771Y-44284657D01*
X190525384Y-44290107D01*
X190565348Y-44297114D01*
X190603664Y-44305677D01*
X190649240Y-44318572D01*
X190675349Y-44327476D01*
X190717204Y-44343719D01*
X190756674Y-44361918D01*
X190793759Y-44382073D01*
X190828459Y-44404183D01*
X190860773Y-44428250D01*
X190890703Y-44454272D01*
X190902007Y-44465229D01*
X190928973Y-44493775D01*
X190958374Y-44530045D01*
X190984546Y-44568513D01*
X191007490Y-44609180D01*
X191024143Y-44644747D01*
X191035852Y-44674301D01*
X191048517Y-44712330D01*
X191059036Y-44751314D01*
X191067408Y-44791251D01*
X191073633Y-44832143D01*
X191077712Y-44873988D01*
X191079644Y-44916788D01*
X191079815Y-44934175D01*
X191079815Y-46253087D01*
X191080880Y-46293684D01*
X191084814Y-46335318D01*
X191092858Y-46375343D01*
X191108238Y-46414041D01*
X191110101Y-46417218D01*
X191135564Y-46446985D01*
X191172215Y-46464349D01*
X191190213Y-46466066D01*
X191229292Y-46463135D01*
X191268733Y-46455148D01*
X191279118Y-46452389D01*
X191317022Y-46439881D01*
X191346529Y-46428941D01*
X191383234Y-46414623D01*
X191420053Y-46399968D01*
X191440318Y-46391816D01*
X191500890Y-46592096D01*
X191464344Y-46615742D01*
X191427369Y-46639055D01*
X191389965Y-46662034D01*
X191352131Y-46684679D01*
X191313868Y-46706990D01*
X191275175Y-46728967D01*
X191259578Y-46737664D01*
X191220833Y-46758630D01*
X191182756Y-46778785D01*
X191145347Y-46798129D01*
X191108605Y-46816662D01*
X191072532Y-46834384D01*
X191037126Y-46851295D01*
X191023151Y-46857832D01*
X190982072Y-46876093D01*
X190942368Y-46892774D01*
X190904037Y-46907875D01*
X190867080Y-46921396D01*
X190825700Y-46935174D01*
X190819941Y-46936967D01*
X190781773Y-46948387D01*
X190743076Y-46958004D01*
X190702089Y-46964873D01*
X190678280Y-46966276D01*
X190635324Y-46960993D01*
X190595360Y-46945145D01*
X190558387Y-46918731D01*
X190529078Y-46887682D01*
X190506333Y-46855878D01*
X190486016Y-46819256D01*
X190468418Y-46778388D01*
X190453539Y-46733275D01*
X190443594Y-46694127D01*
X190435389Y-46652262D01*
X190428924Y-46607680D01*
X190424200Y-46560381D01*
X190423291Y-46548132D01*
X190392256Y-46577090D01*
X190361192Y-46604857D01*
X190330097Y-46631434D01*
X190298971Y-46656820D01*
X190267815Y-46681015D01*
X190228827Y-46709585D01*
X190189791Y-46736294D01*
X190174163Y-46746457D01*
X190135556Y-46770729D01*
X190097284Y-46793474D01*
X190059345Y-46814692D01*
X190021740Y-46834385D01*
X189984469Y-46852550D01*
X189947532Y-46869189D01*
X189932851Y-46875417D01*
X189889563Y-46892739D01*
X189846893Y-46908070D01*
X189804841Y-46921407D01*
X189763407Y-46932753D01*
X189722592Y-46942107D01*
X189709125Y-46944782D01*
X189669511Y-46952087D01*
X189625032Y-46958698D01*
X189582424Y-46963253D01*
X189541685Y-46965751D01*
X189513730Y-46966276D01*
X189470637Y-46964902D01*
X189427818Y-46960780D01*
X189385274Y-46953911D01*
X189343004Y-46944294D01*
X189301010Y-46931929D01*
X189287073Y-46927197D01*
X189246063Y-46911237D01*
X189206564Y-46892667D01*
X189168577Y-46871487D01*
X189132101Y-46847696D01*
X189097136Y-46821295D01*
X189085817Y-46811914D01*
X189053680Y-46781598D01*
X189023947Y-46748533D01*
X188996619Y-46712721D01*
X188971694Y-46674161D01*
X188952761Y-46639929D01*
X188942202Y-46618474D01*
X188926441Y-46580883D01*
X188913351Y-46541385D01*
X188902932Y-46499978D01*
X188895185Y-46456663D01*
X188890110Y-46411440D01*
X188887705Y-46364309D01*
X188887492Y-46344922D01*
X188888545Y-46300103D01*
X188891705Y-46256994D01*
X188896971Y-46215595D01*
X188901259Y-46192514D01*
X189585049Y-46192514D01*
X189586265Y-46231577D01*
X189590630Y-46272442D01*
X189599337Y-46313598D01*
X189610450Y-46345899D01*
X189628272Y-46381371D01*
X189650962Y-46414881D01*
X189676884Y-46442619D01*
X189710075Y-46467648D01*
X189747261Y-46486669D01*
X189760904Y-46491468D01*
X189800403Y-46501285D01*
X189841016Y-46505145D01*
X189880675Y-46503497D01*
X189921982Y-46498551D01*
X189950436Y-46493422D01*
X189991566Y-46482496D01*
X190031560Y-46468758D01*
X190069677Y-46453293D01*
X190078420Y-46449458D01*
X190114384Y-46431872D01*
X190151937Y-46411356D01*
X190186097Y-46391000D01*
X190221473Y-46368400D01*
X190231804Y-46361530D01*
X190264033Y-46339182D01*
X190297704Y-46314636D01*
X190332818Y-46287891D01*
X190369374Y-46258948D01*
X190400940Y-46233150D01*
X190420360Y-46216939D01*
X190420360Y-45609262D01*
X190379907Y-45616086D01*
X190341103Y-45622879D01*
X190294916Y-45631327D01*
X190251305Y-45639728D01*
X190210271Y-45648081D01*
X190171812Y-45656386D01*
X190142900Y-45662996D01*
X190102004Y-45672922D01*
X190063582Y-45682917D01*
X190021881Y-45694664D01*
X189983547Y-45706505D01*
X189953367Y-45716729D01*
X189916609Y-45730590D01*
X189879635Y-45746621D01*
X189843990Y-45764978D01*
X189828315Y-45774371D01*
X189794060Y-45797909D01*
X189763102Y-45823097D01*
X189744295Y-45840805D01*
X189714402Y-45872521D01*
X189687127Y-45905266D01*
X189662470Y-45939039D01*
X189640431Y-45973841D01*
X189629013Y-45994189D01*
X189611882Y-46031729D01*
X189598960Y-46072541D01*
X189590244Y-46116626D01*
X189586122Y-46157018D01*
X189585049Y-46192514D01*
X188901259Y-46192514D01*
X188904344Y-46175906D01*
X188913824Y-46137926D01*
X188928636Y-46092856D01*
X188946740Y-46050457D01*
X188954903Y-46034245D01*
X188976803Y-45994942D01*
X189000374Y-45957022D01*
X189025614Y-45920486D01*
X189052523Y-45885333D01*
X189081103Y-45851564D01*
X189111352Y-45819178D01*
X189123919Y-45806611D01*
X189153538Y-45778588D01*
X189185121Y-45750939D01*
X189218667Y-45723663D01*
X189254176Y-45696762D01*
X189275349Y-45681558D01*
X189309982Y-45659015D01*
X189348668Y-45636816D01*
X189384002Y-45618579D01*
X189422151Y-45600580D01*
X189463114Y-45582820D01*
X189506891Y-45565299D01*
X189544184Y-45551194D01*
X189583767Y-45537211D01*
X189625639Y-45523350D01*
X189669801Y-45509611D01*
X189716253Y-45495995D01*
X189764995Y-45482500D01*
X189803054Y-45472460D01*
X189842401Y-45462488D01*
X189869348Y-45455878D01*
X189911377Y-45446029D01*
X189955398Y-45436266D01*
X190001411Y-45426589D01*
X190049416Y-45416997D01*
X190099413Y-45407492D01*
X190151403Y-45398072D01*
X190205384Y-45388739D01*
X190261358Y-45379491D01*
X190319323Y-45370329D01*
X190359074Y-45364269D01*
X190399710Y-45358247D01*
X190420360Y-45355250D01*
X190420360Y-45037734D01*
X190419322Y-44996518D01*
X190416208Y-44956890D01*
X190410223Y-44914205D01*
X190403751Y-44882396D01*
X190392477Y-44843902D01*
X190375418Y-44804937D01*
X190353589Y-44769980D01*
X190346110Y-44760274D01*
X190317698Y-44730717D01*
X190283752Y-44705549D01*
X190248469Y-44686649D01*
X190235712Y-44681140D01*
X190194462Y-44667444D01*
X190153124Y-44659033D01*
X190113346Y-44654578D01*
X190070203Y-44652835D01*
X190063765Y-44652807D01*
X190022244Y-44655193D01*
X189980723Y-44662348D01*
X189939201Y-44674274D01*
X189930897Y-44677232D01*
X189891513Y-44694596D01*
X189855182Y-44716158D01*
X189821904Y-44741918D01*
X189815614Y-44747574D01*
X189786992Y-44777570D01*
X189762186Y-44811382D01*
X189741197Y-44849011D01*
X189737457Y-44856994D01*
X189724379Y-44894733D01*
X189717020Y-44935408D01*
X189715380Y-44979020D01*
X189716940Y-45004517D01*
X189691109Y-45034904D01*
X189672977Y-45045550D01*
X189634371Y-45064143D01*
X189596952Y-45080057D01*
X189559197Y-45094706D01*
X189554763Y-45096352D01*
X189513410Y-45111190D01*
X189474575Y-45124379D01*
X189433786Y-45137568D01*
X189396494Y-45149109D01*
X189353873Y-45161382D01*
X189311986Y-45172800D01*
X189270831Y-45183364D01*
X189230409Y-45193073D01*
X189191818Y-45201377D01*
X189150740Y-45209551D01*
X189112134Y-45216489D01*
X189087771Y-45220428D01*
X189046051Y-45225099D01*
X189005625Y-45224893D01*
X189002774Y-45224336D01*
X188945133Y-45075836D01*
X188962688Y-45034925D01*
X188982624Y-44994747D01*
X189004942Y-44955302D01*
X189029641Y-44916590D01*
X189056721Y-44878610D01*
X189086183Y-44841363D01*
X189118026Y-44804849D01*
X189152251Y-44769067D01*
X189188414Y-44733911D01*
X189226073Y-44699763D01*
X189265228Y-44666622D01*
X189305880Y-44634489D01*
X189337350Y-44611050D01*
X189369661Y-44588178D01*
X189402814Y-44565873D01*
X189436809Y-44544135D01*
X189471645Y-44522963D01*
X189483444Y-44516031D01*
X189519282Y-44495569D01*
X189555721Y-44475949D01*
X189592761Y-44457170D01*
X189630402Y-44439232D01*
X189668644Y-44422136D01*
X189707487Y-44405882D01*
X189746932Y-44390469D01*
X189786977Y-44375897D01*
X189827623Y-44362167D01*
X189868871Y-44349278D01*
X189896703Y-44341154D01*
X189938861Y-44329805D01*
X189981070Y-44319572D01*
X190023331Y-44310456D01*
X190065643Y-44302456D01*
X190108006Y-44295573D01*
X190150422Y-44289805D01*
X190192888Y-44285154D01*
X190235407Y-44281619D01*
X190277977Y-44279201D01*
X190320598Y-44277898D01*
X190349041Y-44277650D01*
X190395600Y-44278429D01*
G37*
G36*
X194209055Y-42752598D02*
G01*
X194209055Y-46067462D01*
X194209242Y-46107900D01*
X194209913Y-46150567D01*
X194211253Y-46194041D01*
X194212963Y-46228662D01*
X194216552Y-46270778D01*
X194220994Y-46310139D01*
X194224686Y-46335152D01*
X194233331Y-46373511D01*
X194243249Y-46398655D01*
X194269478Y-46428786D01*
X194272558Y-46430895D01*
X194307729Y-46443596D01*
X194347220Y-46444787D01*
X194358531Y-46443596D01*
X194397198Y-46435859D01*
X194435666Y-46424105D01*
X194438643Y-46423080D01*
X194478256Y-46408288D01*
X194516934Y-46392393D01*
X194556150Y-46375314D01*
X194560764Y-46373254D01*
X194637945Y-46573533D01*
X194598466Y-46599479D01*
X194558795Y-46624805D01*
X194518934Y-46649511D01*
X194478882Y-46673596D01*
X194438639Y-46697062D01*
X194398206Y-46719907D01*
X194381979Y-46728872D01*
X194342108Y-46750729D01*
X194303096Y-46771729D01*
X194264942Y-46791869D01*
X194227648Y-46811151D01*
X194191212Y-46829574D01*
X194155634Y-46847139D01*
X194141644Y-46853924D01*
X194100806Y-46872883D01*
X194061822Y-46890194D01*
X194024693Y-46905856D01*
X193983721Y-46922045D01*
X193945272Y-46935990D01*
X193905705Y-46949240D01*
X193864489Y-46960479D01*
X193824601Y-46966246D01*
X193822174Y-46966276D01*
X193774837Y-46959071D01*
X193731987Y-46937455D01*
X193693626Y-46901429D01*
X193667800Y-46864953D01*
X193644499Y-46820371D01*
X193623722Y-46767683D01*
X193611273Y-46728055D01*
X193599946Y-46684824D01*
X193589742Y-46637990D01*
X193580659Y-46587554D01*
X193572698Y-46533516D01*
X193569138Y-46505145D01*
X193537936Y-46535584D01*
X193507345Y-46564863D01*
X193477364Y-46592981D01*
X193447994Y-46619939D01*
X193412140Y-46652006D01*
X193377240Y-46682259D01*
X193343294Y-46710700D01*
X193336619Y-46716171D01*
X193303742Y-46742580D01*
X193271055Y-46767462D01*
X193238560Y-46790818D01*
X193199817Y-46816830D01*
X193161348Y-46840643D01*
X193129501Y-46858809D01*
X193091193Y-46878329D01*
X193052473Y-46895857D01*
X193013341Y-46911394D01*
X192973797Y-46924938D01*
X192933840Y-46936489D01*
X192920429Y-46939897D01*
X192879774Y-46948862D01*
X192837677Y-46955972D01*
X192794137Y-46961227D01*
X192749154Y-46964627D01*
X192702729Y-46966173D01*
X192686933Y-46966276D01*
X192641061Y-46964902D01*
X192595281Y-46960780D01*
X192549592Y-46953911D01*
X192503995Y-46944294D01*
X192458490Y-46931929D01*
X192413076Y-46916816D01*
X192367754Y-46898956D01*
X192322523Y-46878348D01*
X192278162Y-46854931D01*
X192234962Y-46829133D01*
X192192922Y-46800954D01*
X192152041Y-46770393D01*
X192112321Y-46737451D01*
X192083293Y-46711181D01*
X192054917Y-46683572D01*
X192027193Y-46654624D01*
X192000122Y-46624336D01*
X191973859Y-46592559D01*
X191948557Y-46559512D01*
X191924216Y-46525194D01*
X191900838Y-46489605D01*
X191878421Y-46452746D01*
X191856966Y-46414615D01*
X191836472Y-46375214D01*
X191816940Y-46334542D01*
X191798370Y-46292599D01*
X191780762Y-46249385D01*
X191769557Y-46219870D01*
X191753844Y-46174440D01*
X191739676Y-46127912D01*
X191727053Y-46080285D01*
X191715976Y-46031558D01*
X191706445Y-45981733D01*
X191698460Y-45930808D01*
X191692020Y-45878784D01*
X191687125Y-45825662D01*
X191683776Y-45771440D01*
X191681973Y-45716119D01*
X191681630Y-45678627D01*
X191682488Y-45627866D01*
X191685064Y-45577431D01*
X191687527Y-45548690D01*
X192341085Y-45548690D01*
X192341566Y-45588944D01*
X192343009Y-45628374D01*
X192346428Y-45679665D01*
X192351557Y-45729491D01*
X192358396Y-45777851D01*
X192366945Y-45824746D01*
X192377203Y-45870175D01*
X192389171Y-45914139D01*
X192395796Y-45935571D01*
X192409992Y-45977031D01*
X192425227Y-46016904D01*
X192441500Y-46055189D01*
X192458810Y-46091886D01*
X192477159Y-46126996D01*
X192501555Y-46168651D01*
X192527572Y-46207825D01*
X192538434Y-46222800D01*
X192566507Y-46258383D01*
X192595773Y-46291246D01*
X192626232Y-46321390D01*
X192657884Y-46348814D01*
X192690728Y-46373520D01*
X192724764Y-46395507D01*
X192738713Y-46403540D01*
X192774104Y-46421553D01*
X192816511Y-46439139D01*
X192858849Y-46452328D01*
X192901118Y-46461120D01*
X192943319Y-46465517D01*
X192964393Y-46466066D01*
X193011334Y-46464254D01*
X193057511Y-46458815D01*
X193102925Y-46449752D01*
X193147575Y-46437062D01*
X193191463Y-46420748D01*
X193234587Y-46400808D01*
X193251623Y-46391816D01*
X193285985Y-46371895D01*
X193321171Y-46349746D01*
X193357181Y-46325367D01*
X193394016Y-46298760D01*
X193431676Y-46269924D01*
X193470159Y-46238859D01*
X193509467Y-46205566D01*
X193539489Y-46179133D01*
X193549599Y-46170044D01*
X193549599Y-44984001D01*
X193524167Y-44945777D01*
X193497209Y-44909751D01*
X193468724Y-44875923D01*
X193438713Y-44844294D01*
X193407175Y-44814863D01*
X193374111Y-44787629D01*
X193339520Y-44762595D01*
X193303402Y-44739758D01*
X193266186Y-44719379D01*
X193227809Y-44701717D01*
X193188272Y-44686772D01*
X193147575Y-44674545D01*
X193105718Y-44665035D01*
X193062701Y-44658242D01*
X193018523Y-44654166D01*
X192973186Y-44652807D01*
X192930687Y-44654072D01*
X192889285Y-44657864D01*
X192848980Y-44664185D01*
X192809772Y-44673034D01*
X192771662Y-44684411D01*
X192734648Y-44698317D01*
X192720150Y-44704587D01*
X192684888Y-44722199D01*
X192651152Y-44742674D01*
X192618942Y-44766010D01*
X192588259Y-44792209D01*
X192559103Y-44821270D01*
X192531473Y-44853193D01*
X192520848Y-44866764D01*
X192495475Y-44902389D01*
X192471866Y-44940877D01*
X192450023Y-44982226D01*
X192429944Y-45026438D01*
X192415152Y-45063868D01*
X192401490Y-45103130D01*
X192388957Y-45144224D01*
X192377737Y-45187302D01*
X192368013Y-45232518D01*
X192359785Y-45279870D01*
X192353053Y-45329360D01*
X192347817Y-45380987D01*
X192344872Y-45421110D01*
X192342768Y-45462434D01*
X192341506Y-45504961D01*
X192341085Y-45548690D01*
X191687527Y-45548690D01*
X191689358Y-45527322D01*
X191695368Y-45477539D01*
X191703096Y-45428083D01*
X191712542Y-45378953D01*
X191723704Y-45330149D01*
X191736584Y-45281672D01*
X191751182Y-45233521D01*
X191767496Y-45185696D01*
X191779327Y-45153994D01*
X191798341Y-45106890D01*
X191818745Y-45060834D01*
X191840541Y-45015826D01*
X191863728Y-44971865D01*
X191888306Y-44928952D01*
X191914275Y-44887086D01*
X191941635Y-44846268D01*
X191970386Y-44806497D01*
X192000528Y-44767774D01*
X192032061Y-44730099D01*
X192053856Y-44705564D01*
X192087621Y-44669798D01*
X192122606Y-44635405D01*
X192158811Y-44602387D01*
X192196234Y-44570742D01*
X192234877Y-44540471D01*
X192274739Y-44511574D01*
X192315821Y-44484051D01*
X192358121Y-44457902D01*
X192401641Y-44433126D01*
X192446381Y-44409725D01*
X192476884Y-44394887D01*
X192523467Y-44373936D01*
X192570891Y-44355045D01*
X192619157Y-44338215D01*
X192668264Y-44323446D01*
X192718213Y-44310738D01*
X192769003Y-44300090D01*
X192820634Y-44291504D01*
X192873107Y-44284978D01*
X192926422Y-44280513D01*
X192980578Y-44278108D01*
X193017150Y-44277650D01*
X193057402Y-44278414D01*
X193097559Y-44280703D01*
X193137620Y-44284520D01*
X193177587Y-44289863D01*
X193217457Y-44296732D01*
X193257233Y-44305128D01*
X193273116Y-44308913D01*
X193313612Y-44320496D01*
X193355109Y-44335704D01*
X193397608Y-44354537D01*
X193441109Y-44376996D01*
X193476631Y-44397574D01*
X193512795Y-44420471D01*
X193549599Y-44445689D01*
X193549599Y-43498027D01*
X193549504Y-43451926D01*
X193549217Y-43408879D01*
X193548740Y-43368884D01*
X193547916Y-43324920D01*
X193546817Y-43285353D01*
X193545691Y-43255738D01*
X193541844Y-43213423D01*
X193532991Y-43172096D01*
X193517535Y-43133971D01*
X193507589Y-43117985D01*
X193479001Y-43088096D01*
X193444197Y-43067336D01*
X193405694Y-43053872D01*
X193396215Y-43051551D01*
X193353350Y-43042759D01*
X193308831Y-43035866D01*
X193265463Y-43030554D01*
X193225649Y-43026547D01*
X193182496Y-43022921D01*
X193173465Y-43022242D01*
X193173465Y-42831733D01*
X193229553Y-42825874D01*
X193284611Y-42819654D01*
X193338638Y-42813074D01*
X193391635Y-42806133D01*
X193443601Y-42798832D01*
X193494538Y-42791169D01*
X193544443Y-42783147D01*
X193593318Y-42774763D01*
X193641163Y-42766019D01*
X193687978Y-42756914D01*
X193718615Y-42750644D01*
X193763343Y-42740978D01*
X193806302Y-42731399D01*
X193847492Y-42721905D01*
X193886914Y-42712496D01*
X193936724Y-42700086D01*
X193983390Y-42687828D01*
X194026911Y-42675723D01*
X194067287Y-42663770D01*
X194104519Y-42651970D01*
X194209055Y-42752598D01*
G37*
%TO.C,G\u002A\u002A\u002A*%
G36*
X199492460Y-72906360D02*
G01*
X199687005Y-73085398D01*
X199623069Y-73288095D01*
X199371998Y-73411270D01*
X198515805Y-73598811D01*
X197959105Y-73609537D01*
X197701985Y-73443449D01*
X197699274Y-73436712D01*
X197757579Y-73180924D01*
X198097306Y-72976661D01*
X198652661Y-72852891D01*
X199078872Y-72829281D01*
X199492460Y-72906360D01*
G37*
G36*
X162223797Y-92026989D02*
G01*
X162212100Y-92220559D01*
X161924248Y-92571981D01*
X161575949Y-92902873D01*
X161124863Y-93299709D01*
X160858893Y-93482408D01*
X160709313Y-93474795D01*
X160607391Y-93300699D01*
X160585948Y-93246097D01*
X160643180Y-92968981D01*
X160912956Y-92616280D01*
X161300455Y-92275487D01*
X161710859Y-92034093D01*
X161967889Y-91970947D01*
X162223797Y-92026989D01*
G37*
G36*
X190648184Y-59342234D02*
G01*
X190677139Y-59610883D01*
X190485425Y-60096983D01*
X190239264Y-60545508D01*
X189827702Y-61171789D01*
X189506543Y-61478115D01*
X189260524Y-61476043D01*
X189160548Y-61362364D01*
X189188622Y-61132246D01*
X189366350Y-60722274D01*
X189635216Y-60231398D01*
X189936703Y-59758568D01*
X190212297Y-59402733D01*
X190402142Y-59262848D01*
X190648184Y-59342234D01*
G37*
G36*
X194416978Y-71310709D02*
G01*
X194457272Y-71518782D01*
X194306968Y-71679247D01*
X193928170Y-71886011D01*
X193429051Y-72097501D01*
X192917784Y-72272143D01*
X192502541Y-72368364D01*
X192295762Y-72349506D01*
X192196340Y-72094615D01*
X192416745Y-71833149D01*
X192968632Y-71553569D01*
X193183215Y-71470814D01*
X193833829Y-71256688D01*
X194227435Y-71202655D01*
X194416978Y-71310709D01*
G37*
G36*
X194516846Y-60241492D02*
G01*
X194495813Y-60560173D01*
X194226433Y-61058394D01*
X194080584Y-61261977D01*
X193628746Y-61792601D01*
X193292115Y-62018547D01*
X193045464Y-61953484D01*
X192973909Y-61861570D01*
X193019408Y-61650454D01*
X193232587Y-61282403D01*
X193541385Y-60852654D01*
X193873740Y-60456443D01*
X194157591Y-60189004D01*
X194284680Y-60129281D01*
X194516846Y-60241492D01*
G37*
G36*
X195852125Y-93502020D02*
G01*
X196147110Y-93767356D01*
X196478872Y-94121438D01*
X196865137Y-94580320D01*
X197121917Y-94953721D01*
X197192963Y-95154400D01*
X197016211Y-95373078D01*
X196722959Y-95289261D01*
X196300650Y-94897374D01*
X196109131Y-94673129D01*
X195703489Y-94107317D01*
X195562383Y-93713485D01*
X195583153Y-93577462D01*
X195682163Y-93449668D01*
X195852125Y-93502020D01*
G37*
G36*
X196187876Y-81437939D02*
G01*
X196625821Y-81563443D01*
X197097485Y-81762416D01*
X197495468Y-81986643D01*
X197712369Y-82187911D01*
X197722874Y-82256449D01*
X197587779Y-82454159D01*
X197320301Y-82489818D01*
X196848402Y-82363481D01*
X196559313Y-82257302D01*
X196010381Y-81992739D01*
X195730066Y-81737439D01*
X195744544Y-81523645D01*
X195891050Y-81434116D01*
X196187876Y-81437939D01*
G37*
G36*
X199517909Y-82687643D02*
G01*
X199953257Y-82777344D01*
X200461146Y-82964670D01*
X200928501Y-83196556D01*
X201242252Y-83419938D01*
X201309825Y-83528596D01*
X201189212Y-83697331D01*
X200818533Y-83725064D01*
X200264696Y-83614299D01*
X199850423Y-83473980D01*
X199361533Y-83225832D01*
X199101399Y-82977480D01*
X199091836Y-82780506D01*
X199354656Y-82686495D01*
X199517909Y-82687643D01*
G37*
G36*
X165214439Y-89451814D02*
G01*
X165175245Y-89709349D01*
X164893085Y-90087478D01*
X164472574Y-90475853D01*
X163991682Y-90859467D01*
X163702174Y-91044130D01*
X163531397Y-91057506D01*
X163406704Y-90927256D01*
X163383456Y-90890545D01*
X163435436Y-90679923D01*
X163688305Y-90346958D01*
X164059208Y-89970690D01*
X164465292Y-89630163D01*
X164823702Y-89404419D01*
X164991291Y-89356678D01*
X165214439Y-89451814D01*
G37*
G36*
X165391843Y-78860321D02*
G01*
X165556800Y-78977744D01*
X165577820Y-79096441D01*
X165422030Y-79299385D01*
X165027169Y-79487423D01*
X164502002Y-79636932D01*
X163955296Y-79724294D01*
X163495815Y-79725888D01*
X163232325Y-79618093D01*
X163224980Y-79607400D01*
X163181063Y-79393865D01*
X163375280Y-79221488D01*
X163848184Y-79067087D01*
X164359791Y-78958603D01*
X165012696Y-78856188D01*
X165391843Y-78860321D01*
G37*
G36*
X181327296Y-48133189D02*
G01*
X181388197Y-48432057D01*
X181364405Y-48890740D01*
X181278197Y-49389567D01*
X181151847Y-49808870D01*
X181007632Y-50028979D01*
X180972568Y-50038870D01*
X180721973Y-49929523D01*
X180684441Y-49865937D01*
X180662051Y-49602705D01*
X180669834Y-49125607D01*
X180686734Y-48822101D01*
X180781771Y-48258866D01*
X180952534Y-47959001D01*
X181169619Y-47954130D01*
X181327296Y-48133189D01*
G37*
G36*
X194784937Y-68380972D02*
G01*
X194761170Y-68584583D01*
X194472532Y-68884837D01*
X193940914Y-69249742D01*
X193832715Y-69313170D01*
X193128495Y-69685701D01*
X192668807Y-69847219D01*
X192426086Y-69803572D01*
X192369601Y-69623556D01*
X192512015Y-69416896D01*
X192874570Y-69126562D01*
X193360238Y-68811952D01*
X193871992Y-68532460D01*
X194312801Y-68347483D01*
X194521943Y-68305993D01*
X194784937Y-68380972D01*
G37*
G36*
X159036306Y-83963383D02*
G01*
X159093417Y-84188958D01*
X158839095Y-84454222D01*
X158261523Y-84768649D01*
X157769347Y-84979051D01*
X157083145Y-85234299D01*
X156643043Y-85339213D01*
X156386032Y-85303201D01*
X156282469Y-85201048D01*
X156273468Y-85028936D01*
X156479666Y-84831577D01*
X156939491Y-84583626D01*
X157691374Y-84259736D01*
X157738968Y-84240428D01*
X158458190Y-83984392D01*
X158897248Y-83913552D01*
X159036306Y-83963383D01*
G37*
G36*
X163259754Y-72834968D02*
G01*
X163863505Y-72924144D01*
X164483285Y-73060881D01*
X165023568Y-73224795D01*
X165388830Y-73395503D01*
X165490834Y-73522789D01*
X165438252Y-73703341D01*
X165243004Y-73789998D01*
X164848838Y-73786039D01*
X164199503Y-73694744D01*
X163787435Y-73622099D01*
X162980213Y-73445024D01*
X162506383Y-73265591D01*
X162351443Y-73075562D01*
X162482433Y-72880834D01*
X162767555Y-72813736D01*
X163259754Y-72834968D01*
G37*
G36*
X163839648Y-86128950D02*
G01*
X163806847Y-86337803D01*
X163525383Y-86641155D01*
X163023359Y-87002405D01*
X162734047Y-87173506D01*
X162021449Y-87552066D01*
X161560194Y-87741991D01*
X161314420Y-87751063D01*
X161248264Y-87587065D01*
X161260305Y-87493325D01*
X161432093Y-87272515D01*
X161822346Y-86964367D01*
X162334227Y-86628680D01*
X162870896Y-86325253D01*
X163335516Y-86113884D01*
X163595688Y-86051199D01*
X163839648Y-86128950D01*
G37*
G36*
X167622869Y-59970042D02*
G01*
X167969566Y-60245403D01*
X168353331Y-60639675D01*
X168699025Y-61067859D01*
X168931507Y-61444954D01*
X168975640Y-61685960D01*
X168972806Y-61690958D01*
X168756694Y-61852999D01*
X168455933Y-61737140D01*
X168043005Y-61328515D01*
X167839464Y-61078741D01*
X167434715Y-60547932D01*
X167229037Y-60221167D01*
X167198374Y-60035509D01*
X167318668Y-59928018D01*
X167388379Y-59898594D01*
X167622869Y-59970042D01*
G37*
G36*
X194174895Y-53641522D02*
G01*
X194162731Y-54002597D01*
X193914935Y-54588765D01*
X193584410Y-55155382D01*
X193164712Y-55792389D01*
X192870891Y-56156045D01*
X192664063Y-56279463D01*
X192505347Y-56195756D01*
X192451713Y-56120024D01*
X192483850Y-55897385D01*
X192662840Y-55477453D01*
X192937569Y-54949070D01*
X193256921Y-54401080D01*
X193569781Y-53922326D01*
X193825034Y-53601650D01*
X193948584Y-53518322D01*
X194174895Y-53641522D01*
G37*
G36*
X207025056Y-80517429D02*
G01*
X207856488Y-80639599D01*
X208400780Y-80740932D01*
X208716547Y-80839554D01*
X208862407Y-80953592D01*
X208896998Y-81096294D01*
X208734323Y-81274521D01*
X208250032Y-81334248D01*
X207449734Y-81275269D01*
X206774581Y-81175177D01*
X206112335Y-81041027D01*
X205757641Y-80902760D01*
X205670626Y-80737223D01*
X205755307Y-80583333D01*
X205966755Y-80467955D01*
X206375219Y-80448451D01*
X207025056Y-80517429D01*
G37*
G36*
X163346658Y-69290663D02*
G01*
X163926973Y-69493457D01*
X164523203Y-69745505D01*
X165042949Y-70008438D01*
X165393814Y-70243885D01*
X165490834Y-70385390D01*
X165436538Y-70589257D01*
X165239474Y-70653428D01*
X164848382Y-70573277D01*
X164212001Y-70344176D01*
X163972017Y-70248311D01*
X163166690Y-69898165D01*
X162675747Y-69621796D01*
X162477608Y-69402460D01*
X162550694Y-69223413D01*
X162603362Y-69186316D01*
X162874655Y-69175492D01*
X163346658Y-69290663D01*
G37*
G36*
X170382311Y-63214491D02*
G01*
X170733491Y-63547364D01*
X171161972Y-64010205D01*
X171603415Y-64527784D01*
X171993484Y-65024873D01*
X172267840Y-65426239D01*
X172362752Y-65647543D01*
X172271171Y-65866128D01*
X172004891Y-65799889D01*
X171576603Y-65457175D01*
X170999002Y-64846334D01*
X170811011Y-64626921D01*
X170272261Y-63957634D01*
X169970132Y-63500634D01*
X169891992Y-63225436D01*
X170025207Y-63101554D01*
X170172770Y-63086815D01*
X170382311Y-63214491D01*
G37*
G36*
X176584598Y-50074767D02*
G01*
X176707663Y-50224492D01*
X176818619Y-50551100D01*
X176941569Y-51117643D01*
X177039585Y-51645813D01*
X177108364Y-52218186D01*
X177050157Y-52548639D01*
X176962267Y-52657388D01*
X176737759Y-52728198D01*
X176562822Y-52520691D01*
X176450904Y-52178627D01*
X176338507Y-51624047D01*
X176267260Y-51117678D01*
X176211801Y-50521154D01*
X176223744Y-50193006D01*
X176314072Y-50058269D01*
X176425322Y-50038870D01*
X176584598Y-50074767D01*
G37*
G36*
X188660779Y-62992274D02*
G01*
X188716176Y-63091776D01*
X188645819Y-63315596D01*
X188466646Y-63729248D01*
X188226500Y-64235639D01*
X187973229Y-64737672D01*
X187754679Y-65138253D01*
X187618693Y-65340285D01*
X187604152Y-65348459D01*
X187456276Y-65233524D01*
X187366507Y-65130993D01*
X187321592Y-64836419D01*
X187431678Y-64370003D01*
X187647487Y-63838510D01*
X187919738Y-63348706D01*
X188199150Y-63007357D01*
X188390352Y-62912843D01*
X188660779Y-62992274D01*
G37*
G36*
X192287392Y-63132144D02*
G01*
X192335367Y-63287450D01*
X192192904Y-63592159D01*
X191843835Y-64081527D01*
X191302363Y-64754123D01*
X190659997Y-65483907D01*
X190189856Y-65911767D01*
X189891609Y-66037923D01*
X189764925Y-65862594D01*
X189760012Y-65775847D01*
X189871564Y-65496488D01*
X190163361Y-65057628D01*
X190571113Y-64534147D01*
X191030529Y-64000926D01*
X191477320Y-63532845D01*
X191847196Y-63204784D01*
X192065149Y-63090988D01*
X192287392Y-63132144D01*
G37*
G36*
X205174628Y-67470921D02*
G01*
X205105850Y-67707066D01*
X204896754Y-67847690D01*
X204468401Y-68055019D01*
X203930961Y-68283757D01*
X203394603Y-68488611D01*
X202969499Y-68624287D01*
X202802744Y-68653939D01*
X202582679Y-68528245D01*
X202546998Y-68479966D01*
X202495234Y-68270099D01*
X202650885Y-68076088D01*
X203057482Y-67867074D01*
X203758555Y-67612196D01*
X203782161Y-67604328D01*
X204492867Y-67408107D01*
X204965852Y-67364324D01*
X205174628Y-67470921D01*
G37*
G36*
X157094072Y-75991639D02*
G01*
X157711866Y-76075483D01*
X158021462Y-76219792D01*
X158040866Y-76429372D01*
X158022033Y-76463255D01*
X157802016Y-76551605D01*
X157331034Y-76613485D01*
X156704670Y-76648362D01*
X156018508Y-76655702D01*
X155368131Y-76634974D01*
X154849123Y-76585646D01*
X154557066Y-76507184D01*
X154530560Y-76482706D01*
X154476349Y-76248070D01*
X154673961Y-76089618D01*
X155152355Y-75998065D01*
X155940492Y-75964125D01*
X156150074Y-75963452D01*
X157094072Y-75991639D01*
G37*
G36*
X161647670Y-59715207D02*
G01*
X162050544Y-59996702D01*
X162549164Y-60388797D01*
X163069066Y-60828441D01*
X163535789Y-61252580D01*
X163874870Y-61598163D01*
X164011845Y-61802137D01*
X164012067Y-61806451D01*
X163943864Y-62053007D01*
X163723293Y-62074102D01*
X163326415Y-61859935D01*
X162729289Y-61400704D01*
X162455857Y-61169341D01*
X161789706Y-60555472D01*
X161372797Y-60080048D01*
X161216823Y-59760616D01*
X161333479Y-59614726D01*
X161415005Y-59607363D01*
X161647670Y-59715207D01*
G37*
G36*
X161953878Y-64958682D02*
G01*
X162380871Y-65141610D01*
X162929591Y-65426434D01*
X163517783Y-65765190D01*
X164063192Y-66109917D01*
X164483562Y-66412652D01*
X164696637Y-66625431D01*
X164707957Y-66661537D01*
X164662640Y-66876976D01*
X164496718Y-66943819D01*
X164165239Y-66851122D01*
X163623249Y-66587940D01*
X163008893Y-66247865D01*
X162246402Y-65789091D01*
X161781593Y-65441490D01*
X161591454Y-65181253D01*
X161652972Y-64984569D01*
X161730869Y-64925612D01*
X161953878Y-64958682D01*
G37*
G36*
X167611761Y-68253695D02*
G01*
X168063164Y-68442970D01*
X168631164Y-68733190D01*
X169234140Y-69077151D01*
X169790468Y-69427648D01*
X170218526Y-69737477D01*
X170436693Y-69959434D01*
X170449053Y-69999869D01*
X170342845Y-70184015D01*
X170013663Y-70164913D01*
X169445670Y-69938020D01*
X168623028Y-69498792D01*
X168543734Y-69453185D01*
X167797422Y-68998855D01*
X167348414Y-68663412D01*
X167175810Y-68424981D01*
X167258714Y-68261687D01*
X167358578Y-68212568D01*
X167611761Y-68253695D01*
G37*
G36*
X177309590Y-54226818D02*
G01*
X177429609Y-54485774D01*
X177572789Y-54984447D01*
X177720681Y-55627394D01*
X177854837Y-56319170D01*
X177956807Y-56964331D01*
X178008144Y-57467433D01*
X177990398Y-57733030D01*
X177988116Y-57737158D01*
X177763751Y-57878934D01*
X177514743Y-57752001D01*
X177343834Y-57411436D01*
X177339065Y-57389212D01*
X177101148Y-56104349D01*
X176968424Y-55131975D01*
X176940935Y-54476416D01*
X177018721Y-54142000D01*
X177201822Y-54133055D01*
X177309590Y-54226818D01*
G37*
G36*
X190839545Y-49697195D02*
G01*
X190934296Y-49757891D01*
X190933671Y-49935846D01*
X190832005Y-50293888D01*
X190623635Y-50894850D01*
X190520330Y-51185807D01*
X190201183Y-51960814D01*
X189916906Y-52389631D01*
X189667496Y-52472262D01*
X189512069Y-52321574D01*
X189523124Y-52095598D01*
X189638693Y-51637838D01*
X189834892Y-51039896D01*
X189874954Y-50929793D01*
X190151320Y-50248018D01*
X190379331Y-49854472D01*
X190590708Y-49698782D01*
X190655082Y-49690925D01*
X190839545Y-49697195D01*
G37*
G36*
X198497641Y-66147128D02*
G01*
X198496823Y-66393617D01*
X198324060Y-66605857D01*
X197965054Y-66870189D01*
X197470727Y-67179973D01*
X196947076Y-67475413D01*
X196500102Y-67696712D01*
X196235802Y-67784075D01*
X196235474Y-67784075D01*
X195971217Y-67656351D01*
X195936960Y-67611592D01*
X196024282Y-67453887D01*
X196331965Y-67181401D01*
X196777423Y-66850497D01*
X197278074Y-66517537D01*
X197751332Y-66238885D01*
X198114612Y-66070902D01*
X198230909Y-66046002D01*
X198497641Y-66147128D01*
G37*
G36*
X156357074Y-80484550D02*
G01*
X156517882Y-80585287D01*
X156647158Y-80768600D01*
X156507906Y-80907115D01*
X156299624Y-80994839D01*
X155864944Y-81111045D01*
X155273736Y-81207117D01*
X154614719Y-81277037D01*
X153976613Y-81314781D01*
X153448136Y-81314331D01*
X153118008Y-81269665D01*
X153051793Y-81215246D01*
X153112938Y-81030655D01*
X153332877Y-80883739D01*
X153766368Y-80754807D01*
X154468167Y-80624163D01*
X154866963Y-80562423D01*
X155600179Y-80464745D01*
X156070817Y-80438426D01*
X156357074Y-80484550D01*
G37*
G36*
X161918954Y-79564685D02*
G01*
X161983637Y-79603865D01*
X162083185Y-79790811D01*
X161953175Y-79955241D01*
X161560810Y-80112727D01*
X160873292Y-80278840D01*
X160345085Y-80381815D01*
X159406222Y-80545521D01*
X158753922Y-80631431D01*
X158336250Y-80642274D01*
X158101267Y-80580775D01*
X158022195Y-80503788D01*
X158009626Y-80325217D01*
X158228215Y-80161083D01*
X158710302Y-79999041D01*
X159488229Y-79826746D01*
X160078637Y-79718831D01*
X160984330Y-79578505D01*
X161586912Y-79527778D01*
X161918954Y-79564685D01*
G37*
G36*
X167587081Y-71010689D02*
G01*
X168204180Y-71207458D01*
X168898083Y-71463628D01*
X169590480Y-71748276D01*
X170203058Y-72030477D01*
X170657509Y-72279307D01*
X170875520Y-72463843D01*
X170883985Y-72493661D01*
X170819480Y-72684214D01*
X170598829Y-72746069D01*
X170181326Y-72672898D01*
X169526266Y-72458378D01*
X168761432Y-72163831D01*
X167857195Y-71786883D01*
X167253177Y-71492627D01*
X166917539Y-71259812D01*
X166818443Y-71067188D01*
X166896539Y-70919055D01*
X167125097Y-70904247D01*
X167587081Y-71010689D01*
G37*
G36*
X173732080Y-56000142D02*
G01*
X173925334Y-56433440D01*
X174146625Y-57024573D01*
X174366495Y-57684006D01*
X174555485Y-58322206D01*
X174684137Y-58849638D01*
X174722993Y-59176766D01*
X174715537Y-59215925D01*
X174510491Y-59419117D01*
X174257020Y-59349828D01*
X174204663Y-59284011D01*
X174113128Y-59059110D01*
X173948824Y-58588475D01*
X173741623Y-57958834D01*
X173659923Y-57702472D01*
X173404801Y-56781984D01*
X173315379Y-56161471D01*
X173391723Y-55842971D01*
X173596321Y-55814215D01*
X173732080Y-56000142D01*
G37*
G36*
X196093855Y-84571310D02*
G01*
X196541450Y-84799080D01*
X197110549Y-85124022D01*
X197729670Y-85501399D01*
X198327330Y-85886479D01*
X198832046Y-86234525D01*
X199172334Y-86500803D01*
X199278123Y-86637521D01*
X199147216Y-86807993D01*
X198888248Y-86825299D01*
X198459424Y-86676464D01*
X197818947Y-86348511D01*
X197200249Y-85992395D01*
X196406598Y-85491930D01*
X195895001Y-85097782D01*
X195682981Y-84823792D01*
X195677989Y-84789897D01*
X195752930Y-84531747D01*
X195839249Y-84485445D01*
X196093855Y-84571310D01*
G37*
G36*
X200180661Y-60348515D02*
G01*
X200198368Y-60477909D01*
X200074760Y-60651321D01*
X199748214Y-60986051D01*
X199285149Y-61423161D01*
X198751984Y-61903714D01*
X198215137Y-62368771D01*
X197741027Y-62759393D01*
X197396072Y-63016643D01*
X197258343Y-63086815D01*
X197067666Y-62948872D01*
X197008055Y-62836557D01*
X197095155Y-62596355D01*
X197461173Y-62175374D01*
X198095262Y-61585456D01*
X198375391Y-61343918D01*
X199134514Y-60729757D01*
X199676833Y-60364647D01*
X200019748Y-60240322D01*
X200180661Y-60348515D01*
G37*
G36*
X203358739Y-84009451D02*
G01*
X203943733Y-84220050D01*
X204641954Y-84487164D01*
X205075848Y-84672735D01*
X205308010Y-84814330D01*
X205401035Y-84949519D01*
X205417546Y-85104617D01*
X205373256Y-85273558D01*
X205203128Y-85327897D01*
X204851281Y-85261241D01*
X204261830Y-85067196D01*
X203884165Y-84929187D01*
X203229561Y-84679887D01*
X202844344Y-84504242D01*
X202670037Y-84359415D01*
X202648162Y-84202571D01*
X202694206Y-84057527D01*
X202788830Y-83930626D01*
X202985710Y-83911397D01*
X203358739Y-84009451D01*
G37*
G36*
X157003257Y-62081374D02*
G01*
X157550064Y-62343949D01*
X158341393Y-62783265D01*
X158435981Y-62837835D01*
X159283781Y-63350459D01*
X159827129Y-63735383D01*
X160079476Y-64006347D01*
X160054270Y-64177089D01*
X159822308Y-64254034D01*
X159571637Y-64187258D01*
X159103090Y-63977949D01*
X158496535Y-63663615D01*
X158143774Y-63465741D01*
X157340927Y-62995136D01*
X156806518Y-62655073D01*
X156502126Y-62412072D01*
X156389329Y-62232652D01*
X156429705Y-62083333D01*
X156484646Y-62019989D01*
X156661332Y-61978926D01*
X157003257Y-62081374D01*
G37*
G36*
X171532173Y-49652733D02*
G01*
X171562451Y-49676464D01*
X171741961Y-49940992D01*
X171975121Y-50438352D01*
X172229961Y-51077828D01*
X172474509Y-51768704D01*
X172676796Y-52420262D01*
X172804850Y-52941786D01*
X172826700Y-53242560D01*
X172823159Y-53253708D01*
X172655787Y-53494971D01*
X172455519Y-53412883D01*
X172214140Y-52999927D01*
X172019265Y-52517980D01*
X171763066Y-51824426D01*
X171505998Y-51131573D01*
X171376731Y-50784813D01*
X171221724Y-50229028D01*
X171202835Y-49814066D01*
X171309755Y-49601458D01*
X171532173Y-49652733D01*
G37*
G36*
X181079144Y-51289329D02*
G01*
X181166409Y-51399023D01*
X181208745Y-51677768D01*
X181215728Y-52186066D01*
X181198330Y-52936894D01*
X181167391Y-53732395D01*
X181121958Y-54243906D01*
X181048974Y-54535377D01*
X180935384Y-54670758D01*
X180837447Y-54704624D01*
X180695675Y-54703479D01*
X180608409Y-54593785D01*
X180566073Y-54315040D01*
X180559091Y-53806742D01*
X180576489Y-53055915D01*
X180607427Y-52260413D01*
X180652861Y-51748902D01*
X180725845Y-51457432D01*
X180839435Y-51322050D01*
X180937371Y-51288185D01*
X181079144Y-51289329D01*
G37*
G36*
X194169279Y-78311228D02*
G01*
X194880621Y-78409982D01*
X195393987Y-78500266D01*
X196231855Y-78672945D01*
X196777494Y-78821678D01*
X197084002Y-78965119D01*
X197204479Y-79121922D01*
X197208051Y-79137532D01*
X197187424Y-79310890D01*
X197013998Y-79401389D01*
X196644470Y-79408610D01*
X196035534Y-79332136D01*
X195143886Y-79171549D01*
X194854699Y-79114835D01*
X193974220Y-78910934D01*
X193394231Y-78711189D01*
X193128181Y-78522869D01*
X193189520Y-78353243D01*
X193322764Y-78286759D01*
X193620362Y-78267099D01*
X194169279Y-78311228D01*
G37*
G36*
X196026266Y-76083036D02*
G01*
X196761599Y-76120782D01*
X197406199Y-76184938D01*
X197880062Y-76272671D01*
X198103186Y-76381148D01*
X198110697Y-76406252D01*
X198036208Y-76643521D01*
X197980218Y-76676334D01*
X197471418Y-76714065D01*
X196668935Y-76723259D01*
X195625891Y-76703492D01*
X195414122Y-76696740D01*
X194530956Y-76655367D01*
X193962768Y-76596217D01*
X193676701Y-76510377D01*
X193639901Y-76388935D01*
X193777687Y-76252815D01*
X194075911Y-76156589D01*
X194603418Y-76098107D01*
X195280205Y-76074533D01*
X196026266Y-76083036D01*
G37*
G36*
X197360239Y-89495703D02*
G01*
X197745853Y-89768753D01*
X198263941Y-90177540D01*
X198854528Y-90670194D01*
X199457639Y-91194847D01*
X200013302Y-91699629D01*
X200461541Y-92132670D01*
X200742382Y-92442101D01*
X200807272Y-92558522D01*
X200713986Y-92759658D01*
X200427674Y-92718044D01*
X199938659Y-92428378D01*
X199237263Y-91885360D01*
X198632615Y-91367414D01*
X197861036Y-90670047D01*
X197345381Y-90155326D01*
X197064659Y-89795220D01*
X196997882Y-89561699D01*
X197124059Y-89426731D01*
X197167074Y-89410260D01*
X197360239Y-89495703D01*
G37*
G36*
X205586170Y-62191199D02*
G01*
X205590371Y-62270713D01*
X205448999Y-62428801D01*
X205078431Y-62701223D01*
X204557571Y-63040636D01*
X203965325Y-63399698D01*
X203380599Y-63731068D01*
X202882298Y-63987403D01*
X202549328Y-64121362D01*
X202490387Y-64130651D01*
X202234927Y-64009095D01*
X202213423Y-63979929D01*
X202216025Y-63816231D01*
X202419264Y-63589529D01*
X202855595Y-63274602D01*
X203557472Y-62846228D01*
X203998243Y-62592896D01*
X204724378Y-62205283D01*
X205206128Y-62014178D01*
X205480917Y-62012008D01*
X205586170Y-62191199D01*
G37*
G36*
X154068858Y-71207550D02*
G01*
X154770135Y-71302496D01*
X155566821Y-71428468D01*
X156377246Y-71571819D01*
X157119739Y-71718897D01*
X157712631Y-71856055D01*
X158063315Y-71964899D01*
X158326848Y-72150080D01*
X158357500Y-72308103D01*
X158188669Y-72417964D01*
X157836832Y-72454969D01*
X157264452Y-72416357D01*
X156433989Y-72299365D01*
X155307904Y-72101231D01*
X155153573Y-72072332D01*
X154133926Y-71854630D01*
X153445646Y-71648537D01*
X153093062Y-71456145D01*
X153080497Y-71279547D01*
X153279212Y-71165338D01*
X153544660Y-71157281D01*
X154068858Y-71207550D01*
G37*
G36*
X191924333Y-94720488D02*
G01*
X192195409Y-95102920D01*
X192529558Y-95645959D01*
X192884417Y-96272412D01*
X193217624Y-96905087D01*
X193486815Y-97466789D01*
X193649626Y-97880326D01*
X193671113Y-98060620D01*
X193429450Y-98221000D01*
X193139755Y-98050489D01*
X193107035Y-98011815D01*
X192883165Y-97679121D01*
X192589226Y-97169841D01*
X192264313Y-96561912D01*
X191947522Y-95933273D01*
X191677949Y-95361862D01*
X191494689Y-94925617D01*
X191436839Y-94702474D01*
X191441678Y-94691908D01*
X191708261Y-94579108D01*
X191758694Y-94575856D01*
X191924333Y-94720488D01*
G37*
G36*
X195910450Y-73516979D02*
G01*
X196009693Y-73690903D01*
X195907214Y-73844239D01*
X195568919Y-73990556D01*
X194960718Y-74143422D01*
X194048515Y-74316404D01*
X193790210Y-74360787D01*
X192924175Y-74501315D01*
X192341707Y-74576415D01*
X191985125Y-74588594D01*
X191796747Y-74540357D01*
X191724539Y-74450529D01*
X191699760Y-74170762D01*
X191736174Y-74100607D01*
X191980415Y-73998354D01*
X192474969Y-73880772D01*
X193134402Y-73759804D01*
X193873281Y-73647396D01*
X194606173Y-73555493D01*
X195247645Y-73496039D01*
X195712262Y-73480981D01*
X195910450Y-73516979D01*
G37*
G36*
X200615423Y-79472247D02*
G01*
X201320527Y-79564910D01*
X202319497Y-79743021D01*
X202373026Y-79753252D01*
X203180780Y-79926488D01*
X203680818Y-80082061D01*
X203911938Y-80233819D01*
X203938779Y-80312124D01*
X203824224Y-80509339D01*
X203462753Y-80587762D01*
X202827658Y-80548310D01*
X201892233Y-80391900D01*
X201851108Y-80383801D01*
X200997892Y-80212137D01*
X200429177Y-80085411D01*
X200087571Y-79983948D01*
X199915682Y-79888071D01*
X199856120Y-79778105D01*
X199850423Y-79697884D01*
X199921660Y-79539641D01*
X200162897Y-79464126D01*
X200615423Y-79472247D01*
G37*
G36*
X201696617Y-87893007D02*
G01*
X202176486Y-88107280D01*
X202797221Y-88430889D01*
X203487889Y-88821865D01*
X204177553Y-89238239D01*
X204795282Y-89638043D01*
X205270140Y-89979308D01*
X205531193Y-90220063D01*
X205559157Y-90273966D01*
X205558168Y-90471832D01*
X205432945Y-90542263D01*
X205148781Y-90472545D01*
X204670970Y-90249969D01*
X203964808Y-89861820D01*
X203170936Y-89399211D01*
X202271991Y-88855031D01*
X201659672Y-88449570D01*
X201311222Y-88162331D01*
X201203883Y-87972820D01*
X201314898Y-87860544D01*
X201428548Y-87830041D01*
X201696617Y-87893007D01*
G37*
G36*
X165665456Y-94750880D02*
G01*
X165598537Y-94935666D01*
X165350473Y-95313949D01*
X164973786Y-95821417D01*
X164521001Y-96393761D01*
X164044641Y-96966670D01*
X163597228Y-97475832D01*
X163231288Y-97856936D01*
X162999342Y-98045673D01*
X162966689Y-98055308D01*
X162743850Y-97929080D01*
X162703196Y-97874741D01*
X162757974Y-97670337D01*
X162998059Y-97273601D01*
X163379045Y-96753536D01*
X163606285Y-96471484D01*
X164087886Y-95885914D01*
X164506108Y-95367955D01*
X164794502Y-95000264D01*
X164859657Y-94912326D01*
X165185044Y-94626367D01*
X165506701Y-94608615D01*
X165665456Y-94750880D01*
G37*
G36*
X168304764Y-54007898D02*
G01*
X168568466Y-54387820D01*
X168918803Y-54938583D01*
X169316050Y-55592732D01*
X169720479Y-56282817D01*
X170092364Y-56941382D01*
X170391977Y-57500977D01*
X170579592Y-57894149D01*
X170623026Y-58035651D01*
X170500403Y-58195761D01*
X170232561Y-58180400D01*
X169969539Y-57998186D01*
X169969483Y-57998117D01*
X169816188Y-57765688D01*
X169533444Y-57301333D01*
X169163625Y-56675685D01*
X168807597Y-56061353D01*
X168314071Y-55155346D01*
X168025437Y-54505486D01*
X167935690Y-54091176D01*
X168038822Y-53891821D01*
X168167425Y-53866267D01*
X168304764Y-54007898D01*
G37*
G36*
X170683408Y-94708137D02*
G01*
X170699542Y-94732887D01*
X170650868Y-94925858D01*
X170462016Y-95345521D01*
X170172223Y-95920449D01*
X169820729Y-96579216D01*
X169446772Y-97250394D01*
X169089592Y-97862557D01*
X168788428Y-98344278D01*
X168582518Y-98624130D01*
X168542139Y-98660019D01*
X168326536Y-98624665D01*
X168219594Y-98529020D01*
X168192007Y-98333784D01*
X168313685Y-97958962D01*
X168599671Y-97369503D01*
X169065004Y-96530353D01*
X169113238Y-96446514D01*
X169629194Y-95580148D01*
X170019147Y-95000179D01*
X170308139Y-94679556D01*
X170521212Y-94591226D01*
X170683408Y-94708137D01*
G37*
G36*
X171234347Y-59154333D02*
G01*
X171499791Y-59402248D01*
X171863275Y-59878216D01*
X172349195Y-60609525D01*
X172861676Y-61427881D01*
X173481212Y-62443397D01*
X173928074Y-63206660D01*
X174220094Y-63756571D01*
X174375107Y-64132036D01*
X174410945Y-64371957D01*
X174345440Y-64515239D01*
X174294765Y-64554263D01*
X174109767Y-64480842D01*
X173815324Y-64165750D01*
X173519296Y-63747528D01*
X172695114Y-62444783D01*
X172011697Y-61335055D01*
X171480623Y-60438294D01*
X171113468Y-59774452D01*
X170921808Y-59363478D01*
X170900001Y-59233503D01*
X171042549Y-59107182D01*
X171234347Y-59154333D01*
G37*
G36*
X200869628Y-68965528D02*
G01*
X200863522Y-69109124D01*
X200667854Y-69306858D01*
X200155232Y-69585334D01*
X199344716Y-69934965D01*
X198806587Y-70143693D01*
X197829338Y-70503821D01*
X197125215Y-70740717D01*
X196646343Y-70865398D01*
X196344844Y-70888879D01*
X196172841Y-70822176D01*
X196122195Y-70761322D01*
X196097186Y-70629956D01*
X196213791Y-70487177D01*
X196513109Y-70311362D01*
X197036241Y-70080893D01*
X197824286Y-69774148D01*
X198421306Y-69551891D01*
X199388328Y-69202737D01*
X200074860Y-68977104D01*
X200522713Y-68867412D01*
X200773698Y-68866080D01*
X200869628Y-68965528D01*
G37*
G36*
X157140976Y-67083133D02*
G01*
X157646670Y-67212004D01*
X158385202Y-67452119D01*
X159401240Y-67811983D01*
X159432346Y-67823225D01*
X160442454Y-68209692D01*
X161114851Y-68516582D01*
X161449171Y-68743716D01*
X161489464Y-68825529D01*
X161353748Y-69068582D01*
X161028369Y-69127989D01*
X160706587Y-69018736D01*
X160444731Y-68906150D01*
X159928203Y-68713274D01*
X159233129Y-68467698D01*
X158480830Y-68212073D01*
X157605246Y-67908135D01*
X157023572Y-67674184D01*
X156693762Y-67489641D01*
X156573774Y-67333928D01*
X156574262Y-67278911D01*
X156649438Y-67125093D01*
X156823454Y-67056998D01*
X157140976Y-67083133D01*
G37*
G36*
X160395804Y-87900879D02*
G01*
X160529174Y-88072702D01*
X160434125Y-88305850D01*
X160087864Y-88621792D01*
X159467595Y-89041994D01*
X158689498Y-89507832D01*
X157864302Y-89981891D01*
X157287464Y-90298825D01*
X156907854Y-90478637D01*
X156674341Y-90541326D01*
X156535796Y-90506896D01*
X156441090Y-90395346D01*
X156437105Y-90388939D01*
X156400007Y-90144641D01*
X156430332Y-90095491D01*
X156671091Y-89918600D01*
X157124254Y-89636139D01*
X157719606Y-89286967D01*
X158386930Y-88909943D01*
X159056013Y-88543926D01*
X159656639Y-88227776D01*
X160118593Y-88000352D01*
X160371659Y-87900512D01*
X160395804Y-87900879D01*
G37*
G36*
X163050094Y-54600443D02*
G01*
X163404747Y-54913662D01*
X163876400Y-55392303D01*
X164417747Y-55981521D01*
X164981484Y-56626469D01*
X165520304Y-57272302D01*
X165986903Y-57864173D01*
X166333974Y-58347236D01*
X166514212Y-58666645D01*
X166523614Y-58755389D01*
X166387411Y-58879403D01*
X166191781Y-58854085D01*
X165904349Y-58652677D01*
X165492747Y-58248422D01*
X164924600Y-57614563D01*
X164398826Y-56999093D01*
X163693319Y-56157294D01*
X163193468Y-55539286D01*
X162875778Y-55107028D01*
X162716750Y-54822483D01*
X162692888Y-54647611D01*
X162780696Y-54544373D01*
X162859747Y-54507494D01*
X163050094Y-54600443D01*
G37*
G36*
X183367007Y-92285521D02*
G01*
X183026398Y-92455618D01*
X182589894Y-92638542D01*
X182035331Y-92839218D01*
X181356737Y-93051459D01*
X180611093Y-93261895D01*
X179855378Y-93457156D01*
X179146575Y-93623872D01*
X178541663Y-93748674D01*
X178097624Y-93818191D01*
X177871438Y-93819053D01*
X177920086Y-93737891D01*
X177929875Y-93731962D01*
X178239161Y-93607726D01*
X178754646Y-93454525D01*
X179147683Y-93356493D01*
X179754304Y-93203586D01*
X180554604Y-92983982D01*
X181410547Y-92736008D01*
X181740986Y-92636421D01*
X182571031Y-92393941D01*
X183126959Y-92254651D01*
X183396406Y-92218522D01*
X183367007Y-92285521D01*
G37*
G36*
X188877745Y-55398732D02*
G01*
X188887520Y-55475514D01*
X188824867Y-55770152D01*
X188660758Y-56284142D01*
X188425170Y-56941533D01*
X188148082Y-57666375D01*
X187859474Y-58382716D01*
X187589325Y-59014608D01*
X187367614Y-59486099D01*
X187224319Y-59721239D01*
X187206793Y-59733550D01*
X186944918Y-59674949D01*
X186896329Y-59618470D01*
X186913033Y-59403316D01*
X187027025Y-58941710D01*
X187212503Y-58312645D01*
X187443663Y-57595113D01*
X187694704Y-56868107D01*
X187939822Y-56210620D01*
X188153214Y-55701645D01*
X188221195Y-55562500D01*
X188449992Y-55326213D01*
X188713652Y-55265773D01*
X188877745Y-55398732D01*
G37*
G36*
X204808642Y-76033247D02*
G01*
X205666369Y-76047394D01*
X206231155Y-76079577D01*
X206557858Y-76137693D01*
X206701335Y-76229639D01*
X206722341Y-76308733D01*
X206673832Y-76408411D01*
X206497482Y-76482401D01*
X206147057Y-76535752D01*
X205576324Y-76573514D01*
X204739048Y-76600736D01*
X203895286Y-76617495D01*
X202822264Y-76631152D01*
X202051195Y-76628051D01*
X201536348Y-76604946D01*
X201231994Y-76558591D01*
X201092402Y-76485740D01*
X201068231Y-76416820D01*
X201173177Y-76271036D01*
X201505804Y-76162267D01*
X202092797Y-76087775D01*
X202960843Y-76044826D01*
X204136625Y-76030681D01*
X204808642Y-76033247D01*
G37*
G36*
X168567814Y-65439468D02*
G01*
X168996655Y-65747023D01*
X169565442Y-66187069D01*
X170219305Y-66713748D01*
X170903374Y-67281199D01*
X171562779Y-67843563D01*
X172142651Y-68354980D01*
X172588121Y-68769591D01*
X172844318Y-69041535D01*
X172884670Y-69113866D01*
X172842383Y-69313642D01*
X172695493Y-69367268D01*
X172413958Y-69257829D01*
X171967735Y-68968409D01*
X171326781Y-68482095D01*
X170461053Y-67781971D01*
X170335855Y-67678843D01*
X169590336Y-67047335D01*
X168950250Y-66473673D01*
X168460551Y-66000703D01*
X168166189Y-65671272D01*
X168100423Y-65548092D01*
X168212106Y-65327155D01*
X168333787Y-65310265D01*
X168567814Y-65439468D01*
G37*
G36*
X185764066Y-50148678D02*
G01*
X185815570Y-50379929D01*
X185787198Y-50902003D01*
X185677358Y-51730113D01*
X185484454Y-52879469D01*
X185468755Y-52967034D01*
X185280003Y-53987428D01*
X185130332Y-54711737D01*
X185005479Y-55187705D01*
X184891181Y-55463078D01*
X184773177Y-55585603D01*
X184680455Y-55605993D01*
X184416714Y-55543859D01*
X184366861Y-55471118D01*
X184399188Y-55144722D01*
X184486512Y-54580043D01*
X184614352Y-53850638D01*
X184768226Y-53030064D01*
X184933653Y-52191877D01*
X185096150Y-51409633D01*
X185241235Y-50756889D01*
X185354427Y-50307201D01*
X185417075Y-50136875D01*
X185664511Y-50077553D01*
X185764066Y-50148678D01*
G37*
G36*
X166766212Y-81138540D02*
G01*
X166764892Y-81287917D01*
X166566774Y-81486959D01*
X166043491Y-81764849D01*
X165207308Y-82115551D01*
X164672913Y-82317347D01*
X163677582Y-82682118D01*
X162960195Y-82940271D01*
X162472026Y-83104983D01*
X162164349Y-83189434D01*
X161988437Y-83206801D01*
X161895562Y-83170264D01*
X161836998Y-83093001D01*
X161832414Y-83085583D01*
X161779730Y-82941877D01*
X161840570Y-82802827D01*
X162057559Y-82644234D01*
X162473321Y-82441902D01*
X163130481Y-82171631D01*
X164071665Y-81809226D01*
X164099053Y-81798832D01*
X165121981Y-81420119D01*
X165862758Y-81171901D01*
X166358787Y-81047011D01*
X166647470Y-81038280D01*
X166766212Y-81138540D01*
G37*
G36*
X193081342Y-66141132D02*
G01*
X193209322Y-66281862D01*
X193180089Y-66480957D01*
X192966658Y-66770127D01*
X192542044Y-67181085D01*
X191879262Y-67745541D01*
X191349294Y-68176522D01*
X190579902Y-68794462D01*
X190036623Y-69223162D01*
X189674614Y-69491672D01*
X189449034Y-69629042D01*
X189315043Y-69664320D01*
X189227798Y-69626557D01*
X189180103Y-69581792D01*
X189064597Y-69344133D01*
X189064122Y-69331484D01*
X189192276Y-69161454D01*
X189537390Y-68835870D01*
X190040441Y-68401603D01*
X190642407Y-67905529D01*
X191284267Y-67394521D01*
X191906996Y-66915453D01*
X192451574Y-66515198D01*
X192858978Y-66240631D01*
X193070185Y-66138624D01*
X193081342Y-66141132D01*
G37*
G36*
X166184990Y-76143686D02*
G01*
X167177808Y-76169427D01*
X167906131Y-76210427D01*
X168338984Y-76265134D01*
X168449128Y-76309962D01*
X168412999Y-76509957D01*
X168293459Y-76586450D01*
X168014254Y-76628926D01*
X167460093Y-76665334D01*
X166703932Y-76694310D01*
X165818729Y-76714487D01*
X164877441Y-76724499D01*
X163953025Y-76722979D01*
X163118437Y-76708561D01*
X162663779Y-76691870D01*
X162027831Y-76638586D01*
X161683805Y-76544689D01*
X161576593Y-76394749D01*
X161576450Y-76387418D01*
X161624421Y-76298792D01*
X161796493Y-76232999D01*
X162134908Y-76186883D01*
X162681904Y-76157289D01*
X163479723Y-76141062D01*
X164570605Y-76135046D01*
X164958649Y-76134760D01*
X166184990Y-76143686D01*
G37*
G36*
X199163103Y-54500074D02*
G01*
X199262053Y-54640314D01*
X199267531Y-54654197D01*
X199201332Y-54918236D01*
X198900879Y-55384105D01*
X198388404Y-56018516D01*
X198252844Y-56173524D01*
X197670170Y-56840087D01*
X197086386Y-57521644D01*
X196600943Y-58101683D01*
X196472735Y-58259075D01*
X196037308Y-58770880D01*
X195746308Y-59025001D01*
X195549762Y-59052326D01*
X195414973Y-58912851D01*
X195371591Y-58784251D01*
X195408862Y-58611575D01*
X195555117Y-58354011D01*
X195838687Y-57970747D01*
X196287900Y-57420972D01*
X196931088Y-56663874D01*
X197166073Y-56390252D01*
X197873514Y-55577701D01*
X198394618Y-55009107D01*
X198761705Y-54657771D01*
X199007093Y-54496993D01*
X199163103Y-54500074D01*
G37*
G36*
X208873836Y-71146528D02*
G01*
X208898208Y-71218819D01*
X208878675Y-71326793D01*
X208869986Y-71368961D01*
X208793064Y-71514179D01*
X208587907Y-71645081D01*
X208203483Y-71778584D01*
X207588760Y-71931607D01*
X206692704Y-72121067D01*
X206460283Y-72167813D01*
X205295789Y-72394489D01*
X204430917Y-72545297D01*
X203826257Y-72622616D01*
X203442398Y-72628824D01*
X203239929Y-72566300D01*
X203179439Y-72437421D01*
X203186639Y-72365366D01*
X203289941Y-72224385D01*
X203573269Y-72088901D01*
X204083225Y-71944414D01*
X204866407Y-71776424D01*
X205417546Y-71671164D01*
X206600867Y-71450968D01*
X207484420Y-71288852D01*
X208110850Y-71181082D01*
X208522801Y-71123927D01*
X208762914Y-71113653D01*
X208873836Y-71146528D01*
G37*
G36*
X178661679Y-60507714D02*
G01*
X180015543Y-60507714D01*
X180095916Y-60887509D01*
X180133714Y-60999144D01*
X180281184Y-61520826D01*
X180354467Y-61970602D01*
X180355672Y-61999486D01*
X180390186Y-62305520D01*
X180436434Y-62390925D01*
X180469019Y-62231720D01*
X180487918Y-61812900D01*
X180489239Y-61260103D01*
X181712602Y-61260103D01*
X182135502Y-61955993D01*
X182441087Y-62636272D01*
X182437395Y-63172604D01*
X182144276Y-63565240D01*
X181995939Y-63735855D01*
X182050664Y-63782706D01*
X182312460Y-63662701D01*
X182430828Y-63548659D01*
X182607420Y-63209738D01*
X182725597Y-62809275D01*
X182740113Y-62427380D01*
X182565909Y-62090744D01*
X182269363Y-61782021D01*
X181712602Y-61260103D01*
X180489239Y-61260103D01*
X180489328Y-61222650D01*
X180488699Y-61178842D01*
X180495140Y-60558733D01*
X180529820Y-60083045D01*
X180585315Y-59851683D01*
X180587525Y-59849257D01*
X180797204Y-59833211D01*
X181040636Y-60037940D01*
X181220077Y-60362075D01*
X181255536Y-60542021D01*
X181283529Y-60772352D01*
X181338497Y-60669052D01*
X181355549Y-60606298D01*
X181357843Y-60282419D01*
X181272988Y-59843749D01*
X181138347Y-59419415D01*
X180991281Y-59138543D01*
X180917411Y-59092048D01*
X180757713Y-59227170D01*
X180490812Y-59560519D01*
X180360999Y-59744445D01*
X180094114Y-60180735D01*
X180015543Y-60507714D01*
X178661679Y-60507714D01*
X178783500Y-60260206D01*
X179010859Y-59899049D01*
X179145779Y-59781336D01*
X179332929Y-59650144D01*
X179641921Y-59309028D01*
X179947169Y-58911473D01*
X180366213Y-58403302D01*
X180730478Y-58099790D01*
X180901261Y-58041610D01*
X181221258Y-58196022D01*
X181584674Y-58607868D01*
X181939212Y-59200058D01*
X182232576Y-59895505D01*
X182296748Y-60098629D01*
X182719452Y-60930085D01*
X183244418Y-61492091D01*
X183832491Y-62142921D01*
X184104332Y-62740552D01*
X184363613Y-63533337D01*
X184786274Y-64414100D01*
X185291211Y-65223242D01*
X185508343Y-65503373D01*
X185871920Y-66105378D01*
X186045485Y-66873868D01*
X186054262Y-66963448D01*
X186142715Y-67556994D01*
X186277027Y-68050742D01*
X186354939Y-68219007D01*
X186516903Y-68611311D01*
X186648860Y-69158132D01*
X186673424Y-69317208D01*
X186887376Y-70158227D01*
X187291794Y-71108267D01*
X187824303Y-72037313D01*
X188266301Y-72637421D01*
X188589392Y-73074449D01*
X188784556Y-73509887D01*
X188899737Y-74077473D01*
X188951486Y-74548766D01*
X189076491Y-75687496D01*
X189220951Y-76533698D01*
X189402472Y-77142785D01*
X189638659Y-77570170D01*
X189947117Y-77871265D01*
X190023949Y-77924441D01*
X190644515Y-78464279D01*
X191036174Y-79157187D01*
X191233796Y-79962158D01*
X191385125Y-80802719D01*
X191594775Y-81717910D01*
X191879627Y-82770048D01*
X192256559Y-84021448D01*
X192742451Y-85534429D01*
X192746387Y-85546426D01*
X193636765Y-88260147D01*
X192866260Y-90242545D01*
X192453713Y-91242907D01*
X192123269Y-91910348D01*
X191875933Y-92242940D01*
X191802322Y-92281453D01*
X191500754Y-92212473D01*
X191070824Y-91973136D01*
X190851917Y-91812571D01*
X190142049Y-91325459D01*
X189345606Y-90905205D01*
X188563891Y-90595223D01*
X187898205Y-90438925D01*
X187632099Y-90432742D01*
X187250977Y-90505817D01*
X187077456Y-90700757D01*
X187010231Y-91126656D01*
X186914724Y-91602885D01*
X186750236Y-91933563D01*
X186723246Y-91959831D01*
X186565156Y-92312644D01*
X186578529Y-92817856D01*
X186584319Y-93362154D01*
X186481617Y-93824302D01*
X186459170Y-93871301D01*
X186349637Y-94191278D01*
X186464683Y-94473367D01*
X186628373Y-94662702D01*
X186975937Y-95228826D01*
X187199360Y-95980477D01*
X187261680Y-96766333D01*
X187224812Y-97104423D01*
X187094165Y-97498559D01*
X186818660Y-97785868D01*
X186317877Y-98060388D01*
X185315228Y-98423927D01*
X184067884Y-98709667D01*
X182672715Y-98906123D01*
X181226593Y-99001813D01*
X179826388Y-98985254D01*
X179071085Y-98919403D01*
X178111618Y-98755984D01*
X177128621Y-98506349D01*
X176181308Y-98195133D01*
X175328898Y-97846965D01*
X174630607Y-97486478D01*
X174327057Y-97268543D01*
X176223033Y-97268543D01*
X176328961Y-97352177D01*
X176692999Y-97486862D01*
X177233301Y-97649500D01*
X177868027Y-97816987D01*
X178515332Y-97966225D01*
X179056618Y-98068347D01*
X179741851Y-98128470D01*
X180657811Y-98142228D01*
X181691047Y-98114319D01*
X182728107Y-98049439D01*
X183655540Y-97952285D01*
X184246990Y-97853481D01*
X184788387Y-97723442D01*
X185001488Y-97639914D01*
X184903127Y-97605227D01*
X184510139Y-97621715D01*
X183839355Y-97691708D01*
X183444096Y-97742253D01*
X182165693Y-97830563D01*
X180848092Y-97778057D01*
X179634670Y-97594681D01*
X179051252Y-97437598D01*
X178833872Y-97382177D01*
X178920165Y-97475115D01*
X178973711Y-97514315D01*
X179054466Y-97647794D01*
X178855108Y-97703873D01*
X178434251Y-97684704D01*
X177850511Y-97592439D01*
X177242075Y-97450747D01*
X176714175Y-97324700D01*
X176340131Y-97262452D01*
X176223033Y-97268543D01*
X174327057Y-97268543D01*
X174145652Y-97138303D01*
X174118460Y-97098459D01*
X175842204Y-97098459D01*
X175929190Y-97185445D01*
X176016176Y-97098459D01*
X175929190Y-97011473D01*
X175842204Y-97098459D01*
X174118460Y-97098459D01*
X173933250Y-96827073D01*
X173928505Y-96780306D01*
X174030345Y-96234458D01*
X174287159Y-95596830D01*
X174339014Y-95511347D01*
X175494259Y-95511347D01*
X175600185Y-95541524D01*
X175611357Y-95533980D01*
X176886040Y-95533980D01*
X177025650Y-95512388D01*
X177382747Y-95368301D01*
X177665099Y-95236673D01*
X178097080Y-95009125D01*
X178348786Y-94841632D01*
X178377849Y-94791866D01*
X178201964Y-94824154D01*
X177845556Y-94972761D01*
X177428329Y-95178139D01*
X177069986Y-95380740D01*
X176890232Y-95521017D01*
X176886040Y-95533980D01*
X175611357Y-95533980D01*
X175798711Y-95407471D01*
X176173257Y-95135656D01*
X176625081Y-94869631D01*
X176777018Y-94786915D01*
X184639239Y-94786915D01*
X184831919Y-94989759D01*
X185290163Y-95360185D01*
X185298693Y-95366702D01*
X185733947Y-95725373D01*
X186027254Y-96017476D01*
X186106587Y-96149579D01*
X186231745Y-96312007D01*
X186264273Y-96315582D01*
X186349799Y-96174737D01*
X186323648Y-95924144D01*
X186143886Y-95516894D01*
X185845449Y-95073849D01*
X185834657Y-95060709D01*
X185546530Y-94678126D01*
X185370827Y-94381924D01*
X185364169Y-94364818D01*
X185214348Y-94238399D01*
X185141661Y-94274304D01*
X185119623Y-94489066D01*
X185204829Y-94613550D01*
X185398671Y-94889424D01*
X185333901Y-95009667D01*
X185074189Y-94929923D01*
X184718028Y-94763141D01*
X184639239Y-94786915D01*
X176777018Y-94786915D01*
X176956519Y-94689193D01*
X176992176Y-94625157D01*
X176746893Y-94637148D01*
X176709194Y-94640806D01*
X176296762Y-94770164D01*
X175876520Y-95027217D01*
X175572175Y-95323326D01*
X175494259Y-95511347D01*
X174339014Y-95511347D01*
X174625885Y-95038445D01*
X174721590Y-94923802D01*
X175008812Y-94476023D01*
X175021813Y-93990634D01*
X175020531Y-93984022D01*
X175044304Y-93543970D01*
X176025838Y-93543970D01*
X176150087Y-93671442D01*
X176226441Y-93730631D01*
X176478442Y-93941933D01*
X176458572Y-94042117D01*
X176265313Y-94101888D01*
X176045526Y-94177428D01*
X176113724Y-94211346D01*
X176412898Y-94207244D01*
X176886038Y-94168726D01*
X177476136Y-94099395D01*
X178126184Y-94002854D01*
X178300864Y-93973238D01*
X179351492Y-93760121D01*
X180506910Y-93475494D01*
X180635454Y-93439457D01*
X182525339Y-93439457D01*
X182601095Y-93508017D01*
X182627135Y-93517562D01*
X183030007Y-93602969D01*
X183606657Y-93658754D01*
X184256779Y-93683903D01*
X184880068Y-93677400D01*
X185376218Y-93638232D01*
X185644924Y-93565385D01*
X185661629Y-93548245D01*
X185599810Y-93460519D01*
X185367444Y-93481102D01*
X184975766Y-93571707D01*
X185367204Y-93281040D01*
X185655247Y-93002580D01*
X185758642Y-92791471D01*
X185694353Y-92689183D01*
X185549875Y-92801336D01*
X185272942Y-92916017D01*
X184769544Y-92999019D01*
X184288574Y-93027911D01*
X183744134Y-93043056D01*
X183517690Y-93070767D01*
X183579305Y-93120671D01*
X183810279Y-93181717D01*
X184308933Y-93322904D01*
X184471120Y-93424542D01*
X184306766Y-93479909D01*
X183825797Y-93482286D01*
X183404222Y-93456625D01*
X182792915Y-93422336D01*
X182525339Y-93439457D01*
X180635454Y-93439457D01*
X181700896Y-93140763D01*
X182867231Y-92777335D01*
X183452072Y-92575171D01*
X184888779Y-92575171D01*
X184975766Y-92662158D01*
X185062752Y-92575171D01*
X184975766Y-92488185D01*
X184888779Y-92575171D01*
X183452072Y-92575171D01*
X183939692Y-92406614D01*
X184852061Y-92050006D01*
X185538116Y-91728916D01*
X185855356Y-91531285D01*
X186088274Y-91342633D01*
X186042285Y-91323192D01*
X185845629Y-91386436D01*
X185611266Y-91451367D01*
X185627610Y-91362799D01*
X185806095Y-91151323D01*
X185872949Y-91031234D01*
X185761982Y-91005959D01*
X185438403Y-91084323D01*
X184867421Y-91275150D01*
X184014244Y-91587263D01*
X183860812Y-91644698D01*
X181917443Y-92332295D01*
X180188864Y-92858336D01*
X178698722Y-93216666D01*
X177470669Y-93401125D01*
X177021140Y-93425591D01*
X176409966Y-93440774D01*
X176095332Y-93473657D01*
X176025838Y-93543970D01*
X175044304Y-93543970D01*
X175054825Y-93349210D01*
X175232031Y-92902882D01*
X175295875Y-92770709D01*
X176452230Y-92770709D01*
X176491743Y-93079090D01*
X176515891Y-93140582D01*
X176620895Y-93187320D01*
X176697197Y-92968559D01*
X176712067Y-92749144D01*
X176660598Y-92422076D01*
X176561848Y-92314212D01*
X176478839Y-92457475D01*
X176452230Y-92770709D01*
X175295875Y-92770709D01*
X175424080Y-92505295D01*
X175439930Y-92236781D01*
X175278236Y-91925593D01*
X175223721Y-91841976D01*
X174977440Y-91335214D01*
X175842204Y-91335214D01*
X175988134Y-91472522D01*
X176367118Y-91697839D01*
X176890944Y-91965551D01*
X177471401Y-92230044D01*
X177920363Y-92409812D01*
X178444521Y-92576284D01*
X178788249Y-92638935D01*
X178910514Y-92606523D01*
X178770281Y-92487800D01*
X178379317Y-92311887D01*
X177870958Y-92093377D01*
X177757195Y-92033859D01*
X178721570Y-92033859D01*
X178970364Y-92128787D01*
X179234670Y-92220689D01*
X179683311Y-92357678D01*
X180056233Y-92442283D01*
X180285047Y-92466245D01*
X180301365Y-92421303D01*
X180104533Y-92325755D01*
X179690147Y-92199043D01*
X179167560Y-92086051D01*
X179147683Y-92082656D01*
X178784452Y-92024473D01*
X178721570Y-92033859D01*
X177757195Y-92033859D01*
X177496791Y-91897622D01*
X177297703Y-91756142D01*
X177314582Y-91700456D01*
X177588316Y-91762084D01*
X177725261Y-91807682D01*
X178182826Y-91950659D01*
X178347119Y-91964835D01*
X178240537Y-91867766D01*
X177885477Y-91677004D01*
X177304334Y-91410103D01*
X177113160Y-91327937D01*
X176486332Y-91069906D01*
X176135109Y-90950314D01*
X176019675Y-90960719D01*
X176100212Y-91092680D01*
X176122669Y-91117958D01*
X176321587Y-91354938D01*
X176281795Y-91396070D01*
X176136902Y-91346237D01*
X175891390Y-91297808D01*
X175842204Y-91335214D01*
X174977440Y-91335214D01*
X174966605Y-91312919D01*
X174806196Y-90748459D01*
X174783428Y-90658003D01*
X184960238Y-90658003D01*
X185021434Y-90728210D01*
X185338050Y-90596225D01*
X185898497Y-90265173D01*
X186112454Y-90127501D01*
X186684861Y-89779887D01*
X187120970Y-89605044D01*
X187557952Y-89560618D01*
X187886539Y-89579731D01*
X188561895Y-89729220D01*
X189446771Y-90061872D01*
X190473768Y-90550181D01*
X191111614Y-90895935D01*
X191111096Y-90773629D01*
X191054075Y-90506680D01*
X191040861Y-90181655D01*
X191264771Y-89974871D01*
X191442199Y-89896735D01*
X191934670Y-89702542D01*
X191467308Y-89791107D01*
X191141490Y-89812597D01*
X190991585Y-89648143D01*
X190929739Y-89313723D01*
X190886885Y-89054127D01*
X190857004Y-89110403D01*
X190834589Y-89497523D01*
X190831690Y-89580265D01*
X190802622Y-90072748D01*
X190733379Y-90286170D01*
X190585184Y-90289411D01*
X190465096Y-90231461D01*
X190152008Y-90021196D01*
X189694828Y-89666145D01*
X189323693Y-89355477D01*
X188871279Y-89004277D01*
X188465194Y-88755893D01*
X188168821Y-88638183D01*
X188045546Y-88679004D01*
X188095483Y-88815684D01*
X188007885Y-88940927D01*
X187671788Y-89061895D01*
X187540339Y-89089602D01*
X186801844Y-89322834D01*
X186019782Y-89721203D01*
X185356751Y-90196171D01*
X185166056Y-90382483D01*
X184960238Y-90658003D01*
X174783428Y-90658003D01*
X174703210Y-90339294D01*
X174494035Y-90154804D01*
X174069188Y-90086289D01*
X173283270Y-90180848D01*
X172379459Y-90588893D01*
X171405903Y-91268721D01*
X170917841Y-91611983D01*
X170525298Y-91746875D01*
X170123024Y-91728391D01*
X169541711Y-91545161D01*
X169061356Y-91167127D01*
X168616014Y-90533684D01*
X168413721Y-90157566D01*
X168136681Y-89501362D01*
X168052346Y-88941415D01*
X168074993Y-88634531D01*
X168913220Y-88634531D01*
X168992734Y-89344226D01*
X169165238Y-89756756D01*
X169565527Y-90444243D01*
X169934592Y-90811710D01*
X170321571Y-90877673D01*
X170775604Y-90660649D01*
X171032843Y-90460505D01*
X171770412Y-89948818D01*
X172619063Y-89530072D01*
X173450942Y-89258938D01*
X174015492Y-89185055D01*
X174531111Y-89256635D01*
X175072863Y-89439364D01*
X175534126Y-89683115D01*
X175808280Y-89937758D01*
X175842204Y-90043891D01*
X175978352Y-90249344D01*
X176206612Y-90409324D01*
X176465851Y-90518697D01*
X176473846Y-90487500D01*
X177581930Y-90487500D01*
X177668916Y-90574486D01*
X177755903Y-90487500D01*
X177668916Y-90400514D01*
X177581930Y-90487500D01*
X176473846Y-90487500D01*
X176498391Y-90391725D01*
X176451849Y-90228875D01*
X176391667Y-89991694D01*
X176473718Y-89942927D01*
X176771696Y-90067898D01*
X176913811Y-90136878D01*
X177494944Y-90420355D01*
X176886040Y-89877811D01*
X176011075Y-89244123D01*
X175230341Y-88955497D01*
X178110808Y-88955497D01*
X178292477Y-89094298D01*
X178538779Y-89255488D01*
X179018052Y-89524292D01*
X179421404Y-89684333D01*
X179539122Y-89703732D01*
X179807529Y-89800585D01*
X179792160Y-90002964D01*
X179626108Y-90126098D01*
X179537182Y-90192246D01*
X179694853Y-90177764D01*
X180013052Y-90104004D01*
X180405713Y-89992317D01*
X180786766Y-89864054D01*
X180955183Y-89796393D01*
X181496313Y-89559034D01*
X180626450Y-89537206D01*
X179965152Y-89475350D01*
X179335070Y-89345799D01*
X179147683Y-89285552D01*
X178512635Y-89049852D01*
X178175602Y-88940257D01*
X178110808Y-88955497D01*
X175230341Y-88955497D01*
X175110480Y-88911186D01*
X174307999Y-88834760D01*
X173275609Y-88937372D01*
X172325622Y-89273938D01*
X171536382Y-89740574D01*
X171069867Y-90042216D01*
X170850998Y-90122951D01*
X170849458Y-89971160D01*
X171034928Y-89575225D01*
X171046486Y-89552834D01*
X171388813Y-89034089D01*
X171846510Y-88667056D01*
X172491583Y-88372408D01*
X173145629Y-88123895D01*
X172362889Y-88227358D01*
X171514657Y-88505360D01*
X170836188Y-89067352D01*
X170440587Y-89725062D01*
X170249163Y-90075428D01*
X170074872Y-90226411D01*
X170071124Y-90226541D01*
X169875377Y-90069453D01*
X169678312Y-89662491D01*
X169512105Y-89102112D01*
X169408931Y-88484772D01*
X169391088Y-88187951D01*
X169376958Y-87355993D01*
X169137976Y-87877911D01*
X168913220Y-88634531D01*
X168074993Y-88634531D01*
X168078146Y-88591813D01*
X168135547Y-88125377D01*
X168216036Y-87417433D01*
X168307935Y-86572675D01*
X168318973Y-86467532D01*
X169241414Y-86467532D01*
X169256430Y-86724170D01*
X169276091Y-86747089D01*
X169476284Y-86692192D01*
X169885665Y-86553126D01*
X170122728Y-86467601D01*
X170668778Y-86315688D01*
X171415093Y-86170045D01*
X172214670Y-86058638D01*
X172341204Y-86045518D01*
X173100824Y-85953435D01*
X173628712Y-85855854D01*
X173902786Y-85765934D01*
X173900966Y-85696831D01*
X173601168Y-85661701D01*
X172981313Y-85673702D01*
X172963720Y-85674605D01*
X172390764Y-85685824D01*
X171986158Y-85658331D01*
X171840834Y-85601317D01*
X171942989Y-85383870D01*
X172145286Y-85114172D01*
X172210205Y-85000735D01*
X172045559Y-85096614D01*
X171842141Y-85255218D01*
X171415387Y-85553710D01*
X170866408Y-85873633D01*
X170305418Y-86158056D01*
X169842636Y-86350049D01*
X169627520Y-86399144D01*
X169562829Y-86249583D01*
X169583562Y-85866331D01*
X169670508Y-85347538D01*
X169775598Y-84911163D01*
X173928505Y-84911163D01*
X174060771Y-84950589D01*
X174385477Y-84859937D01*
X174794490Y-84684402D01*
X175179676Y-84469177D01*
X175400958Y-84295755D01*
X175566658Y-84108537D01*
X175540997Y-84064018D01*
X175283128Y-84168660D01*
X174841861Y-84384191D01*
X174353793Y-84638564D01*
X174022388Y-84832726D01*
X173928505Y-84911163D01*
X169775598Y-84911163D01*
X169804452Y-84791350D01*
X169966181Y-84295915D01*
X170091872Y-84027099D01*
X170306301Y-83652146D01*
X170343562Y-83516505D01*
X170205086Y-83560874D01*
X170101798Y-83615213D01*
X169747054Y-83900951D01*
X169601088Y-84097994D01*
X169511979Y-84384240D01*
X169419219Y-84864069D01*
X169335046Y-85437729D01*
X169271699Y-86005468D01*
X169241414Y-86467532D01*
X168318973Y-86467532D01*
X168380945Y-85877226D01*
X168476593Y-85003994D01*
X168565975Y-84397673D01*
X168672543Y-83978503D01*
X168819752Y-83666722D01*
X169031054Y-83382568D01*
X169156853Y-83238478D01*
X169709728Y-82579038D01*
X169834090Y-82382054D01*
X171019549Y-82382054D01*
X171135833Y-82562160D01*
X171351556Y-82629026D01*
X172156097Y-82665988D01*
X172947348Y-82483745D01*
X173314441Y-82298171D01*
X173689121Y-81949675D01*
X177237853Y-81949675D01*
X177332472Y-81976743D01*
X177542305Y-81785734D01*
X177915481Y-81396628D01*
X178234327Y-81106373D01*
X178528559Y-80888592D01*
X178735108Y-80900321D01*
X178992223Y-81109509D01*
X179312221Y-81484403D01*
X179635362Y-81987745D01*
X179691649Y-82093322D01*
X179953818Y-82566389D01*
X180087610Y-82718819D01*
X180085088Y-82553226D01*
X179938316Y-82072225D01*
X179919430Y-82018283D01*
X179633537Y-81385310D01*
X179262282Y-80769242D01*
X179198195Y-80681750D01*
X178733615Y-80072654D01*
X179210281Y-79191036D01*
X179448183Y-78735683D01*
X179515305Y-78556920D01*
X179417284Y-78631429D01*
X179318277Y-78744349D01*
X179029087Y-79158861D01*
X178703993Y-79729206D01*
X178545494Y-80049144D01*
X178225562Y-80633778D01*
X177863240Y-81148845D01*
X177687682Y-81340771D01*
X177385285Y-81671111D01*
X177240157Y-81926624D01*
X177237853Y-81949675D01*
X173689121Y-81949675D01*
X173720785Y-81920224D01*
X174032813Y-81458583D01*
X174293310Y-80919007D01*
X173918876Y-81402302D01*
X173382661Y-81923485D01*
X172778042Y-82245550D01*
X172208274Y-82316905D01*
X172121757Y-82300253D01*
X171853314Y-82188400D01*
X171753902Y-81962454D01*
X171772310Y-81513685D01*
X171839361Y-80846235D01*
X171906766Y-80174637D01*
X171908737Y-80154984D01*
X172054952Y-79574469D01*
X172335502Y-78962273D01*
X172430655Y-78809805D01*
X172708315Y-78319546D01*
X172868837Y-77878060D01*
X172884670Y-77753236D01*
X173017252Y-77368864D01*
X173207203Y-77192196D01*
X173430009Y-77045622D01*
X182168496Y-77045622D01*
X182189003Y-77137210D01*
X182384195Y-77439555D01*
X182838268Y-78239367D01*
X183286994Y-79247230D01*
X183677187Y-80326552D01*
X183955662Y-81340743D01*
X184009998Y-81614897D01*
X184128514Y-82267554D01*
X184234598Y-82812290D01*
X184305460Y-83132118D01*
X184305903Y-83133746D01*
X184458361Y-83336681D01*
X184813313Y-83694028D01*
X185304520Y-84148507D01*
X185865743Y-84642839D01*
X186430742Y-85119744D01*
X186933280Y-85521942D01*
X187307116Y-85792154D01*
X187476276Y-85875297D01*
X187427285Y-85781066D01*
X187171332Y-85548539D01*
X187063437Y-85461374D01*
X186107520Y-84532848D01*
X185272022Y-83390869D01*
X184642149Y-82161748D01*
X184433371Y-81562408D01*
X184427541Y-81540991D01*
X187857875Y-81540991D01*
X187872310Y-81625306D01*
X187978737Y-81788870D01*
X188280590Y-82160120D01*
X188736471Y-82643943D01*
X189291137Y-83190246D01*
X189889343Y-83748940D01*
X190475845Y-84269932D01*
X190995400Y-84703131D01*
X191392763Y-84998447D01*
X191612691Y-85105787D01*
X191630668Y-85100173D01*
X191601732Y-84931245D01*
X191482713Y-84526227D01*
X191320682Y-84035739D01*
X191127080Y-83396171D01*
X190908562Y-82555446D01*
X190700909Y-81655017D01*
X190620362Y-81267126D01*
X190379976Y-80166141D01*
X190160291Y-79392326D01*
X189954321Y-78926008D01*
X189755079Y-78747517D01*
X189724493Y-78744349D01*
X189673626Y-78869308D01*
X189750869Y-79075210D01*
X189858676Y-79374518D01*
X190003454Y-79907455D01*
X190169025Y-80597012D01*
X190339211Y-81366177D01*
X190497834Y-82137939D01*
X190628716Y-82835288D01*
X190715679Y-83381213D01*
X190742545Y-83698703D01*
X190731968Y-83745453D01*
X190539315Y-83707191D01*
X190148249Y-83465840D01*
X189610704Y-83059951D01*
X188978617Y-82528076D01*
X188471305Y-82067389D01*
X188051629Y-81685009D01*
X187857875Y-81540991D01*
X184427541Y-81540991D01*
X184261482Y-80930955D01*
X184147408Y-80441152D01*
X184110117Y-80177063D01*
X184115873Y-80155155D01*
X184288383Y-80191087D01*
X184493137Y-80320563D01*
X184559385Y-80338803D01*
X184416630Y-80147591D01*
X184167395Y-79866929D01*
X183702686Y-79283143D01*
X183255498Y-78595753D01*
X183093637Y-78298490D01*
X182793040Y-77760757D01*
X182495047Y-77329853D01*
X182343052Y-77167668D01*
X182168496Y-77045622D01*
X173430009Y-77045622D01*
X173527934Y-76981202D01*
X173977960Y-76640414D01*
X174216316Y-76446692D01*
X174383464Y-76310127D01*
X177992799Y-76310127D01*
X178137306Y-76259172D01*
X178190834Y-76227961D01*
X178696595Y-75879310D01*
X179186249Y-75475360D01*
X179191176Y-75470786D01*
X179301579Y-75342948D01*
X183670971Y-75342948D01*
X183809964Y-75469762D01*
X184152713Y-75671067D01*
X184236382Y-75714071D01*
X184675037Y-75994513D01*
X185212752Y-76419501D01*
X185584670Y-76756206D01*
X186442826Y-77406859D01*
X187403507Y-77762186D01*
X188207717Y-77857011D01*
X188656106Y-77874486D01*
X188431946Y-76874144D01*
X188283127Y-76143620D01*
X188153350Y-75395231D01*
X188104501Y-75054929D01*
X187967080Y-74467412D01*
X187744831Y-73966000D01*
X187652480Y-73837121D01*
X187303745Y-73438185D01*
X187560232Y-73873117D01*
X187690852Y-74242330D01*
X187816489Y-74849083D01*
X187915999Y-75583343D01*
X187941178Y-75855490D01*
X188065635Y-77402931D01*
X187249251Y-77310913D01*
X186462880Y-77099898D01*
X185819086Y-76634864D01*
X185257997Y-75871064D01*
X185209889Y-75786815D01*
X185022963Y-75482117D01*
X184948166Y-75420847D01*
X184960087Y-75482363D01*
X184963448Y-75729255D01*
X184743362Y-75757569D01*
X184276919Y-75568457D01*
X184184249Y-75521389D01*
X183839710Y-75365870D01*
X183673666Y-75335427D01*
X183670971Y-75342948D01*
X179301579Y-75342948D01*
X179504062Y-75108489D01*
X179634413Y-74701553D01*
X179647826Y-74232006D01*
X179626050Y-73438185D01*
X179500848Y-74213715D01*
X179371920Y-74717699D01*
X179122799Y-75146964D01*
X178678642Y-75620132D01*
X178522281Y-75764711D01*
X178121111Y-76145324D01*
X177992799Y-76310127D01*
X174383464Y-76310127D01*
X174712616Y-76041201D01*
X175173600Y-75678361D01*
X175329057Y-75561292D01*
X175546757Y-75384519D01*
X175520087Y-75362112D01*
X175494259Y-75373851D01*
X175189212Y-75552213D01*
X174728576Y-75856629D01*
X174193708Y-76228841D01*
X173665967Y-76610593D01*
X173226712Y-76943627D01*
X172957301Y-77169686D01*
X172912410Y-77222596D01*
X172792707Y-77425569D01*
X172531868Y-77833528D01*
X172183367Y-78363028D01*
X172137336Y-78432060D01*
X171673085Y-79215598D01*
X171409353Y-79913436D01*
X171306966Y-80472473D01*
X171218600Y-81132036D01*
X171120155Y-81740998D01*
X171070844Y-81992814D01*
X171019549Y-82382054D01*
X169834090Y-82382054D01*
X170059134Y-82025595D01*
X170261137Y-81452397D01*
X170371808Y-80733697D01*
X170396648Y-80457885D01*
X170489486Y-79677221D01*
X170645520Y-79101654D01*
X170908612Y-78588873D01*
X171029508Y-78404623D01*
X171640784Y-77327815D01*
X171952880Y-76304932D01*
X171976388Y-76037215D01*
X172881793Y-76037215D01*
X172946631Y-76231193D01*
X173058642Y-76221747D01*
X173192092Y-75982539D01*
X173232615Y-75679147D01*
X173373247Y-75257672D01*
X173783644Y-74666563D01*
X174140794Y-74254141D01*
X174531331Y-73822577D01*
X174773466Y-73543022D01*
X174829088Y-73460006D01*
X174801890Y-73481678D01*
X174501554Y-73686830D01*
X174397162Y-73614647D01*
X174495208Y-73279642D01*
X174607241Y-73046747D01*
X174954395Y-72400466D01*
X175213206Y-72023878D01*
X175446032Y-71873059D01*
X175715232Y-71904086D01*
X176028787Y-72045443D01*
X176547212Y-72364608D01*
X177092569Y-72782800D01*
X177215991Y-72892251D01*
X177806902Y-73438185D01*
X177389964Y-72848698D01*
X176968577Y-72414118D01*
X176385195Y-72001308D01*
X176110903Y-71855706D01*
X175248781Y-71452200D01*
X174681449Y-72250164D01*
X174287624Y-72879938D01*
X173937560Y-73564549D01*
X173818335Y-73852060D01*
X173574114Y-74411809D01*
X173304147Y-74883254D01*
X173203611Y-75015151D01*
X173023105Y-75322475D01*
X172911558Y-75698736D01*
X172881793Y-76037215D01*
X171976388Y-76037215D01*
X172007170Y-75686662D01*
X172101232Y-75066503D01*
X172405547Y-74611230D01*
X172437651Y-74580362D01*
X172770129Y-74102995D01*
X172977672Y-73488828D01*
X172981288Y-73468162D01*
X173254611Y-72716490D01*
X173795952Y-71930312D01*
X174352706Y-71049596D01*
X174412879Y-70885967D01*
X175509067Y-70885967D01*
X175522836Y-70985830D01*
X175751128Y-71094783D01*
X176168277Y-71261008D01*
X176635237Y-71432730D01*
X177012961Y-71558178D01*
X177146998Y-71590570D01*
X177121187Y-71523525D01*
X176856957Y-71338864D01*
X176662424Y-71221821D01*
X176182002Y-70861438D01*
X175925416Y-70422736D01*
X175865955Y-69824038D01*
X175960108Y-69074262D01*
X176032381Y-68580701D01*
X176043279Y-68275904D01*
X176009580Y-68223084D01*
X175934017Y-68410396D01*
X175831512Y-68835395D01*
X175719915Y-69396766D01*
X175617075Y-69993195D01*
X175540842Y-70523367D01*
X175509067Y-70885967D01*
X174412879Y-70885967D01*
X174751829Y-69964260D01*
X174951606Y-68797752D01*
X174966229Y-68467091D01*
X175047823Y-68113103D01*
X175260166Y-67555598D01*
X175435014Y-67174553D01*
X176559753Y-67174553D01*
X176687529Y-67481067D01*
X176764856Y-67572315D01*
X176999090Y-67933563D01*
X177246115Y-68465130D01*
X177337979Y-68711853D01*
X177532615Y-69229964D01*
X177666128Y-69486483D01*
X177719340Y-69461147D01*
X177673070Y-69133691D01*
X177653671Y-69045377D01*
X177511088Y-68588039D01*
X177365378Y-68220446D01*
X180393048Y-68220446D01*
X180425819Y-68408887D01*
X180627296Y-68775360D01*
X180942075Y-69231736D01*
X181314754Y-69689886D01*
X181321801Y-69697774D01*
X181658974Y-70198141D01*
X181931421Y-70821315D01*
X182098537Y-71443445D01*
X182119721Y-71940683D01*
X182091776Y-72046404D01*
X181964367Y-72455735D01*
X181958956Y-72655938D01*
X182055987Y-72600606D01*
X182205329Y-72315862D01*
X182334969Y-71965446D01*
X182370241Y-71643038D01*
X182305021Y-71233226D01*
X182178185Y-70781046D01*
X184617380Y-70781046D01*
X184663040Y-70952636D01*
X184935964Y-71247121D01*
X185364016Y-71610124D01*
X185875060Y-71987267D01*
X186396959Y-72324171D01*
X186857579Y-72566458D01*
X187094683Y-72648499D01*
X187035887Y-72515905D01*
X186851365Y-72167937D01*
X186680992Y-71859230D01*
X186363127Y-71224049D01*
X186086631Y-70562045D01*
X186008987Y-70336970D01*
X185876364Y-69980358D01*
X185792541Y-69884231D01*
X185777916Y-69958733D01*
X185833242Y-70341118D01*
X185975739Y-70859974D01*
X186024618Y-71002569D01*
X186193710Y-71475208D01*
X186258846Y-71705540D01*
X186229756Y-71780107D01*
X186116171Y-71785450D01*
X186112641Y-71785445D01*
X185892100Y-71679054D01*
X185524690Y-71409357D01*
X185323921Y-71240375D01*
X184945324Y-70938445D01*
X184680382Y-70783349D01*
X184617380Y-70781046D01*
X182178185Y-70781046D01*
X182133180Y-70620598D01*
X182111533Y-70549129D01*
X181925134Y-69843708D01*
X181791744Y-69165483D01*
X181743538Y-68713918D01*
X181732426Y-68483265D01*
X183660048Y-68483265D01*
X183734811Y-68571540D01*
X184058401Y-68671873D01*
X184553539Y-68695235D01*
X184696312Y-68685519D01*
X185408991Y-68617555D01*
X185298648Y-67896363D01*
X185199732Y-67343684D01*
X185125949Y-67133894D01*
X185079546Y-67268172D01*
X185062775Y-67747698D01*
X185062752Y-67772598D01*
X185062752Y-68515002D01*
X184274370Y-68452299D01*
X183811716Y-68433876D01*
X183660048Y-68483265D01*
X181732426Y-68483265D01*
X181724314Y-68314896D01*
X181680580Y-68234189D01*
X181599039Y-68480695D01*
X181508217Y-68871404D01*
X181374985Y-69249582D01*
X181198326Y-69303873D01*
X180956254Y-69030482D01*
X180791955Y-68747793D01*
X180571497Y-68386141D01*
X180417192Y-68218690D01*
X180393048Y-68220446D01*
X177365378Y-68220446D01*
X177284487Y-68016378D01*
X177196986Y-67821537D01*
X177179506Y-67784075D01*
X180191519Y-67784075D01*
X180255173Y-67927275D01*
X180307501Y-67900057D01*
X180310425Y-67871062D01*
X181757272Y-67871062D01*
X181844259Y-67958048D01*
X181931245Y-67871062D01*
X181844259Y-67784075D01*
X181757272Y-67871062D01*
X180310425Y-67871062D01*
X180328322Y-67693592D01*
X180307501Y-67668094D01*
X180204074Y-67691975D01*
X180191519Y-67784075D01*
X177179506Y-67784075D01*
X176849161Y-67076122D01*
X176882847Y-67001199D01*
X184540834Y-67001199D01*
X184627820Y-67088185D01*
X184714807Y-67001199D01*
X184627820Y-66914212D01*
X184540834Y-67001199D01*
X176882847Y-67001199D01*
X176961067Y-66827226D01*
X184888779Y-66827226D01*
X184975766Y-66914212D01*
X185062752Y-66827226D01*
X184975766Y-66740240D01*
X184888779Y-66827226D01*
X176961067Y-66827226D01*
X177433011Y-65777549D01*
X177716380Y-65178449D01*
X177957284Y-64725519D01*
X178114799Y-64493902D01*
X178140357Y-64478786D01*
X178258850Y-64633184D01*
X178408620Y-65030270D01*
X178558380Y-65570461D01*
X178676844Y-66154171D01*
X178686857Y-66218322D01*
X178730555Y-66358954D01*
X178763414Y-66171942D01*
X178773808Y-65957363D01*
X178769174Y-65918757D01*
X183062150Y-65918757D01*
X183083247Y-65988927D01*
X183149053Y-66036401D01*
X183479042Y-66147141D01*
X183988335Y-66210283D01*
X184170615Y-66215658D01*
X184636115Y-66208609D01*
X184813935Y-66150414D01*
X184764334Y-65992119D01*
X184649151Y-65826884D01*
X184413574Y-65460710D01*
X184097555Y-64920691D01*
X183853422Y-64478596D01*
X183552504Y-63958901D01*
X183382898Y-63754843D01*
X183348780Y-63858175D01*
X183454326Y-64260646D01*
X183664529Y-64851711D01*
X183871417Y-65483632D01*
X183894513Y-65853263D01*
X183722462Y-66000523D01*
X183347540Y-65966175D01*
X183062150Y-65918757D01*
X178769174Y-65918757D01*
X178694554Y-65297086D01*
X178454966Y-64552609D01*
X178383094Y-64391610D01*
X178142312Y-63913654D01*
X177991385Y-63717694D01*
X177888596Y-63763616D01*
X177840352Y-63869692D01*
X177700716Y-64226328D01*
X177463137Y-64817679D01*
X177162787Y-65556981D01*
X176834836Y-66357473D01*
X176662625Y-66775017D01*
X176559753Y-67174553D01*
X175435014Y-67174553D01*
X175563566Y-66894399D01*
X175692565Y-66640379D01*
X176108893Y-65787461D01*
X176532946Y-64828492D01*
X176878924Y-63958363D01*
X176904826Y-63886810D01*
X177176475Y-63198109D01*
X177328845Y-62873603D01*
X178331886Y-62873603D01*
X178361264Y-63192019D01*
X178452903Y-63437441D01*
X178733111Y-63985805D01*
X179065438Y-64457891D01*
X179378326Y-64762143D01*
X179538581Y-64826541D01*
X179572603Y-64719889D01*
X179396527Y-64460585D01*
X179373722Y-64435103D01*
X178917485Y-63869756D01*
X178721602Y-63406891D01*
X178766111Y-62942861D01*
X178897858Y-62651884D01*
X180539464Y-62651884D01*
X180626450Y-62738870D01*
X180713437Y-62651884D01*
X180626450Y-62564897D01*
X180539464Y-62651884D01*
X178897858Y-62651884D01*
X178990753Y-62446714D01*
X179313063Y-61925408D01*
X179537732Y-61712530D01*
X179654676Y-61814940D01*
X179669601Y-61984989D01*
X179712798Y-62186585D01*
X179762357Y-62182187D01*
X179794000Y-61968836D01*
X179763818Y-61542131D01*
X179735775Y-61343131D01*
X179616437Y-60596832D01*
X179187982Y-61450385D01*
X178895906Y-61991628D01*
X178619317Y-62438793D01*
X178495728Y-62603951D01*
X178331886Y-62873603D01*
X177328845Y-62873603D01*
X177457045Y-62600574D01*
X177695191Y-62201082D01*
X177741470Y-62145329D01*
X177998282Y-61787541D01*
X178305885Y-61241744D01*
X178527700Y-60779923D01*
X178661679Y-60507714D01*
G37*
%TD*%
M02*
