%TF.GenerationSoftware,KiCad,Pcbnew,(7.0.0)*%
%TF.CreationDate,2024-04-21T21:37:21+02:00*%
%TF.ProjectId,Arrowhead,4172726f-7768-4656-9164-2e6b69636164,rev?*%
%TF.SameCoordinates,Original*%
%TF.FileFunction,Soldermask,Top*%
%TF.FilePolarity,Negative*%
%FSLAX46Y46*%
G04 Gerber Fmt 4.6, Leading zero omitted, Abs format (unit mm)*
G04 Created by KiCad (PCBNEW (7.0.0)) date 2024-04-21 21:37:21*
%MOMM*%
%LPD*%
G01*
G04 APERTURE LIST*
%ADD10C,1.750000*%
%ADD11C,3.987800*%
%ADD12O,2.100000X1.600000*%
%ADD13C,1.600000*%
%ADD14C,0.650000*%
%ADD15O,1.000000X1.600000*%
%ADD16O,1.000000X2.100000*%
G04 APERTURE END LIST*
D10*
%TO.C,MX48*%
X175895000Y-99512500D03*
D11*
X180975000Y-99512500D03*
%TD*%
D10*
%TO.C,MX45*%
X299139374Y-93545516D03*
D11*
X304200043Y-93102765D03*
D10*
X309260712Y-92660014D03*
%TD*%
%TO.C,MX26*%
X77992466Y-75757901D03*
D11*
X83053135Y-76200652D03*
D10*
X88113804Y-76643403D03*
%TD*%
%TO.C,MX6*%
X142990004Y-43198913D03*
D11*
X148050673Y-43641664D03*
D10*
X153111342Y-44084415D03*
%TD*%
%TO.C,MX38*%
X62099017Y-93490172D03*
D11*
X67159686Y-93932923D03*
D10*
X72220355Y-94375674D03*
%TD*%
%TO.C,MX31*%
X202591512Y-82869591D03*
D11*
X207652181Y-82426840D03*
D10*
X212712850Y-81984089D03*
%TD*%
%TO.C,MX41*%
X175895000Y-71437500D03*
D11*
X180975000Y-71437500D03*
D10*
X186055000Y-71437500D03*
%TD*%
%TO.C,MX22*%
X267352476Y-58080973D03*
D11*
X272413145Y-57638222D03*
D10*
X277473814Y-57195471D03*
%TD*%
%TO.C,MX35*%
X278501548Y-76228324D03*
D11*
X283562217Y-75785573D03*
D10*
X288622886Y-75342822D03*
%TD*%
%TO.C,MX19*%
X210419949Y-63061924D03*
D11*
X215480618Y-62619173D03*
D10*
X220541287Y-62176422D03*
%TD*%
D12*
%TO.C,EN1*%
X186349999Y-103584499D03*
X186349999Y-103060499D03*
X186349999Y-101044499D03*
X186349999Y-100520499D03*
X186349999Y-98504499D03*
X186349999Y-97980499D03*
D13*
X187825000Y-106060500D03*
D12*
X185724999Y-106060499D03*
X186349999Y-95964499D03*
X186349999Y-95440499D03*
%TD*%
D10*
%TO.C,MX23*%
X286329985Y-56420656D03*
D11*
X291390654Y-55977905D03*
D10*
X296451323Y-55535154D03*
%TD*%
%TO.C,MX46*%
X318116883Y-91885199D03*
D11*
X323177552Y-91442448D03*
D10*
X328238221Y-90999697D03*
%TD*%
%TO.C,MX8*%
X222992764Y-42839177D03*
D11*
X228053433Y-42396426D03*
D10*
X233114102Y-41953675D03*
%TD*%
%TO.C,MX5*%
X124012495Y-41538596D03*
D11*
X129073164Y-41981347D03*
D10*
X134133833Y-42424098D03*
%TD*%
%TO.C,MX11*%
X279925291Y-37858226D03*
D11*
X284985960Y-37415475D03*
D10*
X290046629Y-36972724D03*
%TD*%
%TO.C,MX43*%
X258812992Y-97077125D03*
D11*
X263873661Y-96634374D03*
D10*
X268934330Y-96191623D03*
%TD*%
%TO.C,MX33*%
X240546530Y-79548957D03*
D11*
X245607199Y-79106206D03*
D10*
X250667868Y-78663455D03*
%TD*%
%TO.C,MX32*%
X221569021Y-81209274D03*
D11*
X226629690Y-80766523D03*
D10*
X231690359Y-80323772D03*
%TD*%
%TO.C,MX4*%
X105034986Y-39878279D03*
D11*
X110095655Y-40321030D03*
D10*
X115156324Y-40763781D03*
%TD*%
%TO.C,MX34*%
X259524039Y-77888640D03*
D11*
X264584708Y-77445889D03*
D10*
X269645377Y-77003138D03*
%TD*%
%TO.C,MX12*%
X306019366Y-35575291D03*
D11*
X311080035Y-35132540D03*
D10*
X316140704Y-34689789D03*
%TD*%
%TO.C,MX27*%
X96969975Y-77418218D03*
D11*
X102030644Y-77860969D03*
D10*
X107091313Y-78303720D03*
%TD*%
%TO.C,MX20*%
X229397458Y-61401607D03*
D11*
X234458127Y-60958856D03*
D10*
X239518796Y-60516105D03*
%TD*%
%TO.C,MX14*%
X70164028Y-55950233D03*
D11*
X75224697Y-56392984D03*
D10*
X80285366Y-56835735D03*
%TD*%
%TO.C,MX1*%
X43358081Y-34482249D03*
D11*
X48418750Y-34925000D03*
D10*
X53479419Y-35367751D03*
%TD*%
%TO.C,MX21*%
X248374967Y-59741290D03*
D11*
X253435636Y-59298539D03*
D10*
X258496305Y-58855788D03*
%TD*%
%TO.C,MX28*%
X115947484Y-79078535D03*
D11*
X121008153Y-79521286D03*
D10*
X126068822Y-79964037D03*
%TD*%
D11*
%TO.C,S3*%
X39634268Y-80688526D03*
X63356154Y-82763922D03*
%TD*%
D10*
%TO.C,MX9*%
X241970273Y-41178860D03*
D11*
X247030942Y-40736109D03*
D10*
X252091611Y-40293358D03*
%TD*%
%TO.C,MX7*%
X204015255Y-44499494D03*
D11*
X209075924Y-44056743D03*
D10*
X214136593Y-43613992D03*
%TD*%
%TO.C,MX30*%
X153902502Y-82399168D03*
D11*
X158963171Y-82841919D03*
D10*
X164023840Y-83284670D03*
%TD*%
%TO.C,MX44*%
X280161865Y-95205833D03*
D11*
X285222534Y-94763082D03*
D10*
X290283203Y-94320331D03*
%TD*%
%TO.C,MX39*%
X85820903Y-95565568D03*
D11*
X90881572Y-96008319D03*
D10*
X95942241Y-96451070D03*
%TD*%
%TO.C,MX13*%
X44069953Y-53667298D03*
D11*
X49130622Y-54110049D03*
D10*
X54191291Y-54552800D03*
%TD*%
%TO.C,MX3*%
X86057477Y-38217962D03*
D11*
X91118146Y-38660713D03*
D10*
X96178815Y-39103464D03*
%TD*%
%TO.C,MX47*%
X316456566Y-72907690D03*
D11*
X321517235Y-72464939D03*
D10*
X326577904Y-72022188D03*
%TD*%
%TO.C,MX29*%
X134924993Y-80738851D03*
D11*
X139985662Y-81181602D03*
D10*
X145046331Y-81624353D03*
%TD*%
%TO.C,MX24*%
X310051872Y-54345260D03*
D11*
X315112541Y-53902509D03*
D10*
X320173210Y-53459758D03*
%TD*%
%TO.C,MX40*%
X126148110Y-99093742D03*
D11*
X131208779Y-99536493D03*
D10*
X136269448Y-99979244D03*
%TD*%
%TO.C,MX36*%
X297479057Y-74568007D03*
D11*
X302539726Y-74125256D03*
D10*
X307600395Y-73682505D03*
%TD*%
%TO.C,MX10*%
X260947782Y-39518543D03*
D11*
X266008451Y-39075792D03*
D10*
X271069120Y-38633041D03*
%TD*%
%TO.C,MX15*%
X89141537Y-57610550D03*
D11*
X94202206Y-58053301D03*
D10*
X99262875Y-58496052D03*
%TD*%
%TO.C,MX18*%
X146074064Y-62591501D03*
D11*
X151134733Y-63034252D03*
D10*
X156195402Y-63477003D03*
%TD*%
D11*
%TO.C,S1*%
X143789193Y-92350604D03*
X120067307Y-90275208D03*
%TD*%
D10*
%TO.C,MX17*%
X127096555Y-60931184D03*
D11*
X132157224Y-61373935D03*
D10*
X137217893Y-61816686D03*
%TD*%
%TO.C,MX25*%
X47154013Y-73059886D03*
D11*
X52214682Y-73502637D03*
D10*
X57275351Y-73945388D03*
%TD*%
%TO.C,MX2*%
X67079968Y-36557645D03*
D11*
X72140637Y-37000396D03*
D10*
X77201306Y-37443147D03*
%TD*%
D11*
%TO.C,S2*%
X241801896Y-90275770D03*
X218080010Y-92351166D03*
%TD*%
D10*
%TO.C,MX16*%
X108119046Y-59270867D03*
D11*
X113179715Y-59713618D03*
D10*
X118240384Y-60156369D03*
%TD*%
%TO.C,MX42*%
X225599755Y-99979806D03*
D11*
X230660424Y-99537055D03*
D10*
X235721093Y-99094304D03*
%TD*%
%TO.C,MX37*%
X38377131Y-91414776D03*
D11*
X43437800Y-91857527D03*
D10*
X48498469Y-92300278D03*
%TD*%
D14*
%TO.C,J1*%
X178085000Y-39906250D03*
X183865000Y-39906250D03*
D15*
X176654999Y-36256249D03*
D16*
X176654999Y-40436249D03*
D15*
X185294999Y-36256249D03*
D16*
X185294999Y-40436249D03*
%TD*%
M02*
