%TF.GenerationSoftware,KiCad,Pcbnew,8.0.5*%
%TF.CreationDate,2024-09-20T18:28:29+02:00*%
%TF.ProjectId,Arrowhead,4172726f-7768-4656-9164-2e6b69636164,rev?*%
%TF.SameCoordinates,Original*%
%TF.FileFunction,Profile,NP*%
%FSLAX46Y46*%
G04 Gerber Fmt 4.6, Leading zero omitted, Abs format (unit mm)*
G04 Created by KiCad (PCBNEW 8.0.5) date 2024-09-20 18:28:29*
%MOMM*%
%LPD*%
G01*
G04 APERTURE LIST*
%TA.AperFunction,Profile*%
%ADD10C,0.100000*%
%TD*%
%TA.AperFunction,Profile*%
%ADD11C,0.050000*%
%TD*%
%TA.AperFunction,Profile*%
%ADD12C,0.120000*%
%TD*%
G04 APERTURE END LIST*
D10*
X35675066Y-25093608D02*
G75*
G02*
X36345506Y-24542299I629234J-81892D01*
G01*
X151513731Y-34798883D02*
X156102202Y-35213080D01*
X146155951Y-110138079D02*
X29633872Y-100238695D01*
X205881331Y-35213082D02*
X210658812Y-34780141D01*
X29633872Y-100238695D02*
G75*
G02*
X29082443Y-99568247I81828J629295D01*
G01*
X326231250Y-24913319D02*
X332828583Y-99428429D01*
X206613768Y-111003481D02*
X156125090Y-111003481D01*
X325560806Y-24361951D02*
G75*
G02*
X326231282Y-24913315I41194J-633249D01*
G01*
X156125090Y-111003481D02*
X146155951Y-110138079D01*
X210658812Y-34780141D02*
X325560806Y-24361951D01*
X332828583Y-99428429D02*
G75*
G02*
X332277209Y-100098824I-633183J-41171D01*
G01*
X36345510Y-24542240D02*
X151513731Y-34798883D01*
X156102202Y-35213080D02*
X205881331Y-35213082D01*
X29082504Y-99568251D02*
X35675066Y-25093608D01*
X332277215Y-100098873D02*
X216043074Y-110177919D01*
X216043074Y-110177919D02*
X206613768Y-111003481D01*
D11*
%TO.C,EN1*%
X174375000Y-106760500D02*
X172575000Y-106760500D01*
X174675000Y-106460500D02*
X174675000Y-92364500D01*
X172275000Y-92364500D02*
X172275000Y-106460500D01*
X174375000Y-92064500D02*
X172575000Y-92064500D01*
X172575000Y-106760500D02*
G75*
G02*
X172275000Y-106460500I0J300000D01*
G01*
X174675000Y-106460500D02*
G75*
G02*
X174375000Y-106760500I-300000J0D01*
G01*
X172275000Y-92364500D02*
G75*
G02*
X172575000Y-92064500I300000J0D01*
G01*
X174375000Y-92064500D02*
G75*
G02*
X174675000Y-92364500I0J-300000D01*
G01*
D12*
%TO.C,LED1*%
X161712500Y-97668750D02*
X165312500Y-97668750D01*
X161712500Y-100768750D02*
X161712500Y-97668750D01*
X165312500Y-97668750D02*
X165312500Y-100768750D01*
X165312500Y-100768750D02*
X161712500Y-100768750D01*
%TO.C,LED2*%
X196637500Y-97668750D02*
X200237500Y-97668750D01*
X196637500Y-100768750D02*
X196637500Y-97668750D01*
X200237500Y-97668750D02*
X200237500Y-100768750D01*
X200237500Y-100768750D02*
X196637500Y-100768750D01*
%TD*%
M02*
