M48
; DRILL file {KiCad (7.0.0)} date Sun Apr 21 10:39:15 2024
; FORMAT={-:-/ absolute / inch / decimal}
; #@! TF.CreationDate,2024-04-21T10:39:15+02:00
; #@! TF.GenerationSoftware,Kicad,Pcbnew,(7.0.0)
; #@! TF.FileFunction,Plated,1,2,PTH
FMAT,2
INCH
; #@! TA.AperFunction,Plated,PTH,ViaDrill
T1C0.0157
; #@! TA.AperFunction,Plated,PTH,ComponentDrill
T2C0.0236
; #@! TA.AperFunction,Plated,PTH,ComponentDrill
T3C0.0394
; #@! TA.AperFunction,Plated,PTH,ComponentDrill
T4C0.0433
; #@! TA.AperFunction,Plated,PTH,ComponentDrill
T5C0.0591
; #@! TA.AperFunction,Plated,PTH,ComponentDrill
T6C0.0600
; #@! TA.AperFunction,Plated,PTH,ComponentDrill
T7C0.1200
%
G90
G05
T1
X6.2812Y-3.6875
X6.3438Y-3.8125
X6.4062Y-3.5
X6.4326Y-3.6562
X6.5938Y-3.6562
X6.75Y-1.5625
X6.8125Y-3.5625
X6.875Y-3.5625
X6.9062Y-1.9688
X6.9062Y-2.0938
X7.0Y-1.8438
X7.0312Y-1.6875
X7.0312Y-1.8125
X7.0625Y-2.0312
X7.125Y-1.4274
X7.125Y-3.1875
X7.1562Y-1.9688
X7.1562Y-2.375
X7.1895Y-1.8438
X7.2021Y-1.969
X7.2188Y-1.6875
X7.25Y-1.8125
X7.25Y-1.9688
X7.25Y-2.2177
X7.25Y-3.8125
X7.3125Y-2.0625
X7.3125Y-2.375
X7.4375Y-1.6875
X7.4375Y-2.125
X7.4688Y-2.2188
X7.4688Y-3.0
X7.4773Y-2.1255
X7.5Y-1.5625
X7.5312Y-2.5
X7.5625Y-2.2812
X7.5938Y-1.75
X7.5938Y-4.2338
X7.625Y-2.0625
X7.6797Y-1.9693
X7.6875Y-2.2571
X7.7188Y-1.9688
X7.7188Y-3.8125
X7.8749Y-2.2581
X7.875Y-2.2188
T3
X7.0266Y-2.5369
X7.0266Y-3.1078
X7.125Y-3.1078
X7.2234Y-2.5369
X7.2234Y-3.1078
T4
X7.3947Y-4.1756
T6
X1.5694Y-3.5037
X1.7655Y-1.2623
X1.7936Y-2.0176
X1.8272Y-3.4259
X1.915Y-2.7811
X2.0233Y-1.1845
X2.0513Y-1.9398
X2.1727Y-2.7033
X2.5034Y-3.5855
X2.6995Y-1.344
X2.7611Y-3.5076
X2.8209Y-2.1075
X2.9572Y-1.2662
X3.0787Y-2.0297
X3.1291Y-2.8873
X3.3869Y-2.8095
X3.4373Y-3.6672
X3.4466Y-1.4094
X3.568Y-2.1729
X3.6951Y-3.5893
X3.7044Y-1.3316
X3.8258Y-2.095
X3.8762Y-2.9527
X4.134Y-2.8749
X4.1938Y-1.4747
X4.3152Y-2.2382
X4.4515Y-1.3969
X4.5729Y-2.1604
X4.6234Y-3.0181
X4.8812Y-2.9402
X4.9409Y-1.5401
X5.025Y-3.8061
X5.0623Y-2.3036
X5.1987Y-1.4623
X5.2828Y-3.7282
X5.3201Y-2.2258
X5.3705Y-3.0834
X5.6283Y-3.0056
X5.6881Y-1.6055
X5.8095Y-2.369
X5.9458Y-1.5277
X6.0672Y-2.2911
X6.1177Y-3.1488
X6.3754Y-3.071
X6.925Y-3.8178
X6.975Y-2.7125
X7.025Y-4.0678
X7.225Y-2.6125
X8.0171Y-3.1586
X8.0732Y-1.648
X8.2575Y-3.0372
X8.3135Y-1.5266
X8.3253Y-2.3788
X8.5657Y-2.2574
X8.7643Y-3.0932
X8.8203Y-1.5826
X8.923Y-3.8322
X9.0046Y-2.9718
X9.0607Y-1.4612
X9.0725Y-2.3134
X9.1633Y-3.7108
X9.3128Y-2.192
X9.5114Y-3.0279
X9.5675Y-1.5172
X9.7518Y-2.9065
X9.8078Y-1.3958
X9.8196Y-2.248
X10.06Y-2.1266
X10.2306Y-3.718
X10.2586Y-2.9625
X10.3146Y-1.4519
X10.4709Y-3.5965
X10.4989Y-2.8411
X10.555Y-1.3305
X10.5668Y-2.1827
X10.8071Y-2.0613
X11.0057Y-2.8971
X11.0618Y-1.3865
X11.0711Y-3.6443
X11.2461Y-2.7757
X11.3021Y-1.2651
X11.3114Y-3.5229
X11.3139Y-2.1173
X11.5543Y-1.9959
X11.7529Y-2.8318
X11.8182Y-3.5789
X11.9932Y-2.7104
X12.0586Y-3.4575
X12.0891Y-1.2966
X12.2479Y-2.0356
X12.3294Y-1.1752
X12.4882Y-1.9142
X12.5Y-2.7664
X12.5654Y-3.5136
X12.7403Y-2.645
X12.8057Y-3.3921
T7
X1.6127Y-2.579
X2.5466Y-2.6607
X4.6748Y-4.1519
X5.6087Y-4.2336
X8.6381Y-4.2336
X9.5721Y-4.1519
T2
G00X6.9549Y-1.4156
M15
G01X6.9549Y-1.4392
M16
G05
G00X6.9549Y-1.5703
M15
G01X6.9549Y-1.6136
M16
G05
G00X7.2951Y-1.4156
M15
G01X7.2951Y-1.4392
M16
G05
G00X7.2951Y-1.5703
M15
G01X7.2951Y-1.6136
M16
G05
T4
G00X7.3219Y-4.1756
M15
G01X7.3022Y-4.1756
M16
G05
G00X7.3268Y-3.7575
M15
G01X7.3465Y-3.7575
M16
G05
G00X7.3465Y-3.7781
M15
G01X7.3268Y-3.7781
M16
G05
G00X7.3268Y-3.8575
M15
G01X7.3465Y-3.8575
M16
G05
G00X7.3465Y-3.8781
M15
G01X7.3268Y-3.8781
M16
G05
G00X7.3268Y-3.9575
M15
G01X7.3465Y-3.9575
M16
G05
G00X7.3465Y-3.9781
M15
G01X7.3268Y-3.9781
M16
G05
G00X7.3268Y-4.0575
M15
G01X7.3465Y-4.0575
M16
G05
G00X7.3465Y-4.0781
M15
G01X7.3268Y-4.0781
M16
G05
T5
G00X6.9045Y-2.8381
M15
G01X6.9045Y-2.7869
M16
G05
G00X7.3455Y-2.8381
M15
G01X7.3455Y-2.7869
M16
G05
T0
M30
