%TF.GenerationSoftware,KiCad,Pcbnew,(7.0.0)*%
%TF.CreationDate,2024-04-20T20:03:52+02:00*%
%TF.ProjectId,Arrowhead,4172726f-7768-4656-9164-2e6b69636164,rev?*%
%TF.SameCoordinates,Original*%
%TF.FileFunction,Paste,Bot*%
%TF.FilePolarity,Positive*%
%FSLAX46Y46*%
G04 Gerber Fmt 4.6, Leading zero omitted, Abs format (unit mm)*
G04 Created by KiCad (PCBNEW (7.0.0)) date 2024-04-20 20:03:52*
%MOMM*%
%LPD*%
G01*
G04 APERTURE LIST*
G04 Aperture macros list*
%AMRoundRect*
0 Rectangle with rounded corners*
0 $1 Rounding radius*
0 $2 $3 $4 $5 $6 $7 $8 $9 X,Y pos of 4 corners*
0 Add a 4 corners polygon primitive as box body*
4,1,4,$2,$3,$4,$5,$6,$7,$8,$9,$2,$3,0*
0 Add four circle primitives for the rounded corners*
1,1,$1+$1,$2,$3*
1,1,$1+$1,$4,$5*
1,1,$1+$1,$6,$7*
1,1,$1+$1,$8,$9*
0 Add four rect primitives between the rounded corners*
20,1,$1+$1,$2,$3,$4,$5,0*
20,1,$1+$1,$4,$5,$6,$7,0*
20,1,$1+$1,$6,$7,$8,$9,0*
20,1,$1+$1,$8,$9,$2,$3,0*%
G04 Aperture macros list end*
%ADD10RoundRect,0.150000X0.587500X0.150000X-0.587500X0.150000X-0.587500X-0.150000X0.587500X-0.150000X0*%
%ADD11RoundRect,0.250000X0.272712X-0.325005X0.325005X0.272712X-0.272712X0.325005X-0.325005X-0.272712X0*%
%ADD12RoundRect,0.140000X0.140000X0.170000X-0.140000X0.170000X-0.140000X-0.170000X0.140000X-0.170000X0*%
%ADD13RoundRect,0.250000X-0.375000X-0.625000X0.375000X-0.625000X0.375000X0.625000X-0.375000X0.625000X0*%
%ADD14RoundRect,0.140000X-0.140000X-0.170000X0.140000X-0.170000X0.140000X0.170000X-0.140000X0.170000X0*%
%ADD15RoundRect,0.250000X0.325005X-0.272712X0.272712X0.325005X-0.325005X0.272712X-0.272712X-0.325005X0*%
%ADD16RoundRect,0.200000X0.200000X0.800000X-0.200000X0.800000X-0.200000X-0.800000X0.200000X-0.800000X0*%
%ADD17RoundRect,0.140000X0.170000X-0.140000X0.170000X0.140000X-0.170000X0.140000X-0.170000X-0.140000X0*%
%ADD18RoundRect,0.140000X-0.170000X0.140000X-0.170000X-0.140000X0.170000X-0.140000X0.170000X0.140000X0*%
%ADD19RoundRect,0.150000X0.512500X0.150000X-0.512500X0.150000X-0.512500X-0.150000X0.512500X-0.150000X0*%
%ADD20RoundRect,0.250000X0.300000X-0.300000X0.300000X0.300000X-0.300000X0.300000X-0.300000X-0.300000X0*%
%ADD21RoundRect,0.135000X-0.135000X-0.185000X0.135000X-0.185000X0.135000X0.185000X-0.135000X0.185000X0*%
%ADD22R,1.700000X1.000000*%
%ADD23RoundRect,0.150000X-0.150000X-0.625000X0.150000X-0.625000X0.150000X0.625000X-0.150000X0.625000X0*%
%ADD24RoundRect,0.250000X-0.350000X-0.650000X0.350000X-0.650000X0.350000X0.650000X-0.350000X0.650000X0*%
%ADD25RoundRect,0.150000X-0.150000X-0.275000X0.150000X-0.275000X0.150000X0.275000X-0.150000X0.275000X0*%
%ADD26RoundRect,0.175000X-0.175000X-0.225000X0.175000X-0.225000X0.175000X0.225000X-0.175000X0.225000X0*%
%ADD27R,0.600000X1.450000*%
%ADD28R,0.300000X1.450000*%
%ADD29R,0.700000X1.000000*%
%ADD30R,0.700000X0.600000*%
%ADD31RoundRect,0.135000X0.185000X-0.135000X0.185000X0.135000X-0.185000X0.135000X-0.185000X-0.135000X0*%
%ADD32RoundRect,0.075000X0.662500X0.075000X-0.662500X0.075000X-0.662500X-0.075000X0.662500X-0.075000X0*%
%ADD33RoundRect,0.075000X0.075000X0.662500X-0.075000X0.662500X-0.075000X-0.662500X0.075000X-0.662500X0*%
G04 APERTURE END LIST*
D10*
%TO.C,U3*%
X179531250Y-50643750D03*
X179531250Y-52543750D03*
X177656250Y-51593750D03*
%TD*%
D11*
%TO.C,D15*%
X101621432Y-62389688D03*
X101865468Y-59600342D03*
%TD*%
%TO.C,D38*%
X74578912Y-98269310D03*
X74822948Y-95479964D03*
%TD*%
D12*
%TO.C,C2*%
X184150000Y-60325000D03*
X183190000Y-60325000D03*
%TD*%
D13*
%TO.C,F1*%
X184337500Y-44450000D03*
X187137500Y-44450000D03*
%TD*%
D11*
%TO.C,D27*%
X109449870Y-82197356D03*
X109693906Y-79408010D03*
%TD*%
D14*
%TO.C,C8*%
X197643750Y-56356250D03*
X198603750Y-56356250D03*
%TD*%
D15*
%TO.C,D34*%
X272644225Y-80428062D03*
X272400189Y-77638716D03*
%TD*%
D11*
%TO.C,D30*%
X166382397Y-87178306D03*
X166626433Y-84388960D03*
%TD*%
D16*
%TO.C,SW2*%
X194981250Y-44450000D03*
X190781250Y-44450000D03*
%TD*%
D17*
%TO.C,C5*%
X184150000Y-52073750D03*
X184150000Y-51113750D03*
%TD*%
D11*
%TO.C,D40*%
X138628005Y-103872879D03*
X138872041Y-101083533D03*
%TD*%
D18*
%TO.C,C9*%
X175418750Y-51113750D03*
X175418750Y-52073750D03*
%TD*%
D19*
%TO.C,U4*%
X164650000Y-91918750D03*
X164650000Y-92868750D03*
X164650000Y-93818750D03*
X162375000Y-93818750D03*
X162375000Y-91918750D03*
%TD*%
D15*
%TO.C,D36*%
X310599243Y-77107428D03*
X310355207Y-74318082D03*
%TD*%
D11*
%TO.C,D29*%
X147404888Y-85517989D03*
X147648924Y-82728643D03*
%TD*%
D15*
%TO.C,D7*%
X217135441Y-47038915D03*
X216891405Y-44249569D03*
%TD*%
%TO.C,D20*%
X242517645Y-63941028D03*
X242273609Y-61151682D03*
%TD*%
%TO.C,D43*%
X271584518Y-99819673D03*
X271340482Y-97030327D03*
%TD*%
%TO.C,D21*%
X261495154Y-62280711D03*
X261251118Y-59491365D03*
%TD*%
D20*
%TO.C,D48*%
X190048500Y-102772500D03*
X190048500Y-99972500D03*
%TD*%
D11*
%TO.C,D17*%
X139576450Y-65710322D03*
X139820486Y-62920976D03*
%TD*%
D14*
%TO.C,C3*%
X197643750Y-57350000D03*
X198603750Y-57350000D03*
%TD*%
D11*
%TO.C,D13*%
X56549849Y-58446435D03*
X56793885Y-55657089D03*
%TD*%
D15*
%TO.C,D22*%
X280472663Y-60620394D03*
X280228627Y-57831048D03*
%TD*%
D11*
%TO.C,D2*%
X79559863Y-41336783D03*
X79803899Y-38547437D03*
%TD*%
%TO.C,D4*%
X117514881Y-44657417D03*
X117758917Y-41868071D03*
%TD*%
D15*
%TO.C,D42*%
X238247018Y-102933744D03*
X238002982Y-100144398D03*
%TD*%
D11*
%TO.C,D16*%
X120598941Y-64050005D03*
X120842977Y-61260659D03*
%TD*%
D15*
%TO.C,D47*%
X313653268Y-76800923D03*
X313409232Y-74011577D03*
%TD*%
%TO.C,D32*%
X234689207Y-83748696D03*
X234445171Y-80959350D03*
%TD*%
D11*
%TO.C,D6*%
X155469899Y-47978051D03*
X155713935Y-45188705D03*
%TD*%
%TO.C,D37*%
X50857026Y-96193914D03*
X51101062Y-93404568D03*
%TD*%
%TO.C,D26*%
X90472361Y-80537039D03*
X90716397Y-77747693D03*
%TD*%
D17*
%TO.C,C4*%
X196056250Y-52073750D03*
X196056250Y-51113750D03*
%TD*%
D15*
%TO.C,D23*%
X299450172Y-58960077D03*
X299206136Y-56170731D03*
%TD*%
D17*
%TO.C,C10*%
X181768750Y-52073750D03*
X181768750Y-51113750D03*
%TD*%
D15*
%TO.C,D46*%
X315240768Y-95850923D03*
X314996732Y-93061577D03*
%TD*%
D11*
%TO.C,D28*%
X128427379Y-83857672D03*
X128671415Y-81068326D03*
%TD*%
D21*
%TO.C,R2*%
X188686250Y-39687500D03*
X189706250Y-39687500D03*
%TD*%
D11*
%TO.C,D25*%
X59633909Y-77839024D03*
X59877945Y-75049678D03*
%TD*%
D22*
%TO.C,LED1*%
X166262499Y-99918749D03*
X166262499Y-98518749D03*
X160762499Y-98518749D03*
X160762499Y-99918749D03*
%TD*%
D15*
%TO.C,D33*%
X253666716Y-82088379D03*
X253422680Y-79299033D03*
%TD*%
%TO.C,D35*%
X291621734Y-78767745D03*
X291377698Y-75978399D03*
%TD*%
D11*
%TO.C,D14*%
X82643923Y-60729371D03*
X82887959Y-57940025D03*
%TD*%
D23*
%TO.C,J3*%
X169156250Y-55598750D03*
X170156250Y-55598750D03*
X171156250Y-55598750D03*
X172156250Y-55598750D03*
D24*
X167856250Y-51723750D03*
X173456250Y-51723750D03*
%TD*%
D11*
%TO.C,D3*%
X98537372Y-42997100D03*
X98781408Y-40207754D03*
%TD*%
%TO.C,D18*%
X158553959Y-67370639D03*
X158797995Y-64581293D03*
%TD*%
D15*
%TO.C,D45*%
X312259560Y-96084937D03*
X312015524Y-93295591D03*
%TD*%
D21*
%TO.C,R1*%
X172243750Y-39687500D03*
X173263750Y-39687500D03*
%TD*%
D20*
%TO.C,D41*%
X189706250Y-74425000D03*
X189706250Y-71625000D03*
%TD*%
D25*
%TO.C,J4*%
X168856250Y-54262500D03*
X170056250Y-54262500D03*
X171256250Y-54262500D03*
X172456250Y-54262500D03*
D26*
X167706250Y-50487500D03*
X173606250Y-50487500D03*
%TD*%
D15*
%TO.C,D10*%
X274067968Y-42057964D03*
X273823932Y-39268618D03*
%TD*%
D27*
%TO.C,J1*%
X177724999Y-41351249D03*
X178524999Y-41351249D03*
D28*
X179724999Y-41351249D03*
X180724999Y-41351249D03*
X181224999Y-41351249D03*
X182224999Y-41351249D03*
D27*
X183424999Y-41351249D03*
X184224999Y-41351249D03*
X184224999Y-41351249D03*
X183424999Y-41351249D03*
D28*
X182724999Y-41351249D03*
X181724999Y-41351249D03*
X180224999Y-41351249D03*
X179224999Y-41351249D03*
D27*
X178524999Y-41351249D03*
X177724999Y-41351249D03*
%TD*%
D17*
%TO.C,C11*%
X160737500Y-93348750D03*
X160737500Y-92388750D03*
%TD*%
D11*
%TO.C,D5*%
X136492390Y-46317734D03*
X136736426Y-43528388D03*
%TD*%
%TO.C,D1*%
X55837977Y-39261387D03*
X56082013Y-36472041D03*
%TD*%
D29*
%TO.C,U2*%
X179974999Y-45993749D03*
D30*
X179974999Y-44293749D03*
X181974999Y-44293749D03*
X181974999Y-46193749D03*
%TD*%
D15*
%TO.C,D31*%
X215711698Y-85409012D03*
X215467662Y-82619666D03*
%TD*%
%TO.C,D9*%
X255090459Y-43718281D03*
X254846423Y-40928935D03*
%TD*%
D31*
%TO.C,R3*%
X188912500Y-44960000D03*
X188912500Y-43940000D03*
%TD*%
D12*
%TO.C,C1*%
X186217500Y-46037500D03*
X185257500Y-46037500D03*
%TD*%
D11*
%TO.C,D39*%
X98300799Y-100344706D03*
X98544835Y-97555360D03*
%TD*%
D32*
%TO.C,U1*%
X193868750Y-53606250D03*
X193868750Y-54106250D03*
X193868750Y-54606250D03*
X193868750Y-55106250D03*
X193868750Y-55606250D03*
X193868750Y-56106250D03*
X193868750Y-56606250D03*
X193868750Y-57106250D03*
X193868750Y-57606250D03*
X193868750Y-58106250D03*
X193868750Y-58606250D03*
X193868750Y-59106250D03*
D33*
X192456250Y-60518750D03*
X191956250Y-60518750D03*
X191456250Y-60518750D03*
X190956250Y-60518750D03*
X190456250Y-60518750D03*
X189956250Y-60518750D03*
X189456250Y-60518750D03*
X188956250Y-60518750D03*
X188456250Y-60518750D03*
X187956250Y-60518750D03*
X187456250Y-60518750D03*
X186956250Y-60518750D03*
D32*
X185543750Y-59106250D03*
X185543750Y-58606250D03*
X185543750Y-58106250D03*
X185543750Y-57606250D03*
X185543750Y-57106250D03*
X185543750Y-56606250D03*
X185543750Y-56106250D03*
X185543750Y-55606250D03*
X185543750Y-55106250D03*
X185543750Y-54606250D03*
X185543750Y-54106250D03*
X185543750Y-53606250D03*
D33*
X186956250Y-52193750D03*
X187456250Y-52193750D03*
X187956250Y-52193750D03*
X188456250Y-52193750D03*
X188956250Y-52193750D03*
X189456250Y-52193750D03*
X189956250Y-52193750D03*
X190456250Y-52193750D03*
X190956250Y-52193750D03*
X191456250Y-52193750D03*
X191956250Y-52193750D03*
X192456250Y-52193750D03*
%TD*%
D17*
%TO.C,C7*%
X182929419Y-52073750D03*
X182929419Y-51113750D03*
%TD*%
D15*
%TO.C,D8*%
X236112950Y-45378598D03*
X235868914Y-42589252D03*
%TD*%
%TO.C,D12*%
X319139552Y-38114712D03*
X318895516Y-35325366D03*
%TD*%
%TO.C,D19*%
X223540136Y-65601345D03*
X223296100Y-62811999D03*
%TD*%
%TO.C,D24*%
X323172058Y-56884681D03*
X322928022Y-54095335D03*
%TD*%
D17*
%TO.C,C6*%
X195062500Y-52073750D03*
X195062500Y-51113750D03*
%TD*%
D22*
%TO.C,LED2*%
X201187499Y-99918749D03*
X201187499Y-98518749D03*
X195687499Y-98518749D03*
X195687499Y-99918749D03*
%TD*%
D15*
%TO.C,D11*%
X293045477Y-40397648D03*
X292801441Y-37608302D03*
%TD*%
%TO.C,D44*%
X293282051Y-97745254D03*
X293038015Y-94955908D03*
%TD*%
M02*
