%TF.GenerationSoftware,KiCad,Pcbnew,(7.0.0)*%
%TF.CreationDate,2024-04-20T20:03:52+02:00*%
%TF.ProjectId,Arrowhead,4172726f-7768-4656-9164-2e6b69636164,rev?*%
%TF.SameCoordinates,Original*%
%TF.FileFunction,Profile,NP*%
%FSLAX46Y46*%
G04 Gerber Fmt 4.6, Leading zero omitted, Abs format (unit mm)*
G04 Created by KiCad (PCBNEW (7.0.0)) date 2024-04-20 20:03:52*
%MOMM*%
%LPD*%
G01*
G04 APERTURE LIST*
%TA.AperFunction,Profile*%
%ADD10C,0.100000*%
%TD*%
%TA.AperFunction,Profile*%
%ADD11C,0.050000*%
%TD*%
%TA.AperFunction,Profile*%
%ADD12C,0.120000*%
%TD*%
G04 APERTURE END LIST*
D10*
X332899667Y-100165688D02*
G75*
G03*
X333451034Y-99495245I-81856J629259D01*
G01*
X28421489Y-99481306D02*
G75*
G03*
X28972856Y-100151749I633223J-41184D01*
G01*
X326907776Y-24792098D02*
G75*
G03*
X326237333Y-24240731I-629259J-81856D01*
G01*
X35635445Y-24245880D02*
G75*
G03*
X34965002Y-24797247I-41185J-633222D01*
G01*
X205463302Y-34931361D02*
X156486697Y-34918638D01*
X205463302Y-34931361D02*
X326237333Y-24240730D01*
X326907777Y-24792098D02*
X333451035Y-99495245D01*
X28972856Y-100151750D02*
X156459788Y-111303128D01*
X34965001Y-24797247D02*
X28421488Y-99481306D01*
X205436393Y-111315851D02*
X156459788Y-111303128D01*
X205436393Y-111315851D02*
X332899667Y-100165689D01*
X35635445Y-24245879D02*
X156486697Y-34918638D01*
D11*
%TO.C,EN1*%
X173275000Y-106760500D02*
X171475000Y-106760500D01*
X173575000Y-106460500D02*
X173575000Y-92364500D01*
X171175000Y-92364500D02*
X171175000Y-106460500D01*
X173275000Y-92064500D02*
X171475000Y-92064500D01*
X171175000Y-106460500D02*
G75*
G03*
X171475000Y-106760500I300000J0D01*
G01*
X173275000Y-106760500D02*
G75*
G03*
X173575000Y-106460500I0J300000D01*
G01*
X171475000Y-92064500D02*
G75*
G03*
X171175000Y-92364500I0J-300000D01*
G01*
X173575000Y-92364500D02*
G75*
G03*
X173275000Y-92064500I-300000J0D01*
G01*
D12*
%TO.C,LED1*%
X161712500Y-97668750D02*
X165312500Y-97668750D01*
X161712500Y-100768750D02*
X161712500Y-97668750D01*
X165312500Y-97668750D02*
X165312500Y-100768750D01*
X165312500Y-100768750D02*
X161712500Y-100768750D01*
%TO.C,LED2*%
X196637500Y-97668750D02*
X200237500Y-97668750D01*
X196637500Y-100768750D02*
X196637500Y-97668750D01*
X200237500Y-97668750D02*
X200237500Y-100768750D01*
X200237500Y-100768750D02*
X196637500Y-100768750D01*
%TD*%
M02*
