%TF.GenerationSoftware,KiCad,Pcbnew,(7.0.0)*%
%TF.CreationDate,2024-04-20T20:03:52+02:00*%
%TF.ProjectId,Arrowhead,4172726f-7768-4656-9164-2e6b69636164,rev?*%
%TF.SameCoordinates,Original*%
%TF.FileFunction,Other,Comment*%
%FSLAX46Y46*%
G04 Gerber Fmt 4.6, Leading zero omitted, Abs format (unit mm)*
G04 Created by KiCad (PCBNEW (7.0.0)) date 2024-04-20 20:03:52*
%MOMM*%
%LPD*%
G01*
G04 APERTURE LIST*
%ADD10C,0.150000*%
G04 APERTURE END LIST*
D10*
%TO.C,S3*%
X48699146Y-81722899D02*
X48786302Y-80726705D01*
X48786302Y-80726705D02*
X49056112Y-81467324D01*
X49056112Y-81467324D02*
X49450431Y-80784809D01*
X49450431Y-80784809D02*
X49363276Y-81781003D01*
X49829934Y-80818011D02*
X50406908Y-81872309D01*
X50494064Y-80876115D02*
X49742778Y-81814205D01*
X50540921Y-81979636D02*
X51299927Y-82046040D01*
X51502129Y-81920328D02*
X51592854Y-81976066D01*
X51592854Y-81976066D02*
X51782606Y-81992667D01*
X51782606Y-81992667D02*
X51881632Y-81953530D01*
X51881632Y-81953530D02*
X51937370Y-81862804D01*
X51937370Y-81862804D02*
X51941520Y-81815367D01*
X51941520Y-81815367D02*
X51902383Y-81716341D01*
X51902383Y-81716341D02*
X51811658Y-81660602D01*
X51811658Y-81660602D02*
X51669344Y-81648151D01*
X51669344Y-81648151D02*
X51578619Y-81592413D01*
X51578619Y-81592413D02*
X51539481Y-81493387D01*
X51539481Y-81493387D02*
X51543632Y-81445949D01*
X51543632Y-81445949D02*
X51599370Y-81355224D01*
X51599370Y-81355224D02*
X51698396Y-81316087D01*
X51698396Y-81316087D02*
X51840710Y-81328537D01*
X51840710Y-81328537D02*
X51931435Y-81384276D01*
X52267650Y-81365890D02*
X52647153Y-81399092D01*
X52439016Y-81046276D02*
X52364311Y-81900157D01*
X52364311Y-81900157D02*
X52403448Y-81999183D01*
X52403448Y-81999183D02*
X52494174Y-82054921D01*
X52494174Y-82054921D02*
X52589049Y-82063222D01*
X53348055Y-82129626D02*
X53393708Y-81607810D01*
X53393708Y-81607810D02*
X53354571Y-81508784D01*
X53354571Y-81508784D02*
X53263846Y-81453046D01*
X53263846Y-81453046D02*
X53074094Y-81436445D01*
X53074094Y-81436445D02*
X52975068Y-81475582D01*
X53352205Y-82082188D02*
X53253180Y-82121326D01*
X53253180Y-82121326D02*
X53015990Y-82100574D01*
X53015990Y-82100574D02*
X52925265Y-82044836D01*
X52925265Y-82044836D02*
X52886128Y-81945810D01*
X52886128Y-81945810D02*
X52894428Y-81850934D01*
X52894428Y-81850934D02*
X52950167Y-81760209D01*
X52950167Y-81760209D02*
X53049193Y-81721072D01*
X53049193Y-81721072D02*
X53286382Y-81741823D01*
X53286382Y-81741823D02*
X53385408Y-81702686D01*
X53822434Y-82171129D02*
X53909589Y-81174934D01*
X53876387Y-81554437D02*
X53975413Y-81515300D01*
X53975413Y-81515300D02*
X54165165Y-81531901D01*
X54165165Y-81531901D02*
X54255890Y-81587639D01*
X54255890Y-81587639D02*
X54299178Y-81639227D01*
X54299178Y-81639227D02*
X54338315Y-81738253D01*
X54338315Y-81738253D02*
X54313413Y-82022880D01*
X54313413Y-82022880D02*
X54257675Y-82113606D01*
X54257675Y-82113606D02*
X54206087Y-82156893D01*
X54206087Y-82156893D02*
X54107061Y-82196031D01*
X54107061Y-82196031D02*
X53917309Y-82179430D01*
X53917309Y-82179430D02*
X53826584Y-82123691D01*
%TO.C,S1*%
X129110047Y-91562613D02*
X129197203Y-90566419D01*
X129197203Y-90566419D02*
X129467013Y-91307038D01*
X129467013Y-91307038D02*
X129861332Y-90624523D01*
X129861332Y-90624523D02*
X129774177Y-91620717D01*
X130240835Y-90657725D02*
X130817809Y-91712023D01*
X130904965Y-90715829D02*
X130153679Y-91653919D01*
X130951822Y-91819350D02*
X131710828Y-91885754D01*
X131913030Y-91760042D02*
X132003755Y-91815780D01*
X132003755Y-91815780D02*
X132193507Y-91832381D01*
X132193507Y-91832381D02*
X132292533Y-91793244D01*
X132292533Y-91793244D02*
X132348271Y-91702518D01*
X132348271Y-91702518D02*
X132352421Y-91655081D01*
X132352421Y-91655081D02*
X132313284Y-91556055D01*
X132313284Y-91556055D02*
X132222559Y-91500316D01*
X132222559Y-91500316D02*
X132080245Y-91487865D01*
X132080245Y-91487865D02*
X131989520Y-91432127D01*
X131989520Y-91432127D02*
X131950382Y-91333101D01*
X131950382Y-91333101D02*
X131954533Y-91285663D01*
X131954533Y-91285663D02*
X132010271Y-91194938D01*
X132010271Y-91194938D02*
X132109297Y-91155801D01*
X132109297Y-91155801D02*
X132251611Y-91168251D01*
X132251611Y-91168251D02*
X132342336Y-91223990D01*
X132678551Y-91205604D02*
X133058054Y-91238806D01*
X132849917Y-90885990D02*
X132775212Y-91739871D01*
X132775212Y-91739871D02*
X132814349Y-91838897D01*
X132814349Y-91838897D02*
X132905075Y-91894635D01*
X132905075Y-91894635D02*
X132999950Y-91902936D01*
X133758956Y-91969340D02*
X133804609Y-91447524D01*
X133804609Y-91447524D02*
X133765472Y-91348498D01*
X133765472Y-91348498D02*
X133674747Y-91292760D01*
X133674747Y-91292760D02*
X133484995Y-91276159D01*
X133484995Y-91276159D02*
X133385969Y-91315296D01*
X133763106Y-91921902D02*
X133664081Y-91961040D01*
X133664081Y-91961040D02*
X133426891Y-91940288D01*
X133426891Y-91940288D02*
X133336166Y-91884550D01*
X133336166Y-91884550D02*
X133297029Y-91785524D01*
X133297029Y-91785524D02*
X133305329Y-91690648D01*
X133305329Y-91690648D02*
X133361068Y-91599923D01*
X133361068Y-91599923D02*
X133460094Y-91560786D01*
X133460094Y-91560786D02*
X133697283Y-91581537D01*
X133697283Y-91581537D02*
X133796309Y-91542400D01*
X134233335Y-92010843D02*
X134320490Y-91014648D01*
X134287288Y-91394151D02*
X134386314Y-91355014D01*
X134386314Y-91355014D02*
X134576066Y-91371615D01*
X134576066Y-91371615D02*
X134666791Y-91427353D01*
X134666791Y-91427353D02*
X134710079Y-91478941D01*
X134710079Y-91478941D02*
X134749216Y-91577967D01*
X134749216Y-91577967D02*
X134724314Y-91862594D01*
X134724314Y-91862594D02*
X134668576Y-91953320D01*
X134668576Y-91953320D02*
X134616988Y-91996607D01*
X134616988Y-91996607D02*
X134517962Y-92035745D01*
X134517962Y-92035745D02*
X134328210Y-92019144D01*
X134328210Y-92019144D02*
X134237485Y-91963405D01*
%TO.C,S2*%
X227208927Y-92048757D02*
X227121771Y-91052563D01*
X227121771Y-91052563D02*
X227516090Y-91735079D01*
X227516090Y-91735079D02*
X227785901Y-90994459D01*
X227785901Y-90994459D02*
X227873056Y-91990654D01*
X228165403Y-90961257D02*
X228916689Y-91899348D01*
X228829533Y-90903153D02*
X228252559Y-91957451D01*
X229067303Y-91981773D02*
X229826308Y-91915368D01*
X230003609Y-91756454D02*
X230102635Y-91795591D01*
X230102635Y-91795591D02*
X230292387Y-91778990D01*
X230292387Y-91778990D02*
X230383112Y-91723251D01*
X230383112Y-91723251D02*
X230422249Y-91624225D01*
X230422249Y-91624225D02*
X230418099Y-91576788D01*
X230418099Y-91576788D02*
X230362361Y-91486062D01*
X230362361Y-91486062D02*
X230263335Y-91446925D01*
X230263335Y-91446925D02*
X230121021Y-91459376D01*
X230121021Y-91459376D02*
X230021995Y-91420238D01*
X230021995Y-91420238D02*
X229966257Y-91329513D01*
X229966257Y-91329513D02*
X229962106Y-91282075D01*
X229962106Y-91282075D02*
X230001244Y-91183049D01*
X230001244Y-91183049D02*
X230091969Y-91127311D01*
X230091969Y-91127311D02*
X230234283Y-91114860D01*
X230234283Y-91114860D02*
X230333309Y-91153997D01*
X230661223Y-91077507D02*
X231040726Y-91044305D01*
X230774485Y-90732992D02*
X230849190Y-91586873D01*
X230849190Y-91586873D02*
X230904928Y-91677598D01*
X230904928Y-91677598D02*
X231003954Y-91716736D01*
X231003954Y-91716736D02*
X231098830Y-91708435D01*
X231857836Y-91642031D02*
X231812183Y-91120214D01*
X231812183Y-91120214D02*
X231756445Y-91029489D01*
X231756445Y-91029489D02*
X231657419Y-90990352D01*
X231657419Y-90990352D02*
X231467667Y-91006953D01*
X231467667Y-91006953D02*
X231376942Y-91062691D01*
X231853686Y-91594593D02*
X231762960Y-91650331D01*
X231762960Y-91650331D02*
X231525771Y-91671083D01*
X231525771Y-91671083D02*
X231426745Y-91631945D01*
X231426745Y-91631945D02*
X231371007Y-91541220D01*
X231371007Y-91541220D02*
X231362706Y-91446344D01*
X231362706Y-91446344D02*
X231401843Y-91347318D01*
X231401843Y-91347318D02*
X231492569Y-91291580D01*
X231492569Y-91291580D02*
X231729758Y-91270828D01*
X231729758Y-91270828D02*
X231820483Y-91215090D01*
X232332214Y-91600528D02*
X232245059Y-90604333D01*
X232278261Y-90983836D02*
X232368986Y-90928098D01*
X232368986Y-90928098D02*
X232558738Y-90911496D01*
X232558738Y-90911496D02*
X232657764Y-90950634D01*
X232657764Y-90950634D02*
X232709352Y-90993921D01*
X232709352Y-90993921D02*
X232765090Y-91084647D01*
X232765090Y-91084647D02*
X232789992Y-91369274D01*
X232789992Y-91369274D02*
X232750854Y-91468300D01*
X232750854Y-91468300D02*
X232707567Y-91519888D01*
X232707567Y-91519888D02*
X232616842Y-91575626D01*
X232616842Y-91575626D02*
X232427090Y-91592227D01*
X232427090Y-91592227D02*
X232328064Y-91553090D01*
%TD*%
M02*
